<svg width="5109" height="1430" viewBox="0 0 5109 1430" fill="none" xmlns="http://www.w3.org/2000/svg">
<path d="M4060.59 120.233C4289.32 87.6148 4173.33 314.012 4776.31 407.761C5379.29 501.511 4847.76 1158.44 4619.36 951.356C4390.96 744.273 4043.86 522.058 3758.07 841.864C3429.72 1232.78 3151.88 1279.17 2837.73 934.49C2461.62 563.02 2305.51 528.392 1978.69 914.166C1978.69 914.166 1564.05 1489.45 1107.39 914.166C745.176 530.153 553.699 522.371 233.943 897.825" stroke="#93708C" stroke-width="8"/>
<g filter="url(#filter0_d)">
<circle cx="652.442" cy="703.898" r="250" fill="#EED9EA"/>
<circle cx="652.442" cy="703.898" r="246" stroke="#93708C" stroke-width="8"/>
</g>
<circle cx="1511.44" cy="1164.81" r="200.215" fill="#E9E2E8"/>
<circle cx="2361.95" cy="646.522" r="200" fill="#E9E2E8"/>
<circle cx="3209.45" cy="1169.85" r="200" fill="#E9E2E8"/>
<circle cx="4071" cy="667.522" r="200" fill="#E9E2E8"/>
<path d="M481.144 733.6V727.336H492.664V691.48L483.664 697.096L480.64 691.552L494.824 682.84H500.08V727.336H510.88V733.6H481.144ZM520.14 733.6V725.032H528.708V733.6H520.14ZM562.882 733.6V682.84H580.81C589.162 682.84 595.594 685.024 600.106 689.392C604.666 693.76 606.946 700.024 606.946 708.184C606.946 716.344 604.666 722.632 600.106 727.048C595.594 731.416 589.162 733.6 580.81 733.6H562.882ZM570.37 727.336H580.378C592.906 727.336 599.17 720.952 599.17 708.184C599.17 695.464 592.906 689.104 580.378 689.104H570.37V727.336ZM615.512 690.328V682.768H624.008V690.328H615.512ZM616.16 733.6V698.464H623.432V733.6H616.16ZM645.98 734.248C643.1 734.248 640.412 733.888 637.916 733.168C635.42 732.4 633.332 731.344 631.652 730L633.74 725.104C635.516 726.352 637.46 727.312 639.572 727.984C641.732 728.656 643.892 728.992 646.052 728.992C648.596 728.992 650.516 728.536 651.812 727.624C653.108 726.712 653.756 725.488 653.756 723.952C653.756 722.704 653.324 721.744 652.46 721.072C651.596 720.352 650.3 719.8 648.572 719.416L641.732 718.048C635.684 716.8 632.66 713.68 632.66 708.688C632.66 705.376 633.98 702.736 636.62 700.768C639.26 698.8 642.716 697.816 646.988 697.816C649.436 697.816 651.764 698.176 653.972 698.896C656.228 699.616 658.1 700.696 659.588 702.136L657.5 707.032C656.06 705.784 654.404 704.824 652.532 704.152C650.66 703.48 648.812 703.144 646.988 703.144C644.492 703.144 642.596 703.624 641.3 704.584C640.004 705.496 639.356 706.744 639.356 708.328C639.356 710.728 640.94 712.264 644.108 712.936L650.948 714.304C654.068 714.928 656.42 715.984 658.004 717.472C659.636 718.96 660.452 720.976 660.452 723.52C660.452 726.88 659.132 729.52 656.492 731.44C653.852 733.312 650.348 734.248 645.98 734.248ZM684.023 734.248C680.423 734.248 677.303 733.504 674.663 732.016C672.071 730.48 670.055 728.344 668.615 725.608C667.175 722.824 666.455 719.56 666.455 715.816C666.455 710.248 668.039 705.856 671.207 702.64C674.375 699.424 678.647 697.816 684.023 697.816C686.231 697.816 688.415 698.2 690.575 698.968C692.735 699.736 694.511 700.792 695.903 702.136L693.599 707.248C692.255 706 690.767 705.088 689.135 704.512C687.551 703.888 686.039 703.576 684.599 703.576C681.191 703.576 678.551 704.656 676.679 706.816C674.855 708.928 673.943 711.952 673.943 715.888C673.943 719.824 674.855 722.92 676.679 725.176C678.551 727.384 681.191 728.488 684.599 728.488C686.039 728.488 687.551 728.2 689.135 727.624C690.767 727 692.255 726.064 693.599 724.816L695.903 730C694.511 731.296 692.711 732.328 690.503 733.096C688.343 733.864 686.183 734.248 684.023 734.248ZM716.713 734.248C713.161 734.248 710.089 733.504 707.497 732.016C704.905 730.528 702.889 728.44 701.449 725.752C700.057 723.016 699.361 719.776 699.361 716.032C699.361 712.288 700.057 709.072 701.449 706.384C702.889 703.648 704.905 701.536 707.497 700.048C710.089 698.56 713.161 697.816 716.713 697.816C720.169 697.816 723.193 698.56 725.785 700.048C728.377 701.536 730.393 703.648 731.833 706.384C733.273 709.072 733.993 712.288 733.993 716.032C733.993 719.776 733.273 723.016 731.833 725.752C730.393 728.44 728.377 730.528 725.785 732.016C723.193 733.504 720.169 734.248 716.713 734.248ZM716.713 728.632C719.689 728.632 722.089 727.552 723.913 725.392C725.737 723.232 726.649 720.112 726.649 716.032C726.649 711.952 725.737 708.856 723.913 706.744C722.089 704.584 719.689 703.504 716.713 703.504C713.689 703.504 711.265 704.584 709.441 706.744C707.617 708.856 706.705 711.952 706.705 716.032C706.705 720.112 707.617 723.232 709.441 725.392C711.265 727.552 713.689 728.632 716.713 728.632ZM751.823 733.6L736.703 698.464H744.551L755.279 725.176L766.295 698.464H773.711L758.375 733.6H751.823ZM794.788 734.248C789.028 734.248 784.492 732.64 781.18 729.424C777.868 726.16 776.212 721.72 776.212 716.104C776.212 712.504 776.932 709.336 778.372 706.6C779.86 703.816 781.9 701.656 784.492 700.12C787.084 698.584 790.06 697.816 793.42 697.816C798.268 697.816 802.084 699.376 804.868 702.496C807.652 705.568 809.044 709.816 809.044 715.24V717.688H783.268C783.796 724.984 787.66 728.632 794.86 728.632C796.876 728.632 798.844 728.32 800.764 727.696C802.732 727.072 804.58 726.04 806.308 724.6L808.468 729.64C806.884 731.08 804.844 732.208 802.348 733.024C799.852 733.84 797.332 734.248 794.788 734.248ZM793.708 702.928C790.684 702.928 788.284 703.864 786.508 705.736C784.732 707.608 783.652 710.104 783.268 713.224H802.924C802.78 709.96 801.916 707.44 800.332 705.664C798.748 703.84 796.54 702.928 793.708 702.928ZM816.972 733.6V698.464H824.028V704.728C825.852 700.552 829.644 698.224 835.404 697.744L837.78 697.6L838.284 703.792L833.892 704.224C827.508 704.848 824.316 708.136 824.316 714.088V733.6H816.972Z" fill="black"/>
<path d="M1394.6 1181.64H1417.96V1186.31H1389.54V1180.36C1389.54 1175.62 1391.33 1172.14 1394.92 1169.92C1396.07 1169.2 1397.35 1168.56 1398.76 1168L1406.69 1164.8C1410.79 1163.18 1412.84 1160.52 1412.84 1156.8C1412.84 1154.76 1412.13 1153.09 1410.72 1151.81C1409.32 1150.49 1407.33 1149.83 1404.77 1149.83C1402.26 1149.83 1400.19 1150.36 1398.56 1151.43C1396.99 1152.49 1396.07 1154.09 1395.81 1156.23H1390.24C1390.46 1152.73 1391.87 1150.04 1394.47 1148.16C1397.07 1146.29 1400.4 1145.35 1404.45 1145.35C1408.55 1145.35 1411.88 1146.46 1414.44 1148.68C1417 1150.89 1418.28 1153.65 1418.28 1156.93C1418.28 1160.17 1417.42 1162.76 1415.72 1164.68C1414.05 1166.6 1411.75 1168.13 1408.8 1169.28L1400.68 1172.55C1398.63 1173.4 1397.09 1174.38 1396.07 1175.49C1395.09 1176.56 1394.6 1177.97 1394.6 1179.72V1181.64ZM1428.2 1186.88C1427.13 1186.88 1426.24 1186.54 1425.51 1185.86C1424.83 1185.13 1424.49 1184.28 1424.49 1183.3C1424.49 1182.28 1424.83 1181.42 1425.51 1180.74C1426.24 1180.01 1427.13 1179.65 1428.2 1179.65C1429.31 1179.65 1430.23 1180.01 1430.95 1180.74C1431.68 1181.42 1432.04 1182.28 1432.04 1183.3C1432.04 1184.28 1431.68 1185.13 1430.95 1185.86C1430.23 1186.54 1429.31 1186.88 1428.2 1186.88ZM1467.5 1146.05C1473.56 1146.05 1478.4 1147.89 1482.02 1151.56C1485.69 1155.18 1487.53 1160.07 1487.53 1166.21C1487.53 1172.31 1485.69 1177.2 1482.02 1180.87C1478.4 1184.49 1473.56 1186.31 1467.5 1186.31H1455.66V1146.05H1467.5ZM1460.71 1181.89H1467.5C1471.98 1181.89 1475.54 1180.42 1478.18 1177.48C1480.83 1174.49 1482.15 1170.71 1482.15 1166.15C1482.15 1161.58 1480.81 1157.85 1478.12 1154.95C1475.48 1152 1471.93 1150.53 1467.5 1150.53H1460.71V1181.89ZM1508.59 1182.92C1512.82 1182.92 1515.23 1181.06 1515.83 1177.35H1521.01C1520.54 1180.42 1519.17 1182.81 1516.91 1184.52C1514.69 1186.18 1511.92 1187.01 1508.59 1187.01C1504.5 1187.01 1501.17 1185.56 1498.61 1182.66C1496.05 1179.72 1494.77 1175.81 1494.77 1170.95C1494.77 1166.08 1496.05 1162.2 1498.61 1159.3C1501.21 1156.4 1504.65 1154.95 1508.91 1154.95C1513.22 1154.95 1516.42 1156.61 1518.51 1159.94C1520.65 1163.27 1521.39 1167.32 1520.75 1172.1H1499.83C1499.83 1175.26 1500.59 1177.86 1502.13 1179.91C1503.67 1181.91 1505.82 1182.92 1508.59 1182.92ZM1512.31 1159.75C1511.32 1159.24 1510.13 1158.98 1508.72 1158.98C1506.12 1158.98 1504.05 1159.88 1502.51 1161.67C1501.02 1163.42 1500.15 1165.61 1499.89 1168.26H1516.21C1516.21 1163.99 1514.91 1161.16 1512.31 1159.75ZM1545.82 1147.01C1544.41 1146.46 1543.3 1146.18 1542.49 1146.18C1541 1146.18 1539.82 1146.54 1538.97 1147.27C1538.12 1147.99 1537.69 1149.27 1537.69 1151.11V1155.72H1544.03V1159.17H1537.69V1186.31H1532.7V1159.17H1527.64V1155.72H1532.7V1151.04C1532.7 1148.01 1533.53 1145.8 1535.19 1144.39C1536.86 1142.94 1538.78 1142.21 1540.95 1142.21C1543.13 1142.21 1545.05 1142.49 1546.71 1143.04L1545.82 1147.01ZM1553.23 1155.65H1558.28V1186.31H1553.23V1155.65ZM1555.72 1148.48C1554.7 1148.48 1553.89 1148.21 1553.29 1147.65C1552.74 1147.05 1552.46 1146.29 1552.46 1145.35C1552.46 1144.37 1552.74 1143.6 1553.29 1143.04C1553.89 1142.45 1554.7 1142.15 1555.72 1142.15C1556.75 1142.15 1557.56 1142.45 1558.16 1143.04C1558.8 1143.6 1559.12 1144.37 1559.12 1145.35C1559.12 1146.29 1558.8 1147.05 1558.16 1147.65C1557.56 1148.21 1556.75 1148.48 1555.72 1148.48ZM1576.9 1161.6C1578.9 1157.17 1582.34 1154.95 1587.2 1154.95C1590.83 1154.95 1593.64 1156.14 1595.65 1158.53C1597.7 1160.92 1598.72 1164.18 1598.72 1168.32V1186.31H1593.73V1168.32C1593.73 1165.38 1593.03 1163.16 1591.62 1161.67C1590.25 1160.17 1588.29 1159.43 1585.73 1159.43C1583.17 1159.43 1581.1 1160.47 1579.52 1162.56C1577.94 1164.65 1577.11 1167.56 1577.03 1171.27V1186.31H1571.97V1155.72H1576.32L1576.9 1161.6ZM1621.16 1182.92C1625.38 1182.92 1627.79 1181.06 1628.39 1177.35H1633.57C1633.1 1180.42 1631.74 1182.81 1629.48 1184.52C1627.26 1186.18 1624.48 1187.01 1621.16 1187.01C1617.06 1187.01 1613.73 1185.56 1611.17 1182.66C1608.61 1179.72 1607.33 1175.81 1607.33 1170.95C1607.33 1166.08 1608.61 1162.2 1611.17 1159.3C1613.77 1156.4 1617.21 1154.95 1621.48 1154.95C1625.79 1154.95 1628.99 1156.61 1631.08 1159.94C1633.21 1163.27 1633.96 1167.32 1633.32 1172.1H1612.39C1612.39 1175.26 1613.16 1177.86 1614.69 1179.91C1616.23 1181.91 1618.38 1182.92 1621.16 1182.92ZM1624.87 1159.75C1623.89 1159.24 1622.69 1158.98 1621.28 1158.98C1618.68 1158.98 1616.61 1159.88 1615.08 1161.67C1613.58 1163.42 1612.71 1165.61 1612.45 1168.26H1628.77C1628.77 1163.99 1627.47 1161.16 1624.87 1159.75Z" fill="black"/>
<path d="M2246.27 638.07C2246.27 642.337 2243.92 645.302 2239.23 646.966C2241.79 647.691 2243.85 648.886 2245.43 650.55C2247.01 652.214 2247.8 654.347 2247.8 656.95C2247.8 660.491 2246.46 663.35 2243.77 665.526C2241.08 667.659 2237.54 668.726 2233.15 668.726C2228.75 668.726 2225 667.595 2221.88 665.334C2218.81 663.03 2217.27 659.809 2217.27 655.67H2222.52C2222.61 658.401 2223.61 660.491 2225.53 661.942C2227.49 663.393 2229.97 664.118 2232.95 664.118C2235.94 664.118 2238.24 663.414 2239.87 662.006C2241.53 660.555 2242.36 658.785 2242.36 656.694C2242.36 654.561 2241.57 652.833 2239.99 651.51C2238.41 650.145 2235.85 649.462 2232.31 649.462H2227.71V645.43H2230.84C2233.91 645.43 2236.35 644.833 2238.14 643.638C2239.93 642.401 2240.83 640.758 2240.83 638.71C2240.83 636.662 2240.1 634.977 2238.65 633.654C2237.2 632.331 2235.28 631.67 2232.89 631.67C2230.5 631.67 2228.49 632.097 2226.87 632.95C2225.29 633.761 2224.23 635.297 2223.67 637.558H2218.43C2218.89 634.017 2220.37 631.393 2222.84 629.686C2225.32 627.937 2228.49 627.062 2232.38 627.062C2236.3 627.062 2239.59 628.107 2242.23 630.198C2244.92 632.246 2246.27 634.87 2246.27 638.07ZM2257.39 668.598C2256.32 668.598 2255.43 668.257 2254.7 667.574C2254.02 666.849 2253.68 665.995 2253.68 665.014C2253.68 663.99 2254.02 663.137 2254.7 662.454C2255.43 661.729 2256.32 661.366 2257.39 661.366C2258.5 661.366 2259.42 661.729 2260.14 662.454C2260.87 663.137 2261.23 663.99 2261.23 665.014C2261.23 665.995 2260.87 666.849 2260.14 667.574C2259.42 668.257 2258.5 668.598 2257.39 668.598ZM2296.69 627.766C2302.74 627.766 2307.59 629.601 2311.21 633.27C2314.88 636.897 2316.72 641.782 2316.72 647.926C2316.72 654.027 2314.88 658.913 2311.21 662.582C2307.59 666.209 2302.74 668.022 2296.69 668.022H2284.85V627.766H2296.69ZM2289.9 663.606H2296.69C2301.17 663.606 2304.73 662.134 2307.37 659.19C2310.02 656.203 2311.34 652.427 2311.34 647.862C2311.34 643.297 2310 639.563 2307.31 636.662C2304.66 633.718 2301.12 632.246 2296.69 632.246H2289.9V663.606ZM2337.78 664.63C2342.01 664.63 2344.42 662.774 2345.01 659.062H2350.2C2349.73 662.134 2348.36 664.523 2346.1 666.23C2343.88 667.894 2341.11 668.726 2337.78 668.726C2333.69 668.726 2330.36 667.275 2327.8 664.374C2325.24 661.43 2323.96 657.526 2323.96 652.662C2323.96 647.798 2325.24 643.915 2327.8 641.014C2330.4 638.113 2333.84 636.662 2338.1 636.662C2342.41 636.662 2345.61 638.326 2347.7 641.654C2349.84 644.982 2350.58 649.035 2349.94 653.814H2329.01C2329.01 656.971 2329.78 659.574 2331.32 661.622C2332.85 663.627 2335.01 664.63 2337.78 664.63ZM2341.49 641.462C2340.51 640.95 2339.32 640.694 2337.91 640.694C2335.31 640.694 2333.24 641.59 2331.7 643.382C2330.21 645.131 2329.33 647.329 2329.08 649.974H2345.4C2345.4 645.707 2344.1 642.87 2341.49 641.462ZM2360.54 637.43L2369.76 662.71L2379.04 637.43H2384.74L2372.58 668.022H2367.01L2354.85 637.43H2360.54ZM2402.91 664.63C2407.13 664.63 2409.54 662.774 2410.14 659.062H2415.32C2414.85 662.134 2413.49 664.523 2411.23 666.23C2409.01 667.894 2406.23 668.726 2402.91 668.726C2398.81 668.726 2395.48 667.275 2392.92 664.374C2390.36 661.43 2389.08 657.526 2389.08 652.662C2389.08 647.798 2390.36 643.915 2392.92 641.014C2395.53 638.113 2398.96 636.662 2403.23 636.662C2407.54 636.662 2410.74 638.326 2412.83 641.654C2414.96 644.982 2415.71 649.035 2415.07 653.814H2394.14C2394.14 656.971 2394.91 659.574 2396.44 661.622C2397.98 663.627 2400.13 664.63 2402.91 664.63ZM2406.62 641.462C2405.64 640.95 2404.44 640.694 2403.03 640.694C2400.43 640.694 2398.36 641.59 2396.83 643.382C2395.33 645.131 2394.46 647.329 2394.2 649.974H2410.52C2410.52 645.707 2409.22 642.87 2406.62 641.462ZM2425.28 624.438H2430.34V668.022H2425.28V624.438ZM2454.23 636.662C2458.5 636.662 2461.93 638.049 2464.53 640.822C2467.18 643.595 2468.5 647.563 2468.5 652.726C2468.5 657.846 2467.18 661.793 2464.53 664.566C2461.93 667.339 2458.5 668.726 2454.23 668.726C2449.96 668.726 2446.51 667.339 2443.86 664.566C2441.26 661.793 2439.96 657.846 2439.96 652.726C2439.96 647.563 2441.26 643.595 2443.86 640.822C2446.51 638.049 2449.96 636.662 2454.23 636.662ZM2463.38 652.726C2463.38 649.057 2462.61 646.198 2461.08 644.15C2459.54 642.059 2457.28 641.014 2454.29 641.014C2451.35 641.014 2449.09 642.059 2447.51 644.15C2445.93 646.198 2445.14 649.057 2445.14 652.726C2445.14 656.353 2445.89 659.211 2447.38 661.302C2448.88 663.35 2451.09 664.374 2454.04 664.374C2457.02 664.374 2459.33 663.35 2460.95 661.302C2462.57 659.211 2463.38 656.353 2463.38 652.726ZM2482.9 642.102C2484.9 638.475 2487.89 636.662 2491.86 636.662C2495.87 636.662 2499.19 638.134 2501.84 641.078C2504.53 644.022 2505.87 647.905 2505.87 652.726C2505.87 657.547 2504.53 661.43 2501.84 664.374C2499.15 667.275 2495.84 668.726 2491.92 668.726C2487.99 668.726 2485.09 667.254 2483.22 664.31V683.062H2478.16V637.43H2482.32L2482.9 642.102ZM2491.66 664.246C2494.05 664.246 2496.14 663.222 2497.94 661.174C2499.77 659.126 2500.69 656.331 2500.69 652.79C2500.69 649.206 2499.81 646.369 2498.06 644.278C2496.36 642.187 2494.27 641.142 2491.79 641.142C2489.32 641.142 2487.29 641.931 2485.71 643.51C2484.13 645.046 2483.3 647.137 2483.22 649.782V655.606C2483.22 658.294 2484.03 660.406 2485.65 661.942C2487.27 663.478 2489.27 664.246 2491.66 664.246Z" fill="black"/>
<path d="M3146.34 1145.48V1172.23H3153.32V1176.58H3146.34V1186.31H3141.41V1176.58H3120.61V1172.68L3141.67 1145.48H3146.34ZM3126.63 1172.68H3141.54V1153.48L3126.63 1172.68ZM3160.33 1186.88C3159.26 1186.88 3158.37 1186.54 3157.64 1185.86C3156.96 1185.13 3156.62 1184.28 3156.62 1183.3C3156.62 1182.28 3156.96 1181.42 3157.64 1180.74C3158.37 1180.01 3159.26 1179.65 3160.33 1179.65C3161.44 1179.65 3162.36 1180.01 3163.08 1180.74C3163.81 1181.42 3164.17 1182.28 3164.17 1183.3C3164.17 1184.28 3163.81 1185.13 3163.08 1185.86C3162.36 1186.54 3161.44 1186.88 3160.33 1186.88ZM3181.77 1146.05H3213.06V1150.4H3199.94V1186.31H3194.89V1150.4H3181.77V1146.05ZM3225.66 1182.92C3229.88 1182.92 3232.29 1181.06 3232.89 1177.35H3238.07C3237.61 1180.42 3236.24 1182.81 3233.98 1184.52C3231.76 1186.18 3228.99 1187.01 3225.66 1187.01C3221.56 1187.01 3218.23 1185.56 3215.67 1182.66C3213.11 1179.72 3211.83 1175.81 3211.83 1170.95C3211.83 1166.08 3213.11 1162.2 3215.67 1159.3C3218.28 1156.4 3221.71 1154.95 3225.98 1154.95C3230.29 1154.95 3233.49 1156.61 3235.58 1159.94C3237.71 1163.27 3238.46 1167.32 3237.82 1172.1H3216.89C3216.89 1175.26 3217.66 1177.86 3219.19 1179.91C3220.73 1181.91 3222.89 1182.92 3225.66 1182.92ZM3229.37 1159.75C3228.39 1159.24 3227.19 1158.98 3225.79 1158.98C3223.18 1158.98 3221.11 1159.88 3219.58 1161.67C3218.09 1163.42 3217.21 1165.61 3216.95 1168.26H3233.27C3233.27 1163.99 3231.97 1161.16 3229.37 1159.75ZM3246.44 1163.2C3246.44 1160.69 3247.5 1158.68 3249.64 1157.19C3251.81 1155.69 3254.73 1154.95 3258.4 1154.95C3262.07 1154.95 3264.93 1155.72 3266.98 1157.25C3269.07 1158.79 3270.16 1160.73 3270.24 1163.08H3265.32C3264.93 1160.3 3262.59 1158.92 3258.28 1158.92C3256.19 1158.92 3254.56 1159.38 3253.41 1160.32C3252.3 1161.26 3251.75 1162.29 3251.75 1163.4C3251.75 1164.46 3252.17 1165.38 3253.03 1166.15C3253.88 1166.87 3255.25 1167.51 3257.12 1168.07L3263.27 1170.12C3265.87 1170.93 3267.85 1171.97 3269.22 1173.25C3270.63 1174.49 3271.33 1176.22 3271.33 1178.44C3271.33 1180.61 3270.2 1182.6 3267.94 1184.39C3265.68 1186.14 3262.52 1187.01 3258.47 1187.01C3254.41 1187.01 3251.26 1186.12 3249 1184.32C3246.73 1182.49 3245.54 1180.14 3245.41 1177.28H3250.28C3250.36 1179.2 3251.13 1180.65 3252.58 1181.64C3254.07 1182.57 3255.93 1183.04 3258.15 1183.04C3260.37 1183.04 3262.2 1182.57 3263.65 1181.64C3265.1 1180.7 3265.83 1179.59 3265.83 1178.31C3265.83 1176.98 3265.4 1175.98 3264.55 1175.3C3263.69 1174.62 3262.31 1174.02 3260.39 1173.51L3254.44 1171.52C3249.1 1169.94 3246.44 1167.17 3246.44 1163.2ZM3297.72 1185.41C3294.05 1187.12 3290.71 1187.48 3287.68 1186.5C3285.5 1185.82 3283.96 1184.39 3283.07 1182.21C3282.6 1181.14 3282.36 1179.86 3282.36 1178.37V1159.56H3277.44V1155.72H3282.36V1147.2H3287.36V1155.72H3296.96V1159.56H3287.36V1178.31C3287.36 1181.42 3288.81 1182.98 3291.71 1182.98C3293.29 1182.98 3295.06 1182.6 3297.02 1181.83L3297.72 1185.41Z" fill="black"/>
<path d="M3965.83 675.966C3965.83 670.889 3962.52 668.35 3955.91 668.35H3945.09L3946.82 648.766H3969.15V653.374H3951.68L3950.59 664.958C3952.81 664.574 3954.92 664.382 3956.93 664.382C3961.32 664.382 3964.78 665.363 3967.3 667.326C3969.82 669.246 3971.07 672.169 3971.07 676.094C3971.07 680.019 3969.75 683.283 3967.11 685.886C3964.46 688.446 3961.05 689.726 3956.87 689.726C3952.68 689.726 3949.27 688.681 3946.63 686.59C3943.98 684.457 3942.66 681.534 3942.66 677.822H3947.71C3947.71 681.321 3949.51 683.603 3953.09 684.67C3954.2 684.969 3955.42 685.118 3956.74 685.118C3959.47 685.118 3961.67 684.265 3963.33 682.558C3964.99 680.809 3965.83 678.611 3965.83 675.966ZM3980.32 689.598C3979.25 689.598 3978.35 689.257 3977.63 688.574C3976.95 687.849 3976.61 686.995 3976.61 686.014C3976.61 684.99 3976.95 684.137 3977.63 683.454C3978.35 682.729 3979.25 682.366 3980.32 682.366C3981.43 682.366 3982.34 682.729 3983.07 683.454C3983.79 684.137 3984.16 684.99 3984.16 686.014C3984.16 686.995 3983.79 687.849 3983.07 688.574C3982.34 689.257 3981.43 689.598 3980.32 689.598ZM4019.61 648.766C4025.67 648.766 4030.51 650.601 4034.14 654.27C4037.81 657.897 4039.65 662.782 4039.65 668.926C4039.65 675.027 4037.81 679.913 4034.14 683.582C4030.51 687.209 4025.67 689.022 4019.61 689.022H4007.77V648.766H4019.61ZM4012.83 684.606H4019.61C4024.09 684.606 4027.66 683.134 4030.3 680.19C4032.95 677.203 4034.27 673.427 4034.27 668.862C4034.27 664.297 4032.93 660.563 4030.24 657.662C4027.59 654.718 4024.05 653.246 4019.61 653.246H4012.83V684.606ZM4060.71 685.63C4064.93 685.63 4067.34 683.774 4067.94 680.062H4073.13C4072.66 683.134 4071.29 685.523 4069.03 687.23C4066.81 688.894 4064.04 689.726 4060.71 689.726C4056.61 689.726 4053.29 688.275 4050.73 685.374C4048.17 682.43 4046.89 678.526 4046.89 673.662C4046.89 668.798 4048.17 664.915 4050.73 662.014C4053.33 659.113 4056.76 657.662 4061.03 657.662C4065.34 657.662 4068.54 659.326 4070.63 662.654C4072.76 665.982 4073.51 670.035 4072.87 674.814H4051.94C4051.94 677.971 4052.71 680.574 4054.25 682.622C4055.78 684.627 4057.94 685.63 4060.71 685.63ZM4064.42 662.462C4063.44 661.95 4062.25 661.694 4060.84 661.694C4058.23 661.694 4056.17 662.59 4054.63 664.382C4053.14 666.131 4052.26 668.329 4052.01 670.974H4068.33C4068.33 666.707 4067.02 663.87 4064.42 662.462ZM4083.09 645.438H4088.14V689.022H4083.09V645.438ZM4101.34 658.366H4106.4V689.022H4101.34V658.366ZM4103.84 651.198C4102.82 651.198 4102.01 650.921 4101.41 650.366C4100.85 649.769 4100.58 649.001 4100.58 648.062C4100.58 647.081 4100.85 646.313 4101.41 645.758C4102.01 645.161 4102.82 644.862 4103.84 644.862C4104.86 644.862 4105.68 645.161 4106.27 645.758C4106.91 646.313 4107.23 647.081 4107.23 648.062C4107.23 649.001 4106.91 649.769 4106.27 650.366C4105.68 650.921 4104.86 651.198 4103.84 651.198ZM4120.53 658.43L4129.75 683.71L4139.03 658.43H4144.73L4132.57 689.022H4127L4114.84 658.43H4120.53ZM4162.9 685.63C4167.12 685.63 4169.53 683.774 4170.13 680.062H4175.31C4174.84 683.134 4173.48 685.523 4171.22 687.23C4169 688.894 4166.23 689.726 4162.9 689.726C4158.8 689.726 4155.47 688.275 4152.91 685.374C4150.35 682.43 4149.07 678.526 4149.07 673.662C4149.07 668.798 4150.35 664.915 4152.91 662.014C4155.52 659.113 4158.95 657.662 4163.22 657.662C4167.53 657.662 4170.73 659.326 4172.82 662.654C4174.95 665.982 4175.7 670.035 4175.06 674.814H4154.13C4154.13 677.971 4154.9 680.574 4156.43 682.622C4157.97 684.627 4160.12 685.63 4162.9 685.63ZM4166.61 662.462C4165.63 661.95 4164.43 661.694 4163.03 661.694C4160.42 661.694 4158.35 662.59 4156.82 664.382C4155.32 666.131 4154.45 668.329 4154.19 670.974H4170.51C4170.51 666.707 4169.21 663.87 4166.61 662.462ZM4197.75 662.718C4192.93 662.718 4190.44 666.515 4190.27 674.11V689.022H4185.21V658.366H4190.27V664.254C4191.8 659.987 4194.51 657.854 4198.39 657.854C4199.63 657.854 4200.81 658.046 4201.91 658.43L4201.66 663.358C4200.38 662.931 4199.08 662.718 4197.75 662.718Z" fill="black"/>
<path d="M4071.4 182.572V90.1533L3997.06 136.363L4071.4 182.572Z" fill="#8EA7A4" stroke="black"/>
<path d="M4730.4 960.441L4764.64 1046.28L4816.57 975.822L4730.4 960.441Z" fill="#8EA7A4" stroke="black"/>
<path d="M1049.23 770.62L972.814 822.605L1052.83 858.074L1049.23 770.62Z" fill="#8EA7A4" stroke="black"/>
<path d="M162.016 914.361L238.129 966.784L242.238 879.351L162.016 914.361Z" fill="#8EA7A4" stroke="black"/>
<path d="M1874.75 961.323L1943.2 1023.42L1958.92 937.313L1874.75 961.323Z" fill="#8EA7A4" stroke="black"/>
<path d="M2772.55 793.407L2695.29 844.119L2774.71 880.909L2772.55 793.407Z" fill="#8EA7A4" stroke="black"/>
<path d="M3597.38 970.097L3676.78 1017.4L3675.12 929.883L3597.38 970.097Z" fill="#8EA7A4" stroke="black"/>
<defs>
<filter id="filter0_d" x="392.442" y="443.898" width="530" height="530" filterUnits="userSpaceOnUse" color-interpolation-filters="sRGB">
<feFlood flood-opacity="0" result="BackgroundImageFix"/>
<feColorMatrix in="SourceAlpha" type="matrix" values="0 0 0 0 0 0 0 0 0 0 0 0 0 0 0 0 0 0 127 0" result="hardAlpha"/>
<feMorphology radius="5" operator="dilate" in="SourceAlpha" result="effect1_dropShadow"/>
<feOffset dx="5" dy="5"/>
<feGaussianBlur stdDeviation="5"/>
<feComposite in2="hardAlpha" operator="out"/>
<feColorMatrix type="matrix" values="0 0 0 0 0.576471 0 0 0 0 0.439216 0 0 0 0 0.54902 0 0 0 0.3 0"/>
<feBlend mode="normal" in2="BackgroundImageFix" result="effect1_dropShadow"/>
<feBlend mode="normal" in="SourceGraphic" in2="effect1_dropShadow" result="shape"/>
</filter>
</defs>
</svg>
