<svg width="44" height="44" viewBox="0 0 44 44" fill="none" xmlns="http://www.w3.org/2000/svg">
<path d="M38.2067 8.45166C37.2703 7.51483 36.1585 6.77167 34.9349 6.26464C33.7112 5.75761 32.3996 5.49664 31.0751 5.49664C29.7505 5.49664 28.4389 5.75761 27.2152 6.26464C25.9916 6.77167 24.8798 7.51483 23.9434 8.45166L22.0001 10.395L20.0567 8.45166C18.1653 6.56022 15.5999 5.49762 12.9251 5.49762C10.2502 5.49762 7.68482 6.56022 5.79339 8.45166C3.90195 10.3431 2.83936 12.9084 2.83936 15.5833C2.83936 18.2582 3.90195 20.8236 5.79339 22.715L7.73672 24.6583L22.0001 38.9217L36.2634 24.6583L38.2067 22.715C39.1435 21.7786 39.8867 20.6668 40.3937 19.4431C40.9008 18.2195 41.1617 16.9079 41.1617 15.5833C41.1617 14.2588 40.9008 12.9472 40.3937 11.7235C39.8867 10.4998 39.1435 9.38804 38.2067 8.45166V8.45166Z" fill="url(#paint0_linear)"/>
<path d="M11.4845 25.1383C11.1365 25.1383 10.8605 25.0423 10.6565 24.8503C10.4645 24.6583 10.3685 24.3883 10.3685 24.0403V13.5463C10.3685 13.1983 10.4645 12.9283 10.6565 12.7363C10.8605 12.5443 11.1365 12.4483 11.4845 12.4483H15.0485C17.1245 12.4483 18.7325 13.0063 19.8725 14.1223C21.0245 15.2263 21.6005 16.7803 21.6005 18.7843C21.6005 20.8003 21.0245 22.3663 19.8725 23.4823C18.7325 24.5863 17.1245 25.1383 15.0485 25.1383H11.4845ZM14.9045 23.2483C17.8205 23.2483 19.2785 21.7603 19.2785 18.7843C19.2785 15.8203 17.8205 14.3383 14.9045 14.3383H12.6905V23.2483H14.9045ZM28.2768 25.3003C26.5368 25.3003 25.2168 24.8503 24.3168 23.9503C23.4168 23.0503 22.9668 21.7363 22.9668 20.0083V13.5103C22.9668 13.1623 23.0688 12.8863 23.2728 12.6823C23.4768 12.4663 23.7528 12.3583 24.1008 12.3583C24.4488 12.3583 24.7248 12.4663 24.9288 12.6823C25.1328 12.8863 25.2348 13.1623 25.2348 13.5103V20.1343C25.2348 21.2263 25.4928 22.0543 26.0088 22.6183C26.5248 23.1703 27.2808 23.4463 28.2768 23.4463C29.2608 23.4463 30.0108 23.1643 30.5268 22.6003C31.0428 22.0363 31.3008 21.2143 31.3008 20.1343V13.5103C31.3008 13.1623 31.4028 12.8863 31.6068 12.6823C31.8108 12.4663 32.0868 12.3583 32.4348 12.3583C32.7828 12.3583 33.0588 12.4663 33.2628 12.6823C33.4668 12.8863 33.5688 13.1623 33.5688 13.5103V20.0083C33.5688 21.7243 33.1188 23.0383 32.2188 23.9503C31.3188 24.8503 30.0048 25.3003 28.2768 25.3003Z" fill="white"/>
<defs>
<linearGradient id="paint0_linear" x1="22.0005" y1="5.49664" x2="22.0005" y2="38.9217" gradientUnits="userSpaceOnUse">
<stop stop-color="#93708C"/>
<stop offset="1" stop-color="#8EA7A4"/>
</linearGradient>
</defs>
</svg>
