<svg width="51" height="51" viewBox="0 0 51 51" fill="none" xmlns="http://www.w3.org/2000/svg">
<path d="M44.285 9.79622C43.1997 8.71036 41.911 7.84897 40.4926 7.26128C39.0743 6.67358 37.554 6.37109 36.0188 6.37109C34.4835 6.37109 32.9632 6.67358 31.5449 7.26128C30.1265 7.84897 28.8379 8.71036 27.7525 9.79622L25.5 12.0487L23.2475 9.79622C21.0552 7.60388 18.0817 6.37223 14.9813 6.37223C11.8808 6.37223 8.90735 7.60388 6.71501 9.79622C4.52266 11.9886 3.29102 14.962 3.29102 18.0625C3.29102 21.1629 4.52266 24.1364 6.71501 26.3287L8.96751 28.5812L25.5 45.1137L42.0325 28.5812L44.285 26.3287C45.3709 25.2434 46.2323 23.9547 46.82 22.5364C47.4076 21.118 47.7101 19.5978 47.7101 18.0625C47.7101 16.5272 47.4076 15.0069 46.82 13.5886C46.2323 12.1702 45.3709 10.8816 44.285 9.79622V9.79622Z" fill="url(#paint0_linear)"/>
<path d="M12.8985 29C12.4925 29 12.1705 28.888 11.9325 28.664C11.7085 28.44 11.5965 28.125 11.5965 27.719V15.476C11.5965 15.07 11.7085 14.755 11.9325 14.531C12.1705 14.307 12.4925 14.195 12.8985 14.195H17.0565C19.4785 14.195 21.3545 14.846 22.6845 16.148C24.0286 17.436 24.7006 19.249 24.7006 21.587C24.7006 23.939 24.0286 25.766 22.6845 27.068C21.3545 28.356 19.4785 29 17.0565 29H12.8985ZM16.8885 26.795C20.2905 26.795 21.9916 25.059 21.9916 21.587C21.9916 18.129 20.2905 16.4 16.8885 16.4H14.3055V26.795H16.8885ZM32.4896 29.189C30.4596 29.189 28.9196 28.664 27.8696 27.614C26.8196 26.564 26.2946 25.031 26.2946 23.015V15.434C26.2946 15.028 26.4136 14.706 26.6516 14.468C26.8896 14.216 27.2116 14.09 27.6176 14.09C28.0236 14.09 28.3456 14.216 28.5836 14.468C28.8216 14.706 28.9406 15.028 28.9406 15.434V23.162C28.9406 24.436 29.2416 25.402 29.8436 26.06C30.4456 26.704 31.3276 27.026 32.4896 27.026C33.6376 27.026 34.5126 26.697 35.1146 26.039C35.7166 25.381 36.0176 24.422 36.0176 23.162V15.434C36.0176 15.028 36.1366 14.706 36.3746 14.468C36.6126 14.216 36.9346 14.09 37.3406 14.09C37.7466 14.09 38.0686 14.216 38.3066 14.468C38.5446 14.706 38.6636 15.028 38.6636 15.434V23.015C38.6636 25.017 38.1386 26.55 37.0886 27.614C36.0386 28.664 34.5056 29.189 32.4896 29.189Z" fill="white"/>
<defs>
<linearGradient id="paint0_linear" x1="25.5006" y1="6.37109" x2="25.5006" y2="45.1137" gradientUnits="userSpaceOnUse">
<stop stop-color="#93708C"/>
<stop offset="1" stop-color="#8EA7A4"/>
</linearGradient>
</defs>
</svg>
