<svg width="853" height="753" viewBox="0 0 853 753" fill="none" xmlns="http://www.w3.org/2000/svg">
<circle cx="80" cy="673" r="80" transform="rotate(90 80 673)" fill="#FFE484"/>
<circle cx="80" cy="278" r="80" transform="rotate(90 80 278)" fill="#C2E0FF"/>
<circle cx="80" cy="475" r="80" transform="rotate(90 80 475)" fill="#E3F1FF"/>
<circle cx="80" cy="80" r="80" transform="rotate(90 80 80)" fill="#2D68A6"/>
<path d="M224.46 55.365H229.64V65.305C228.31 66.3083 226.77 67.0783 225.02 67.615C223.27 68.1517 221.508 68.42 219.735 68.42C217.192 68.42 214.905 67.8833 212.875 66.81C210.845 65.7133 209.247 64.2083 208.08 62.295C206.937 60.3583 206.365 58.1767 206.365 55.75C206.365 53.3233 206.937 51.1533 208.08 49.24C209.247 47.3033 210.857 45.7983 212.91 44.725C214.963 43.6283 217.273 43.08 219.84 43.08C221.987 43.08 223.935 43.4417 225.685 44.165C227.435 44.8883 228.905 45.9383 230.095 47.315L226.455 50.675C224.705 48.8317 222.593 47.91 220.12 47.91C218.557 47.91 217.168 48.2367 215.955 48.89C214.742 49.5433 213.797 50.465 213.12 51.655C212.443 52.845 212.105 54.21 212.105 55.75C212.105 57.2667 212.443 58.62 213.12 59.81C213.797 61 214.73 61.9333 215.92 62.61C217.133 63.2633 218.51 63.59 220.05 63.59C221.683 63.59 223.153 63.24 224.46 62.54V55.365ZM250.517 68L245.792 61.175H245.512H240.577V68H234.907V43.5H245.512C247.682 43.5 249.56 43.8617 251.147 44.585C252.757 45.3083 253.994 46.335 254.857 47.665C255.72 48.995 256.152 50.57 256.152 52.39C256.152 54.21 255.709 55.785 254.822 57.115C253.959 58.4217 252.722 59.425 251.112 60.125L256.607 68H250.517ZM250.412 52.39C250.412 51.0133 249.969 49.9633 249.082 49.24C248.195 48.4933 246.9 48.12 245.197 48.12H240.577V56.66H245.197C246.9 56.66 248.195 56.2867 249.082 55.54C249.969 54.7933 250.412 53.7433 250.412 52.39ZM279.614 63.45V68H260.644V43.5H279.159V48.05H266.279V53.37H277.654V57.78H266.279V63.45H279.614ZM303.096 63.45V68H284.126V43.5H302.641V48.05H289.761V53.37H301.136V57.78H289.761V63.45H303.096ZM330.077 43.5V68H325.422L313.207 53.125V68H307.607V43.5H312.297L324.477 58.375V43.5H330.077ZM363.776 55.26C365.176 55.7033 366.273 56.45 367.066 57.5C367.859 58.5267 368.256 59.7983 368.256 61.315C368.256 63.4617 367.416 65.1183 365.736 66.285C364.079 67.4283 361.653 68 358.456 68H345.786V43.5H357.756C360.743 43.5 363.029 44.0717 364.616 45.215C366.226 46.3583 367.031 47.91 367.031 49.87C367.031 51.06 366.739 52.1217 366.156 53.055C365.596 53.9883 364.803 54.7233 363.776 55.26ZM351.421 47.77V53.545H357.056C358.456 53.545 359.518 53.3 360.241 52.81C360.964 52.32 361.326 51.5967 361.326 50.64C361.326 49.6833 360.964 48.9717 360.241 48.505C359.518 48.015 358.456 47.77 357.056 47.77H351.421ZM358.036 63.73C359.529 63.73 360.649 63.485 361.396 62.995C362.166 62.505 362.551 61.7467 362.551 60.72C362.551 58.69 361.046 57.675 358.036 57.675H351.421V63.73H358.036ZM372.549 43.5H378.219V63.38H390.504V68H372.549V43.5ZM404.249 68.42C400.749 68.42 398.019 67.4517 396.059 65.515C394.122 63.5783 393.154 60.8133 393.154 57.22V43.5H398.824V57.01C398.824 61.3967 400.644 63.59 404.284 63.59C406.057 63.59 407.411 63.065 408.344 62.015C409.277 60.9417 409.744 59.2733 409.744 57.01V43.5H415.344V57.22C415.344 60.8133 414.364 63.5783 412.404 65.515C410.467 67.4517 407.749 68.42 404.249 68.42ZM439.917 63.45V68H420.947V43.5H439.462V48.05H426.582V53.37H437.957V57.78H426.582V63.45H439.917ZM220.87 105.59L220.15 111.41H224.32V113.6H219.88L219.22 119H217.09L217.75 113.6H212.08L211.42 119H209.29L209.95 113.6H205.81V111.41H210.22L210.97 105.59H206.77V103.4H211.24L211.9 98H214.03L213.37 103.4H219.01L219.67 98H221.8L221.14 103.4H225.28V105.59H220.87ZM218.74 105.59H213.1L212.35 111.41H218.02L218.74 105.59ZM242.294 116.39V119H227.204V116.96L235.754 108.71C236.794 107.71 237.494 106.85 237.854 106.13C238.214 105.39 238.394 104.65 238.394 103.91C238.394 102.81 238.004 101.96 237.224 101.36C236.464 100.74 235.364 100.43 233.924 100.43C231.604 100.43 229.814 101.19 228.554 102.71L226.514 100.94C227.334 99.94 228.404 99.16 229.724 98.6C231.064 98.04 232.554 97.76 234.194 97.76C236.394 97.76 238.144 98.29 239.444 99.35C240.744 100.39 241.394 101.81 241.394 103.61C241.394 104.73 241.154 105.79 240.674 106.79C240.194 107.79 239.284 108.93 237.944 110.21L231.524 116.39H242.294ZM246.47 98H255.32C257.54 98 259.51 98.44 261.23 99.32C262.95 100.2 264.28 101.44 265.22 103.04C266.18 104.62 266.66 106.44 266.66 108.5C266.66 110.56 266.18 112.39 265.22 113.99C264.28 115.57 262.95 116.8 261.23 117.68C259.51 118.56 257.54 119 255.32 119H246.47V98ZM255.14 116.39C256.84 116.39 258.33 116.06 259.61 115.4C260.91 114.74 261.91 113.82 262.61 112.64C263.31 111.44 263.66 110.06 263.66 108.5C263.66 106.94 263.31 105.57 262.61 104.39C261.91 103.19 260.91 102.26 259.61 101.6C258.33 100.94 256.84 100.61 255.14 100.61H249.47V116.39H255.14ZM278.605 106.25C279.985 106.25 281.215 106.51 282.295 107.03C283.395 107.55 284.255 108.3 284.875 109.28C285.495 110.24 285.805 111.35 285.805 112.61C285.805 113.93 285.475 115.09 284.815 116.09C284.175 117.09 283.285 117.87 282.145 118.43C281.025 118.97 279.765 119.24 278.365 119.24C275.545 119.24 273.365 118.33 271.825 116.51C270.305 114.69 269.545 112.11 269.545 108.77C269.545 106.43 269.955 104.44 270.775 102.8C271.615 101.14 272.775 99.89 274.255 99.05C275.755 98.19 277.495 97.76 279.475 97.76C280.495 97.76 281.455 97.87 282.355 98.09C283.255 98.29 284.035 98.59 284.695 98.99L283.555 101.33C282.555 100.67 281.215 100.34 279.535 100.34C277.355 100.34 275.645 101.02 274.405 102.38C273.165 103.72 272.545 105.68 272.545 108.26C272.545 108.58 272.555 108.83 272.575 109.01C273.175 108.11 273.995 107.43 275.035 106.97C276.095 106.49 277.285 106.25 278.605 106.25ZM278.245 116.81C279.625 116.81 280.745 116.44 281.605 115.7C282.465 114.96 282.895 113.97 282.895 112.73C282.895 111.49 282.455 110.51 281.575 109.79C280.715 109.05 279.555 108.68 278.095 108.68C277.155 108.68 276.315 108.86 275.575 109.22C274.855 109.58 274.285 110.07 273.865 110.69C273.465 111.31 273.265 112 273.265 112.76C273.265 113.5 273.455 114.18 273.835 114.8C274.235 115.4 274.805 115.89 275.545 116.27C276.305 116.63 277.205 116.81 278.245 116.81ZM300.901 107.99C302.101 108.45 303.021 109.11 303.661 109.97C304.301 110.83 304.621 111.86 304.621 113.06C304.621 114.32 304.281 115.42 303.601 116.36C302.921 117.28 301.951 117.99 300.691 118.49C299.431 118.99 297.951 119.24 296.251 119.24C294.571 119.24 293.101 118.99 291.841 118.49C290.601 117.99 289.641 117.28 288.961 116.36C288.281 115.42 287.941 114.32 287.941 113.06C287.941 111.86 288.251 110.83 288.871 109.97C289.511 109.11 290.431 108.45 291.631 107.99C290.671 107.53 289.941 106.92 289.441 106.16C288.941 105.4 288.691 104.5 288.691 103.46C288.691 102.3 289.001 101.29 289.621 100.43C290.261 99.57 291.151 98.91 292.291 98.45C293.431 97.99 294.751 97.76 296.251 97.76C297.771 97.76 299.101 97.99 300.241 98.45C301.401 98.91 302.291 99.57 302.911 100.43C303.551 101.29 303.871 102.3 303.871 103.46C303.871 104.48 303.611 105.38 303.091 106.16C302.591 106.92 301.861 107.53 300.901 107.99ZM296.251 100.19C294.831 100.19 293.711 100.5 292.891 101.12C292.071 101.72 291.661 102.54 291.661 103.58C291.661 104.62 292.061 105.44 292.861 106.04C293.681 106.64 294.811 106.94 296.251 106.94C297.711 106.94 298.851 106.64 299.671 106.04C300.511 105.44 300.931 104.62 300.931 103.58C300.931 102.54 300.501 101.72 299.641 101.12C298.801 100.5 297.671 100.19 296.251 100.19ZM296.251 116.81C297.911 116.81 299.221 116.47 300.181 115.79C301.141 115.09 301.621 114.15 301.621 112.97C301.621 111.81 301.141 110.9 300.181 110.24C299.221 109.56 297.911 109.22 296.251 109.22C294.591 109.22 293.291 109.56 292.351 110.24C291.411 110.9 290.941 111.81 290.941 112.97C290.941 114.15 291.411 115.09 292.351 115.79C293.291 116.47 294.591 116.81 296.251 116.81ZM322.311 113.75H311.151L308.841 119H305.751L315.261 98H318.231L327.771 119H324.621L322.311 113.75ZM321.261 111.35L316.731 101.06L312.201 111.35H321.261ZM338.02 106.25C339.4 106.25 340.63 106.51 341.71 107.03C342.81 107.55 343.67 108.3 344.29 109.28C344.91 110.24 345.22 111.35 345.22 112.61C345.22 113.93 344.89 115.09 344.23 116.09C343.59 117.09 342.7 117.87 341.56 118.43C340.44 118.97 339.18 119.24 337.78 119.24C334.96 119.24 332.78 118.33 331.24 116.51C329.72 114.69 328.96 112.11 328.96 108.77C328.96 106.43 329.37 104.44 330.19 102.8C331.03 101.14 332.19 99.89 333.67 99.05C335.17 98.19 336.91 97.76 338.89 97.76C339.91 97.76 340.87 97.87 341.77 98.09C342.67 98.29 343.45 98.59 344.11 98.99L342.97 101.33C341.97 100.67 340.63 100.34 338.95 100.34C336.77 100.34 335.06 101.02 333.82 102.38C332.58 103.72 331.96 105.68 331.96 108.26C331.96 108.58 331.97 108.83 331.99 109.01C332.59 108.11 333.41 107.43 334.45 106.97C335.51 106.49 336.7 106.25 338.02 106.25ZM337.66 116.81C339.04 116.81 340.16 116.44 341.02 115.7C341.88 114.96 342.31 113.97 342.31 112.73C342.31 111.49 341.87 110.51 340.99 109.79C340.13 109.05 338.97 108.68 337.51 108.68C336.57 108.68 335.73 108.86 334.99 109.22C334.27 109.58 333.7 110.07 333.28 110.69C332.88 111.31 332.68 112 332.68 112.76C332.68 113.5 332.87 114.18 333.25 114.8C333.65 115.4 334.22 115.89 334.96 116.27C335.72 116.63 336.62 116.81 337.66 116.81ZM373.355 96.74H376.025V124.82H373.355V96.74ZM423.05 113.84H419.06V119H416.15V113.84H404.48V111.74L415.22 98H418.46L408.17 111.26H416.24V106.7H419.06V111.26H423.05V113.84ZM430.76 106.37C433.76 106.37 435.96 106.94 437.36 108.08C438.78 109.2 439.49 110.74 439.49 112.7C439.49 113.94 439.19 115.06 438.59 116.06C438.01 117.04 437.12 117.82 435.92 118.4C434.74 118.96 433.28 119.24 431.54 119.24C430.06 119.24 428.63 119.02 427.25 118.58C425.87 118.12 424.73 117.49 423.83 116.69L425.21 114.32C425.93 115 426.85 115.55 427.97 115.97C429.09 116.37 430.27 116.57 431.51 116.57C433.09 116.57 434.31 116.24 435.17 115.58C436.05 114.9 436.49 113.98 436.49 112.82C436.49 111.56 436.01 110.61 435.05 109.97C434.09 109.31 432.45 108.98 430.13 108.98H425.36L426.47 98H438.32V100.61H428.99L428.42 106.37H430.76ZM443.997 115.07C444.557 115.07 445.017 115.27 445.377 115.67C445.757 116.05 445.947 116.53 445.947 117.11C445.947 117.41 445.907 117.7 445.827 117.98C445.767 118.26 445.637 118.69 445.437 119.27L444.027 123.44H442.137L443.247 118.97C442.867 118.83 442.557 118.6 442.317 118.28C442.097 117.94 441.987 117.55 441.987 117.11C441.987 116.51 442.177 116.02 442.557 115.64C442.937 115.26 443.417 115.07 443.997 115.07ZM463.35 98V119H460.38V100.61H455.64V98H463.35ZM476.524 119.24C474.864 119.24 473.384 118.82 472.084 117.98C470.804 117.12 469.794 115.88 469.054 114.26C468.314 112.64 467.944 110.72 467.944 108.5C467.944 106.28 468.314 104.36 469.054 102.74C469.794 101.12 470.804 99.89 472.084 99.05C473.384 98.19 474.864 97.76 476.524 97.76C478.164 97.76 479.624 98.19 480.904 99.05C482.204 99.89 483.224 101.12 483.964 102.74C484.704 104.36 485.074 106.28 485.074 108.5C485.074 110.72 484.704 112.64 483.964 114.26C483.224 115.88 482.204 117.12 480.904 117.98C479.624 118.82 478.164 119.24 476.524 119.24ZM476.524 116.57C478.204 116.57 479.544 115.88 480.544 114.5C481.564 113.12 482.074 111.12 482.074 108.5C482.074 105.88 481.564 103.88 480.544 102.5C479.544 101.12 478.204 100.43 476.524 100.43C474.824 100.43 473.464 101.12 472.444 102.5C471.444 103.88 470.944 105.88 470.944 108.5C470.944 111.12 471.444 113.12 472.444 114.5C473.464 115.88 474.824 116.57 476.524 116.57ZM506.224 113.84H502.234V119H499.324V113.84H487.654V111.74L498.394 98H501.634L491.344 111.26H499.414V106.7H502.234V111.26H506.224V113.84ZM510.618 115.07C511.178 115.07 511.638 115.27 511.998 115.67C512.378 116.05 512.568 116.53 512.568 117.11C512.568 117.41 512.528 117.7 512.448 117.98C512.388 118.26 512.258 118.69 512.058 119.27L510.648 123.44H508.758L509.868 118.97C509.488 118.83 509.178 118.6 508.938 118.28C508.718 117.94 508.608 117.55 508.608 117.11C508.608 116.51 508.798 116.02 509.178 115.64C509.558 115.26 510.038 115.07 510.618 115.07ZM529.971 98V119H527.001V100.61H522.261V98H529.971ZM543.625 106.25C545.005 106.25 546.235 106.51 547.315 107.03C548.415 107.55 549.275 108.3 549.895 109.28C550.515 110.24 550.825 111.35 550.825 112.61C550.825 113.93 550.495 115.09 549.835 116.09C549.195 117.09 548.305 117.87 547.165 118.43C546.045 118.97 544.785 119.24 543.385 119.24C540.565 119.24 538.385 118.33 536.845 116.51C535.325 114.69 534.565 112.11 534.565 108.77C534.565 106.43 534.975 104.44 535.795 102.8C536.635 101.14 537.795 99.89 539.275 99.05C540.775 98.19 542.515 97.76 544.495 97.76C545.515 97.76 546.475 97.87 547.375 98.09C548.275 98.29 549.055 98.59 549.715 98.99L548.575 101.33C547.575 100.67 546.235 100.34 544.555 100.34C542.375 100.34 540.665 101.02 539.425 102.38C538.185 103.72 537.565 105.68 537.565 108.26C537.565 108.58 537.575 108.83 537.595 109.01C538.195 108.11 539.015 107.43 540.055 106.97C541.115 106.49 542.305 106.25 543.625 106.25ZM543.265 116.81C544.645 116.81 545.765 116.44 546.625 115.7C547.485 114.96 547.915 113.97 547.915 112.73C547.915 111.49 547.475 110.51 546.595 109.79C545.735 109.05 544.575 108.68 543.115 108.68C542.175 108.68 541.335 108.86 540.595 109.22C539.875 109.58 539.305 110.07 538.885 110.69C538.485 111.31 538.285 112 538.285 112.76C538.285 113.5 538.475 114.18 538.855 114.8C539.255 115.4 539.825 115.89 540.565 116.27C541.325 116.63 542.225 116.81 543.265 116.81ZM562.141 106.25C563.521 106.25 564.751 106.51 565.831 107.03C566.931 107.55 567.791 108.3 568.411 109.28C569.031 110.24 569.341 111.35 569.341 112.61C569.341 113.93 569.011 115.09 568.351 116.09C567.711 117.09 566.821 117.87 565.681 118.43C564.561 118.97 563.301 119.24 561.901 119.24C559.081 119.24 556.901 118.33 555.361 116.51C553.841 114.69 553.081 112.11 553.081 108.77C553.081 106.43 553.491 104.44 554.311 102.8C555.151 101.14 556.311 99.89 557.791 99.05C559.291 98.19 561.031 97.76 563.011 97.76C564.031 97.76 564.991 97.87 565.891 98.09C566.791 98.29 567.571 98.59 568.231 98.99L567.091 101.33C566.091 100.67 564.751 100.34 563.071 100.34C560.891 100.34 559.181 101.02 557.941 102.38C556.701 103.72 556.081 105.68 556.081 108.26C556.081 108.58 556.091 108.83 556.111 109.01C556.711 108.11 557.531 107.43 558.571 106.97C559.631 106.49 560.821 106.25 562.141 106.25ZM561.781 116.81C563.161 116.81 564.281 116.44 565.141 115.7C566.001 114.96 566.431 113.97 566.431 112.73C566.431 111.49 565.991 110.51 565.111 109.79C564.251 109.05 563.091 108.68 561.631 108.68C560.691 108.68 559.851 108.86 559.111 109.22C558.391 109.58 557.821 110.07 557.401 110.69C557.001 111.31 556.801 112 556.801 112.76C556.801 113.5 556.991 114.18 557.371 114.8C557.771 115.4 558.341 115.89 559.081 116.27C559.841 116.63 560.741 116.81 561.781 116.81Z" fill="#0C3866"/>
<path d="M226.895 260.26C228.295 260.703 229.392 261.45 230.185 262.5C230.978 263.527 231.375 264.798 231.375 266.315C231.375 268.462 230.535 270.118 228.855 271.285C227.198 272.428 224.772 273 221.575 273H208.905V248.5H220.875C223.862 248.5 226.148 249.072 227.735 250.215C229.345 251.358 230.15 252.91 230.15 254.87C230.15 256.06 229.858 257.122 229.275 258.055C228.715 258.988 227.922 259.723 226.895 260.26ZM214.54 252.77V258.545H220.175C221.575 258.545 222.637 258.3 223.36 257.81C224.083 257.32 224.445 256.597 224.445 255.64C224.445 254.683 224.083 253.972 223.36 253.505C222.637 253.015 221.575 252.77 220.175 252.77H214.54ZM221.155 268.73C222.648 268.73 223.768 268.485 224.515 267.995C225.285 267.505 225.67 266.747 225.67 265.72C225.67 263.69 224.165 262.675 221.155 262.675H214.54V268.73H221.155ZM254.638 268.45V273H235.668V248.5H254.183V253.05H241.303V258.37H252.678V262.78H241.303V268.45H254.638ZM275.284 267.75H263.909L261.739 273H255.929L266.849 248.5H272.449L283.404 273H277.454L275.284 267.75ZM273.499 263.445L269.614 254.065L265.729 263.445H273.499ZM296.318 273.42C292.818 273.42 290.088 272.452 288.128 270.515C286.192 268.578 285.223 265.813 285.223 262.22V248.5H290.893V262.01C290.893 266.397 292.713 268.59 296.353 268.59C298.127 268.59 299.48 268.065 300.413 267.015C301.347 265.942 301.813 264.273 301.813 262.01V248.5H307.413V262.22C307.413 265.813 306.433 268.578 304.473 270.515C302.537 272.452 299.818 273.42 296.318 273.42ZM340.918 260.26C342.318 260.703 343.415 261.45 344.208 262.5C345.002 263.527 345.398 264.798 345.398 266.315C345.398 268.462 344.558 270.118 342.878 271.285C341.222 272.428 338.795 273 335.598 273H322.928V248.5H334.898C337.885 248.5 340.172 249.072 341.758 250.215C343.368 251.358 344.173 252.91 344.173 254.87C344.173 256.06 343.882 257.122 343.298 258.055C342.738 258.988 341.945 259.723 340.918 260.26ZM328.563 252.77V258.545H334.198C335.598 258.545 336.66 258.3 337.383 257.81C338.107 257.32 338.468 256.597 338.468 255.64C338.468 254.683 338.107 253.972 337.383 253.505C336.66 253.015 335.598 252.77 334.198 252.77H328.563ZM335.178 268.73C336.672 268.73 337.792 268.485 338.538 267.995C339.308 267.505 339.693 266.747 339.693 265.72C339.693 263.69 338.188 262.675 335.178 262.675H328.563V268.73H335.178ZM349.691 248.5H355.361V268.38H367.646V273H349.691V248.5ZM381.392 273.42C377.892 273.42 375.162 272.452 373.202 270.515C371.265 268.578 370.297 265.813 370.297 262.22V248.5H375.967V262.01C375.967 266.397 377.787 268.59 381.427 268.59C383.2 268.59 384.553 268.065 385.487 267.015C386.42 265.942 386.887 264.273 386.887 262.01V248.5H392.487V262.22C392.487 265.813 391.507 268.578 389.547 270.515C387.61 272.452 384.892 273.42 381.392 273.42ZM417.06 268.45V273H398.09V248.5H416.605V253.05H403.725V258.37H415.1V262.78H403.725V268.45H417.06ZM221.87 310.59L221.15 316.41H225.32V318.6H220.88L220.22 324H218.09L218.75 318.6H213.08L212.42 324H210.29L210.95 318.6H206.81V316.41H211.22L211.97 310.59H207.77V308.4H212.24L212.9 303H215.03L214.37 308.4H220.01L220.67 303H222.8L222.14 308.4H226.28V310.59H221.87ZM219.74 310.59H214.1L213.35 316.41H219.02L219.74 310.59ZM239.634 324.24C237.534 324.24 235.634 323.78 233.934 322.86C232.254 321.92 230.934 320.64 229.974 319.02C229.014 317.38 228.534 315.54 228.534 313.5C228.534 311.46 229.014 309.63 229.974 308.01C230.934 306.37 232.264 305.09 233.964 304.17C235.664 303.23 237.564 302.76 239.664 302.76C241.304 302.76 242.804 303.04 244.164 303.6C245.524 304.14 246.684 304.95 247.644 306.03L245.694 307.92C244.114 306.26 242.144 305.43 239.784 305.43C238.224 305.43 236.814 305.78 235.554 306.48C234.294 307.18 233.304 308.15 232.584 309.39C231.884 310.61 231.534 311.98 231.534 313.5C231.534 315.02 231.884 316.4 232.584 317.64C233.304 318.86 234.294 319.82 235.554 320.52C236.814 321.22 238.224 321.57 239.784 321.57C242.124 321.57 244.094 320.73 245.694 319.05L247.644 320.94C246.684 322.02 245.514 322.84 244.134 323.4C242.774 323.96 241.274 324.24 239.634 324.24ZM264.768 321.39V324H249.678V321.96L258.228 313.71C259.268 312.71 259.968 311.85 260.328 311.13C260.688 310.39 260.868 309.65 260.868 308.91C260.868 307.81 260.478 306.96 259.698 306.36C258.938 305.74 257.838 305.43 256.398 305.43C254.078 305.43 252.288 306.19 251.028 307.71L248.988 305.94C249.808 304.94 250.878 304.16 252.198 303.6C253.538 303.04 255.028 302.76 256.668 302.76C258.868 302.76 260.618 303.29 261.918 304.35C263.218 305.39 263.868 306.81 263.868 308.61C263.868 309.73 263.628 310.79 263.148 311.79C262.668 312.79 261.758 313.93 260.418 315.21L253.998 321.39H264.768ZM284.185 321.39V324H268.945V303H283.765V305.61H271.945V312.06H282.475V314.61H271.945V321.39H284.185ZM295.502 324.24C293.842 324.24 292.362 323.82 291.062 322.98C289.782 322.12 288.772 320.88 288.032 319.26C287.292 317.64 286.922 315.72 286.922 313.5C286.922 311.28 287.292 309.36 288.032 307.74C288.772 306.12 289.782 304.89 291.062 304.05C292.362 303.19 293.842 302.76 295.502 302.76C297.142 302.76 298.602 303.19 299.882 304.05C301.182 304.89 302.202 306.12 302.942 307.74C303.682 309.36 304.052 311.28 304.052 313.5C304.052 315.72 303.682 317.64 302.942 319.26C302.202 320.88 301.182 322.12 299.882 322.98C298.602 323.82 297.142 324.24 295.502 324.24ZM295.502 321.57C297.182 321.57 298.522 320.88 299.522 319.5C300.542 318.12 301.052 316.12 301.052 313.5C301.052 310.88 300.542 308.88 299.522 307.5C298.522 306.12 297.182 305.43 295.502 305.43C293.802 305.43 292.442 306.12 291.422 307.5C290.422 308.88 289.922 310.88 289.922 313.5C289.922 316.12 290.422 318.12 291.422 319.5C292.442 320.88 293.802 321.57 295.502 321.57ZM311.642 305.61V312.93H322.172V315.51H311.642V324H308.642V303H323.462V305.61H311.642ZM330.685 305.61V312.93H341.215V315.51H330.685V324H327.685V303H342.505V305.61H330.685ZM370.898 301.74H373.568V329.82H370.898V301.74ZM408.833 303V324H405.863V305.61H401.123V303H408.833ZM420.236 302.76C423.056 302.76 425.226 303.67 426.746 305.49C428.286 307.31 429.056 309.89 429.056 313.23C429.056 315.57 428.636 317.57 427.796 319.23C426.976 320.87 425.816 322.12 424.316 322.98C422.836 323.82 421.106 324.24 419.126 324.24C418.106 324.24 417.146 324.14 416.246 323.94C415.346 323.72 414.566 323.41 413.906 323.01L415.046 320.67C416.066 321.33 417.416 321.66 419.096 321.66C421.276 321.66 422.976 320.99 424.196 319.65C425.436 318.29 426.056 316.32 426.056 313.74V312.99C425.456 313.89 424.626 314.58 423.566 315.06C422.506 315.52 421.316 315.75 419.996 315.75C418.616 315.75 417.376 315.49 416.276 314.97C415.196 314.45 414.346 313.71 413.726 312.75C413.126 311.77 412.826 310.65 412.826 309.39C412.826 308.07 413.146 306.91 413.786 305.91C414.446 304.91 415.336 304.14 416.456 303.6C417.576 303.04 418.836 302.76 420.236 302.76ZM420.506 313.32C421.446 313.32 422.286 313.14 423.026 312.78C423.766 312.42 424.336 311.93 424.736 311.31C425.156 310.69 425.366 310 425.366 309.24C425.366 308.5 425.166 307.83 424.766 307.23C424.386 306.61 423.816 306.12 423.056 305.76C422.316 305.38 421.416 305.19 420.356 305.19C418.976 305.19 417.856 305.56 416.996 306.3C416.156 307.04 415.736 308.03 415.736 309.27C415.736 310.51 416.166 311.5 417.026 312.24C417.886 312.96 419.046 313.32 420.506 313.32ZM450.212 318.84H446.222V324H443.312V318.84H431.642V316.74L442.382 303H445.622L435.332 316.26H443.402V311.7H446.222V316.26H450.212V318.84ZM454.606 320.07C455.166 320.07 455.626 320.27 455.986 320.67C456.366 321.05 456.556 321.53 456.556 322.11C456.556 322.41 456.516 322.7 456.436 322.98C456.376 323.26 456.246 323.69 456.046 324.27L454.636 328.44H452.746L453.856 323.97C453.476 323.83 453.166 323.6 452.926 323.28C452.706 322.94 452.596 322.55 452.596 322.11C452.596 321.51 452.786 321.02 453.166 320.64C453.546 320.26 454.026 320.07 454.606 320.07ZM482.21 321.39V324H467.12V321.96L475.67 313.71C476.71 312.71 477.41 311.85 477.77 311.13C478.13 310.39 478.31 309.65 478.31 308.91C478.31 307.81 477.92 306.96 477.14 306.36C476.38 305.74 475.28 305.43 473.84 305.43C471.52 305.43 469.73 306.19 468.47 307.71L466.43 305.94C467.25 304.94 468.32 304.16 469.64 303.6C470.98 303.04 472.47 302.76 474.11 302.76C476.31 302.76 478.06 303.29 479.36 304.35C480.66 305.39 481.31 306.81 481.31 308.61C481.31 309.73 481.07 310.79 480.59 311.79C480.11 312.79 479.2 313.93 477.86 315.21L471.44 321.39H482.21ZM499.436 321.39V324H484.346V321.96L492.896 313.71C493.936 312.71 494.636 311.85 494.996 311.13C495.356 310.39 495.536 309.65 495.536 308.91C495.536 307.81 495.146 306.96 494.366 306.36C493.606 305.74 492.506 305.43 491.066 305.43C488.746 305.43 486.956 306.19 485.696 307.71L483.656 305.94C484.476 304.94 485.546 304.16 486.866 303.6C488.206 303.04 489.696 302.76 491.336 302.76C493.536 302.76 495.286 303.29 496.586 304.35C497.886 305.39 498.536 306.81 498.536 308.61C498.536 309.73 498.296 310.79 497.816 311.79C497.336 312.79 496.426 313.93 495.086 315.21L488.666 321.39H499.436ZM519.616 318.84H515.626V324H512.716V318.84H501.046V316.74L511.786 303H515.026L504.736 316.26H512.806V311.7H515.626V316.26H519.616V318.84ZM524.011 320.07C524.571 320.07 525.031 320.27 525.391 320.67C525.771 321.05 525.961 321.53 525.961 322.11C525.961 322.41 525.921 322.7 525.841 322.98C525.781 323.26 525.651 323.69 525.451 324.27L524.041 328.44H522.151L523.261 323.97C522.881 323.83 522.571 323.6 522.331 323.28C522.111 322.94 522.001 322.55 522.001 322.11C522.001 321.51 522.191 321.02 522.571 320.64C522.951 320.26 523.431 320.07 524.011 320.07ZM551.614 321.39V324H536.524V321.96L545.074 313.71C546.114 312.71 546.814 311.85 547.174 311.13C547.534 310.39 547.714 309.65 547.714 308.91C547.714 307.81 547.324 306.96 546.544 306.36C545.784 305.74 544.684 305.43 543.244 305.43C540.924 305.43 539.134 306.19 537.874 307.71L535.834 305.94C536.654 304.94 537.724 304.16 539.044 303.6C540.384 303.04 541.874 302.76 543.514 302.76C545.714 302.76 547.464 303.29 548.764 304.35C550.064 305.39 550.714 306.81 550.714 308.61C550.714 309.73 550.474 310.79 549.994 311.79C549.514 312.79 548.604 313.93 547.264 315.21L540.844 321.39H551.614ZM560.081 311.37C563.081 311.37 565.281 311.94 566.681 313.08C568.101 314.2 568.811 315.74 568.811 317.7C568.811 318.94 568.511 320.06 567.911 321.06C567.331 322.04 566.441 322.82 565.241 323.4C564.061 323.96 562.601 324.24 560.861 324.24C559.381 324.24 557.951 324.02 556.571 323.58C555.191 323.12 554.051 322.49 553.151 321.69L554.531 319.32C555.251 320 556.171 320.55 557.291 320.97C558.411 321.37 559.591 321.57 560.831 321.57C562.411 321.57 563.631 321.24 564.491 320.58C565.371 319.9 565.811 318.98 565.811 317.82C565.811 316.56 565.331 315.61 564.371 314.97C563.411 314.31 561.771 313.98 559.451 313.98H554.681L555.791 303H567.641V305.61H558.311L557.741 311.37H560.081ZM577.161 311.37C580.161 311.37 582.361 311.94 583.761 313.08C585.181 314.2 585.891 315.74 585.891 317.7C585.891 318.94 585.591 320.06 584.991 321.06C584.411 322.04 583.521 322.82 582.321 323.4C581.141 323.96 579.681 324.24 577.941 324.24C576.461 324.24 575.031 324.02 573.651 323.58C572.271 323.12 571.131 322.49 570.231 321.69L571.611 319.32C572.331 320 573.251 320.55 574.371 320.97C575.491 321.37 576.671 321.57 577.911 321.57C579.491 321.57 580.711 321.24 581.571 320.58C582.451 319.9 582.891 318.98 582.891 317.82C582.891 316.56 582.411 315.61 581.451 314.97C580.491 314.31 578.851 313.98 576.531 313.98H571.761L572.871 303H584.721V305.61H575.391L574.821 311.37H577.161Z" fill="#0C3866"/>
<path d="M225.04 463.75H213.665L211.495 469H205.685L216.605 444.5H222.205L233.16 469H227.21L225.04 463.75ZM223.255 459.445L219.37 450.065L215.485 459.445H223.255ZM235.702 444.5H241.372V464.38H253.657V469H235.702V444.5ZM256.825 444.5H262.495V469H256.825V444.5ZM280.034 469.42C277.538 469.42 275.274 468.883 273.244 467.81C271.238 466.713 269.651 465.208 268.484 463.295C267.341 461.358 266.769 459.177 266.769 456.75C266.769 454.323 267.341 452.153 268.484 450.24C269.651 448.303 271.238 446.798 273.244 445.725C275.274 444.628 277.549 444.08 280.069 444.08C282.193 444.08 284.106 444.453 285.809 445.2C287.536 445.947 288.983 447.02 290.149 448.42L286.509 451.78C284.853 449.867 282.799 448.91 280.349 448.91C278.833 448.91 277.479 449.248 276.289 449.925C275.099 450.578 274.166 451.5 273.489 452.69C272.836 453.88 272.509 455.233 272.509 456.75C272.509 458.267 272.836 459.62 273.489 460.81C274.166 462 275.099 462.933 276.289 463.61C277.479 464.263 278.833 464.59 280.349 464.59C282.799 464.59 284.853 463.622 286.509 461.685L290.149 465.045C288.983 466.468 287.536 467.553 285.809 468.3C284.083 469.047 282.158 469.42 280.034 469.42ZM312.948 464.45V469H293.978V444.5H312.493V449.05H299.613V454.37H310.988V458.78H299.613V464.45H312.948ZM345.362 456.26C346.762 456.703 347.858 457.45 348.652 458.5C349.445 459.527 349.842 460.798 349.842 462.315C349.842 464.462 349.002 466.118 347.322 467.285C345.665 468.428 343.238 469 340.042 469H327.372V444.5H339.342C342.328 444.5 344.615 445.072 346.202 446.215C347.812 447.358 348.617 448.91 348.617 450.87C348.617 452.06 348.325 453.122 347.742 454.055C347.182 454.988 346.388 455.723 345.362 456.26ZM333.007 448.77V454.545H338.642C340.042 454.545 341.103 454.3 341.827 453.81C342.55 453.32 342.912 452.597 342.912 451.64C342.912 450.683 342.55 449.972 341.827 449.505C341.103 449.015 340.042 448.77 338.642 448.77H333.007ZM339.622 464.73C341.115 464.73 342.235 464.485 342.982 463.995C343.752 463.505 344.137 462.747 344.137 461.72C344.137 459.69 342.632 458.675 339.622 458.675H333.007V464.73H339.622ZM354.134 444.5H359.804V464.38H372.089V469H354.134V444.5ZM385.835 469.42C382.335 469.42 379.605 468.452 377.645 466.515C375.708 464.578 374.74 461.813 374.74 458.22V444.5H380.41V458.01C380.41 462.397 382.23 464.59 385.87 464.59C387.643 464.59 388.997 464.065 389.93 463.015C390.863 461.942 391.33 460.273 391.33 458.01V444.5H396.93V458.22C396.93 461.813 395.95 464.578 393.99 466.515C392.053 468.452 389.335 469.42 385.835 469.42ZM421.503 464.45V469H402.533V444.5H421.048V449.05H408.168V454.37H419.543V458.78H408.168V464.45H421.503ZM221.87 506.59L221.15 512.41H225.32V514.6H220.88L220.22 520H218.09L218.75 514.6H213.08L212.42 520H210.29L210.95 514.6H206.81V512.41H211.22L211.97 506.59H207.77V504.4H212.24L212.9 499H215.03L214.37 504.4H220.01L220.67 499H222.8L222.14 504.4H226.28V506.59H221.87ZM219.74 506.59H214.1L213.35 512.41H219.02L219.74 506.59ZM245.484 517.39V520H230.244V499H245.064V501.61H233.244V508.06H243.774V510.61H233.244V517.39H245.484ZM256.32 507.82C258.38 508.02 259.95 508.66 261.03 509.74C262.11 510.8 262.65 512.16 262.65 513.82C262.65 515.02 262.35 516.11 261.75 517.09C261.15 518.05 260.25 518.82 259.05 519.4C257.87 519.96 256.42 520.24 254.7 520.24C253.2 520.24 251.76 520.02 250.38 519.58C249 519.12 247.87 518.49 246.99 517.69L248.37 515.32C249.09 516 250.01 516.55 251.13 516.97C252.25 517.37 253.44 517.57 254.7 517.57C256.26 517.57 257.47 517.24 258.33 516.58C259.21 515.92 259.65 515.01 259.65 513.85C259.65 512.69 259.22 511.79 258.36 511.15C257.5 510.51 256.2 510.19 254.46 510.19H252.78V508.09L258.06 501.61H247.95V499H261.81V501.04L256.32 507.82ZM270.158 501.61V508.93H280.688V511.51H270.158V520H267.158V499H281.978V501.61H270.158ZM291.44 499V520H288.47V501.61H283.73V499H291.44ZM300.744 501.61V508.93H311.274V511.51H300.744V520H297.744V499H312.564V501.61H300.744ZM319.787 501.61V508.93H330.317V511.51H319.787V520H316.787V499H331.607V501.61H319.787ZM360 497.74H362.67V525.82H360V497.74ZM406.184 517.39V520H391.094V517.96L399.644 509.71C400.684 508.71 401.384 507.85 401.744 507.13C402.104 506.39 402.284 505.65 402.284 504.91C402.284 503.81 401.894 502.96 401.114 502.36C400.354 501.74 399.254 501.43 397.814 501.43C395.494 501.43 393.704 502.19 392.444 503.71L390.404 501.94C391.224 500.94 392.294 500.16 393.614 499.6C394.954 499.04 396.444 498.76 398.084 498.76C400.284 498.76 402.034 499.29 403.334 500.35C404.634 501.39 405.284 502.81 405.284 504.61C405.284 505.73 405.044 506.79 404.564 507.79C404.084 508.79 403.174 509.93 401.834 511.21L395.414 517.39H406.184ZM423.411 517.39V520H408.321V517.96L416.871 509.71C417.911 508.71 418.611 507.85 418.971 507.13C419.331 506.39 419.511 505.65 419.511 504.91C419.511 503.81 419.121 502.96 418.341 502.36C417.581 501.74 416.481 501.43 415.041 501.43C412.721 501.43 410.931 502.19 409.671 503.71L407.631 501.94C408.451 500.94 409.521 500.16 410.841 499.6C412.181 499.04 413.671 498.76 415.311 498.76C417.511 498.76 419.261 499.29 420.561 500.35C421.861 501.39 422.511 502.81 422.511 504.61C422.511 505.73 422.271 506.79 421.791 507.79C421.311 508.79 420.401 509.93 419.061 511.21L412.641 517.39H423.411ZM441.09 499V501.04L432.6 520H429.42L437.73 501.61H428.13V505.36H425.25V499H441.09ZM444.177 516.07C444.737 516.07 445.197 516.27 445.557 516.67C445.937 517.05 446.127 517.53 446.127 518.11C446.127 518.41 446.087 518.7 446.007 518.98C445.947 519.26 445.817 519.69 445.617 520.27L444.207 524.44H442.317L443.427 519.97C443.047 519.83 442.737 519.6 442.497 519.28C442.277 518.94 442.167 518.55 442.167 518.11C442.167 517.51 442.357 517.02 442.737 516.64C443.117 516.26 443.597 516.07 444.177 516.07ZM471.78 517.39V520H456.69V517.96L465.24 509.71C466.28 508.71 466.98 507.85 467.34 507.13C467.7 506.39 467.88 505.65 467.88 504.91C467.88 503.81 467.49 502.96 466.71 502.36C465.95 501.74 464.85 501.43 463.41 501.43C461.09 501.43 459.3 502.19 458.04 503.71L456 501.94C456.82 500.94 457.89 500.16 459.21 499.6C460.55 499.04 462.04 498.76 463.68 498.76C465.88 498.76 467.63 499.29 468.93 500.35C470.23 501.39 470.88 502.81 470.88 504.61C470.88 505.73 470.64 506.79 470.16 507.79C469.68 508.79 468.77 509.93 467.43 511.21L461.01 517.39H471.78ZM491.96 514.84H487.97V520H485.06V514.84H473.39V512.74L484.13 499H487.37L477.08 512.26H485.15V507.7H487.97V512.26H491.96V514.84ZM499.507 499V520H496.537V501.61H491.797V499H499.507ZM506.11 516.07C506.67 516.07 507.13 516.27 507.49 516.67C507.87 517.05 508.06 517.53 508.06 518.11C508.06 518.41 508.02 518.7 507.94 518.98C507.88 519.26 507.75 519.69 507.55 520.27L506.14 524.44H504.25L505.36 519.97C504.98 519.83 504.67 519.6 504.43 519.28C504.21 518.94 504.1 518.55 504.1 518.11C504.1 517.51 504.29 517.02 504.67 516.64C505.05 516.26 505.53 516.07 506.11 516.07ZM533.714 517.39V520H518.624V517.96L527.174 509.71C528.214 508.71 528.914 507.85 529.274 507.13C529.634 506.39 529.814 505.65 529.814 504.91C529.814 503.81 529.424 502.96 528.644 502.36C527.884 501.74 526.784 501.43 525.344 501.43C523.024 501.43 521.234 502.19 519.974 503.71L517.934 501.94C518.754 500.94 519.824 500.16 521.144 499.6C522.484 499.04 523.974 498.76 525.614 498.76C527.814 498.76 529.564 499.29 530.864 500.35C532.164 501.39 532.814 502.81 532.814 504.61C532.814 505.73 532.574 506.79 532.094 507.79C531.614 508.79 530.704 509.93 529.364 511.21L522.944 517.39H533.714ZM542.18 507.37C545.18 507.37 547.38 507.94 548.78 509.08C550.2 510.2 550.91 511.74 550.91 513.7C550.91 514.94 550.61 516.06 550.01 517.06C549.43 518.04 548.54 518.82 547.34 519.4C546.16 519.96 544.7 520.24 542.96 520.24C541.48 520.24 540.05 520.02 538.67 519.58C537.29 519.12 536.15 518.49 535.25 517.69L536.63 515.32C537.35 516 538.27 516.55 539.39 516.97C540.51 517.37 541.69 517.57 542.93 517.57C544.51 517.57 545.73 517.24 546.59 516.58C547.47 515.9 547.91 514.98 547.91 513.82C547.91 512.56 547.43 511.61 546.47 510.97C545.51 510.31 543.87 509.98 541.55 509.98H536.78L537.89 499H549.74V501.61H540.41L539.84 507.37H542.18ZM559.26 507.37C562.26 507.37 564.46 507.94 565.86 509.08C567.28 510.2 567.99 511.74 567.99 513.7C567.99 514.94 567.69 516.06 567.09 517.06C566.51 518.04 565.62 518.82 564.42 519.4C563.24 519.96 561.78 520.24 560.04 520.24C558.56 520.24 557.13 520.02 555.75 519.58C554.37 519.12 553.23 518.49 552.33 517.69L553.71 515.32C554.43 516 555.35 516.55 556.47 516.97C557.59 517.37 558.77 517.57 560.01 517.57C561.59 517.57 562.81 517.24 563.67 516.58C564.55 515.9 564.99 514.98 564.99 513.82C564.99 512.56 564.51 511.61 563.55 510.97C562.59 510.31 560.95 509.98 558.63 509.98H553.86L554.97 499H566.82V501.61H557.49L556.92 507.37H559.26Z" fill="#0C3866"/>
<path d="M213.42 668.42C211.763 668.42 210.235 668.117 208.835 667.51C207.458 666.88 206.327 665.993 205.44 664.85L208.59 661.07C209.92 662.867 211.437 663.765 213.14 663.765C215.45 663.765 216.605 662.412 216.605 659.705V648.05H207.995V643.5H222.24V659.39C222.24 662.4 221.493 664.663 220 666.18C218.507 667.673 216.313 668.42 213.42 668.42ZM243.463 662.75H232.088L229.918 668H224.108L235.028 643.5H240.628L251.583 668H245.633L243.463 662.75ZM241.678 658.445L237.793 649.065L233.908 658.445H241.678ZM262.175 668.42C260.238 668.42 258.36 668.163 256.54 667.65C254.743 667.113 253.296 666.425 252.2 665.585L254.125 661.315C255.175 662.085 256.423 662.703 257.87 663.17C259.316 663.637 260.763 663.87 262.21 663.87C263.82 663.87 265.01 663.637 265.78 663.17C266.55 662.68 266.935 662.038 266.935 661.245C266.935 660.662 266.701 660.183 266.235 659.81C265.791 659.413 265.208 659.098 264.485 658.865C263.785 658.632 262.828 658.375 261.615 658.095C259.748 657.652 258.22 657.208 257.03 656.765C255.84 656.322 254.813 655.61 253.95 654.63C253.11 653.65 252.69 652.343 252.69 650.71C252.69 649.287 253.075 648.003 253.845 646.86C254.615 645.693 255.77 644.772 257.31 644.095C258.873 643.418 260.775 643.08 263.015 643.08C264.578 643.08 266.106 643.267 267.6 643.64C269.093 644.013 270.4 644.55 271.52 645.25L269.77 649.555C267.506 648.272 265.243 647.63 262.98 647.63C261.393 647.63 260.215 647.887 259.445 648.4C258.698 648.913 258.325 649.59 258.325 650.43C258.325 651.27 258.756 651.9 259.62 652.32C260.506 652.717 261.848 653.113 263.645 653.51C265.511 653.953 267.04 654.397 268.23 654.84C269.42 655.283 270.435 655.983 271.275 656.94C272.138 657.897 272.57 659.192 272.57 660.825C272.57 662.225 272.173 663.508 271.38 664.675C270.61 665.818 269.443 666.728 267.88 667.405C266.316 668.082 264.415 668.42 262.175 668.42ZM298.739 668L298.704 653.3L291.494 665.41H288.939L281.764 653.615V668H276.444V643.5H281.134L290.304 658.725L299.334 643.5H303.989L304.059 668H298.739ZM309.872 643.5H315.542V668H309.872V643.5ZM343.826 643.5V668H339.171L326.956 653.125V668H321.356V643.5H326.046L338.226 658.375V643.5H343.826ZM368.593 663.45V668H349.623V643.5H368.138V648.05H355.258V653.37H366.633V657.78H355.258V663.45H368.593ZM221.87 705.59L221.15 711.41H225.32V713.6H220.88L220.22 719H218.09L218.75 713.6H213.08L212.42 719H210.29L210.95 713.6H206.81V711.41H211.22L211.97 705.59H207.77V703.4H212.24L212.9 698H215.03L214.37 703.4H220.01L220.67 698H222.8L222.14 703.4H226.28V705.59H221.87ZM219.74 705.59H214.1L213.35 711.41H219.02L219.74 705.59ZM233.244 700.61V707.93H243.774V710.51H233.244V719H230.244V698H245.064V700.61H233.244ZM252.287 700.61V707.93H262.817V710.51H252.287V719H249.287V698H264.107V700.61H252.287ZM283.57 716.39V719H268.33V698H283.15V700.61H271.33V707.06H281.86V709.61H271.33V716.39H283.57ZM304.05 713.84H300.06V719H297.15V713.84H285.48V711.74L296.22 698H299.46L289.17 711.26H297.24V706.7H300.06V711.26H304.05V713.84ZM318.981 707.99C320.181 708.45 321.101 709.11 321.741 709.97C322.381 710.83 322.701 711.86 322.701 713.06C322.701 714.32 322.361 715.42 321.681 716.36C321.001 717.28 320.031 717.99 318.771 718.49C317.511 718.99 316.031 719.24 314.331 719.24C312.651 719.24 311.181 718.99 309.921 718.49C308.681 717.99 307.721 717.28 307.041 716.36C306.361 715.42 306.021 714.32 306.021 713.06C306.021 711.86 306.331 710.83 306.951 709.97C307.591 709.11 308.511 708.45 309.711 707.99C308.751 707.53 308.021 706.92 307.521 706.16C307.021 705.4 306.771 704.5 306.771 703.46C306.771 702.3 307.081 701.29 307.701 700.43C308.341 699.57 309.231 698.91 310.371 698.45C311.511 697.99 312.831 697.76 314.331 697.76C315.851 697.76 317.181 697.99 318.321 698.45C319.481 698.91 320.371 699.57 320.991 700.43C321.631 701.29 321.951 702.3 321.951 703.46C321.951 704.48 321.691 705.38 321.171 706.16C320.671 706.92 319.941 707.53 318.981 707.99ZM314.331 700.19C312.911 700.19 311.791 700.5 310.971 701.12C310.151 701.72 309.741 702.54 309.741 703.58C309.741 704.62 310.141 705.44 310.941 706.04C311.761 706.64 312.891 706.94 314.331 706.94C315.791 706.94 316.931 706.64 317.751 706.04C318.591 705.44 319.011 704.62 319.011 703.58C319.011 702.54 318.581 701.72 317.721 701.12C316.881 700.5 315.751 700.19 314.331 700.19ZM314.331 716.81C315.991 716.81 317.301 716.47 318.261 715.79C319.221 715.09 319.701 714.15 319.701 712.97C319.701 711.81 319.221 710.9 318.261 710.24C317.301 709.56 315.991 709.22 314.331 709.22C312.671 709.22 311.371 709.56 310.431 710.24C309.491 710.9 309.021 711.81 309.021 712.97C309.021 714.15 309.491 715.09 310.431 715.79C311.371 716.47 312.671 716.81 314.331 716.81ZM343.718 713.84H339.728V719H336.818V713.84H325.148V711.74L335.888 698H339.128L328.838 711.26H336.908V706.7H339.728V711.26H343.718V713.84ZM371.396 696.74H374.066V724.82H371.396V696.74ZM417.581 716.39V719H402.491V716.96L411.041 708.71C412.081 707.71 412.781 706.85 413.141 706.13C413.501 705.39 413.681 704.65 413.681 703.91C413.681 702.81 413.291 701.96 412.511 701.36C411.751 700.74 410.651 700.43 409.211 700.43C406.891 700.43 405.101 701.19 403.841 702.71L401.801 700.94C402.621 699.94 403.691 699.16 405.011 698.6C406.351 698.04 407.841 697.76 409.481 697.76C411.681 697.76 413.431 698.29 414.731 699.35C416.031 700.39 416.681 701.81 416.681 703.61C416.681 704.73 416.441 705.79 415.961 706.79C415.481 707.79 414.571 708.93 413.231 710.21L406.811 716.39H417.581ZM426.047 706.37C429.047 706.37 431.247 706.94 432.647 708.08C434.067 709.2 434.777 710.74 434.777 712.7C434.777 713.94 434.477 715.06 433.877 716.06C433.297 717.04 432.407 717.82 431.207 718.4C430.027 718.96 428.567 719.24 426.827 719.24C425.347 719.24 423.917 719.02 422.537 718.58C421.157 718.12 420.017 717.49 419.117 716.69L420.497 714.32C421.217 715 422.137 715.55 423.257 715.97C424.377 716.37 425.557 716.57 426.797 716.57C428.377 716.57 429.597 716.24 430.457 715.58C431.337 714.9 431.777 713.98 431.777 712.82C431.777 711.56 431.297 710.61 430.337 709.97C429.377 709.31 427.737 708.98 425.417 708.98H420.647L421.757 698H433.607V700.61H424.277L423.707 706.37H426.047ZM443.128 706.37C446.128 706.37 448.328 706.94 449.728 708.08C451.148 709.2 451.858 710.74 451.858 712.7C451.858 713.94 451.558 715.06 450.958 716.06C450.378 717.04 449.488 717.82 448.288 718.4C447.108 718.96 445.648 719.24 443.908 719.24C442.428 719.24 440.998 719.02 439.618 718.58C438.238 718.12 437.098 717.49 436.198 716.69L437.578 714.32C438.298 715 439.218 715.55 440.338 715.97C441.458 716.37 442.638 716.57 443.878 716.57C445.458 716.57 446.678 716.24 447.538 715.58C448.418 714.9 448.858 713.98 448.858 712.82C448.858 711.56 448.378 710.61 447.418 709.97C446.458 709.31 444.818 708.98 442.498 708.98H437.728L438.838 698H450.688V700.61H441.358L440.788 706.37H443.128ZM456.364 715.07C456.924 715.07 457.384 715.27 457.744 715.67C458.124 716.05 458.314 716.53 458.314 717.11C458.314 717.41 458.274 717.7 458.194 717.98C458.134 718.26 458.004 718.69 457.804 719.27L456.394 723.44H454.504L455.614 718.97C455.234 718.83 454.924 718.6 454.684 718.28C454.464 717.94 454.354 717.55 454.354 717.11C454.354 716.51 454.544 716.02 454.924 715.64C455.304 715.26 455.784 715.07 456.364 715.07ZM483.968 716.39V719H468.878V716.96L477.428 708.71C478.468 707.71 479.168 706.85 479.528 706.13C479.888 705.39 480.068 704.65 480.068 703.91C480.068 702.81 479.678 701.96 478.898 701.36C478.138 700.74 477.038 700.43 475.598 700.43C473.278 700.43 471.488 701.19 470.228 702.71L468.188 700.94C469.008 699.94 470.078 699.16 471.398 698.6C472.738 698.04 474.228 697.76 475.868 697.76C478.068 697.76 479.818 698.29 481.118 699.35C482.418 700.39 483.068 701.81 483.068 703.61C483.068 704.73 482.828 705.79 482.348 706.79C481.868 707.79 480.958 708.93 479.618 710.21L473.198 716.39H483.968ZM501.194 716.39V719H486.104V716.96L494.654 708.71C495.694 707.71 496.394 706.85 496.754 706.13C497.114 705.39 497.294 704.65 497.294 703.91C497.294 702.81 496.904 701.96 496.124 701.36C495.364 700.74 494.264 700.43 492.824 700.43C490.504 700.43 488.714 701.19 487.454 702.71L485.414 700.94C486.234 699.94 487.304 699.16 488.624 698.6C489.964 698.04 491.454 697.76 493.094 697.76C495.294 697.76 497.044 698.29 498.344 699.35C499.644 700.39 500.294 701.81 500.294 703.61C500.294 704.73 500.054 705.79 499.574 706.79C499.094 707.79 498.184 708.93 496.844 710.21L490.424 716.39H501.194ZM516.501 707.99C517.701 708.45 518.621 709.11 519.261 709.97C519.901 710.83 520.221 711.86 520.221 713.06C520.221 714.32 519.881 715.42 519.201 716.36C518.521 717.28 517.551 717.99 516.291 718.49C515.031 718.99 513.551 719.24 511.851 719.24C510.171 719.24 508.701 718.99 507.441 718.49C506.201 717.99 505.241 717.28 504.561 716.36C503.881 715.42 503.541 714.32 503.541 713.06C503.541 711.86 503.851 710.83 504.471 709.97C505.111 709.11 506.031 708.45 507.231 707.99C506.271 707.53 505.541 706.92 505.041 706.16C504.541 705.4 504.291 704.5 504.291 703.46C504.291 702.3 504.601 701.29 505.221 700.43C505.861 699.57 506.751 698.91 507.891 698.45C509.031 697.99 510.351 697.76 511.851 697.76C513.371 697.76 514.701 697.99 515.841 698.45C517.001 698.91 517.891 699.57 518.511 700.43C519.151 701.29 519.471 702.3 519.471 703.46C519.471 704.48 519.211 705.38 518.691 706.16C518.191 706.92 517.461 707.53 516.501 707.99ZM511.851 700.19C510.431 700.19 509.311 700.5 508.491 701.12C507.671 701.72 507.261 702.54 507.261 703.58C507.261 704.62 507.661 705.44 508.461 706.04C509.281 706.64 510.411 706.94 511.851 706.94C513.311 706.94 514.451 706.64 515.271 706.04C516.111 705.44 516.531 704.62 516.531 703.58C516.531 702.54 516.101 701.72 515.241 701.12C514.401 700.5 513.271 700.19 511.851 700.19ZM511.851 716.81C513.511 716.81 514.821 716.47 515.781 715.79C516.741 715.09 517.221 714.15 517.221 712.97C517.221 711.81 516.741 710.9 515.781 710.24C514.821 709.56 513.511 709.22 511.851 709.22C510.191 709.22 508.891 709.56 507.951 710.24C507.011 710.9 506.541 711.81 506.541 712.97C506.541 714.15 507.011 715.09 507.951 715.79C508.891 716.47 510.191 716.81 511.851 716.81ZM525.27 715.07C525.83 715.07 526.29 715.27 526.65 715.67C527.03 716.05 527.22 716.53 527.22 717.11C527.22 717.41 527.18 717.7 527.1 717.98C527.04 718.26 526.91 718.69 526.71 719.27L525.3 723.44H523.41L524.52 718.97C524.14 718.83 523.83 718.6 523.59 718.28C523.37 717.94 523.26 717.55 523.26 717.11C523.26 716.51 523.45 716.02 523.83 715.64C524.21 715.26 524.69 715.07 525.27 715.07ZM544.624 698V719H541.654V700.61H536.914V698H544.624ZM557.257 706.82C559.317 707.02 560.887 707.66 561.967 708.74C563.047 709.8 563.587 711.16 563.587 712.82C563.587 714.02 563.287 715.11 562.687 716.09C562.087 717.05 561.187 717.82 559.987 718.4C558.807 718.96 557.357 719.24 555.637 719.24C554.137 719.24 552.697 719.02 551.317 718.58C549.937 718.12 548.807 717.49 547.927 716.69L549.307 714.32C550.027 715 550.947 715.55 552.067 715.97C553.187 716.37 554.377 716.57 555.637 716.57C557.197 716.57 558.407 716.24 559.267 715.58C560.147 714.92 560.587 714.01 560.587 712.85C560.587 711.69 560.157 710.79 559.297 710.15C558.437 709.51 557.137 709.19 555.397 709.19H553.717V707.09L558.997 700.61H548.887V698H562.747V700.04L557.257 706.82ZM580.999 716.39V719H565.909V716.96L574.459 708.71C575.499 707.71 576.199 706.85 576.559 706.13C576.919 705.39 577.099 704.65 577.099 703.91C577.099 702.81 576.709 701.96 575.929 701.36C575.169 700.74 574.069 700.43 572.629 700.43C570.309 700.43 568.519 701.19 567.259 702.71L565.219 700.94C566.039 699.94 567.109 699.16 568.429 698.6C569.769 698.04 571.259 697.76 572.899 697.76C575.099 697.76 576.849 698.29 578.149 699.35C579.449 700.39 580.099 701.81 580.099 703.61C580.099 704.73 579.859 705.79 579.379 706.79C578.899 707.79 577.989 708.93 576.649 710.21L570.229 716.39H580.999Z" fill="#0C3866"/>
</svg>
