<svg width="222" height="221" viewBox="0 0 222 221" fill="none" xmlns="http://www.w3.org/2000/svg">
<circle cx="110.771" cy="110.599" r="110.266" fill="url(#paint0_linear)"/>
<path d="M58.2001 31.4043C58.0321 32.1003 57.8641 32.8563 57.6961 33.6723C57.5281 34.4763 57.3961 35.1903 57.3001 35.8143H55.5901L55.4641 35.6163C55.6321 34.9803 55.8601 34.2843 56.1481 33.5283C56.4361 32.7603 56.7301 32.0523 57.0301 31.4043H58.2001ZM54.8701 31.4043C54.7021 32.1003 54.5341 32.8563 54.3661 33.6723C54.1981 34.4763 54.0661 35.1903 53.9701 35.8143H52.2781L52.1701 35.6163C52.3381 34.9803 52.5601 34.2843 52.8361 33.5283C53.1241 32.7603 53.4181 32.0523 53.7181 31.4043H54.8701ZM60.2409 32.9343H61.6629V44.2563H60.2409V32.9343ZM70.9429 37.3083C71.5069 36.0603 72.4729 35.4363 73.8409 35.4363C74.5849 35.4363 75.2089 35.6223 75.7129 35.9943C76.2169 36.3543 76.5829 36.8583 76.8109 37.5063C77.3509 36.1263 78.3529 35.4363 79.8169 35.4363C80.8489 35.4363 81.6469 35.7723 82.2109 36.4443C82.7749 37.1163 83.0569 38.0343 83.0569 39.1983V44.2563H81.6529V39.1983C81.6529 38.3703 81.4549 37.7463 81.0589 37.3263C80.6749 36.9063 80.1169 36.6963 79.3849 36.6963C78.6529 36.6963 78.0829 36.9963 77.6749 37.5963C77.2789 38.1963 77.0809 39.0243 77.0809 40.0803V44.2563H75.6769V39.1983C75.6769 38.3703 75.4789 37.7463 75.0829 37.3263C74.6989 36.9063 74.1469 36.6963 73.4269 36.6963C72.7069 36.6963 72.1249 36.9903 71.6809 37.5783C71.2369 38.1663 71.0029 38.9823 70.9789 40.0263V44.2563H69.5569V35.6523H70.7809L70.9429 37.3083ZM86.4871 35.6343H87.9091V44.2563H86.4871V35.6343ZM87.1891 33.6183C86.9011 33.6183 86.6731 33.5403 86.5051 33.3843C86.3491 33.2163 86.2711 33.0003 86.2711 32.7363C86.2711 32.4603 86.3491 32.2443 86.5051 32.0883C86.6731 31.9203 86.9011 31.8363 87.1891 31.8363C87.4771 31.8363 87.7051 31.9203 87.8731 32.0883C88.0531 32.2443 88.1431 32.4603 88.1431 32.7363C88.1431 33.0003 88.0531 33.2163 87.8731 33.3843C87.7051 33.5403 87.4771 33.6183 87.1891 33.6183ZM91.326 37.7583C91.326 37.0503 91.626 36.4863 92.226 36.0663C92.838 35.6463 93.66 35.4363 94.692 35.4363C95.724 35.4363 96.528 35.6523 97.104 36.0843C97.692 36.5163 97.998 37.0623 98.022 37.7223H96.636C96.528 36.9423 95.868 36.5523 94.656 36.5523C94.068 36.5523 93.612 36.6843 93.288 36.9483C92.976 37.2123 92.82 37.5003 92.82 37.8123C92.82 38.1123 92.94 38.3703 93.18 38.5863C93.42 38.7903 93.804 38.9703 94.332 39.1263L96.06 39.7023C96.792 39.9303 97.35 40.2243 97.734 40.5843C98.13 40.9323 98.328 41.4183 98.328 42.0423C98.328 42.6543 98.01 43.2123 97.374 43.7163C96.738 44.2083 95.85 44.4543 94.71 44.4543C93.57 44.4543 92.682 44.2023 92.046 43.6983C91.41 43.1823 91.074 42.5223 91.038 41.7183H92.406C92.43 42.2583 92.646 42.6663 93.054 42.9423C93.474 43.2063 93.996 43.3383 94.62 43.3383C95.244 43.3383 95.76 43.2063 96.168 42.9423C96.576 42.6783 96.78 42.3663 96.78 42.0063C96.78 41.6343 96.66 41.3523 96.42 41.1603C96.18 40.9683 95.79 40.8003 95.25 40.6563L93.576 40.0983C92.076 39.6543 91.326 38.8743 91.326 37.7583ZM100.801 37.7583C100.801 37.0503 101.101 36.4863 101.701 36.0663C102.313 35.6463 103.135 35.4363 104.167 35.4363C105.199 35.4363 106.003 35.6523 106.579 36.0843C107.167 36.5163 107.473 37.0623 107.497 37.7223H106.111C106.003 36.9423 105.343 36.5523 104.131 36.5523C103.543 36.5523 103.087 36.6843 102.763 36.9483C102.451 37.2123 102.295 37.5003 102.295 37.8123C102.295 38.1123 102.415 38.3703 102.655 38.5863C102.895 38.7903 103.279 38.9703 103.807 39.1263L105.535 39.7023C106.267 39.9303 106.825 40.2243 107.209 40.5843C107.605 40.9323 107.803 41.4183 107.803 42.0423C107.803 42.6543 107.485 43.2123 106.849 43.7163C106.213 44.2083 105.325 44.4543 104.185 44.4543C103.045 44.4543 102.157 44.2023 101.521 43.6983C100.885 43.1823 100.549 42.5223 100.513 41.7183H101.881C101.905 42.2583 102.121 42.6663 102.529 42.9423C102.949 43.2063 103.471 43.3383 104.095 43.3383C104.719 43.3383 105.235 43.2063 105.643 42.9423C106.051 42.6783 106.255 42.3663 106.255 42.0063C106.255 41.6343 106.135 41.3523 105.895 41.1603C105.655 40.9683 105.265 40.8003 104.725 40.6563L103.051 40.0983C101.551 39.6543 100.801 38.8743 100.801 37.7583ZM116.436 37.2363C117.012 36.0363 117.966 35.4363 119.298 35.4363C120.318 35.4363 121.11 35.7723 121.674 36.4443C122.25 37.1163 122.538 38.0343 122.538 39.1983V44.2563H121.134V39.1983C121.134 38.3703 120.936 37.7463 120.54 37.3263C120.156 36.9063 119.598 36.6963 118.866 36.6963C118.134 36.6963 117.546 37.0083 117.102 37.6323C116.658 38.2443 116.436 39.0963 116.436 40.1883V44.2563H115.014V31.9983H116.436V37.2363ZM131.206 38.6763C131.206 37.8963 131.044 37.3383 130.72 37.0023C130.396 36.6663 129.922 36.4983 129.298 36.4983C128.686 36.4983 128.188 36.6243 127.804 36.8763C127.432 37.1163 127.246 37.5003 127.246 38.0283H125.68C125.68 36.7083 126.388 35.8923 127.804 35.5803C128.236 35.4843 128.704 35.4363 129.208 35.4363C130.276 35.4363 131.11 35.7063 131.71 36.2463C132.31 36.7863 132.61 37.6083 132.61 38.7123V44.2563H131.386L131.242 42.8163C130.714 43.9083 129.76 44.4543 128.38 44.4543C127.456 44.4543 126.712 44.1963 126.148 43.6803C125.596 43.1643 125.32 42.5223 125.32 41.7543C125.32 40.9863 125.626 40.3863 126.238 39.9543C126.862 39.5223 127.636 39.3063 128.56 39.3063C129.484 39.3063 130.366 39.4623 131.206 39.7743V38.6763ZM131.206 40.6743C130.354 40.4343 129.61 40.3143 128.974 40.3143C128.338 40.3143 127.822 40.4283 127.426 40.6563C127.03 40.8843 126.832 41.2443 126.832 41.7363C126.832 42.8163 127.444 43.3563 128.668 43.3563C129.364 43.3563 129.958 43.1103 130.45 42.6183C130.954 42.1143 131.206 41.4663 131.206 40.6743ZM136.058 35.6523L138.65 42.7623L141.26 35.6523H142.862L139.442 44.2563H137.876L134.456 35.6523H136.058ZM145.093 35.6343H146.515V44.2563H145.093V35.6343ZM145.795 33.6183C145.507 33.6183 145.279 33.5403 145.111 33.3843C144.955 33.2163 144.877 33.0003 144.877 32.7363C144.877 32.4603 144.955 32.2443 145.111 32.0883C145.279 31.9203 145.507 31.8363 145.795 31.8363C146.083 31.8363 146.311 31.9203 146.479 32.0883C146.659 32.2443 146.749 32.4603 146.749 32.7363C146.749 33.0003 146.659 33.2163 146.479 33.3843C146.311 33.5403 146.083 33.6183 145.795 33.6183ZM151.749 37.3083C152.313 36.0603 153.279 35.4363 154.647 35.4363C155.667 35.4363 156.459 35.7723 157.023 36.4443C157.599 37.1163 157.887 38.0343 157.887 39.1983V44.2563H156.483V39.1983C156.483 38.3703 156.285 37.7463 155.889 37.3263C155.505 36.9063 154.953 36.6963 154.233 36.6963C153.513 36.6963 152.931 36.9903 152.487 37.5783C152.043 38.1663 151.809 38.9823 151.785 40.0263V44.2563H150.363V35.6523H151.587L151.749 37.3083ZM161.587 43.9863C160.867 43.6383 160.507 43.1043 160.507 42.3843C160.507 42.0123 160.645 41.6883 160.921 41.4123C161.209 41.1243 161.563 40.9323 161.983 40.8363C161.335 40.2603 161.011 39.5043 161.011 38.5683C161.011 37.6323 161.341 36.8763 162.001 36.3003C162.673 35.7243 163.465 35.4363 164.377 35.4363C165.289 35.4363 166.063 35.6523 166.699 36.0843C166.783 35.4483 167.035 34.9383 167.455 34.5543C167.887 34.1703 168.451 33.9783 169.147 33.9783L169.021 35.3823C167.965 35.3823 167.413 35.8263 167.365 36.7143C167.785 37.2303 167.995 37.8483 167.995 38.5683C167.995 39.4923 167.659 40.2543 166.987 40.8543C166.327 41.4423 165.499 41.7363 164.503 41.7363C163.819 41.7363 163.213 41.5983 162.685 41.3223C162.445 41.3703 162.229 41.4843 162.037 41.6643C161.845 41.8323 161.749 42.0663 161.749 42.3663C161.749 43.0023 162.277 43.3203 163.333 43.3203H166.681C167.485 43.3203 168.121 43.4943 168.589 43.8423C169.057 44.1783 169.291 44.6523 169.291 45.2643C169.291 46.1763 168.829 46.9743 167.905 47.6583C166.993 48.3423 165.835 48.6843 164.431 48.6843C163.027 48.6843 161.923 48.4203 161.119 47.8923C160.315 47.3763 159.913 46.7223 159.913 45.9303C159.913 45.4143 160.063 44.9943 160.363 44.6703C160.675 44.3463 161.083 44.1183 161.587 43.9863ZM161.317 45.8763C161.317 46.3323 161.563 46.7223 162.055 47.0463C162.559 47.3823 163.315 47.5503 164.323 47.5503C165.343 47.5503 166.189 47.3283 166.861 46.8843C167.545 46.4523 167.887 45.9423 167.887 45.3543C167.887 45.0783 167.785 44.8383 167.581 44.6343C167.389 44.4423 167.089 44.3463 166.681 44.3463H163.207C162.595 44.3703 162.127 44.5143 161.803 44.7783C161.479 45.0543 161.317 45.4203 161.317 45.8763ZM166.609 38.5683C166.609 37.9443 166.423 37.4403 166.051 37.0563C165.679 36.6603 165.163 36.4623 164.503 36.4623C163.855 36.4623 163.345 36.6603 162.973 37.0563C162.601 37.4403 162.415 37.9443 162.415 38.5683C162.415 39.1923 162.601 39.7083 162.973 40.1163C163.357 40.5123 163.873 40.7103 164.521 40.7103C165.169 40.7103 165.679 40.5063 166.051 40.0983C166.423 39.6903 166.609 39.1803 166.609 38.5683ZM57.9557 64.0043C56.9237 64.4843 55.9817 64.5863 55.1297 64.3103C54.5177 64.1183 54.0857 63.7163 53.8337 63.1043C53.7017 62.8043 53.6357 62.4443 53.6357 62.0243V56.7323H52.2497V55.6523H53.6357V53.2583H55.0397V55.6523H57.7397V56.7323H55.0397V62.0063C55.0397 62.8823 55.4477 63.3203 56.2637 63.3203C56.7077 63.3203 57.2057 63.2123 57.7577 62.9963L57.9557 64.0043ZM63.7333 56.8583C62.3773 56.8583 61.6753 57.9263 61.6273 60.0623V64.2563H60.2053V55.6343H61.6273V57.2903C62.0593 56.0903 62.8213 55.4903 63.9133 55.4903C64.2613 55.4903 64.5913 55.5443 64.9033 55.6523L64.8313 57.0383C64.4713 56.9183 64.1053 56.8583 63.7333 56.8583ZM72.4068 58.6763C72.4068 57.8963 72.2448 57.3383 71.9208 57.0023C71.5968 56.6663 71.1228 56.4983 70.4988 56.4983C69.8868 56.4983 69.3888 56.6243 69.0048 56.8763C68.6328 57.1163 68.4468 57.5003 68.4468 58.0283H66.8808C66.8808 56.7083 67.5888 55.8923 69.0048 55.5803C69.4368 55.4843 69.9048 55.4363 70.4088 55.4363C71.4768 55.4363 72.3108 55.7063 72.9108 56.2463C73.5108 56.7863 73.8108 57.6083 73.8108 58.7123V64.2563H72.5868L72.4428 62.8163C71.9148 63.9083 70.9608 64.4543 69.5808 64.4543C68.6568 64.4543 67.9128 64.1963 67.3488 63.6803C66.7968 63.1643 66.5208 62.5223 66.5208 61.7543C66.5208 60.9863 66.8268 60.3863 67.4388 59.9543C68.0628 59.5223 68.8368 59.3063 69.7608 59.3063C70.6848 59.3063 71.5668 59.4623 72.4068 59.7743V58.6763ZM72.4068 60.6743C71.5548 60.4343 70.8108 60.3143 70.1748 60.3143C69.5388 60.3143 69.0228 60.4283 68.6268 60.6563C68.2308 60.8843 68.0328 61.2443 68.0328 61.7363C68.0328 62.8163 68.6448 63.3563 69.8688 63.3563C70.5648 63.3563 71.1588 63.1103 71.6508 62.6183C72.1548 62.1143 72.4068 61.4663 72.4068 60.6743ZM77.259 55.6523L79.851 62.7623L82.461 55.6523H84.063L80.643 64.2563H79.077L75.657 55.6523H77.259ZM89.1738 63.3023C90.3618 63.3023 91.0398 62.7803 91.2078 61.7363H92.6658C92.5338 62.6003 92.1498 63.2723 91.5138 63.7523C90.8898 64.2203 90.1098 64.4543 89.1738 64.4543C88.0218 64.4543 87.0858 64.0463 86.3658 63.2303C85.6458 62.4023 85.2858 61.3043 85.2858 59.9363C85.2858 58.5683 85.6458 57.4763 86.3658 56.6603C87.0978 55.8443 88.0638 55.4363 89.2638 55.4363C90.4758 55.4363 91.3758 55.9043 91.9638 56.8403C92.5638 57.7763 92.7738 58.9163 92.5938 60.2603H86.7078C86.7078 61.1483 86.9238 61.8803 87.3558 62.4563C87.7878 63.0203 88.3938 63.3023 89.1738 63.3023ZM90.2178 56.7863C89.9418 56.6423 89.6058 56.5703 89.2098 56.5703C88.4778 56.5703 87.8958 56.8223 87.4638 57.3263C87.0438 57.8183 86.7978 58.4363 86.7258 59.1803H91.3158C91.3158 57.9803 90.9498 57.1823 90.2178 56.7863ZM95.4674 51.9983H96.8894V64.2563H95.4674V51.9983ZM106.223 56.9303C106.799 55.9343 107.639 55.4363 108.743 55.4363C109.847 55.4363 110.765 55.8503 111.497 56.6783C112.229 57.4943 112.595 58.5803 112.595 59.9363C112.595 61.2803 112.223 62.3723 111.479 63.2123C110.735 64.0403 109.829 64.4543 108.761 64.4543C108.185 64.4543 107.663 64.3103 107.195 64.0223C106.739 63.7343 106.379 63.3083 106.115 62.7443L105.791 64.2563H104.801V51.9983H106.223V56.9303ZM108.653 56.6963C107.969 56.6963 107.399 56.9183 106.943 57.3623C106.487 57.7943 106.247 58.4003 106.223 59.1803V60.5843C106.223 61.3763 106.457 62.0123 106.925 62.4923C107.405 62.9603 107.981 63.1943 108.653 63.1943C109.325 63.1943 109.907 62.9003 110.399 62.3123C110.891 61.7123 111.137 60.9203 111.137 59.9363C111.137 58.9523 110.891 58.1663 110.399 57.5783C109.919 56.9903 109.337 56.6963 108.653 56.6963ZM121.163 62.5463C120.575 63.7943 119.621 64.4183 118.301 64.4183C117.329 64.4183 116.543 64.1483 115.943 63.6083C115.355 63.0683 115.061 62.2343 115.061 61.1063V55.6343H116.483V60.9983C116.483 62.4503 117.155 63.1763 118.499 63.1763C119.279 63.1763 119.909 62.8763 120.389 62.2763C120.881 61.6763 121.139 60.9083 121.163 59.9723V55.6343H122.585V64.2563H121.163V62.5463ZM131.863 56.9303V51.9983H133.267V64.2563H132.115L131.935 62.8163C131.659 63.3563 131.293 63.7643 130.837 64.0403C130.381 64.3163 129.883 64.4543 129.343 64.4543C128.251 64.4543 127.333 64.0343 126.589 63.1943C125.857 62.3543 125.491 61.2623 125.491 59.9183C125.491 58.5623 125.851 57.4763 126.571 56.6603C127.303 55.8443 128.221 55.4363 129.325 55.4363C130.441 55.4363 131.287 55.9343 131.863 56.9303ZM129.415 56.6963C128.719 56.6963 128.131 56.9903 127.651 57.5783C127.183 58.1663 126.949 58.9523 126.949 59.9363C126.949 60.9203 127.189 61.7123 127.669 62.3123C128.149 62.9003 128.725 63.1943 129.397 63.1943C130.069 63.1943 130.639 62.9723 131.107 62.5283C131.587 62.0723 131.839 61.4663 131.863 60.7103V59.3063C131.863 58.5023 131.629 57.8663 131.161 57.3983C130.693 56.9303 130.111 56.6963 129.415 56.6963ZM142.551 56.9303V51.9983H143.955V64.2563H142.803L142.623 62.8163C142.347 63.3563 141.981 63.7643 141.525 64.0403C141.069 64.3163 140.571 64.4543 140.031 64.4543C138.939 64.4543 138.021 64.0343 137.277 63.1943C136.545 62.3543 136.179 61.2623 136.179 59.9183C136.179 58.5623 136.539 57.4763 137.259 56.6603C137.991 55.8443 138.909 55.4363 140.013 55.4363C141.129 55.4363 141.975 55.9343 142.551 56.9303ZM140.103 56.6963C139.407 56.6963 138.819 56.9903 138.339 57.5783C137.871 58.1663 137.637 58.9523 137.637 59.9363C137.637 60.9203 137.877 61.7123 138.357 62.3123C138.837 62.9003 139.413 63.1943 140.085 63.1943C140.757 63.1943 141.327 62.9723 141.795 62.5283C142.275 62.0723 142.527 61.4663 142.551 60.7103V59.3063C142.551 58.5023 142.317 57.8663 141.849 57.3983C141.381 56.9303 140.799 56.6963 140.103 56.6963ZM147.694 55.6343H149.116V64.2563H147.694V55.6343ZM148.396 53.6183C148.108 53.6183 147.88 53.5403 147.712 53.3843C147.556 53.2163 147.478 53.0003 147.478 52.7363C147.478 52.4603 147.556 52.2443 147.712 52.0883C147.88 51.9203 148.108 51.8363 148.396 51.8363C148.684 51.8363 148.912 51.9203 149.08 52.0883C149.26 52.2443 149.35 52.4603 149.35 52.7363C149.35 53.0003 149.26 53.2163 149.08 53.3843C148.912 53.5403 148.684 53.6183 148.396 53.6183ZM155.953 63.3023C157.141 63.3023 157.819 62.7803 157.987 61.7363H159.445C159.313 62.6003 158.929 63.2723 158.293 63.7523C157.669 64.2203 156.889 64.4543 155.953 64.4543C154.801 64.4543 153.865 64.0463 153.145 63.2303C152.425 62.4023 152.065 61.3043 152.065 59.9363C152.065 58.5683 152.425 57.4763 153.145 56.6603C153.877 55.8443 154.843 55.4363 156.043 55.4363C157.255 55.4363 158.155 55.9043 158.743 56.8403C159.343 57.7763 159.553 58.9163 159.373 60.2603H153.487C153.487 61.1483 153.703 61.8803 154.135 62.4563C154.567 63.0203 155.173 63.3023 155.953 63.3023ZM156.997 56.7863C156.721 56.6423 156.385 56.5703 155.989 56.5703C155.257 56.5703 154.675 56.8223 154.243 57.3263C153.823 57.8183 153.577 58.4363 153.505 59.1803H158.095C158.095 57.9803 157.729 57.1823 156.997 56.7863ZM161.797 57.7583C161.797 57.0503 162.097 56.4863 162.697 56.0663C163.309 55.6463 164.131 55.4363 165.163 55.4363C166.195 55.4363 166.999 55.6523 167.575 56.0843C168.163 56.5163 168.469 57.0623 168.493 57.7223H167.107C166.999 56.9423 166.339 56.5523 165.127 56.5523C164.539 56.5523 164.083 56.6843 163.759 56.9483C163.447 57.2123 163.291 57.5003 163.291 57.8123C163.291 58.1123 163.411 58.3703 163.651 58.5863C163.891 58.7903 164.275 58.9703 164.803 59.1263L166.531 59.7023C167.263 59.9303 167.821 60.2243 168.205 60.5843C168.601 60.9323 168.799 61.4183 168.799 62.0423C168.799 62.6543 168.481 63.2123 167.845 63.7163C167.209 64.2083 166.321 64.4543 165.181 64.4543C164.041 64.4543 163.153 64.2023 162.517 63.6983C161.881 63.1823 161.545 62.5223 161.509 61.7183H162.877C162.901 62.2583 163.117 62.6663 163.525 62.9423C163.945 63.2063 164.467 63.3383 165.091 63.3383C165.715 63.3383 166.231 63.2063 166.639 62.9423C167.047 62.6783 167.251 62.3663 167.251 62.0063C167.251 61.6343 167.131 61.3523 166.891 61.1603C166.651 60.9683 166.261 60.8003 165.721 60.6563L164.047 60.0983C162.547 59.6543 161.797 58.8743 161.797 57.7583ZM61.9714 71.8903C59.8954 73.9903 58.8574 76.2703 58.8574 78.7303C58.8574 81.1903 59.8954 83.4703 61.9714 85.5703L60.9454 86.2903C59.7694 85.2223 58.8814 84.0403 58.2814 82.7443C57.6814 81.4483 57.3814 80.1103 57.3814 78.7303C57.3814 77.3383 57.6814 76.0003 58.2814 74.7163C58.8814 73.4203 59.7694 72.2323 60.9454 71.1523L61.9714 71.8903ZM64.2834 75.6523L66.3714 82.5103L68.4234 76.0663H69.6114L71.6454 82.5823L73.7514 75.6523H75.1554L72.3474 84.2563H70.9614L68.9814 78.2263L67.0374 84.2563H65.6694L62.8074 75.6523H64.2834ZM78.7664 77.2363C79.3424 76.0363 80.2964 75.4363 81.6284 75.4363C82.6484 75.4363 83.4404 75.7723 84.0044 76.4443C84.5804 77.1163 84.8684 78.0343 84.8684 79.1983V84.2563H83.4644V79.1983C83.4644 78.3703 83.2664 77.7463 82.8704 77.3263C82.4864 76.9063 81.9284 76.6963 81.1964 76.6963C80.4644 76.6963 79.8764 77.0083 79.4324 77.6323C78.9884 78.2443 78.7664 79.0963 78.7664 80.1883V84.2563H77.3444V71.9983H78.7664V77.2363ZM91.1777 83.3023C92.3657 83.3023 93.0437 82.7803 93.2117 81.7363H94.6697C94.5377 82.6003 94.1537 83.2723 93.5177 83.7523C92.8937 84.2203 92.1137 84.4543 91.1777 84.4543C90.0257 84.4543 89.0897 84.0463 88.3697 83.2303C87.6497 82.4023 87.2897 81.3043 87.2897 79.9363C87.2897 78.5683 87.6497 77.4763 88.3697 76.6603C89.1017 75.8443 90.0677 75.4363 91.2677 75.4363C92.4797 75.4363 93.3797 75.9043 93.9677 76.8403C94.5677 77.7763 94.7777 78.9163 94.5977 80.2603H88.7117C88.7117 81.1483 88.9277 81.8803 89.3597 82.4563C89.7917 83.0203 90.3977 83.3023 91.1777 83.3023ZM92.2217 76.7863C91.9457 76.6423 91.6097 76.5703 91.2137 76.5703C90.4817 76.5703 89.8997 76.8223 89.4677 77.3263C89.0477 77.8183 88.8017 78.4363 88.7297 79.1803H93.3197C93.3197 77.9803 92.9537 77.1823 92.2217 76.7863ZM98.8393 77.3083C99.4033 76.0603 100.369 75.4363 101.737 75.4363C102.757 75.4363 103.549 75.7723 104.113 76.4443C104.689 77.1163 104.977 78.0343 104.977 79.1983V84.2563H103.573V79.1983C103.573 78.3703 103.375 77.7463 102.979 77.3263C102.595 76.9063 102.043 76.6963 101.323 76.6963C100.603 76.6963 100.021 76.9903 99.5773 77.5783C99.1333 78.1663 98.8993 78.9823 98.8753 80.0263V84.2563H97.4533V75.6523H98.6773L98.8393 77.3083ZM117.934 78.6763C117.934 77.8963 117.772 77.3383 117.448 77.0023C117.124 76.6663 116.65 76.4983 116.026 76.4983C115.414 76.4983 114.916 76.6243 114.532 76.8763C114.16 77.1163 113.974 77.5003 113.974 78.0283H112.408C112.408 76.7083 113.116 75.8923 114.532 75.5803C114.964 75.4843 115.432 75.4363 115.936 75.4363C117.004 75.4363 117.838 75.7063 118.438 76.2463C119.038 76.7863 119.338 77.6083 119.338 78.7123V84.2563H118.114L117.97 82.8163C117.442 83.9083 116.488 84.4543 115.108 84.4543C114.184 84.4543 113.44 84.1963 112.876 83.6803C112.324 83.1643 112.048 82.5223 112.048 81.7543C112.048 80.9863 112.354 80.3863 112.966 79.9543C113.59 79.5223 114.364 79.3063 115.288 79.3063C116.212 79.3063 117.094 79.4623 117.934 79.7743V78.6763ZM117.934 80.6743C117.082 80.4343 116.338 80.3143 115.702 80.3143C115.066 80.3143 114.55 80.4283 114.154 80.6563C113.758 80.8843 113.56 81.2443 113.56 81.7363C113.56 82.8163 114.172 83.3563 115.396 83.3563C116.092 83.3563 116.686 83.1103 117.178 82.6183C117.682 82.1143 117.934 81.4663 117.934 80.6743ZM122.678 71.9983H124.1V84.2563H122.678V71.9983ZM130.819 75.4363C132.019 75.4363 132.985 75.8263 133.717 76.6063C134.461 77.3863 134.833 78.5023 134.833 79.9543C134.833 81.3943 134.461 82.5043 133.717 83.2843C132.985 84.0643 132.019 84.4543 130.819 84.4543C129.619 84.4543 128.647 84.0643 127.903 83.2843C127.171 82.5043 126.805 81.3943 126.805 79.9543C126.805 78.5023 127.171 77.3863 127.903 76.6063C128.647 75.8263 129.619 75.4363 130.819 75.4363ZM133.393 79.9543C133.393 78.9223 133.177 78.1183 132.745 77.5423C132.313 76.9543 131.677 76.6603 130.837 76.6603C130.009 76.6603 129.373 76.9543 128.929 77.5423C128.485 78.1183 128.263 78.9223 128.263 79.9543C128.263 80.9743 128.473 81.7783 128.893 82.3663C129.313 82.9423 129.937 83.2303 130.765 83.2303C131.605 83.2303 132.253 82.9423 132.709 82.3663C133.165 81.7783 133.393 80.9743 133.393 79.9543ZM138.917 77.3083C139.481 76.0603 140.447 75.4363 141.815 75.4363C142.835 75.4363 143.627 75.7723 144.191 76.4443C144.767 77.1163 145.055 78.0343 145.055 79.1983V84.2563H143.651V79.1983C143.651 78.3703 143.453 77.7463 143.057 77.3263C142.673 76.9063 142.121 76.6963 141.401 76.6963C140.681 76.6963 140.099 76.9903 139.655 77.5783C139.211 78.1663 138.977 78.9823 138.953 80.0263V84.2563H137.531V75.6523H138.755L138.917 77.3083ZM151.365 83.3023C152.553 83.3023 153.231 82.7803 153.399 81.7363H154.857C154.725 82.6003 154.341 83.2723 153.705 83.7523C153.081 84.2203 152.301 84.4543 151.365 84.4543C150.213 84.4543 149.277 84.0463 148.557 83.2303C147.837 82.4023 147.477 81.3043 147.477 79.9363C147.477 78.5683 147.837 77.4763 148.557 76.6603C149.289 75.8443 150.255 75.4363 151.455 75.4363C152.667 75.4363 153.567 75.9043 154.155 76.8403C154.755 77.7763 154.965 78.9163 154.785 80.2603H148.899C148.899 81.1483 149.115 81.8803 149.547 82.4563C149.979 83.0203 150.585 83.3023 151.365 83.3023ZM152.409 76.7863C152.133 76.6423 151.797 76.5703 151.401 76.5703C150.669 76.5703 150.087 76.8223 149.655 77.3263C149.235 77.8183 148.989 78.4363 148.917 79.1803H153.507C153.507 77.9803 153.141 77.1823 152.409 76.7863ZM156.345 85.5703C158.421 83.4703 159.459 81.1903 159.459 78.7303C159.459 76.2703 158.421 73.9903 156.345 71.8903L157.371 71.1523C158.547 72.2323 159.435 73.4203 160.035 74.7163C160.635 76.0003 160.935 77.3383 160.935 78.7303C160.935 80.1103 160.635 81.4483 160.035 82.7443C159.435 84.0403 158.547 85.2223 157.371 86.2903L156.345 85.5703ZM163.841 84.4183C163.541 84.4183 163.289 84.3223 163.085 84.1303C162.893 83.9263 162.797 83.6863 162.797 83.4103C162.797 83.1223 162.893 82.8823 163.085 82.6903C163.289 82.4863 163.541 82.3843 163.841 82.3843C164.153 82.3843 164.411 82.4863 164.615 82.6903C164.819 82.8823 164.921 83.1223 164.921 83.4103C164.921 83.6863 164.819 83.9263 164.615 84.1303C164.411 84.3223 164.153 84.4183 163.841 84.4183ZM34.9793 92.9343V97.9203H40.5413V92.9343H41.9633V104.256H40.5413V99.1443H34.9793V104.256H33.5573V92.9343H34.9793ZM50.9263 98.6763C50.9263 97.8963 50.7643 97.3383 50.4403 97.0023C50.1163 96.6663 49.6423 96.4983 49.0183 96.4983C48.4063 96.4983 47.9083 96.6243 47.5243 96.8763C47.1523 97.1163 46.9663 97.5003 46.9663 98.0283H45.4003C45.4003 96.7083 46.1083 95.8923 47.5243 95.5803C47.9563 95.4843 48.4243 95.4363 48.9283 95.4363C49.9963 95.4363 50.8303 95.7063 51.4303 96.2463C52.0303 96.7863 52.3303 97.6083 52.3303 98.7123V104.256H51.1063L50.9623 102.816C50.4343 103.908 49.4803 104.454 48.1003 104.454C47.1763 104.454 46.4323 104.196 45.8683 103.68C45.3163 103.164 45.0403 102.522 45.0403 101.754C45.0403 100.986 45.3463 100.386 45.9583 99.9543C46.5823 99.5223 47.3563 99.3063 48.2803 99.3063C49.2043 99.3063 50.0863 99.4623 50.9263 99.7743V98.6763ZM50.9263 100.674C50.0743 100.434 49.3303 100.314 48.6943 100.314C48.0583 100.314 47.5423 100.428 47.1463 100.656C46.7503 100.884 46.5523 101.244 46.5523 101.736C46.5523 102.816 47.1643 103.356 48.3883 103.356C49.0843 103.356 49.6783 103.11 50.1703 102.618C50.6743 102.114 50.9263 101.466 50.9263 100.674ZM55.7786 95.6523L58.3706 102.762L60.9806 95.6523H62.5826L59.1626 104.256H57.5966L54.1766 95.6523H55.7786ZM64.8133 95.6343H66.2353V104.256H64.8133V95.6343ZM65.5153 93.6183C65.2273 93.6183 64.9993 93.5403 64.8313 93.3843C64.6753 93.2163 64.5973 93.0003 64.5973 92.7363C64.5973 92.4603 64.6753 92.2443 64.8313 92.0883C64.9993 91.9203 65.2273 91.8363 65.5153 91.8363C65.8033 91.8363 66.0313 91.9203 66.1993 92.0883C66.3793 92.2443 66.4693 92.4603 66.4693 92.7363C66.4693 93.0003 66.3793 93.2163 66.1993 93.3843C66.0313 93.5403 65.8033 93.6183 65.5153 93.6183ZM71.4702 97.3083C72.0342 96.0603 73.0002 95.4363 74.3682 95.4363C75.3882 95.4363 76.1802 95.7723 76.7442 96.4443C77.3202 97.1163 77.6082 98.0343 77.6082 99.1983V104.256H76.2042V99.1983C76.2042 98.3703 76.0062 97.7463 75.6102 97.3263C75.2262 96.9063 74.6742 96.6963 73.9542 96.6963C73.2342 96.6963 72.6522 96.9903 72.2082 97.5783C71.7642 98.1663 71.5302 98.9823 71.5062 100.026V104.256H70.0842V95.6523H71.3082L71.4702 97.3083ZM81.3079 103.986C80.5879 103.638 80.2279 103.104 80.2279 102.384C80.2279 102.012 80.3659 101.688 80.6419 101.412C80.9299 101.124 81.2839 100.932 81.7039 100.836C81.0559 100.26 80.7319 99.5043 80.7319 98.5683C80.7319 97.6323 81.0619 96.8763 81.7219 96.3003C82.3939 95.7243 83.1859 95.4363 84.0979 95.4363C85.0099 95.4363 85.7839 95.6523 86.4199 96.0843C86.5039 95.4483 86.7559 94.9383 87.1759 94.5543C87.6079 94.1703 88.1719 93.9783 88.8679 93.9783L88.7419 95.3823C87.6859 95.3823 87.1339 95.8263 87.0859 96.7143C87.5059 97.2303 87.7159 97.8483 87.7159 98.5683C87.7159 99.4923 87.3799 100.254 86.7079 100.854C86.0479 101.442 85.2199 101.736 84.2239 101.736C83.5399 101.736 82.9339 101.598 82.4059 101.322C82.1659 101.37 81.9499 101.484 81.7579 101.664C81.5659 101.832 81.4699 102.066 81.4699 102.366C81.4699 103.002 81.9979 103.32 83.0539 103.32H86.4019C87.2059 103.32 87.8419 103.494 88.3099 103.842C88.7779 104.178 89.0119 104.652 89.0119 105.264C89.0119 106.176 88.5499 106.974 87.6259 107.658C86.7139 108.342 85.5559 108.684 84.1519 108.684C82.7479 108.684 81.6439 108.42 80.8399 107.892C80.0359 107.376 79.6339 106.722 79.6339 105.93C79.6339 105.414 79.7839 104.994 80.0839 104.67C80.3959 104.346 80.8039 104.118 81.3079 103.986ZM81.0379 105.876C81.0379 106.332 81.2839 106.722 81.7759 107.046C82.2799 107.382 83.0359 107.55 84.0439 107.55C85.0639 107.55 85.9099 107.328 86.5819 106.884C87.2659 106.452 87.6079 105.942 87.6079 105.354C87.6079 105.078 87.5059 104.838 87.3019 104.634C87.1099 104.442 86.8099 104.346 86.4019 104.346H82.9279C82.3159 104.37 81.8479 104.514 81.5239 104.778C81.1999 105.054 81.0379 105.42 81.0379 105.876ZM86.3299 98.5683C86.3299 97.9443 86.1439 97.4403 85.7719 97.0563C85.3999 96.6603 84.8839 96.4623 84.2239 96.4623C83.5759 96.4623 83.0659 96.6603 82.6939 97.0563C82.3219 97.4403 82.1359 97.9443 82.1359 98.5683C82.1359 99.1923 82.3219 99.7083 82.6939 100.116C83.0779 100.512 83.5939 100.71 84.2419 100.71C84.8899 100.71 85.3999 100.506 85.7719 100.098C86.1439 99.6903 86.3299 99.1803 86.3299 98.5683ZM94.9647 97.7583C94.9647 97.0503 95.2647 96.4863 95.8647 96.0663C96.4767 95.6463 97.2987 95.4363 98.3307 95.4363C99.3627 95.4363 100.167 95.6523 100.743 96.0843C101.331 96.5163 101.637 97.0623 101.661 97.7223H100.275C100.167 96.9423 99.5067 96.5523 98.2947 96.5523C97.7067 96.5523 97.2507 96.6843 96.9267 96.9483C96.6147 97.2123 96.4587 97.5003 96.4587 97.8123C96.4587 98.1123 96.5787 98.3703 96.8187 98.5863C97.0587 98.7903 97.4427 98.9703 97.9707 99.1263L99.6987 99.7023C100.431 99.9303 100.989 100.224 101.373 100.584C101.769 100.932 101.967 101.418 101.967 102.042C101.967 102.654 101.649 103.212 101.013 103.716C100.377 104.208 99.4887 104.454 98.3487 104.454C97.2087 104.454 96.3207 104.202 95.6847 103.698C95.0487 103.182 94.7127 102.522 94.6767 101.718H96.0447C96.0687 102.258 96.2847 102.666 96.6927 102.942C97.1127 103.206 97.6347 103.338 98.2587 103.338C98.8827 103.338 99.3987 103.206 99.8067 102.942C100.215 102.678 100.419 102.366 100.419 102.006C100.419 101.634 100.299 101.352 100.059 101.16C99.8187 100.968 99.4287 100.8 98.8887 100.656L97.2147 100.098C95.7147 99.6543 94.9647 98.8743 94.9647 97.7583ZM107.985 95.4363C109.185 95.4363 110.151 95.8263 110.883 96.6063C111.627 97.3863 111.999 98.5023 111.999 99.9543C111.999 101.394 111.627 102.504 110.883 103.284C110.151 104.064 109.185 104.454 107.985 104.454C106.785 104.454 105.813 104.064 105.069 103.284C104.337 102.504 103.971 101.394 103.971 99.9543C103.971 98.5023 104.337 97.3863 105.069 96.6063C105.813 95.8263 106.785 95.4363 107.985 95.4363ZM110.559 99.9543C110.559 98.9223 110.343 98.1183 109.911 97.5423C109.479 96.9543 108.843 96.6603 108.003 96.6603C107.175 96.6603 106.539 96.9543 106.095 97.5423C105.651 98.1183 105.429 98.9223 105.429 99.9543C105.429 100.974 105.639 101.778 106.059 102.366C106.479 102.942 107.103 103.23 107.931 103.23C108.771 103.23 109.419 102.942 109.875 102.366C110.331 101.778 110.559 100.974 110.559 99.9543ZM116.083 97.3083C116.647 96.0603 117.613 95.4363 118.981 95.4363C119.725 95.4363 120.349 95.6223 120.853 95.9943C121.357 96.3543 121.723 96.8583 121.951 97.5063C122.491 96.1263 123.493 95.4363 124.957 95.4363C125.989 95.4363 126.787 95.7723 127.351 96.4443C127.915 97.1163 128.197 98.0343 128.197 99.1983V104.256H126.793V99.1983C126.793 98.3703 126.595 97.7463 126.199 97.3263C125.815 96.9063 125.257 96.6963 124.525 96.6963C123.793 96.6963 123.223 96.9963 122.815 97.5963C122.419 98.1963 122.221 99.0243 122.221 100.08V104.256H120.817V99.1983C120.817 98.3703 120.619 97.7463 120.223 97.3263C119.839 96.9063 119.287 96.6963 118.567 96.6963C117.847 96.6963 117.265 96.9903 116.821 97.5783C116.377 98.1663 116.143 98.9823 116.119 100.026V104.256H114.697V95.6523H115.921L116.083 97.3083ZM134.508 103.302C135.696 103.302 136.374 102.78 136.542 101.736H138C137.868 102.6 137.484 103.272 136.848 103.752C136.224 104.22 135.444 104.454 134.508 104.454C133.356 104.454 132.42 104.046 131.7 103.23C130.98 102.402 130.62 101.304 130.62 99.9363C130.62 98.5683 130.98 97.4763 131.7 96.6603C132.432 95.8443 133.398 95.4363 134.598 95.4363C135.81 95.4363 136.71 95.9043 137.298 96.8403C137.898 97.7763 138.108 98.9163 137.928 100.26H132.042C132.042 101.148 132.258 101.88 132.69 102.456C133.122 103.02 133.728 103.302 134.508 103.302ZM135.552 96.7863C135.276 96.6423 134.94 96.5703 134.544 96.5703C133.812 96.5703 133.23 96.8223 132.798 97.3263C132.378 97.8183 132.132 98.4363 132.06 99.1803H136.65C136.65 97.9803 136.284 97.1823 135.552 96.7863ZM143.897 95.4363C145.097 95.4363 146.063 95.8263 146.795 96.6063C147.539 97.3863 147.911 98.5023 147.911 99.9543C147.911 101.394 147.539 102.504 146.795 103.284C146.063 104.064 145.097 104.454 143.897 104.454C142.697 104.454 141.725 104.064 140.981 103.284C140.249 102.504 139.883 101.394 139.883 99.9543C139.883 98.5023 140.249 97.3863 140.981 96.6063C141.725 95.8263 142.697 95.4363 143.897 95.4363ZM146.471 99.9543C146.471 98.9223 146.255 98.1183 145.823 97.5423C145.391 96.9543 144.755 96.6603 143.915 96.6603C143.087 96.6603 142.451 96.9543 142.007 97.5423C141.563 98.1183 141.341 98.9223 141.341 99.9543C141.341 100.974 141.551 101.778 141.971 102.366C142.391 102.942 143.015 103.23 143.843 103.23C144.683 103.23 145.331 102.942 145.787 102.366C146.243 101.778 146.471 100.974 146.471 99.9543ZM151.996 97.3083C152.56 96.0603 153.526 95.4363 154.894 95.4363C155.914 95.4363 156.706 95.7723 157.27 96.4443C157.846 97.1163 158.134 98.0343 158.134 99.1983V104.256H156.73V99.1983C156.73 98.3703 156.532 97.7463 156.136 97.3263C155.752 96.9063 155.2 96.6963 154.48 96.6963C153.76 96.6963 153.178 96.9903 152.734 97.5783C152.29 98.1663 152.056 98.9823 152.032 100.026V104.256H150.61V95.6523H151.834L151.996 97.3083ZM164.443 103.302C165.631 103.302 166.309 102.78 166.477 101.736H167.935C167.803 102.6 167.419 103.272 166.783 103.752C166.159 104.22 165.379 104.454 164.443 104.454C163.291 104.454 162.355 104.046 161.635 103.23C160.915 102.402 160.555 101.304 160.555 99.9363C160.555 98.5683 160.915 97.4763 161.635 96.6603C162.367 95.8443 163.333 95.4363 164.533 95.4363C165.745 95.4363 166.645 95.9043 167.233 96.8403C167.833 97.7763 168.043 98.9163 167.863 100.26H161.977C161.977 101.148 162.193 101.88 162.625 102.456C163.057 103.02 163.663 103.302 164.443 103.302ZM165.487 96.7863C165.211 96.6423 164.875 96.5703 164.479 96.5703C163.747 96.5703 163.165 96.8223 162.733 97.3263C162.313 97.8183 162.067 98.4363 161.995 99.1803H166.585C166.585 97.9803 166.219 97.1823 165.487 96.7863ZM179.526 104.004C178.494 104.484 177.552 104.586 176.7 104.31C176.088 104.118 175.656 103.716 175.404 103.104C175.272 102.804 175.206 102.444 175.206 102.024V96.7323H173.82V95.6523H175.206V93.2583H176.61V95.6523H179.31V96.7323H176.61V102.006C176.61 102.882 177.018 103.32 177.834 103.32C178.278 103.32 178.776 103.212 179.328 102.996L179.526 104.004ZM184.89 95.4363C186.09 95.4363 187.056 95.8263 187.788 96.6063C188.532 97.3863 188.904 98.5023 188.904 99.9543C188.904 101.394 188.532 102.504 187.788 103.284C187.056 104.064 186.09 104.454 184.89 104.454C183.69 104.454 182.718 104.064 181.974 103.284C181.242 102.504 180.876 101.394 180.876 99.9543C180.876 98.5023 181.242 97.3863 181.974 96.6063C182.718 95.8263 183.69 95.4363 184.89 95.4363ZM187.464 99.9543C187.464 98.9223 187.248 98.1183 186.816 97.5423C186.384 96.9543 185.748 96.6603 184.908 96.6603C184.08 96.6603 183.444 96.9543 183 97.5423C182.556 98.1183 182.334 98.9223 182.334 99.9543C182.334 100.974 182.544 101.778 182.964 102.366C183.384 102.942 184.008 103.23 184.836 103.23C185.676 103.23 186.324 102.942 186.78 102.366C187.236 101.778 187.464 100.974 187.464 99.9543ZM40.2897 124.004C39.2577 124.484 38.3157 124.586 37.4637 124.31C36.8517 124.118 36.4197 123.716 36.1677 123.104C36.0357 122.804 35.9697 122.444 35.9697 122.024V116.732H34.5837V115.652H35.9697V113.258H37.3737V115.652H40.0737V116.732H37.3737V122.006C37.3737 122.882 37.7817 123.32 38.5977 123.32C39.0417 123.32 39.5397 123.212 40.0917 122.996L40.2897 124.004ZM46.0673 116.858C44.7113 116.858 44.0093 117.926 43.9613 120.062V124.256H42.5393V115.634H43.9613V117.29C44.3933 116.09 45.1553 115.49 46.2473 115.49C46.5953 115.49 46.9253 115.544 47.2373 115.652L47.1653 117.038C46.8053 116.918 46.4393 116.858 46.0673 116.858ZM54.7407 118.676C54.7407 117.896 54.5787 117.338 54.2547 117.002C53.9307 116.666 53.4567 116.498 52.8327 116.498C52.2207 116.498 51.7227 116.624 51.3387 116.876C50.9667 117.116 50.7807 117.5 50.7807 118.028H49.2147C49.2147 116.708 49.9227 115.892 51.3387 115.58C51.7707 115.484 52.2387 115.436 52.7427 115.436C53.8107 115.436 54.6447 115.706 55.2447 116.246C55.8447 116.786 56.1447 117.608 56.1447 118.712V124.256H54.9207L54.7767 122.816C54.2487 123.908 53.2947 124.454 51.9147 124.454C50.9907 124.454 50.2467 124.196 49.6827 123.68C49.1307 123.164 48.8547 122.522 48.8547 121.754C48.8547 120.986 49.1607 120.386 49.7727 119.954C50.3967 119.522 51.1707 119.306 52.0947 119.306C53.0187 119.306 53.9007 119.462 54.7407 119.774V118.676ZM54.7407 120.674C53.8887 120.434 53.1447 120.314 52.5087 120.314C51.8727 120.314 51.3567 120.428 50.9607 120.656C50.5647 120.884 50.3667 121.244 50.3667 121.736C50.3667 122.816 50.9787 123.356 52.2027 123.356C52.8987 123.356 53.4927 123.11 53.9847 122.618C54.4887 122.114 54.7407 121.466 54.7407 120.674ZM59.593 115.652L62.185 122.762L64.795 115.652H66.397L62.977 124.256H61.411L57.991 115.652H59.593ZM71.5077 123.302C72.6957 123.302 73.3737 122.78 73.5417 121.736H74.9997C74.8677 122.6 74.4837 123.272 73.8477 123.752C73.2237 124.22 72.4437 124.454 71.5077 124.454C70.3557 124.454 69.4197 124.046 68.6997 123.23C67.9797 122.402 67.6197 121.304 67.6197 119.936C67.6197 118.568 67.9797 117.476 68.6997 116.66C69.4317 115.844 70.3977 115.436 71.5977 115.436C72.8097 115.436 73.7097 115.904 74.2978 116.84C74.8977 117.776 75.1077 118.916 74.9277 120.26H69.0417C69.0417 121.148 69.2577 121.88 69.6897 122.456C70.1217 123.02 70.7277 123.302 71.5077 123.302ZM72.5517 116.786C72.2757 116.642 71.9397 116.57 71.5437 116.57C70.8117 116.57 70.2297 116.822 69.7977 117.326C69.3777 117.818 69.1317 118.436 69.0597 119.18H73.6497C73.6497 117.98 73.2837 117.182 72.5517 116.786ZM77.8014 111.998H79.2234V124.256H77.8014V111.998ZM87.1174 115.652L89.2054 122.51L91.2574 116.066H92.4454L94.4794 122.582L96.5854 115.652H97.9894L95.1814 124.256H93.7954L91.8154 118.226L89.8714 124.256H88.5034L85.6414 115.652H87.1174ZM100.268 115.634H101.69V124.256H100.268V115.634ZM100.97 113.618C100.682 113.618 100.454 113.54 100.286 113.384C100.13 113.216 100.052 113 100.052 112.736C100.052 112.46 100.13 112.244 100.286 112.088C100.454 111.92 100.682 111.836 100.97 111.836C101.258 111.836 101.486 111.92 101.654 112.088C101.834 112.244 101.924 112.46 101.924 112.736C101.924 113 101.834 113.216 101.654 113.384C101.486 113.54 101.258 113.618 100.97 113.618ZM110.057 124.004C109.025 124.484 108.083 124.586 107.231 124.31C106.619 124.118 106.187 123.716 105.935 123.104C105.803 122.804 105.737 122.444 105.737 122.024V116.732H104.351V115.652H105.737V113.258H107.141V115.652H109.841V116.732H107.141V122.006C107.141 122.882 107.549 123.32 108.365 123.32C108.809 123.32 109.307 123.212 109.859 122.996L110.057 124.004ZM113.747 117.236C114.323 116.036 115.277 115.436 116.609 115.436C117.629 115.436 118.421 115.772 118.985 116.444C119.561 117.116 119.849 118.034 119.849 119.198V124.256H118.445V119.198C118.445 118.37 118.247 117.746 117.851 117.326C117.467 116.906 116.909 116.696 116.177 116.696C115.445 116.696 114.857 117.008 114.413 117.632C113.969 118.244 113.747 119.096 113.747 120.188V124.256H112.325V111.998H113.747V117.236ZM127.567 115.634H128.989V124.256H127.567V115.634ZM128.269 113.618C127.981 113.618 127.753 113.54 127.585 113.384C127.429 113.216 127.351 113 127.351 112.736C127.351 112.46 127.429 112.244 127.585 112.088C127.753 111.92 127.981 111.836 128.269 111.836C128.557 111.836 128.785 111.92 128.953 112.088C129.133 112.244 129.223 112.46 129.223 112.736C129.223 113 129.133 113.216 128.953 113.384C128.785 113.54 128.557 113.618 128.269 113.618ZM132.406 117.758C132.406 117.05 132.706 116.486 133.306 116.066C133.918 115.646 134.74 115.436 135.772 115.436C136.804 115.436 137.608 115.652 138.184 116.084C138.772 116.516 139.078 117.062 139.102 117.722H137.716C137.608 116.942 136.948 116.552 135.736 116.552C135.148 116.552 134.692 116.684 134.368 116.948C134.056 117.212 133.9 117.5 133.9 117.812C133.9 118.112 134.02 118.37 134.26 118.586C134.5 118.79 134.884 118.97 135.412 119.126L137.14 119.702C137.872 119.93 138.43 120.224 138.814 120.584C139.21 120.932 139.408 121.418 139.408 122.042C139.408 122.654 139.09 123.212 138.454 123.716C137.818 124.208 136.93 124.454 135.79 124.454C134.65 124.454 133.762 124.202 133.126 123.698C132.49 123.182 132.154 122.522 132.118 121.718H133.486C133.51 122.258 133.726 122.666 134.134 122.942C134.554 123.206 135.076 123.338 135.7 123.338C136.324 123.338 136.84 123.206 137.248 122.942C137.656 122.678 137.86 122.366 137.86 122.006C137.86 121.634 137.74 121.352 137.5 121.16C137.26 120.968 136.87 120.8 136.33 120.656L134.656 120.098C133.156 119.654 132.406 118.874 132.406 117.758ZM147.988 117.308C148.552 116.06 149.518 115.436 150.886 115.436C151.63 115.436 152.254 115.622 152.758 115.994C153.262 116.354 153.628 116.858 153.856 117.506C154.396 116.126 155.398 115.436 156.862 115.436C157.894 115.436 158.692 115.772 159.256 116.444C159.82 117.116 160.102 118.034 160.102 119.198V124.256H158.698V119.198C158.698 118.37 158.5 117.746 158.104 117.326C157.72 116.906 157.162 116.696 156.43 116.696C155.698 116.696 155.128 116.996 154.72 117.596C154.324 118.196 154.126 119.024 154.126 120.08V124.256H152.722V119.198C152.722 118.37 152.524 117.746 152.128 117.326C151.744 116.906 151.192 116.696 150.472 116.696C149.752 116.696 149.17 116.99 148.726 117.578C148.282 118.166 148.048 118.982 148.024 120.026V124.256H146.602V115.652H147.826L147.988 117.308ZM166.538 115.436C167.738 115.436 168.704 115.826 169.436 116.606C170.18 117.386 170.552 118.502 170.552 119.954C170.552 121.394 170.18 122.504 169.436 123.284C168.704 124.064 167.738 124.454 166.538 124.454C165.338 124.454 164.366 124.064 163.622 123.284C162.89 122.504 162.524 121.394 162.524 119.954C162.524 118.502 162.89 117.386 163.622 116.606C164.366 115.826 165.338 115.436 166.538 115.436ZM169.112 119.954C169.112 118.922 168.896 118.118 168.464 117.542C168.032 116.954 167.396 116.66 166.556 116.66C165.728 116.66 165.092 116.954 164.648 117.542C164.204 118.118 163.982 118.922 163.982 119.954C163.982 120.974 164.192 121.778 164.612 122.366C165.032 122.942 165.656 123.23 166.484 123.23C167.324 123.23 167.972 122.942 168.428 122.366C168.884 121.778 169.112 120.974 169.112 119.954ZM176.778 116.858C175.422 116.858 174.72 117.926 174.672 120.062V124.256H173.25V115.634H174.672V117.29C175.104 116.09 175.866 115.49 176.958 115.49C177.306 115.49 177.636 115.544 177.948 115.652L177.876 117.038C177.516 116.918 177.15 116.858 176.778 116.858ZM183.094 123.302C184.282 123.302 184.96 122.78 185.128 121.736H186.586C186.454 122.6 186.07 123.272 185.434 123.752C184.81 124.22 184.03 124.454 183.094 124.454C181.942 124.454 181.006 124.046 180.286 123.23C179.566 122.402 179.206 121.304 179.206 119.936C179.206 118.568 179.566 117.476 180.286 116.66C181.018 115.844 181.984 115.436 183.184 115.436C184.396 115.436 185.296 115.904 185.884 116.84C186.484 117.776 186.694 118.916 186.514 120.26H180.628C180.628 121.148 180.844 121.88 181.276 122.456C181.708 123.02 182.314 123.302 183.094 123.302ZM184.138 116.786C183.862 116.642 183.526 116.57 183.13 116.57C182.398 116.57 181.816 116.822 181.384 117.326C180.964 117.818 180.718 118.436 180.646 119.18H185.236C185.236 117.98 184.87 117.182 184.138 116.786ZM34.0946 133.204C33.6986 133.048 33.3866 132.97 33.1586 132.97C32.7386 132.97 32.4086 133.072 32.1686 133.276C31.9286 133.48 31.8086 133.84 31.8086 134.356V135.652H33.5906V136.624H31.8086V144.256H30.4046V136.624H28.9826V135.652H30.4046V134.338C30.4046 133.486 30.6386 132.862 31.1066 132.466C31.5746 132.058 32.1146 131.854 32.7266 131.854C33.3386 131.854 33.8786 131.932 34.3466 132.088L34.0946 133.204ZM41.9385 142.546C41.3505 143.794 40.3965 144.418 39.0765 144.418C38.1045 144.418 37.3185 144.148 36.7185 143.608C36.1305 143.068 35.8365 142.234 35.8365 141.106V135.634H37.2585V140.998C37.2585 142.45 37.9305 143.176 39.2745 143.176C40.0545 143.176 40.6845 142.876 41.1645 142.276C41.6565 141.676 41.9145 140.908 41.9385 139.972V135.634H43.3605V144.256H41.9385V142.546ZM48.3725 137.308C48.9365 136.06 49.9025 135.436 51.2705 135.436C52.2905 135.436 53.0825 135.772 53.6465 136.444C54.2225 137.116 54.5105 138.034 54.5105 139.198V144.256H53.1065V139.198C53.1065 138.37 52.9085 137.746 52.5125 137.326C52.1285 136.906 51.5765 136.696 50.8565 136.696C50.1365 136.696 49.5545 136.99 49.1105 137.578C48.6665 138.166 48.4325 138.982 48.4085 140.026V144.256H46.9865V135.652H48.2105L48.3725 137.308ZM67.4673 138.676C67.4673 137.896 67.3053 137.338 66.9813 137.002C66.6573 136.666 66.1833 136.498 65.5593 136.498C64.9473 136.498 64.4493 136.624 64.0653 136.876C63.6933 137.116 63.5073 137.5 63.5073 138.028H61.9413C61.9413 136.708 62.6493 135.892 64.0653 135.58C64.4973 135.484 64.9653 135.436 65.4693 135.436C66.5373 135.436 67.3713 135.706 67.9713 136.246C68.5713 136.786 68.8713 137.608 68.8713 138.712V144.256H67.6473L67.5033 142.816C66.9753 143.908 66.0213 144.454 64.6413 144.454C63.7173 144.454 62.9733 144.196 62.4093 143.68C61.8573 143.164 61.5813 142.522 61.5813 141.754C61.5813 140.986 61.8873 140.386 62.4993 139.954C63.1233 139.522 63.8973 139.306 64.8213 139.306C65.7453 139.306 66.6273 139.462 67.4673 139.774V138.676ZM67.4673 140.674C66.6153 140.434 65.8713 140.314 65.2353 140.314C64.5993 140.314 64.0833 140.428 63.6873 140.656C63.2913 140.884 63.0933 141.244 63.0933 141.736C63.0933 142.816 63.7053 143.356 64.9293 143.356C65.6253 143.356 66.2193 143.11 66.7113 142.618C67.2153 142.114 67.4673 141.466 67.4673 140.674ZM73.5796 137.308C74.1436 136.06 75.1096 135.436 76.4776 135.436C77.4976 135.436 78.2896 135.772 78.8536 136.444C79.4296 137.116 79.7176 138.034 79.7176 139.198V144.256H78.3136V139.198C78.3136 138.37 78.1156 137.746 77.7196 137.326C77.3356 136.906 76.7836 136.696 76.0636 136.696C75.3436 136.696 74.7616 136.99 74.3176 137.578C73.8736 138.166 73.6396 138.982 73.6156 140.026V144.256H72.1936V135.652H73.4176L73.5796 137.308ZM88.6913 136.93V131.998H90.0953V144.256H88.9433L88.7633 142.816C88.4873 143.356 88.1213 143.764 87.6653 144.04C87.2093 144.316 86.7113 144.454 86.1713 144.454C85.0793 144.454 84.1613 144.034 83.4173 143.194C82.6853 142.354 82.3193 141.262 82.3193 139.918C82.3193 138.562 82.6793 137.476 83.3993 136.66C84.1313 135.844 85.0493 135.436 86.1533 135.436C87.2693 135.436 88.1153 135.934 88.6913 136.93ZM86.2433 136.696C85.5473 136.696 84.9593 136.99 84.4793 137.578C84.0113 138.166 83.7773 138.952 83.7773 139.936C83.7773 140.92 84.0173 141.712 84.4973 142.312C84.9773 142.9 85.5533 143.194 86.2253 143.194C86.8973 143.194 87.4673 142.972 87.9353 142.528C88.4153 142.072 88.6673 141.466 88.6913 140.71V139.306C88.6913 138.502 88.4573 137.866 87.9893 137.398C87.5213 136.93 86.9393 136.696 86.2433 136.696ZM100.896 135.436C101.916 135.436 102.726 135.7 103.326 136.228C103.926 136.744 104.316 137.392 104.496 138.172L103.056 138.298C102.9 137.794 102.648 137.404 102.3 137.128C101.952 136.84 101.568 136.696 101.148 136.696C100.38 136.696 99.7558 136.984 99.2758 137.56C98.8078 138.136 98.5738 138.922 98.5738 139.918C98.5738 140.902 98.8018 141.694 99.2578 142.294C99.7258 142.894 100.302 143.194 100.986 143.194C101.682 143.194 102.198 143.038 102.534 142.726C102.882 142.402 103.056 141.946 103.056 141.358H104.514C104.514 142.282 104.19 143.032 103.542 143.608C102.906 144.172 102.072 144.454 101.04 144.454C99.9478 144.454 99.0178 144.04 98.2498 143.212C97.4938 142.384 97.1158 141.286 97.1158 139.918C97.1158 138.538 97.4938 137.446 98.2498 136.642C99.0058 135.838 99.8878 135.436 100.896 135.436ZM112.626 138.676C112.626 137.896 112.464 137.338 112.14 137.002C111.816 136.666 111.342 136.498 110.718 136.498C110.106 136.498 109.608 136.624 109.224 136.876C108.852 137.116 108.666 137.5 108.666 138.028H107.1C107.1 136.708 107.808 135.892 109.224 135.58C109.656 135.484 110.124 135.436 110.628 135.436C111.696 135.436 112.53 135.706 113.13 136.246C113.73 136.786 114.03 137.608 114.03 138.712V144.256H112.806L112.662 142.816C112.134 143.908 111.18 144.454 109.8 144.454C108.876 144.454 108.132 144.196 107.568 143.68C107.016 143.164 106.74 142.522 106.74 141.754C106.74 140.986 107.046 140.386 107.658 139.954C108.282 139.522 109.056 139.306 109.98 139.306C110.904 139.306 111.786 139.462 112.626 139.774V138.676ZM112.626 140.674C111.774 140.434 111.03 140.314 110.394 140.314C109.758 140.314 109.242 140.428 108.846 140.656C108.45 140.884 108.252 141.244 108.252 141.736C108.252 142.816 108.864 143.356 110.088 143.356C110.784 143.356 111.378 143.11 111.87 142.618C112.374 142.114 112.626 141.466 112.626 140.674ZM118.738 137.308C119.302 136.06 120.268 135.436 121.636 135.436C122.656 135.436 123.448 135.772 124.012 136.444C124.588 137.116 124.876 138.034 124.876 139.198V144.256H123.472V139.198C123.472 138.37 123.274 137.746 122.878 137.326C122.494 136.906 121.942 136.696 121.222 136.696C120.502 136.696 119.92 136.99 119.476 137.578C119.032 138.166 118.798 138.982 118.774 140.026V144.256H117.352V135.652H118.576L118.738 137.308ZM133.873 137.308C134.437 136.06 135.403 135.436 136.771 135.436C137.515 135.436 138.139 135.622 138.643 135.994C139.147 136.354 139.513 136.858 139.741 137.506C140.281 136.126 141.283 135.436 142.747 135.436C143.779 135.436 144.577 135.772 145.141 136.444C145.705 137.116 145.987 138.034 145.987 139.198V144.256H144.583V139.198C144.583 138.37 144.385 137.746 143.989 137.326C143.605 136.906 143.047 136.696 142.315 136.696C141.583 136.696 141.013 136.996 140.605 137.596C140.209 138.196 140.011 139.024 140.011 140.08V144.256H138.607V139.198C138.607 138.37 138.409 137.746 138.013 137.326C137.629 136.906 137.077 136.696 136.357 136.696C135.637 136.696 135.055 136.99 134.611 137.578C134.167 138.166 133.933 138.982 133.909 140.026V144.256H132.487V135.652H133.711L133.873 137.308ZM154.655 138.676C154.655 137.896 154.493 137.338 154.169 137.002C153.845 136.666 153.371 136.498 152.747 136.498C152.135 136.498 151.637 136.624 151.253 136.876C150.881 137.116 150.695 137.5 150.695 138.028H149.129C149.129 136.708 149.837 135.892 151.253 135.58C151.685 135.484 152.153 135.436 152.657 135.436C153.725 135.436 154.559 135.706 155.159 136.246C155.759 136.786 156.059 137.608 156.059 138.712V144.256H154.835L154.691 142.816C154.163 143.908 153.209 144.454 151.829 144.454C150.905 144.454 150.161 144.196 149.597 143.68C149.045 143.164 148.769 142.522 148.769 141.754C148.769 140.986 149.075 140.386 149.687 139.954C150.311 139.522 151.085 139.306 152.009 139.306C152.933 139.306 153.815 139.462 154.655 139.774V138.676ZM154.655 140.674C153.803 140.434 153.059 140.314 152.423 140.314C151.787 140.314 151.271 140.428 150.875 140.656C150.479 140.884 150.281 141.244 150.281 141.736C150.281 142.816 150.893 143.356 152.117 143.356C152.813 143.356 153.407 143.11 153.899 142.618C154.403 142.114 154.655 141.466 154.655 140.674ZM161.973 139.702L160.821 140.638V144.256H159.399V131.998H160.821V139.126L164.979 135.652H166.959L162.999 138.874L167.157 144.256H165.411L161.973 139.702ZM172.529 143.302C173.717 143.302 174.395 142.78 174.563 141.736H176.021C175.889 142.6 175.505 143.272 174.869 143.752C174.245 144.22 173.465 144.454 172.529 144.454C171.377 144.454 170.441 144.046 169.721 143.23C169.001 142.402 168.641 141.304 168.641 139.936C168.641 138.568 169.001 137.476 169.721 136.66C170.453 135.844 171.419 135.436 172.619 135.436C173.831 135.436 174.731 135.904 175.319 136.84C175.919 137.776 176.129 138.916 175.949 140.26H170.063C170.063 141.148 170.279 141.88 170.711 142.456C171.143 143.02 171.749 143.302 172.529 143.302ZM173.573 136.786C173.297 136.642 172.961 136.57 172.565 136.57C171.833 136.57 171.251 136.822 170.819 137.326C170.399 137.818 170.153 138.436 170.081 139.18H174.671C174.671 137.98 174.305 137.182 173.573 136.786ZM183.202 135.634H184.624V144.256H183.202V135.634ZM183.904 133.618C183.616 133.618 183.388 133.54 183.22 133.384C183.064 133.216 182.986 133 182.986 132.736C182.986 132.46 183.064 132.244 183.22 132.088C183.388 131.92 183.616 131.836 183.904 131.836C184.192 131.836 184.42 131.92 184.588 132.088C184.768 132.244 184.858 132.46 184.858 132.736C184.858 133 184.768 133.216 184.588 133.384C184.42 133.54 184.192 133.618 183.904 133.618ZM192.991 144.004C191.959 144.484 191.017 144.586 190.165 144.31C189.553 144.118 189.121 143.716 188.869 143.104C188.737 142.804 188.671 142.444 188.671 142.024V136.732H187.285V135.652H188.671V133.258H190.075V135.652H192.775V136.732H190.075V142.006C190.075 142.882 190.483 143.32 191.299 143.32C191.743 143.32 192.241 143.212 192.793 142.996L192.991 144.004ZM54.1149 151.998H55.5369V164.256H54.1149V151.998ZM62.1298 163.302C63.3178 163.302 63.9958 162.78 64.1638 161.736H65.6218C65.4898 162.6 65.1058 163.272 64.4698 163.752C63.8458 164.22 63.0658 164.454 62.1298 164.454C60.9778 164.454 60.0418 164.046 59.3218 163.23C58.6018 162.402 58.2418 161.304 58.2418 159.936C58.2418 158.568 58.6018 157.476 59.3218 156.66C60.0538 155.844 61.0198 155.436 62.2198 155.436C63.4318 155.436 64.3318 155.904 64.9198 156.84C65.5198 157.776 65.7298 158.916 65.5498 160.26H59.6638C59.6638 161.148 59.8798 161.88 60.3118 162.456C60.7438 163.02 61.3498 163.302 62.1298 163.302ZM63.1738 156.786C62.8978 156.642 62.5618 156.57 62.1658 156.57C61.4338 156.57 60.8518 156.822 60.4198 157.326C59.9998 157.818 59.7538 158.436 59.6818 159.18H64.2718C64.2718 157.98 63.9058 157.182 63.1738 156.786ZM67.9735 157.758C67.9735 157.05 68.2735 156.486 68.8735 156.066C69.4855 155.646 70.3075 155.436 71.3395 155.436C72.3715 155.436 73.1755 155.652 73.7515 156.084C74.3395 156.516 74.6455 157.062 74.6695 157.722H73.2835C73.1755 156.942 72.5155 156.552 71.3035 156.552C70.7155 156.552 70.2595 156.684 69.9355 156.948C69.6235 157.212 69.4675 157.5 69.4675 157.812C69.4675 158.112 69.5875 158.37 69.8275 158.586C70.0675 158.79 70.4515 158.97 70.9795 159.126L72.7075 159.702C73.4395 159.93 73.9975 160.224 74.3815 160.584C74.7775 160.932 74.9755 161.418 74.9755 162.042C74.9755 162.654 74.6575 163.212 74.0215 163.716C73.3855 164.208 72.4975 164.454 71.3575 164.454C70.2175 164.454 69.3295 164.202 68.6935 163.698C68.0575 163.182 67.7215 162.522 67.6855 161.718H69.0535C69.0775 162.258 69.2935 162.666 69.7015 162.942C70.1215 163.206 70.6435 163.338 71.2675 163.338C71.8915 163.338 72.4075 163.206 72.8155 162.942C73.2235 162.678 73.4275 162.366 73.4275 162.006C73.4275 161.634 73.3075 161.352 73.0675 161.16C72.8275 160.968 72.4375 160.8 71.8975 160.656L70.2235 160.098C68.7235 159.654 67.9735 158.874 67.9735 157.758ZM77.4481 157.758C77.4481 157.05 77.7481 156.486 78.3481 156.066C78.9601 155.646 79.7821 155.436 80.8141 155.436C81.8461 155.436 82.6501 155.652 83.2261 156.084C83.8141 156.516 84.1201 157.062 84.1441 157.722H82.7581C82.6501 156.942 81.9901 156.552 80.7781 156.552C80.1901 156.552 79.7341 156.684 79.4101 156.948C79.0981 157.212 78.9421 157.5 78.9421 157.812C78.9421 158.112 79.0621 158.37 79.3021 158.586C79.5421 158.79 79.9261 158.97 80.4541 159.126L82.1821 159.702C82.9141 159.93 83.4721 160.224 83.8561 160.584C84.2521 160.932 84.4501 161.418 84.4501 162.042C84.4501 162.654 84.1321 163.212 83.4961 163.716C82.8601 164.208 81.9721 164.454 80.8321 164.454C79.6921 164.454 78.8041 164.202 78.1681 163.698C77.5321 163.182 77.1961 162.522 77.1601 161.718H78.5281C78.5521 162.258 78.7681 162.666 79.1761 162.942C79.5961 163.206 80.1181 163.338 80.7421 163.338C81.3661 163.338 81.8821 163.206 82.2901 162.942C82.6981 162.678 82.9021 162.366 82.9021 162.006C82.9021 161.634 82.7821 161.352 82.5421 161.16C82.3021 160.968 81.9121 160.8 81.3721 160.656L79.6981 160.098C78.1981 159.654 77.4481 158.874 77.4481 157.758ZM91.2118 157.758C91.2118 157.05 91.5118 156.486 92.1118 156.066C92.7238 155.646 93.5458 155.436 94.5778 155.436C95.6098 155.436 96.4138 155.652 96.9898 156.084C97.5778 156.516 97.8838 157.062 97.9078 157.722H96.5218C96.4138 156.942 95.7538 156.552 94.5418 156.552C93.9538 156.552 93.4978 156.684 93.1738 156.948C92.8618 157.212 92.7058 157.5 92.7058 157.812C92.7058 158.112 92.8258 158.37 93.0658 158.586C93.3058 158.79 93.6898 158.97 94.2178 159.126L95.9458 159.702C96.6778 159.93 97.2358 160.224 97.6198 160.584C98.0158 160.932 98.2138 161.418 98.2138 162.042C98.2138 162.654 97.8958 163.212 97.2598 163.716C96.6238 164.208 95.7358 164.454 94.5958 164.454C93.4558 164.454 92.5678 164.202 91.9318 163.698C91.2958 163.182 90.9598 162.522 90.9238 161.718H92.2918C92.3158 162.258 92.5318 162.666 92.9398 162.942C93.3598 163.206 93.8818 163.338 94.5058 163.338C95.1298 163.338 95.6458 163.206 96.0538 162.942C96.4618 162.678 96.6658 162.366 96.6658 162.006C96.6658 161.634 96.5458 161.352 96.3058 161.16C96.0658 160.968 95.6758 160.8 95.1358 160.656L93.4618 160.098C91.9618 159.654 91.2118 158.874 91.2118 157.758ZM105.636 164.004C104.604 164.484 103.662 164.586 102.81 164.31C102.198 164.118 101.766 163.716 101.514 163.104C101.382 162.804 101.316 162.444 101.316 162.024V156.732H99.9304V155.652H101.316V153.258H102.72V155.652H105.42V156.732H102.72V162.006C102.72 162.882 103.128 163.32 103.944 163.32C104.388 163.32 104.886 163.212 105.438 162.996L105.636 164.004ZM111.414 156.858C110.058 156.858 109.356 157.926 109.308 160.062V164.256H107.886V155.634H109.308V157.29C109.74 156.09 110.502 155.49 111.594 155.49C111.942 155.49 112.272 155.544 112.584 155.652L112.512 157.038C112.152 156.918 111.786 156.858 111.414 156.858ZM117.729 163.302C118.917 163.302 119.595 162.78 119.763 161.736H121.221C121.089 162.6 120.705 163.272 120.069 163.752C119.445 164.22 118.665 164.454 117.729 164.454C116.577 164.454 115.641 164.046 114.921 163.23C114.201 162.402 113.841 161.304 113.841 159.936C113.841 158.568 114.201 157.476 114.921 156.66C115.653 155.844 116.619 155.436 117.819 155.436C119.031 155.436 119.931 155.904 120.519 156.84C121.119 157.776 121.329 158.916 121.149 160.26H115.263C115.263 161.148 115.479 161.88 115.911 162.456C116.343 163.02 116.949 163.302 117.729 163.302ZM118.773 156.786C118.497 156.642 118.161 156.57 117.765 156.57C117.033 156.57 116.451 156.822 116.019 157.326C115.599 157.818 115.353 158.436 115.281 159.18H119.871C119.871 157.98 119.505 157.182 118.773 156.786ZM123.573 157.758C123.573 157.05 123.873 156.486 124.473 156.066C125.085 155.646 125.907 155.436 126.939 155.436C127.971 155.436 128.775 155.652 129.351 156.084C129.939 156.516 130.245 157.062 130.269 157.722H128.883C128.775 156.942 128.115 156.552 126.903 156.552C126.315 156.552 125.859 156.684 125.535 156.948C125.223 157.212 125.067 157.5 125.067 157.812C125.067 158.112 125.187 158.37 125.427 158.586C125.667 158.79 126.051 158.97 126.579 159.126L128.307 159.702C129.039 159.93 129.597 160.224 129.981 160.584C130.377 160.932 130.575 161.418 130.575 162.042C130.575 162.654 130.257 163.212 129.621 163.716C128.985 164.208 128.097 164.454 126.957 164.454C125.817 164.454 124.929 164.202 124.293 163.698C123.657 163.182 123.321 162.522 123.285 161.718H124.653C124.677 162.258 124.893 162.666 125.301 162.942C125.721 163.206 126.243 163.338 126.867 163.338C127.491 163.338 128.007 163.206 128.415 162.942C128.823 162.678 129.027 162.366 129.027 162.006C129.027 161.634 128.907 161.352 128.667 161.16C128.427 160.968 128.037 160.8 127.497 160.656L125.823 160.098C124.323 159.654 123.573 158.874 123.573 157.758ZM133.048 157.758C133.048 157.05 133.348 156.486 133.948 156.066C134.56 155.646 135.382 155.436 136.414 155.436C137.446 155.436 138.25 155.652 138.826 156.084C139.414 156.516 139.72 157.062 139.744 157.722H138.358C138.25 156.942 137.59 156.552 136.378 156.552C135.79 156.552 135.334 156.684 135.01 156.948C134.698 157.212 134.542 157.5 134.542 157.812C134.542 158.112 134.662 158.37 134.902 158.586C135.142 158.79 135.526 158.97 136.054 159.126L137.782 159.702C138.514 159.93 139.072 160.224 139.456 160.584C139.852 160.932 140.05 161.418 140.05 162.042C140.05 162.654 139.732 163.212 139.096 163.716C138.46 164.208 137.572 164.454 136.432 164.454C135.292 164.454 134.404 164.202 133.768 163.698C133.132 163.182 132.796 162.522 132.76 161.718H134.128C134.152 162.258 134.368 162.666 134.776 162.942C135.196 163.206 135.718 163.338 136.342 163.338C136.966 163.338 137.482 163.206 137.89 162.942C138.298 162.678 138.502 162.366 138.502 162.006C138.502 161.634 138.382 161.352 138.142 161.16C137.902 160.968 137.512 160.8 136.972 160.656L135.298 160.098C133.798 159.654 133.048 158.874 133.048 157.758ZM146.639 153.204C146.243 153.048 145.931 152.97 145.703 152.97C145.283 152.97 144.953 153.072 144.713 153.276C144.473 153.48 144.353 153.84 144.353 154.356V155.652H146.135V156.624H144.353V164.256H142.949V156.624H141.527V155.652H142.949V154.338C142.949 153.486 143.183 152.862 143.651 152.466C144.119 152.058 144.659 151.854 145.271 151.854C145.883 151.854 146.423 151.932 146.891 152.088L146.639 153.204ZM154.482 162.546C153.894 163.794 152.94 164.418 151.62 164.418C150.648 164.418 149.862 164.148 149.262 163.608C148.674 163.068 148.38 162.234 148.38 161.106V155.634H149.802V160.998C149.802 162.45 150.474 163.176 151.818 163.176C152.598 163.176 153.228 162.876 153.708 162.276C154.2 161.676 154.458 160.908 154.482 159.972V155.634H155.904V164.256H154.482V162.546ZM159.548 151.998H160.97V164.256H159.548V151.998ZM169.021 151.602C168.865 152.238 168.637 152.94 168.337 153.708C168.049 154.476 167.761 155.178 167.473 155.814H166.285C166.405 155.358 166.519 154.872 166.627 154.356C166.747 153.828 166.855 153.312 166.951 152.808C167.059 152.292 167.143 151.824 167.203 151.404H168.895L169.021 151.602ZM165.691 151.602C165.535 152.238 165.307 152.94 165.007 153.708C164.719 154.476 164.431 155.178 164.143 155.814H162.991C163.111 155.358 163.225 154.872 163.333 154.356C163.441 153.828 163.543 153.312 163.639 152.808C163.735 152.292 163.813 151.824 163.873 151.404H165.565L165.691 151.602ZM83.4526 198.406H88.3486V199.63H83.4526V198.406ZM93.4 192.934H95.128L98.926 204.256H97.45L96.478 201.376H91.978L91.006 204.256H89.512L93.4 192.934ZM92.356 200.26H96.118L94.246 194.68L92.356 200.26ZM101.215 191.998H102.637V204.256H101.215V191.998ZM106.35 195.634H107.772V204.256H106.35V195.634ZM107.052 193.618C106.764 193.618 106.536 193.54 106.368 193.384C106.212 193.216 106.134 193 106.134 192.736C106.134 192.46 106.212 192.244 106.368 192.088C106.536 191.92 106.764 191.836 107.052 191.836C107.34 191.836 107.568 191.92 107.736 192.088C107.916 192.244 108.006 192.46 108.006 192.736C108.006 193 107.916 193.216 107.736 193.384C107.568 193.54 107.34 193.618 107.052 193.618ZM111.711 204.346C111.435 204.322 111.207 204.232 111.027 204.076C110.847 203.92 110.757 203.71 110.757 203.446C110.757 203.182 110.847 202.96 111.027 202.78C111.219 202.6 111.483 202.51 111.819 202.51C112.167 202.51 112.455 202.648 112.683 202.924C112.911 203.188 113.025 203.524 113.025 203.932C113.025 204.34 112.893 204.754 112.629 205.174C112.365 205.606 111.963 205.954 111.423 206.218L110.361 205.696C111.105 205.336 111.555 204.886 111.711 204.346ZM120.464 202.942H127.034V204.256H119.042V202.582C119.042 201.25 119.546 200.272 120.554 199.648C120.878 199.444 121.238 199.264 121.634 199.108L123.866 198.208C125.018 197.752 125.594 197.002 125.594 195.958C125.594 195.382 125.396 194.914 125 194.554C124.604 194.182 124.046 193.996 123.326 193.996C122.618 193.996 122.036 194.146 121.58 194.446C121.136 194.746 120.878 195.196 120.806 195.796H119.24C119.3 194.812 119.696 194.056 120.428 193.528C121.16 193 122.096 192.736 123.236 192.736C124.388 192.736 125.324 193.048 126.044 193.672C126.764 194.296 127.124 195.07 127.124 195.994C127.124 196.906 126.884 197.632 126.404 198.172C125.936 198.712 125.288 199.144 124.46 199.468L122.174 200.386C121.598 200.626 121.166 200.902 120.878 201.214C120.602 201.514 120.464 201.91 120.464 202.402V202.942ZM130.905 202.942H137.475V204.256H129.483V202.582C129.483 201.25 129.987 200.272 130.995 199.648C131.319 199.444 131.679 199.264 132.075 199.108L134.307 198.208C135.459 197.752 136.035 197.002 136.035 195.958C136.035 195.382 135.837 194.914 135.441 194.554C135.045 194.182 134.487 193.996 133.767 193.996C133.059 193.996 132.477 194.146 132.021 194.446C131.577 194.746 131.319 195.196 131.247 195.796H129.681C129.741 194.812 130.137 194.056 130.869 193.528C131.601 193 132.537 192.736 133.677 192.736C134.829 192.736 135.765 193.048 136.485 193.672C137.205 194.296 137.565 195.07 137.565 195.994C137.565 196.906 137.325 197.632 136.845 198.172C136.377 198.712 135.729 199.144 134.901 199.468L132.615 200.386C132.039 200.626 131.607 200.902 131.319 201.214C131.043 201.514 130.905 201.91 130.905 202.402V202.942Z" fill="white"/>
<defs>
<linearGradient id="paint0_linear" x1="110.771" y1="0.333496" x2="110.771" y2="220.865" gradientUnits="userSpaceOnUse">
<stop stop-color="#93708C"/>
<stop offset="1" stop-color="#8EA7A4"/>
</linearGradient>
</defs>
</svg>
