<svg width="222" height="222" viewBox="0 0 222 222" fill="none" xmlns="http://www.w3.org/2000/svg">
<circle cx="111.208" cy="110.825" r="110.266" fill="url(#paint0_linear)"/>
<path d="M40.7782 48.8995C40.6102 49.5955 40.4422 50.3515 40.2742 51.1675C40.1062 51.9715 39.9742 52.6855 39.8782 53.3095H38.1682L38.0422 53.1115C38.2102 52.4755 38.4382 51.7795 38.7262 51.0235C39.0142 50.2555 39.3082 49.5475 39.6082 48.8995H40.7782ZM37.4482 48.8995C37.2802 49.5955 37.1122 50.3515 36.9442 51.1675C36.7762 51.9715 36.6442 52.6855 36.5482 53.3095H34.8562L34.7482 53.1115C34.9162 52.4755 35.1382 51.7795 35.4142 51.0235C35.7022 50.2555 35.9962 49.5475 36.2962 48.8995H37.4482ZM42.819 50.4295H44.241V61.7515H42.819V50.4295ZM52.153 49.4935H53.575V61.7515H52.153V49.4935ZM60.2939 52.9315C61.4939 52.9315 62.4599 53.3215 63.1919 54.1015C63.9359 54.8815 64.3079 55.9975 64.3079 57.4495C64.3079 58.8895 63.9359 59.9995 63.1919 60.7795C62.4599 61.5595 61.4939 61.9495 60.2939 61.9495C59.0939 61.9495 58.1219 61.5595 57.3779 60.7795C56.6459 59.9995 56.2799 58.8895 56.2799 57.4495C56.2799 55.9975 56.6459 54.8815 57.3779 54.1015C58.1219 53.3215 59.0939 52.9315 60.2939 52.9315ZM62.8679 57.4495C62.8679 56.4175 62.6519 55.6135 62.2199 55.0375C61.7879 54.4495 61.1519 54.1555 60.3119 54.1555C59.4839 54.1555 58.8479 54.4495 58.4039 55.0375C57.9599 55.6135 57.7379 56.4175 57.7379 57.4495C57.7379 58.4695 57.9479 59.2735 58.3679 59.8615C58.7879 60.4375 59.4119 60.7255 60.2399 60.7255C61.0799 60.7255 61.7279 60.4375 62.1839 59.8615C62.6399 59.2735 62.8679 58.4695 62.8679 57.4495ZM67.1321 53.1475L69.7241 60.2575L72.3341 53.1475H73.9361L70.5161 61.7515H68.9501L65.5301 53.1475H67.1321ZM79.0468 60.7975C80.2348 60.7975 80.9128 60.2755 81.0808 59.2315H82.5388C82.4068 60.0955 82.0228 60.7675 81.3868 61.2475C80.7628 61.7155 79.9828 61.9495 79.0468 61.9495C77.8948 61.9495 76.9588 61.5415 76.2388 60.7255C75.5188 59.8975 75.1588 58.7995 75.1588 57.4315C75.1588 56.0635 75.5188 54.9715 76.2388 54.1555C76.9708 53.3395 77.9368 52.9315 79.1368 52.9315C80.3488 52.9315 81.2488 53.3995 81.8368 54.3355C82.4368 55.2715 82.6468 56.4115 82.4668 57.7555H76.5808C76.5808 58.6435 76.7968 59.3755 77.2288 59.9515C77.6608 60.5155 78.2668 60.7975 79.0468 60.7975ZM80.0908 54.2815C79.8148 54.1375 79.4788 54.0655 79.0828 54.0655C78.3508 54.0655 77.7688 54.3175 77.3368 54.8215C76.9168 55.3135 76.6708 55.9315 76.5988 56.6755H81.1888C81.1888 55.4755 80.8228 54.6775 80.0908 54.2815ZM94.1295 61.4995C93.0975 61.9795 92.1555 62.0815 91.3035 61.8055C90.6915 61.6135 90.2595 61.2115 90.0075 60.5995C89.8755 60.2995 89.8095 59.9395 89.8095 59.5195V54.2275H88.4235V53.1475H89.8095V50.7535H91.2135V53.1475H93.9135V54.2275H91.2135V59.5015C91.2135 60.3775 91.6215 60.8155 92.4375 60.8155C92.8815 60.8155 93.3795 60.7075 93.9315 60.4915L94.1295 61.4995ZM97.8191 54.7315C98.3951 53.5315 99.3491 52.9315 100.681 52.9315C101.701 52.9315 102.493 53.2675 103.057 53.9395C103.633 54.6115 103.921 55.5295 103.921 56.6935V61.7515H102.517V56.6935C102.517 55.8655 102.319 55.2415 101.923 54.8215C101.539 54.4015 100.981 54.1915 100.249 54.1915C99.5171 54.1915 98.9291 54.5035 98.4851 55.1275C98.0411 55.7395 97.8191 56.5915 97.8191 57.6835V61.7515H96.3971V49.4935H97.8191V54.7315ZM110.23 60.7975C111.418 60.7975 112.096 60.2755 112.264 59.2315H113.722C113.59 60.0955 113.206 60.7675 112.57 61.2475C111.946 61.7155 111.166 61.9495 110.23 61.9495C109.078 61.9495 108.142 61.5415 107.422 60.7255C106.702 59.8975 106.342 58.7995 106.342 57.4315C106.342 56.0635 106.702 54.9715 107.422 54.1555C108.154 53.3395 109.12 52.9315 110.32 52.9315C111.532 52.9315 112.432 53.3995 113.02 54.3355C113.62 55.2715 113.83 56.4115 113.65 57.7555H107.764C107.764 58.6435 107.98 59.3755 108.412 59.9515C108.844 60.5155 109.45 60.7975 110.23 60.7975ZM111.274 54.2815C110.998 54.1375 110.662 54.0655 110.266 54.0655C109.534 54.0655 108.952 54.3175 108.52 54.8215C108.1 55.3135 107.854 55.9315 107.782 56.6755H112.372C112.372 55.4755 112.006 54.6775 111.274 54.2815ZM124.989 50.6995C124.593 50.5435 124.281 50.4655 124.053 50.4655C123.633 50.4655 123.303 50.5675 123.063 50.7715C122.823 50.9755 122.703 51.3355 122.703 51.8515V53.1475H124.485V54.1195H122.703V61.7515H121.299V54.1195H119.877V53.1475H121.299V51.8335C121.299 50.9815 121.533 50.3575 122.001 49.9615C122.469 49.5535 123.009 49.3495 123.621 49.3495C124.233 49.3495 124.773 49.4275 125.241 49.5835L124.989 50.6995ZM130.493 54.3535C129.137 54.3535 128.435 55.4215 128.387 57.5575V61.7515H126.965V53.1295H128.387V54.7855C128.819 53.5855 129.581 52.9855 130.673 52.9855C131.021 52.9855 131.351 53.0395 131.663 53.1475L131.591 54.5335C131.231 54.4135 130.865 54.3535 130.493 54.3535ZM136.809 60.7975C137.997 60.7975 138.675 60.2755 138.843 59.2315H140.301C140.169 60.0955 139.785 60.7675 139.149 61.2475C138.525 61.7155 137.745 61.9495 136.809 61.9495C135.657 61.9495 134.721 61.5415 134.001 60.7255C133.281 59.8975 132.921 58.7995 132.921 57.4315C132.921 56.0635 133.281 54.9715 134.001 54.1555C134.733 53.3395 135.699 52.9315 136.899 52.9315C138.111 52.9315 139.011 53.3995 139.599 54.3355C140.199 55.2715 140.409 56.4115 140.229 57.7555H134.343C134.343 58.6435 134.559 59.3755 134.991 59.9515C135.423 60.5155 136.029 60.7975 136.809 60.7975ZM137.853 54.2815C137.577 54.1375 137.241 54.0655 136.845 54.0655C136.113 54.0655 135.531 54.3175 135.099 54.8215C134.679 55.3135 134.433 55.9315 134.361 56.6755H138.951C138.951 55.4755 138.585 54.6775 137.853 54.2815ZM146.072 60.7975C147.26 60.7975 147.938 60.2755 148.106 59.2315H149.564C149.432 60.0955 149.048 60.7675 148.412 61.2475C147.788 61.7155 147.008 61.9495 146.072 61.9495C144.92 61.9495 143.984 61.5415 143.264 60.7255C142.544 59.8975 142.184 58.7995 142.184 57.4315C142.184 56.0635 142.544 54.9715 143.264 54.1555C143.996 53.3395 144.962 52.9315 146.162 52.9315C147.374 52.9315 148.274 53.3995 148.862 54.3355C149.462 55.2715 149.672 56.4115 149.492 57.7555H143.606C143.606 58.6435 143.822 59.3755 144.254 59.9515C144.686 60.5155 145.292 60.7975 146.072 60.7975ZM147.116 54.2815C146.84 54.1375 146.504 54.0655 146.108 54.0655C145.376 54.0655 144.794 54.3175 144.362 54.8215C143.942 55.3135 143.696 55.9315 143.624 56.6755H148.214C148.214 55.4755 147.848 54.6775 147.116 54.2815ZM158 54.4255V49.4935H159.404V61.7515H158.252L158.072 60.3115C157.796 60.8515 157.43 61.2595 156.974 61.5355C156.518 61.8115 156.02 61.9495 155.48 61.9495C154.388 61.9495 153.47 61.5295 152.726 60.6895C151.994 59.8495 151.628 58.7575 151.628 57.4135C151.628 56.0575 151.988 54.9715 152.708 54.1555C153.44 53.3395 154.358 52.9315 155.462 52.9315C156.578 52.9315 157.424 53.4295 158 54.4255ZM155.552 54.1915C154.856 54.1915 154.268 54.4855 153.788 55.0735C153.32 55.6615 153.086 56.4475 153.086 57.4315C153.086 58.4155 153.326 59.2075 153.806 59.8075C154.286 60.3955 154.862 60.6895 155.534 60.6895C156.206 60.6895 156.776 60.4675 157.244 60.0235C157.724 59.5675 157.976 58.9615 158 58.2055V56.8015C158 55.9975 157.766 55.3615 157.298 54.8935C156.83 54.4255 156.248 54.1915 155.552 54.1915ZM166.149 52.9315C167.349 52.9315 168.315 53.3215 169.047 54.1015C169.791 54.8815 170.163 55.9975 170.163 57.4495C170.163 58.8895 169.791 59.9995 169.047 60.7795C168.315 61.5595 167.349 61.9495 166.149 61.9495C164.949 61.9495 163.977 61.5595 163.233 60.7795C162.501 59.9995 162.135 58.8895 162.135 57.4495C162.135 55.9975 162.501 54.8815 163.233 54.1015C163.977 53.3215 164.949 52.9315 166.149 52.9315ZM168.723 57.4495C168.723 56.4175 168.507 55.6135 168.075 55.0375C167.643 54.4495 167.007 54.1555 166.167 54.1555C165.339 54.1555 164.703 54.4495 164.259 55.0375C163.815 55.6135 163.593 56.4175 163.593 57.4495C163.593 58.4695 163.803 59.2735 164.223 59.8615C164.643 60.4375 165.267 60.7255 166.095 60.7255C166.935 60.7255 167.583 60.4375 168.039 59.8615C168.495 59.2735 168.723 58.4695 168.723 57.4495ZM174.248 54.8035C174.812 53.5555 175.778 52.9315 177.146 52.9315C177.89 52.9315 178.514 53.1175 179.018 53.4895C179.522 53.8495 179.888 54.3535 180.116 55.0015C180.656 53.6215 181.658 52.9315 183.122 52.9315C184.154 52.9315 184.952 53.2675 185.516 53.9395C186.08 54.6115 186.362 55.5295 186.362 56.6935V61.7515H184.958V56.6935C184.958 55.8655 184.76 55.2415 184.364 54.8215C183.98 54.4015 183.422 54.1915 182.69 54.1915C181.958 54.1915 181.388 54.4915 180.98 55.0915C180.584 55.6915 180.386 56.5195 180.386 57.5755V61.7515H178.982V56.6935C178.982 55.8655 178.784 55.2415 178.388 54.8215C178.004 54.4015 177.452 54.1915 176.732 54.1915C176.012 54.1915 175.43 54.4855 174.986 55.0735C174.542 55.6615 174.308 56.4775 174.284 57.5215V61.7515H172.862V53.1475H174.086L174.248 54.8035ZM42.6894 72.9315C43.8894 72.9315 44.8554 73.3215 45.5874 74.1015C46.3314 74.8815 46.7034 75.9975 46.7034 77.4495C46.7034 78.8895 46.3314 79.9995 45.5874 80.7795C44.8554 81.5595 43.8894 81.9495 42.6894 81.9495C41.4894 81.9495 40.5174 81.5595 39.7734 80.7795C39.0414 79.9995 38.6754 78.8895 38.6754 77.4495C38.6754 75.9975 39.0414 74.8815 39.7734 74.1015C40.5174 73.3215 41.4894 72.9315 42.6894 72.9315ZM45.2634 77.4495C45.2634 76.4175 45.0474 75.6135 44.6154 75.0375C44.1834 74.4495 43.5474 74.1555 42.7074 74.1555C41.8794 74.1555 41.2434 74.4495 40.7994 75.0375C40.3554 75.6135 40.1334 76.4175 40.1334 77.4495C40.1334 78.4695 40.3434 79.2735 40.7634 79.8615C41.1834 80.4375 41.8074 80.7255 42.6354 80.7255C43.4754 80.7255 44.1234 80.4375 44.5794 79.8615C45.0354 79.2735 45.2634 78.4695 45.2634 77.4495ZM53.5956 70.6995C53.1996 70.5435 52.8876 70.4655 52.6596 70.4655C52.2396 70.4655 51.9096 70.5675 51.6696 70.7715C51.4296 70.9755 51.3096 71.3355 51.3096 71.8515V73.1475H53.0916V74.1195H51.3096V81.7515H49.9056V74.1195H48.4836V73.1475H49.9056V71.8335C49.9056 70.9815 50.1396 70.3575 50.6076 69.9615C51.0756 69.5535 51.6156 69.3495 52.2276 69.3495C52.8396 69.3495 53.3796 69.4275 53.8476 69.5835L53.5956 70.6995ZM64.3786 81.4995C63.3466 81.9795 62.4046 82.0815 61.5526 81.8055C60.9406 81.6135 60.5086 81.2115 60.2566 80.5995C60.1246 80.2995 60.0586 79.9395 60.0586 79.5195V74.2275H58.6726V73.1475H60.0586V70.7535H61.4626V73.1475H64.1626V74.2275H61.4626V79.5015C61.4626 80.3775 61.8706 80.8155 62.6866 80.8155C63.1306 80.8155 63.6286 80.7075 64.1806 80.4915L64.3786 81.4995ZM70.1561 74.3535C68.8001 74.3535 68.0981 75.4215 68.0501 77.5575V81.7515H66.6281V73.1295H68.0501V74.7855C68.4821 73.5855 69.2441 72.9855 70.3361 72.9855C70.6841 72.9855 71.0141 73.0395 71.3261 73.1475L71.2541 74.5335C70.8941 74.4135 70.5281 74.3535 70.1561 74.3535ZM78.8296 76.1715C78.8296 75.3915 78.6676 74.8335 78.3436 74.4975C78.0196 74.1615 77.5456 73.9935 76.9216 73.9935C76.3096 73.9935 75.8116 74.1195 75.4276 74.3715C75.0556 74.6115 74.8696 74.9955 74.8696 75.5235H73.3036C73.3036 74.2035 74.0116 73.3875 75.4276 73.0755C75.8596 72.9795 76.3276 72.9315 76.8316 72.9315C77.8996 72.9315 78.7336 73.2015 79.3336 73.7415C79.9336 74.2815 80.2336 75.1035 80.2336 76.2075V81.7515H79.0096L78.8656 80.3115C78.3376 81.4035 77.3836 81.9495 76.0036 81.9495C75.0796 81.9495 74.3356 81.6915 73.7716 81.1755C73.2196 80.6595 72.9436 80.0175 72.9436 79.2495C72.9436 78.4815 73.2496 77.8815 73.8616 77.4495C74.4856 77.0175 75.2596 76.8015 76.1836 76.8015C77.1076 76.8015 77.9896 76.9575 78.8296 77.2695V76.1715ZM78.8296 78.1695C77.9776 77.9295 77.2336 77.8095 76.5976 77.8095C75.9616 77.8095 75.4456 77.9235 75.0496 78.1515C74.6536 78.3795 74.4556 78.7395 74.4556 79.2315C74.4556 80.3115 75.0676 80.8515 76.2916 80.8515C76.9876 80.8515 77.5816 80.6055 78.0736 80.1135C78.5776 79.6095 78.8296 78.9615 78.8296 78.1695ZM83.6819 73.1475L86.2739 80.2575L88.8839 73.1475H90.4859L87.0659 81.7515H85.4999L82.0799 73.1475H83.6819ZM95.5966 80.7975C96.7846 80.7975 97.4626 80.2755 97.6306 79.2315H99.0886C98.9566 80.0955 98.5726 80.7675 97.9366 81.2475C97.3126 81.7155 96.5326 81.9495 95.5966 81.9495C94.4446 81.9495 93.5086 81.5415 92.7886 80.7255C92.0686 79.8975 91.7086 78.7995 91.7086 77.4315C91.7086 76.0635 92.0686 74.9715 92.7886 74.1555C93.5206 73.3395 94.4866 72.9315 95.6866 72.9315C96.8986 72.9315 97.7986 73.3995 98.3866 74.3355C98.9866 75.2715 99.1966 76.4115 99.0166 77.7555H93.1306C93.1306 78.6435 93.3466 79.3755 93.7786 79.9515C94.2106 80.5155 94.8166 80.7975 95.5966 80.7975ZM96.6406 74.2815C96.3646 74.1375 96.0286 74.0655 95.6326 74.0655C94.9006 74.0655 94.3186 74.3175 93.8866 74.8215C93.4666 75.3135 93.2206 75.9315 93.1486 76.6755H97.7386C97.7386 75.4755 97.3726 74.6775 96.6406 74.2815ZM101.89 69.4935H103.312V81.7515H101.89V69.4935ZM107.025 73.1295H108.447V81.7515H107.025V73.1295ZM107.727 71.1135C107.439 71.1135 107.211 71.0355 107.043 70.8795C106.887 70.7115 106.809 70.4955 106.809 70.2315C106.809 69.9555 106.887 69.7395 107.043 69.5835C107.211 69.4155 107.439 69.3315 107.727 69.3315C108.015 69.3315 108.243 69.4155 108.411 69.5835C108.591 69.7395 108.681 69.9555 108.681 70.2315C108.681 70.4955 108.591 70.7115 108.411 70.8795C108.243 71.0355 108.015 71.1135 107.727 71.1135ZM113.682 74.8035C114.246 73.5555 115.212 72.9315 116.58 72.9315C117.6 72.9315 118.392 73.2675 118.956 73.9395C119.532 74.6115 119.82 75.5295 119.82 76.6935V81.7515H118.416V76.6935C118.416 75.8655 118.218 75.2415 117.822 74.8215C117.438 74.4015 116.886 74.1915 116.166 74.1915C115.446 74.1915 114.864 74.4855 114.42 75.0735C113.976 75.6615 113.742 76.4775 113.718 77.5215V81.7515H112.296V73.1475H113.52L113.682 74.8035ZM123.52 81.4815C122.8 81.1335 122.44 80.5995 122.44 79.8795C122.44 79.5075 122.578 79.1835 122.854 78.9075C123.142 78.6195 123.496 78.4275 123.916 78.3315C123.268 77.7555 122.944 76.9995 122.944 76.0635C122.944 75.1275 123.274 74.3715 123.934 73.7955C124.606 73.2195 125.398 72.9315 126.31 72.9315C127.222 72.9315 127.996 73.1475 128.632 73.5795C128.716 72.9435 128.968 72.4335 129.388 72.0495C129.82 71.6655 130.384 71.4735 131.08 71.4735L130.954 72.8775C129.898 72.8775 129.346 73.3215 129.298 74.2095C129.718 74.7255 129.928 75.3435 129.928 76.0635C129.928 76.9875 129.592 77.7495 128.92 78.3495C128.26 78.9375 127.432 79.2315 126.436 79.2315C125.752 79.2315 125.146 79.0935 124.618 78.8175C124.378 78.8655 124.162 78.9795 123.97 79.1595C123.778 79.3275 123.682 79.5615 123.682 79.8615C123.682 80.4975 124.21 80.8155 125.266 80.8155H128.614C129.418 80.8155 130.054 80.9895 130.522 81.3375C130.99 81.6735 131.224 82.1475 131.224 82.7595C131.224 83.6715 130.762 84.4695 129.838 85.1535C128.926 85.8375 127.768 86.1795 126.364 86.1795C124.96 86.1795 123.856 85.9155 123.052 85.3875C122.248 84.8715 121.846 84.2175 121.846 83.4255C121.846 82.9095 121.996 82.4895 122.296 82.1655C122.608 81.8415 123.016 81.6135 123.52 81.4815ZM123.25 83.3715C123.25 83.8275 123.496 84.2175 123.988 84.5415C124.492 84.8775 125.248 85.0455 126.256 85.0455C127.276 85.0455 128.122 84.8235 128.794 84.3795C129.478 83.9475 129.82 83.4375 129.82 82.8495C129.82 82.5735 129.718 82.3335 129.514 82.1295C129.322 81.9375 129.022 81.8415 128.614 81.8415H125.14C124.528 81.8655 124.06 82.0095 123.736 82.2735C123.412 82.5495 123.25 82.9155 123.25 83.3715ZM128.542 76.0635C128.542 75.4395 128.356 74.9355 127.984 74.5515C127.612 74.1555 127.096 73.9575 126.436 73.9575C125.788 73.9575 125.278 74.1555 124.906 74.5515C124.534 74.9355 124.348 75.4395 124.348 76.0635C124.348 76.6875 124.534 77.2035 124.906 77.6115C125.29 78.0075 125.806 78.2055 126.454 78.2055C127.102 78.2055 127.612 78.0015 127.984 77.5935C128.356 77.1855 128.542 76.6755 128.542 76.0635ZM142.955 76.1715C142.955 75.3915 142.793 74.8335 142.469 74.4975C142.145 74.1615 141.671 73.9935 141.047 73.9935C140.435 73.9935 139.937 74.1195 139.553 74.3715C139.181 74.6115 138.995 74.9955 138.995 75.5235H137.429C137.429 74.2035 138.137 73.3875 139.553 73.0755C139.985 72.9795 140.453 72.9315 140.957 72.9315C142.025 72.9315 142.859 73.2015 143.459 73.7415C144.059 74.2815 144.359 75.1035 144.359 76.2075V81.7515H143.135L142.991 80.3115C142.463 81.4035 141.509 81.9495 140.129 81.9495C139.205 81.9495 138.461 81.6915 137.897 81.1755C137.345 80.6595 137.069 80.0175 137.069 79.2495C137.069 78.4815 137.375 77.8815 137.987 77.4495C138.611 77.0175 139.385 76.8015 140.309 76.8015C141.233 76.8015 142.115 76.9575 142.955 77.2695V76.1715ZM142.955 78.1695C142.103 77.9295 141.359 77.8095 140.723 77.8095C140.087 77.8095 139.571 77.9235 139.175 78.1515C138.779 78.3795 138.581 78.7395 138.581 79.2315C138.581 80.3115 139.193 80.8515 140.417 80.8515C141.113 80.8515 141.707 80.6055 142.199 80.1135C142.703 79.6095 142.955 78.9615 142.955 78.1695ZM147.699 69.4935H149.121V81.7515H147.699V69.4935ZM155.84 72.9315C157.04 72.9315 158.006 73.3215 158.738 74.1015C159.482 74.8815 159.854 75.9975 159.854 77.4495C159.854 78.8895 159.482 79.9995 158.738 80.7795C158.006 81.5595 157.04 81.9495 155.84 81.9495C154.64 81.9495 153.668 81.5595 152.924 80.7795C152.192 79.9995 151.826 78.8895 151.826 77.4495C151.826 75.9975 152.192 74.8815 152.924 74.1015C153.668 73.3215 154.64 72.9315 155.84 72.9315ZM158.414 77.4495C158.414 76.4175 158.198 75.6135 157.766 75.0375C157.334 74.4495 156.698 74.1555 155.858 74.1555C155.03 74.1555 154.394 74.4495 153.95 75.0375C153.506 75.6135 153.284 76.4175 153.284 77.4495C153.284 78.4695 153.494 79.2735 153.914 79.8615C154.334 80.4375 154.958 80.7255 155.786 80.7255C156.626 80.7255 157.274 80.4375 157.73 79.8615C158.186 79.2735 158.414 78.4695 158.414 77.4495ZM163.938 74.8035C164.502 73.5555 165.468 72.9315 166.836 72.9315C167.856 72.9315 168.648 73.2675 169.212 73.9395C169.788 74.6115 170.076 75.5295 170.076 76.6935V81.7515H168.672V76.6935C168.672 75.8655 168.474 75.2415 168.078 74.8215C167.694 74.4015 167.142 74.1915 166.422 74.1915C165.702 74.1915 165.12 74.4855 164.676 75.0735C164.232 75.6615 163.998 76.4775 163.974 77.5215V81.7515H162.552V73.1475H163.776L163.938 74.8035ZM176.386 80.7975C177.574 80.7975 178.252 80.2755 178.42 79.2315H179.878C179.746 80.0955 179.362 80.7675 178.726 81.2475C178.102 81.7155 177.322 81.9495 176.386 81.9495C175.234 81.9495 174.298 81.5415 173.578 80.7255C172.858 79.8975 172.498 78.7995 172.498 77.4315C172.498 76.0635 172.858 74.9715 173.578 74.1555C174.31 73.3395 175.276 72.9315 176.476 72.9315C177.688 72.9315 178.588 73.3995 179.176 74.3355C179.776 75.2715 179.986 76.4115 179.806 77.7555H173.92C173.92 78.6435 174.136 79.3755 174.568 79.9515C175 80.5155 175.606 80.7975 176.386 80.7975ZM177.43 74.2815C177.154 74.1375 176.818 74.0655 176.422 74.0655C175.69 74.0655 175.108 74.3175 174.676 74.8215C174.256 75.3135 174.01 75.9315 173.938 76.6755H178.528C178.528 75.4755 178.162 74.6775 177.43 74.2815ZM182.751 81.8415C182.475 81.8175 182.247 81.7275 182.067 81.5715C181.887 81.4155 181.797 81.2055 181.797 80.9415C181.797 80.6775 181.887 80.4555 182.067 80.2755C182.259 80.0955 182.523 80.0055 182.859 80.0055C183.207 80.0055 183.495 80.1435 183.723 80.4195C183.951 80.6835 184.065 81.0195 184.065 81.4275C184.065 81.8355 183.933 82.2495 183.669 82.6695C183.405 83.1015 183.003 83.4495 182.463 83.7135L181.401 83.1915C182.145 82.8315 182.595 82.3815 182.751 81.8415ZM52.5924 89.4935H54.0144V101.751H52.5924V89.4935ZM60.6074 100.797C61.7954 100.797 62.4734 100.275 62.6414 99.2315H64.0994C63.9674 100.095 63.5834 100.767 62.9474 101.247C62.3234 101.715 61.5434 101.949 60.6074 101.949C59.4554 101.949 58.5194 101.541 57.7994 100.725C57.0794 99.8975 56.7194 98.7995 56.7194 97.4315C56.7194 96.0635 57.0794 94.9715 57.7994 94.1555C58.5314 93.3395 59.4974 92.9315 60.6974 92.9315C61.9094 92.9315 62.8094 93.3995 63.3974 94.3355C63.9974 95.2715 64.2074 96.4115 64.0274 97.7555H58.1414C58.1414 98.6435 58.3574 99.3755 58.7894 99.9515C59.2214 100.515 59.8274 100.797 60.6074 100.797ZM61.6514 94.2815C61.3754 94.1375 61.0394 94.0655 60.6434 94.0655C59.9114 94.0655 59.3294 94.3175 58.8974 94.8215C58.4774 95.3135 58.2314 95.9315 58.1594 96.6755H62.7494C62.7494 95.4755 62.3834 94.6775 61.6514 94.2815ZM72.229 96.1715C72.229 95.3915 72.067 94.8335 71.743 94.4975C71.419 94.1615 70.945 93.9935 70.321 93.9935C69.709 93.9935 69.211 94.1195 68.827 94.3715C68.455 94.6115 68.269 94.9955 68.269 95.5235H66.703C66.703 94.2035 67.411 93.3875 68.827 93.0755C69.259 92.9795 69.727 92.9315 70.231 92.9315C71.299 92.9315 72.133 93.2015 72.733 93.7415C73.333 94.2815 73.633 95.1035 73.633 96.2075V101.751H72.409L72.265 100.311C71.737 101.403 70.783 101.949 69.403 101.949C68.479 101.949 67.735 101.691 67.171 101.175C66.619 100.659 66.343 100.017 66.343 99.2495C66.343 98.4815 66.649 97.8815 67.261 97.4495C67.885 97.0175 68.659 96.8015 69.583 96.8015C70.507 96.8015 71.389 96.9575 72.229 97.2695V96.1715ZM72.229 98.1695C71.377 97.9295 70.633 97.8095 69.997 97.8095C69.361 97.8095 68.845 97.9235 68.449 98.1515C68.053 98.3795 67.855 98.7395 67.855 99.2315C67.855 100.311 68.467 100.851 69.691 100.851C70.387 100.851 70.981 100.605 71.473 100.113C71.977 99.6095 72.229 98.9615 72.229 98.1695ZM80.4833 94.3535C79.1273 94.3535 78.4253 95.4215 78.3773 97.5575V101.751H76.9553V93.1295H78.3773V94.7855C78.8093 93.5855 79.5713 92.9855 80.6633 92.9855C81.0113 92.9855 81.3413 93.0395 81.6533 93.1475L81.5813 94.5335C81.2213 94.4135 80.8553 94.3535 80.4833 94.3535ZM85.1968 94.8035C85.7608 93.5555 86.7268 92.9315 88.0948 92.9315C89.1148 92.9315 89.9068 93.2675 90.4708 93.9395C91.0468 94.6115 91.3348 95.5295 91.3348 96.6935V101.751H89.9308V96.6935C89.9308 95.8655 89.7328 95.2415 89.3368 94.8215C88.9528 94.4015 88.4008 94.1915 87.6808 94.1915C86.9608 94.1915 86.3788 94.4855 85.9348 95.0735C85.4908 95.6615 85.2568 96.4775 85.2328 97.5215V101.751H83.8108V93.1475H85.0348L85.1968 94.8035ZM94.7645 93.1295H96.1865V101.751H94.7645V93.1295ZM95.4665 91.1135C95.1785 91.1135 94.9505 91.0355 94.7825 90.8795C94.6265 90.7115 94.5485 90.4955 94.5485 90.2315C94.5485 89.9555 94.6265 89.7395 94.7825 89.5835C94.9505 89.4155 95.1785 89.3315 95.4665 89.3315C95.7545 89.3315 95.9825 89.4155 96.1505 89.5835C96.3305 89.7395 96.4205 89.9555 96.4205 90.2315C96.4205 90.4955 96.3305 90.7115 96.1505 90.8795C95.9825 91.0355 95.7545 91.1135 95.4665 91.1135ZM101.421 94.8035C101.985 93.5555 102.951 92.9315 104.319 92.9315C105.339 92.9315 106.131 93.2675 106.695 93.9395C107.271 94.6115 107.559 95.5295 107.559 96.6935V101.751H106.155V96.6935C106.155 95.8655 105.957 95.2415 105.561 94.8215C105.177 94.4015 104.625 94.1915 103.905 94.1915C103.185 94.1915 102.603 94.4855 102.159 95.0735C101.715 95.6615 101.481 96.4775 101.457 97.5215V101.751H100.035V93.1475H101.259L101.421 94.8035ZM111.259 101.481C110.539 101.133 110.179 100.599 110.179 99.8795C110.179 99.5075 110.317 99.1835 110.593 98.9075C110.881 98.6195 111.235 98.4275 111.655 98.3315C111.007 97.7555 110.683 96.9995 110.683 96.0635C110.683 95.1275 111.013 94.3715 111.673 93.7955C112.345 93.2195 113.137 92.9315 114.049 92.9315C114.961 92.9315 115.735 93.1475 116.371 93.5795C116.455 92.9435 116.707 92.4335 117.127 92.0495C117.559 91.6655 118.123 91.4735 118.819 91.4735L118.693 92.8775C117.637 92.8775 117.085 93.3215 117.037 94.2095C117.457 94.7255 117.667 95.3435 117.667 96.0635C117.667 96.9875 117.331 97.7495 116.659 98.3495C115.999 98.9375 115.171 99.2315 114.175 99.2315C113.491 99.2315 112.885 99.0935 112.357 98.8175C112.117 98.8655 111.901 98.9795 111.709 99.1595C111.517 99.3275 111.421 99.5615 111.421 99.8615C111.421 100.497 111.949 100.815 113.005 100.815H116.353C117.157 100.815 117.793 100.989 118.261 101.337C118.729 101.673 118.963 102.147 118.963 102.759C118.963 103.671 118.501 104.469 117.577 105.153C116.665 105.837 115.507 106.179 114.103 106.179C112.699 106.179 111.595 105.915 110.791 105.387C109.987 104.871 109.585 104.217 109.585 103.425C109.585 102.909 109.735 102.489 110.035 102.165C110.347 101.841 110.755 101.613 111.259 101.481ZM110.989 103.371C110.989 103.827 111.235 104.217 111.727 104.541C112.231 104.877 112.987 105.045 113.995 105.045C115.015 105.045 115.861 104.823 116.533 104.379C117.217 103.947 117.559 103.437 117.559 102.849C117.559 102.573 117.457 102.333 117.253 102.129C117.061 101.937 116.761 101.841 116.353 101.841H112.879C112.267 101.865 111.799 102.009 111.475 102.273C111.151 102.549 110.989 102.915 110.989 103.371ZM116.281 96.0635C116.281 95.4395 116.095 94.9355 115.723 94.5515C115.351 94.1555 114.835 93.9575 114.175 93.9575C113.527 93.9575 113.017 94.1555 112.645 94.5515C112.273 94.9355 112.087 95.4395 112.087 96.0635C112.087 96.6875 112.273 97.2035 112.645 97.6115C113.029 98.0075 113.545 98.2055 114.193 98.2055C114.841 98.2055 115.351 98.0015 115.723 97.5935C116.095 97.1855 116.281 96.6755 116.281 96.0635ZM130.694 96.1715C130.694 95.3915 130.532 94.8335 130.208 94.4975C129.884 94.1615 129.41 93.9935 128.786 93.9935C128.174 93.9935 127.676 94.1195 127.292 94.3715C126.92 94.6115 126.734 94.9955 126.734 95.5235H125.168C125.168 94.2035 125.876 93.3875 127.292 93.0755C127.724 92.9795 128.192 92.9315 128.696 92.9315C129.764 92.9315 130.598 93.2015 131.198 93.7415C131.798 94.2815 132.098 95.1035 132.098 96.2075V101.751H130.874L130.73 100.311C130.202 101.403 129.248 101.949 127.868 101.949C126.944 101.949 126.2 101.691 125.636 101.175C125.084 100.659 124.808 100.017 124.808 99.2495C124.808 98.4815 125.114 97.8815 125.726 97.4495C126.35 97.0175 127.124 96.8015 128.048 96.8015C128.972 96.8015 129.854 96.9575 130.694 97.2695V96.1715ZM130.694 98.1695C129.842 97.9295 129.098 97.8095 128.462 97.8095C127.826 97.8095 127.31 97.9235 126.914 98.1515C126.518 98.3795 126.32 98.7395 126.32 99.2315C126.32 100.311 126.932 100.851 128.156 100.851C128.852 100.851 129.446 100.605 129.938 100.113C130.442 99.6095 130.694 98.9615 130.694 98.1695ZM136.86 94.4255C137.436 93.4295 138.276 92.9315 139.38 92.9315C140.484 92.9315 141.402 93.3455 142.134 94.1735C142.866 94.9895 143.232 96.0755 143.232 97.4315C143.232 98.7755 142.86 99.8675 142.116 100.707C141.372 101.535 140.466 101.949 139.398 101.949C138.822 101.949 138.3 101.805 137.832 101.517C137.376 101.229 137.016 100.803 136.752 100.239L136.428 101.751H135.438V89.4935H136.86V94.4255ZM139.29 94.1915C138.606 94.1915 138.036 94.4135 137.58 94.8575C137.124 95.2895 136.884 95.8955 136.86 96.6755V98.0795C136.86 98.8715 137.094 99.5075 137.562 99.9875C138.042 100.455 138.618 100.689 139.29 100.689C139.962 100.689 140.544 100.395 141.036 99.8075C141.528 99.2075 141.774 98.4155 141.774 97.4315C141.774 96.4475 141.528 95.6615 141.036 95.0735C140.556 94.4855 139.974 94.1915 139.29 94.1915ZM149.046 92.9315C150.246 92.9315 151.212 93.3215 151.944 94.1015C152.688 94.8815 153.06 95.9975 153.06 97.4495C153.06 98.8895 152.688 99.9995 151.944 100.779C151.212 101.559 150.246 101.949 149.046 101.949C147.846 101.949 146.874 101.559 146.13 100.779C145.398 99.9995 145.032 98.8895 145.032 97.4495C145.032 95.9975 145.398 94.8815 146.13 94.1015C146.874 93.3215 147.846 92.9315 149.046 92.9315ZM151.62 97.4495C151.62 96.4175 151.404 95.6135 150.972 95.0375C150.54 94.4495 149.904 94.1555 149.064 94.1555C148.236 94.1555 147.6 94.4495 147.156 95.0375C146.712 95.6135 146.49 96.4175 146.49 97.4495C146.49 98.4695 146.7 99.2735 147.12 99.8615C147.54 100.437 148.164 100.725 148.992 100.725C149.832 100.725 150.48 100.437 150.936 99.8615C151.392 99.2735 151.62 98.4695 151.62 97.4495ZM161.626 100.041C161.038 101.289 160.084 101.913 158.764 101.913C157.792 101.913 157.006 101.643 156.406 101.103C155.818 100.563 155.524 99.7295 155.524 98.6015V93.1295H156.946V98.4935C156.946 99.9455 157.618 100.671 158.962 100.671C159.742 100.671 160.372 100.371 160.852 99.7715C161.344 99.1715 161.602 98.4035 161.626 97.4675V93.1295H163.048V101.751H161.626V100.041ZM171.192 101.499C170.16 101.979 169.218 102.081 168.366 101.805C167.754 101.613 167.322 101.211 167.07 100.599C166.938 100.299 166.872 99.9395 166.872 99.5195V94.2275H165.486V93.1475H166.872V90.7535H168.276V93.1475H170.976V94.2275H168.276V99.5015C168.276 100.377 168.684 100.815 169.5 100.815C169.944 100.815 170.442 100.707 170.994 100.491L171.192 101.499ZM48.9243 114.803C49.4883 113.555 50.4543 112.931 51.8223 112.931C52.5663 112.931 53.1903 113.117 53.6943 113.489C54.1983 113.849 54.5643 114.353 54.7923 115.001C55.3323 113.621 56.3343 112.931 57.7983 112.931C58.8303 112.931 59.6283 113.267 60.1923 113.939C60.7563 114.611 61.0383 115.529 61.0383 116.693V121.751H59.6343V116.693C59.6343 115.865 59.4363 115.241 59.0403 114.821C58.6563 114.401 58.0983 114.191 57.3663 114.191C56.6343 114.191 56.0643 114.491 55.6563 115.091C55.2603 115.691 55.0623 116.519 55.0623 117.575V121.751H53.6583V116.693C53.6583 115.865 53.4603 115.241 53.0643 114.821C52.6803 114.401 52.1283 114.191 51.4083 114.191C50.6883 114.191 50.1063 114.485 49.6623 115.073C49.2183 115.661 48.9843 116.477 48.9603 117.521V121.751H47.5383V113.147H48.7623L48.9243 114.803ZM62.6506 124.253C63.2386 124.709 63.8566 124.937 64.5046 124.937C64.9846 124.937 65.3986 124.697 65.7466 124.217C65.9986 123.869 66.2266 123.341 66.4306 122.633L66.6826 121.751L63.1546 113.147H64.7386L67.3486 120.005L69.3826 113.147H70.8226L67.6006 123.461C67.3246 124.337 66.9586 125.009 66.5026 125.477C66.0586 125.945 65.4886 126.179 64.7926 126.179C64.1086 126.179 63.3946 125.969 62.6506 125.549V124.253ZM72.6473 115.253C72.6473 114.545 72.9473 113.981 73.5473 113.561C74.1593 113.141 74.9813 112.931 76.0133 112.931C77.0453 112.931 77.8493 113.147 78.4253 113.579C79.0133 114.011 79.3193 114.557 79.3433 115.217H77.9573C77.8493 114.437 77.1893 114.047 75.9773 114.047C75.3893 114.047 74.9333 114.179 74.6093 114.443C74.2973 114.707 74.1413 114.995 74.1413 115.307C74.1413 115.607 74.2613 115.865 74.5013 116.081C74.7413 116.285 75.1253 116.465 75.6533 116.621L77.3813 117.197C78.1133 117.425 78.6713 117.719 79.0553 118.079C79.4513 118.427 79.6493 118.913 79.6493 119.537C79.6493 120.149 79.3313 120.707 78.6953 121.211C78.0593 121.703 77.1713 121.949 76.0313 121.949C74.8913 121.949 74.0033 121.697 73.3673 121.193C72.7313 120.677 72.3953 120.017 72.3593 119.213H73.7273C73.7513 119.753 73.9673 120.161 74.3753 120.437C74.7953 120.701 75.3173 120.833 75.9413 120.833C76.5653 120.833 77.0813 120.701 77.4893 120.437C77.8973 120.173 78.1013 119.861 78.1013 119.501C78.1013 119.129 77.9813 118.847 77.7413 118.655C77.5013 118.463 77.1113 118.295 76.5713 118.151L74.8973 117.593C73.3973 117.149 72.6473 116.369 72.6473 115.253ZM85.5419 120.797C86.7299 120.797 87.4079 120.275 87.5759 119.231H89.0339C88.9019 120.095 88.5179 120.767 87.8819 121.247C87.2579 121.715 86.4779 121.949 85.5419 121.949C84.3899 121.949 83.4539 121.541 82.7339 120.725C82.0139 119.897 81.6539 118.799 81.6539 117.431C81.6539 116.063 82.0139 114.971 82.7339 114.155C83.4659 113.339 84.4319 112.931 85.6319 112.931C86.8439 112.931 87.7439 113.399 88.3319 114.335C88.9319 115.271 89.1419 116.411 88.9619 117.755H83.0759C83.0759 118.643 83.2919 119.375 83.7239 119.951C84.1559 120.515 84.7619 120.797 85.5419 120.797ZM86.5859 114.281C86.3099 114.137 85.9739 114.065 85.5779 114.065C84.8459 114.065 84.2639 114.317 83.8319 114.821C83.4119 115.313 83.1659 115.931 83.0939 116.675H87.6839C87.6839 115.475 87.3179 114.677 86.5859 114.281ZM91.8356 109.493H93.2576V121.751H91.8356V109.493ZM101.057 110.699C100.661 110.543 100.349 110.465 100.121 110.465C99.7005 110.465 99.3705 110.567 99.1305 110.771C98.8905 110.975 98.7705 111.335 98.7705 111.851V113.147H100.553V114.119H98.7705V121.751H97.3665V114.119H95.9445V113.147H97.3665V111.833C97.3665 110.981 97.6005 110.357 98.0685 109.961C98.5365 109.553 99.0765 109.349 99.6885 109.349C100.301 109.349 100.841 109.427 101.309 109.583L101.057 110.699ZM107.43 113.129H108.852V121.751H107.43V113.129ZM108.132 111.113C107.844 111.113 107.616 111.035 107.448 110.879C107.292 110.711 107.214 110.495 107.214 110.231C107.214 109.955 107.292 109.739 107.448 109.583C107.616 109.415 107.844 109.331 108.132 109.331C108.42 109.331 108.648 109.415 108.816 109.583C108.996 109.739 109.086 109.955 109.086 110.231C109.086 110.495 108.996 110.711 108.816 110.879C108.648 111.035 108.42 111.113 108.132 111.113ZM114.086 114.803C114.65 113.555 115.616 112.931 116.984 112.931C118.004 112.931 118.796 113.267 119.36 113.939C119.936 114.611 120.224 115.529 120.224 116.693V121.751H118.82V116.693C118.82 115.865 118.622 115.241 118.226 114.821C117.842 114.401 117.29 114.191 116.57 114.191C115.85 114.191 115.268 114.485 114.824 115.073C114.38 115.661 114.146 116.477 114.122 117.521V121.751H112.7V113.147H113.924L114.086 114.803ZM127.835 113.147L129.923 120.005L131.975 113.561H133.163L135.197 120.077L137.303 113.147H138.707L135.899 121.751H134.513L132.533 115.721L130.589 121.751H129.221L126.359 113.147H127.835ZM146.224 116.171C146.224 115.391 146.062 114.833 145.738 114.497C145.414 114.161 144.94 113.993 144.316 113.993C143.704 113.993 143.206 114.119 142.822 114.371C142.45 114.611 142.264 114.995 142.264 115.523H140.698C140.698 114.203 141.406 113.387 142.822 113.075C143.254 112.979 143.722 112.931 144.226 112.931C145.294 112.931 146.128 113.201 146.728 113.741C147.328 114.281 147.628 115.103 147.628 116.207V121.751H146.404L146.26 120.311C145.732 121.403 144.778 121.949 143.398 121.949C142.474 121.949 141.73 121.691 141.166 121.175C140.614 120.659 140.338 120.017 140.338 119.249C140.338 118.481 140.644 117.881 141.256 117.449C141.88 117.017 142.654 116.801 143.578 116.801C144.502 116.801 145.384 116.957 146.224 117.269V116.171ZM146.224 118.169C145.372 117.929 144.628 117.809 143.992 117.809C143.356 117.809 142.84 117.923 142.444 118.151C142.048 118.379 141.85 118.739 141.85 119.231C141.85 120.311 142.462 120.851 143.686 120.851C144.382 120.851 144.976 120.605 145.468 120.113C145.972 119.609 146.224 118.961 146.224 118.169ZM149.24 124.253C149.828 124.709 150.446 124.937 151.094 124.937C151.574 124.937 151.988 124.697 152.336 124.217C152.588 123.869 152.816 123.341 153.02 122.633L153.272 121.751L149.744 113.147H151.328L153.938 120.005L155.972 113.147H157.412L154.19 123.461C153.914 124.337 153.548 125.009 153.092 125.477C152.648 125.945 152.078 126.179 151.382 126.179C150.698 126.179 149.984 125.969 149.24 125.549V124.253ZM159.237 115.253C159.237 114.545 159.537 113.981 160.137 113.561C160.749 113.141 161.571 112.931 162.603 112.931C163.635 112.931 164.439 113.147 165.015 113.579C165.603 114.011 165.909 114.557 165.933 115.217H164.547C164.439 114.437 163.779 114.047 162.567 114.047C161.979 114.047 161.523 114.179 161.199 114.443C160.887 114.707 160.731 114.995 160.731 115.307C160.731 115.607 160.851 115.865 161.091 116.081C161.331 116.285 161.715 116.465 162.243 116.621L163.971 117.197C164.703 117.425 165.261 117.719 165.645 118.079C166.041 118.427 166.239 118.913 166.239 119.537C166.239 120.149 165.921 120.707 165.285 121.211C164.649 121.703 163.761 121.949 162.621 121.949C161.481 121.949 160.593 121.697 159.957 121.193C159.321 120.677 158.985 120.017 158.949 119.213H160.317C160.341 119.753 160.557 120.161 160.965 120.437C161.385 120.701 161.907 120.833 162.531 120.833C163.155 120.833 163.671 120.701 164.079 120.437C164.487 120.173 164.691 119.861 164.691 119.501C164.691 119.129 164.571 118.847 164.331 118.655C164.091 118.463 163.701 118.295 163.161 118.151L161.487 117.593C159.987 117.149 159.237 116.369 159.237 115.253ZM173.451 110.429H174.873V121.751H173.451V110.429ZM41.6239 134.425V129.493H43.0279V141.751H41.8759L41.6959 140.311C41.4199 140.851 41.0539 141.259 40.5979 141.535C40.1419 141.811 39.6439 141.949 39.1039 141.949C38.0119 141.949 37.0939 141.529 36.3499 140.689C35.6179 139.849 35.2519 138.757 35.2519 137.413C35.2519 136.057 35.6119 134.971 36.3319 134.155C37.0639 133.339 37.9819 132.931 39.0859 132.931C40.2019 132.931 41.0479 133.429 41.6239 134.425ZM39.1759 134.191C38.4799 134.191 37.8919 134.485 37.4119 135.073C36.9439 135.661 36.7099 136.447 36.7099 137.431C36.7099 138.415 36.9499 139.207 37.4299 139.807C37.9099 140.395 38.4859 140.689 39.1579 140.689C39.8299 140.689 40.3999 140.467 40.8679 140.023C41.3479 139.567 41.5999 138.961 41.6239 138.205V136.801C41.6239 135.997 41.3899 135.361 40.9219 134.893C40.4539 134.425 39.8719 134.191 39.1759 134.191ZM49.7734 132.931C50.9734 132.931 51.9394 133.321 52.6714 134.101C53.4154 134.881 53.7874 135.997 53.7874 137.449C53.7874 138.889 53.4154 139.999 52.6714 140.779C51.9394 141.559 50.9734 141.949 49.7734 141.949C48.5734 141.949 47.6014 141.559 46.8574 140.779C46.1254 139.999 45.7594 138.889 45.7594 137.449C45.7594 135.997 46.1254 134.881 46.8574 134.101C47.6014 133.321 48.5734 132.931 49.7734 132.931ZM52.3474 137.449C52.3474 136.417 52.1314 135.613 51.6994 135.037C51.2674 134.449 50.6314 134.155 49.7914 134.155C48.9634 134.155 48.3274 134.449 47.8834 135.037C47.4394 135.613 47.2174 136.417 47.2174 137.449C47.2174 138.469 47.4274 139.273 47.8474 139.861C48.2674 140.437 48.8914 140.725 49.7194 140.725C50.5594 140.725 51.2074 140.437 51.6634 139.861C52.1194 139.273 52.3474 138.469 52.3474 137.449ZM57.8716 134.803C58.4356 133.555 59.4016 132.931 60.7696 132.931C61.7896 132.931 62.5816 133.267 63.1456 133.939C63.7216 134.611 64.0096 135.529 64.0096 136.693V141.751H62.6056V136.693C62.6056 135.865 62.4076 135.241 62.0116 134.821C61.6276 134.401 61.0756 134.191 60.3556 134.191C59.6356 134.191 59.0536 134.485 58.6096 135.073C58.1656 135.661 57.9316 136.477 57.9076 137.521V141.751H56.4856V133.147H57.7096L57.8716 134.803ZM66.1793 131.419C66.1793 131.155 66.2753 130.933 66.4673 130.753C66.6593 130.573 66.9233 130.483 67.2593 130.483C67.6073 130.483 67.8893 130.615 68.1053 130.879C68.3333 131.143 68.4473 131.485 68.4473 131.905C68.4473 132.325 68.3033 132.751 68.0153 133.183C67.7393 133.603 67.3373 133.951 66.8093 134.227L65.8013 133.687C66.5453 133.303 66.9953 132.847 67.1513 132.319C66.8753 132.295 66.6413 132.205 66.4493 132.049C66.2693 131.893 66.1793 131.683 66.1793 131.419ZM75.6989 141.499C74.6669 141.979 73.7249 142.081 72.8729 141.805C72.2609 141.613 71.8289 141.211 71.5769 140.599C71.4449 140.299 71.3789 139.939 71.3789 139.519V134.227H69.9929V133.147H71.3789V130.753H72.7829V133.147H75.4829V134.227H72.7829V139.501C72.7829 140.377 73.1909 140.815 74.0069 140.815C74.4509 140.815 74.9489 140.707 75.5009 140.491L75.6989 141.499ZM87.5835 136.171C87.5835 135.391 87.4215 134.833 87.0975 134.497C86.7735 134.161 86.2995 133.993 85.6755 133.993C85.0635 133.993 84.5655 134.119 84.1815 134.371C83.8095 134.611 83.6235 134.995 83.6235 135.523H82.0575C82.0575 134.203 82.7655 133.387 84.1815 133.075C84.6135 132.979 85.0815 132.931 85.5855 132.931C86.6535 132.931 87.4875 133.201 88.0875 133.741C88.6875 134.281 88.9875 135.103 88.9875 136.207V141.751H87.7635L87.6195 140.311C87.0915 141.403 86.1375 141.949 84.7575 141.949C83.8335 141.949 83.0895 141.691 82.5255 141.175C81.9735 140.659 81.6975 140.017 81.6975 139.249C81.6975 138.481 82.0035 137.881 82.6155 137.449C83.2395 137.017 84.0135 136.801 84.9375 136.801C85.8615 136.801 86.7435 136.957 87.5835 137.269V136.171ZM87.5835 138.169C86.7315 137.929 85.9875 137.809 85.3515 137.809C84.7155 137.809 84.1995 137.923 83.8035 138.151C83.4075 138.379 83.2095 138.739 83.2095 139.231C83.2095 140.311 83.8215 140.851 85.0455 140.851C85.7415 140.851 86.3355 140.605 86.8275 140.113C87.3315 139.609 87.5835 138.961 87.5835 138.169ZM92.3278 129.493H93.7498V141.751H92.3278V129.493ZM97.3547 133.147L99.4427 140.005L101.495 133.561H102.683L104.717 140.077L106.823 133.147H108.227L105.419 141.751H104.033L102.053 135.721L100.109 141.751H98.7407L95.8787 133.147H97.3547ZM115.744 136.171C115.744 135.391 115.582 134.833 115.258 134.497C114.934 134.161 114.46 133.993 113.836 133.993C113.224 133.993 112.726 134.119 112.342 134.371C111.97 134.611 111.784 134.995 111.784 135.523H110.218C110.218 134.203 110.926 133.387 112.342 133.075C112.774 132.979 113.242 132.931 113.746 132.931C114.814 132.931 115.648 133.201 116.248 133.741C116.848 134.281 117.148 135.103 117.148 136.207V141.751H115.924L115.78 140.311C115.252 141.403 114.298 141.949 112.918 141.949C111.994 141.949 111.25 141.691 110.686 141.175C110.134 140.659 109.858 140.017 109.858 139.249C109.858 138.481 110.164 137.881 110.776 137.449C111.4 137.017 112.174 136.801 113.098 136.801C114.022 136.801 114.904 136.957 115.744 137.269V136.171ZM115.744 138.169C114.892 137.929 114.148 137.809 113.512 137.809C112.876 137.809 112.36 137.923 111.964 138.151C111.568 138.379 111.37 138.739 111.37 139.231C111.37 140.311 111.982 140.851 113.206 140.851C113.902 140.851 114.496 140.605 114.988 140.113C115.492 139.609 115.744 138.961 115.744 138.169ZM118.76 144.253C119.348 144.709 119.966 144.937 120.614 144.937C121.094 144.937 121.508 144.697 121.856 144.217C122.108 143.869 122.336 143.341 122.54 142.633L122.792 141.751L119.264 133.147H120.848L123.458 140.005L125.492 133.147H126.932L123.71 143.461C123.434 144.337 123.068 145.009 122.612 145.477C122.168 145.945 121.598 146.179 120.902 146.179C120.218 146.179 119.504 145.969 118.76 145.549V144.253ZM128.757 135.253C128.757 134.545 129.057 133.981 129.657 133.561C130.269 133.141 131.091 132.931 132.123 132.931C133.155 132.931 133.959 133.147 134.535 133.579C135.123 134.011 135.429 134.557 135.453 135.217H134.067C133.959 134.437 133.299 134.047 132.087 134.047C131.499 134.047 131.043 134.179 130.719 134.443C130.407 134.707 130.251 134.995 130.251 135.307C130.251 135.607 130.371 135.865 130.611 136.081C130.851 136.285 131.235 136.465 131.763 136.621L133.491 137.197C134.223 137.425 134.781 137.719 135.165 138.079C135.561 138.427 135.759 138.913 135.759 139.537C135.759 140.149 135.441 140.707 134.805 141.211C134.169 141.703 133.281 141.949 132.141 141.949C131.001 141.949 130.113 141.697 129.477 141.193C128.841 140.677 128.505 140.017 128.469 139.213H129.837C129.861 139.753 130.077 140.161 130.485 140.437C130.905 140.701 131.427 140.833 132.051 140.833C132.675 140.833 133.191 140.701 133.599 140.437C134.007 140.173 134.211 139.861 134.211 139.501C134.211 139.129 134.091 138.847 133.851 138.655C133.611 138.463 133.221 138.295 132.681 138.151L131.007 137.593C129.507 137.149 128.757 136.369 128.757 135.253ZM143.33 141.481C142.61 141.133 142.25 140.599 142.25 139.879C142.25 139.507 142.388 139.183 142.664 138.907C142.952 138.619 143.306 138.427 143.726 138.331C143.078 137.755 142.754 136.999 142.754 136.063C142.754 135.127 143.084 134.371 143.744 133.795C144.416 133.219 145.208 132.931 146.12 132.931C147.032 132.931 147.806 133.147 148.442 133.579C148.526 132.943 148.778 132.433 149.198 132.049C149.63 131.665 150.194 131.473 150.89 131.473L150.764 132.877C149.708 132.877 149.156 133.321 149.108 134.209C149.528 134.725 149.738 135.343 149.738 136.063C149.738 136.987 149.402 137.749 148.73 138.349C148.07 138.937 147.242 139.231 146.246 139.231C145.562 139.231 144.956 139.093 144.428 138.817C144.188 138.865 143.972 138.979 143.78 139.159C143.588 139.327 143.492 139.561 143.492 139.861C143.492 140.497 144.02 140.815 145.076 140.815H148.424C149.228 140.815 149.864 140.989 150.332 141.337C150.8 141.673 151.034 142.147 151.034 142.759C151.034 143.671 150.572 144.469 149.648 145.153C148.736 145.837 147.578 146.179 146.174 146.179C144.77 146.179 143.666 145.915 142.862 145.387C142.058 144.871 141.656 144.217 141.656 143.425C141.656 142.909 141.806 142.489 142.106 142.165C142.418 141.841 142.826 141.613 143.33 141.481ZM143.06 143.371C143.06 143.827 143.306 144.217 143.798 144.541C144.302 144.877 145.058 145.045 146.066 145.045C147.086 145.045 147.932 144.823 148.604 144.379C149.288 143.947 149.63 143.437 149.63 142.849C149.63 142.573 149.528 142.333 149.324 142.129C149.132 141.937 148.832 141.841 148.424 141.841H144.95C144.338 141.865 143.87 142.009 143.546 142.273C143.222 142.549 143.06 142.915 143.06 143.371ZM148.352 136.063C148.352 135.439 148.166 134.935 147.794 134.551C147.422 134.155 146.906 133.957 146.246 133.957C145.598 133.957 145.088 134.155 144.716 134.551C144.344 134.935 144.158 135.439 144.158 136.063C144.158 136.687 144.344 137.203 144.716 137.611C145.1 138.007 145.616 138.205 146.264 138.205C146.912 138.205 147.422 138.001 147.794 137.593C148.166 137.185 148.352 136.675 148.352 136.063ZM156.118 140.797C157.306 140.797 157.984 140.275 158.152 139.231H159.61C159.478 140.095 159.094 140.767 158.458 141.247C157.834 141.715 157.054 141.949 156.118 141.949C154.966 141.949 154.03 141.541 153.31 140.725C152.59 139.897 152.23 138.799 152.23 137.431C152.23 136.063 152.59 134.971 153.31 134.155C154.042 133.339 155.008 132.931 156.208 132.931C157.42 132.931 158.32 133.399 158.908 134.335C159.508 135.271 159.718 136.411 159.538 137.755H153.652C153.652 138.643 153.868 139.375 154.3 139.951C154.732 140.515 155.338 140.797 156.118 140.797ZM157.162 134.281C156.886 134.137 156.55 134.065 156.154 134.065C155.422 134.065 154.84 134.317 154.408 134.821C153.988 135.313 153.742 135.931 153.67 136.675H158.26C158.26 135.475 157.894 134.677 157.162 134.281ZM166.912 141.499C165.88 141.979 164.938 142.081 164.086 141.805C163.474 141.613 163.042 141.211 162.79 140.599C162.658 140.299 162.592 139.939 162.592 139.519V134.227H161.206V133.147H162.592V130.753H163.996V133.147H166.696V134.227H163.996V139.501C163.996 140.377 164.404 140.815 165.22 140.815C165.664 140.815 166.162 140.707 166.714 140.491L166.912 141.499ZM177.968 141.499C176.936 141.979 175.994 142.081 175.142 141.805C174.53 141.613 174.098 141.211 173.846 140.599C173.714 140.299 173.648 139.939 173.648 139.519V134.227H172.262V133.147H173.648V130.753H175.052V133.147H177.752V134.227H175.052V139.501C175.052 140.377 175.46 140.815 176.276 140.815C176.72 140.815 177.218 140.707 177.77 140.491L177.968 141.499ZM183.332 132.931C184.532 132.931 185.498 133.321 186.23 134.101C186.974 134.881 187.346 135.997 187.346 137.449C187.346 138.889 186.974 139.999 186.23 140.779C185.498 141.559 184.532 141.949 183.332 141.949C182.132 141.949 181.16 141.559 180.416 140.779C179.684 139.999 179.318 138.889 179.318 137.449C179.318 135.997 179.684 134.881 180.416 134.101C181.16 133.321 182.132 132.931 183.332 132.931ZM185.906 137.449C185.906 136.417 185.69 135.613 185.258 135.037C184.826 134.449 184.19 134.155 183.35 134.155C182.522 134.155 181.886 134.449 181.442 135.037C180.998 135.613 180.776 136.417 180.776 137.449C180.776 138.469 180.986 139.273 181.406 139.861C181.826 140.437 182.45 140.725 183.278 140.725C184.118 140.725 184.766 140.437 185.222 139.861C185.678 139.273 185.906 138.469 185.906 137.449ZM95.3407 155.253C95.3407 154.545 95.6407 153.981 96.2407 153.561C96.8527 153.141 97.6747 152.931 98.7067 152.931C99.7387 152.931 100.543 153.147 101.119 153.579C101.707 154.011 102.013 154.557 102.037 155.217H100.651C100.543 154.437 99.8827 154.047 98.6707 154.047C98.0827 154.047 97.6267 154.179 97.3027 154.443C96.9907 154.707 96.8347 154.995 96.8347 155.307C96.8347 155.607 96.9547 155.865 97.1947 156.081C97.4347 156.285 97.8187 156.465 98.3467 156.621L100.075 157.197C100.807 157.425 101.365 157.719 101.749 158.079C102.145 158.427 102.343 158.913 102.343 159.537C102.343 160.149 102.025 160.707 101.389 161.211C100.753 161.703 99.8647 161.949 98.7247 161.949C97.5847 161.949 96.6967 161.697 96.0607 161.193C95.4247 160.677 95.0887 160.017 95.0527 159.213H96.4207C96.4447 159.753 96.6607 160.161 97.0687 160.437C97.4887 160.701 98.0107 160.833 98.6347 160.833C99.2587 160.833 99.7747 160.701 100.183 160.437C100.591 160.173 100.795 159.861 100.795 159.501C100.795 159.129 100.675 158.847 100.435 158.655C100.195 158.463 99.8047 158.295 99.2647 158.151L97.5907 157.593C96.0907 157.149 95.3407 156.369 95.3407 155.253ZM108.235 160.797C109.423 160.797 110.101 160.275 110.269 159.231H111.727C111.595 160.095 111.211 160.767 110.575 161.247C109.951 161.715 109.171 161.949 108.235 161.949C107.083 161.949 106.147 161.541 105.427 160.725C104.707 159.897 104.347 158.799 104.347 157.431C104.347 156.063 104.707 154.971 105.427 154.155C106.159 153.339 107.125 152.931 108.325 152.931C109.537 152.931 110.437 153.399 111.025 154.335C111.625 155.271 111.835 156.411 111.655 157.755H105.769C105.769 158.643 105.985 159.375 106.417 159.951C106.849 160.515 107.455 160.797 108.235 160.797ZM109.279 154.281C109.003 154.137 108.667 154.065 108.271 154.065C107.539 154.065 106.957 154.317 106.525 154.821C106.105 155.313 105.859 155.931 105.787 156.675H110.377C110.377 155.475 110.011 154.677 109.279 154.281ZM117.499 160.797C118.687 160.797 119.365 160.275 119.533 159.231H120.991C120.859 160.095 120.475 160.767 119.839 161.247C119.215 161.715 118.435 161.949 117.499 161.949C116.347 161.949 115.411 161.541 114.691 160.725C113.971 159.897 113.611 158.799 113.611 157.431C113.611 156.063 113.971 154.971 114.691 154.155C115.423 153.339 116.389 152.931 117.589 152.931C118.801 152.931 119.701 153.399 120.289 154.335C120.889 155.271 121.099 156.411 120.919 157.755H115.033C115.033 158.643 115.249 159.375 115.681 159.951C116.113 160.515 116.719 160.797 117.499 160.797ZM118.543 154.281C118.267 154.137 117.931 154.065 117.535 154.065C116.803 154.065 116.221 154.317 115.789 154.821C115.369 155.313 115.123 155.931 115.051 156.675H119.641C119.641 155.475 119.275 154.677 118.543 154.281ZM128.221 149.097C128.065 149.733 127.837 150.435 127.537 151.203C127.249 151.971 126.961 152.673 126.673 153.309H125.485C125.605 152.853 125.719 152.367 125.827 151.851C125.947 151.323 126.055 150.807 126.151 150.303C126.259 149.787 126.343 149.319 126.403 148.899H128.095L128.221 149.097ZM124.891 149.097C124.735 149.733 124.507 150.435 124.207 151.203C123.919 151.971 123.631 152.673 123.343 153.309H122.191C122.311 152.853 122.425 152.367 122.533 151.851C122.641 151.323 122.743 150.807 122.839 150.303C122.935 149.787 123.013 149.319 123.073 148.899H124.765L124.891 149.097ZM77.2455 195.901H82.1415V197.125H77.2455V195.901ZM82.9449 190.429H91.7469V191.653H88.0569V201.751H86.6349V191.653H82.9449V190.429ZM97.4361 196.171C97.4361 195.391 97.2741 194.833 96.9501 194.497C96.6261 194.161 96.1521 193.993 95.5281 193.993C94.9161 193.993 94.4181 194.119 94.0341 194.371C93.6621 194.611 93.4761 194.995 93.4761 195.523H91.9101C91.9101 194.203 92.6181 193.387 94.0341 193.075C94.4661 192.979 94.9341 192.931 95.4381 192.931C96.5061 192.931 97.3401 193.201 97.9401 193.741C98.5401 194.281 98.8401 195.103 98.8401 196.207V201.751H97.6161L97.4721 200.311C96.9441 201.403 95.9901 201.949 94.6101 201.949C93.6861 201.949 92.9421 201.691 92.3781 201.175C91.8261 200.659 91.5501 200.017 91.5501 199.249C91.5501 198.481 91.8561 197.881 92.4681 197.449C93.0921 197.017 93.8661 196.801 94.7901 196.801C95.7141 196.801 96.5961 196.957 97.4361 197.269V196.171ZM97.4361 198.169C96.5841 197.929 95.8401 197.809 95.2041 197.809C94.5681 197.809 94.0521 197.923 93.6561 198.151C93.2601 198.379 93.0621 198.739 93.0621 199.231C93.0621 200.311 93.6741 200.851 94.8981 200.851C95.5941 200.851 96.1881 200.605 96.6801 200.113C97.1841 199.609 97.4361 198.961 97.4361 198.169ZM105.69 194.353C104.334 194.353 103.632 195.421 103.584 197.557V201.751H102.162V193.129H103.584V194.785C104.016 193.585 104.778 192.985 105.87 192.985C106.218 192.985 106.548 193.039 106.86 193.147L106.788 194.533C106.428 194.413 106.062 194.353 105.69 194.353ZM114.364 196.171C114.364 195.391 114.202 194.833 113.878 194.497C113.554 194.161 113.08 193.993 112.456 193.993C111.844 193.993 111.346 194.119 110.962 194.371C110.59 194.611 110.404 194.995 110.404 195.523H108.838C108.838 194.203 109.546 193.387 110.962 193.075C111.394 192.979 111.862 192.931 112.366 192.931C113.434 192.931 114.268 193.201 114.868 193.741C115.468 194.281 115.768 195.103 115.768 196.207V201.751H114.544L114.4 200.311C113.872 201.403 112.918 201.949 111.538 201.949C110.614 201.949 109.87 201.691 109.306 201.175C108.754 200.659 108.478 200.017 108.478 199.249C108.478 198.481 108.784 197.881 109.396 197.449C110.02 197.017 110.794 196.801 111.718 196.801C112.642 196.801 113.524 196.957 114.364 197.269V196.171ZM114.364 198.169C113.512 197.929 112.768 197.809 112.132 197.809C111.496 197.809 110.98 197.923 110.584 198.151C110.188 198.379 109.99 198.739 109.99 199.231C109.99 200.311 110.602 200.851 111.826 200.851C112.522 200.851 113.116 200.605 113.608 200.113C114.112 199.609 114.364 198.961 114.364 198.169ZM119.18 201.841C118.904 201.817 118.676 201.727 118.496 201.571C118.316 201.415 118.226 201.205 118.226 200.941C118.226 200.677 118.316 200.455 118.496 200.275C118.688 200.095 118.952 200.005 119.288 200.005C119.636 200.005 119.924 200.143 120.152 200.419C120.38 200.683 120.494 201.019 120.494 201.427C120.494 201.835 120.362 202.249 120.098 202.669C119.834 203.101 119.432 203.449 118.892 203.713L117.83 203.191C118.574 202.831 119.024 202.381 119.18 201.841ZM127.932 200.437H134.502V201.751H126.51V200.077C126.51 198.745 127.014 197.767 128.022 197.143C128.346 196.939 128.706 196.759 129.102 196.603L131.334 195.703C132.486 195.247 133.062 194.497 133.062 193.453C133.062 192.877 132.864 192.409 132.468 192.049C132.072 191.677 131.514 191.491 130.794 191.491C130.086 191.491 129.504 191.641 129.048 191.941C128.604 192.241 128.346 192.691 128.274 193.291H126.708C126.768 192.307 127.164 191.551 127.896 191.023C128.628 190.495 129.564 190.231 130.704 190.231C131.856 190.231 132.792 190.543 133.512 191.167C134.232 191.791 134.592 192.565 134.592 193.489C134.592 194.401 134.352 195.127 133.872 195.667C133.404 196.207 132.756 196.639 131.928 196.963L129.642 197.881C129.066 198.121 128.634 198.397 128.346 198.709C128.07 199.009 127.932 199.405 127.932 199.897V200.437ZM143.504 190.267V197.791H145.466V199.015H143.504V201.751H142.118V199.015H136.268V197.917L142.19 190.267H143.504ZM137.96 197.917H142.154V192.517L137.96 197.917Z" fill="white"/>
<defs>
<linearGradient id="paint0_linear" x1="111.208" y1="0.558838" x2="111.208" y2="221.091" gradientUnits="userSpaceOnUse">
<stop stop-color="#93708C"/>
<stop offset="1" stop-color="#8EA7A4"/>
</linearGradient>
</defs>
</svg>
