<svg width="222" height="221" viewBox="0 0 222 221" fill="none" xmlns="http://www.w3.org/2000/svg">
<circle cx="110.975" cy="110.599" r="110.266" fill="url(#paint0_linear)"/>
<path d="M64.1523 57.7471C63.9843 58.4431 63.8163 59.1991 63.6483 60.0151C63.4803 60.8191 63.3483 61.5331 63.2523 62.1571H61.5423L61.4163 61.9591C61.5843 61.3231 61.8123 60.6271 62.1003 59.8711C62.3883 59.1031 62.6823 58.3951 62.9823 57.7471H64.1523ZM60.8223 57.7471C60.6543 58.4431 60.4863 59.1991 60.3183 60.0151C60.1503 60.8191 60.0183 61.5331 59.9223 62.1571H58.2303L58.1223 61.9591C58.2903 61.3231 58.5123 60.6271 58.7883 59.8711C59.0763 59.1031 59.3703 58.3951 59.6703 57.7471H60.8223ZM68.731 59.2771H70.459L74.257 70.5991H72.781L71.809 67.7191H67.309L66.337 70.5991H64.843L68.731 59.2771ZM67.687 66.6031H71.449L69.577 61.0231L67.687 66.6031ZM82.2576 63.2731C82.8336 62.2771 83.6736 61.7791 84.7776 61.7791C85.8816 61.7791 86.7996 62.1931 87.5316 63.0211C88.2636 63.8371 88.6296 64.9231 88.6296 66.2791C88.6296 67.6231 88.2576 68.7151 87.5136 69.5551C86.7696 70.3831 85.8636 70.7971 84.7956 70.7971C84.2196 70.7971 83.6976 70.6531 83.2296 70.3651C82.7736 70.0771 82.4136 69.6511 82.1496 69.0871L81.8256 70.5991H80.8356V58.3411H82.2576V63.2731ZM84.6876 63.0391C84.0036 63.0391 83.4336 63.2611 82.9776 63.7051C82.5216 64.1371 82.2816 64.7431 82.2576 65.5231V66.9271C82.2576 67.7191 82.4916 68.3551 82.9596 68.8351C83.4396 69.3031 84.0156 69.5371 84.6876 69.5371C85.3596 69.5371 85.9416 69.2431 86.4336 68.6551C86.9256 68.0551 87.1716 67.2631 87.1716 66.2791C87.1716 65.2951 86.9256 64.5091 86.4336 63.9211C85.9536 63.3331 85.3716 63.0391 84.6876 63.0391ZM91.4373 61.9771H92.8593V70.5991H91.4373V61.9771ZM92.1393 59.9611C91.8513 59.9611 91.6233 59.8831 91.4553 59.7271C91.2993 59.5591 91.2213 59.3431 91.2213 59.0791C91.2213 58.8031 91.2993 58.5871 91.4553 58.4311C91.6233 58.2631 91.8513 58.1791 92.1393 58.1791C92.4273 58.1791 92.6553 58.2631 92.8233 58.4311C93.0033 58.5871 93.0933 58.8031 93.0933 59.0791C93.0933 59.3431 93.0033 59.5591 92.8233 59.7271C92.6553 59.8831 92.4273 59.9611 92.1393 59.9611ZM97.0862 70.3291C96.3662 69.9811 96.0062 69.4471 96.0062 68.7271C96.0062 68.3551 96.1442 68.0311 96.4202 67.7551C96.7082 67.4671 97.0622 67.2751 97.4822 67.1791C96.8342 66.6031 96.5102 65.8471 96.5102 64.9111C96.5102 63.9751 96.8402 63.2191 97.5002 62.6431C98.1722 62.0671 98.9642 61.7791 99.8762 61.7791C100.788 61.7791 101.562 61.9951 102.198 62.4271C102.282 61.7911 102.534 61.2811 102.954 60.8971C103.386 60.5131 103.95 60.3211 104.646 60.3211L104.52 61.7251C103.464 61.7251 102.912 62.1691 102.864 63.0571C103.284 63.5731 103.494 64.1911 103.494 64.9111C103.494 65.8351 103.158 66.5971 102.486 67.1971C101.826 67.7851 100.998 68.0791 100.002 68.0791C99.3182 68.0791 98.7122 67.9411 98.1842 67.6651C97.9442 67.7131 97.7282 67.8271 97.5362 68.0071C97.3442 68.1751 97.2482 68.4091 97.2482 68.7091C97.2482 69.3451 97.7762 69.6631 98.8322 69.6631H102.18C102.984 69.6631 103.62 69.8371 104.088 70.1851C104.556 70.5211 104.79 70.9951 104.79 71.6071C104.79 72.5191 104.328 73.3171 103.404 74.0011C102.492 74.6851 101.334 75.0271 99.9302 75.0271C98.5262 75.0271 97.4222 74.7631 96.6182 74.2351C95.8142 73.7191 95.4122 73.0651 95.4122 72.2731C95.4122 71.7571 95.5622 71.3371 95.8622 71.0131C96.1742 70.6891 96.5822 70.4611 97.0862 70.3291ZM96.8162 72.2191C96.8162 72.6751 97.0622 73.0651 97.5542 73.3891C98.0582 73.7251 98.8142 73.8931 99.8222 73.8931C100.842 73.8931 101.688 73.6711 102.36 73.2271C103.044 72.7951 103.386 72.2851 103.386 71.6971C103.386 71.4211 103.284 71.1811 103.08 70.9771C102.888 70.7851 102.588 70.6891 102.18 70.6891H98.7062C98.0942 70.7131 97.6262 70.8571 97.3022 71.1211C96.9782 71.3971 96.8162 71.7631 96.8162 72.2191ZM102.108 64.9111C102.108 64.2871 101.922 63.7831 101.55 63.3991C101.178 63.0031 100.662 62.8051 100.002 62.8051C99.3542 62.8051 98.8442 63.0031 98.4722 63.3991C98.1002 63.7831 97.9142 64.2871 97.9142 64.9111C97.9142 65.5351 98.1002 66.0511 98.4722 66.4591C98.8562 66.8551 99.3722 67.0531 100.02 67.0531C100.668 67.0531 101.178 66.8491 101.55 66.4411C101.922 66.0331 102.108 65.5231 102.108 64.9111ZM112.525 63.3091C113.089 62.2891 113.929 61.7791 115.045 61.7791C116.173 61.7791 117.109 62.1931 117.853 63.0211C118.609 63.8491 118.987 64.9411 118.987 66.2971C118.987 67.6531 118.609 68.7451 117.853 69.5731C117.097 70.3891 116.167 70.7971 115.063 70.7971C113.959 70.7971 113.143 70.3831 112.615 69.5551V74.8291H111.193V61.9951H112.363L112.525 63.3091ZM114.991 69.5371C115.663 69.5371 116.251 69.2491 116.755 68.6731C117.271 68.0971 117.529 67.3111 117.529 66.3151C117.529 65.3071 117.283 64.5091 116.791 63.9211C116.311 63.3331 115.723 63.0391 115.027 63.0391C114.331 63.0391 113.761 63.2611 113.317 63.7051C112.873 64.1371 112.639 64.7251 112.615 65.4691V67.1071C112.615 67.8631 112.843 68.4571 113.299 68.8891C113.755 69.3211 114.319 69.5371 114.991 69.5371ZM127.209 65.0191C127.209 64.2391 127.047 63.6811 126.723 63.3451C126.399 63.0091 125.925 62.8411 125.301 62.8411C124.689 62.8411 124.191 62.9671 123.807 63.2191C123.435 63.4591 123.249 63.8431 123.249 64.3711H121.683C121.683 63.0511 122.391 62.2351 123.807 61.9231C124.239 61.8271 124.707 61.7791 125.211 61.7791C126.279 61.7791 127.113 62.0491 127.713 62.5891C128.313 63.1291 128.613 63.9511 128.613 65.0551V70.5991H127.389L127.245 69.1591C126.717 70.2511 125.763 70.7971 124.383 70.7971C123.459 70.7971 122.715 70.5391 122.151 70.0231C121.599 69.5071 121.323 68.8651 121.323 68.0971C121.323 67.3291 121.629 66.7291 122.241 66.2971C122.865 65.8651 123.639 65.6491 124.563 65.6491C125.487 65.6491 126.369 65.8051 127.209 66.1171V65.0191ZM127.209 67.0171C126.357 66.7771 125.613 66.6571 124.977 66.6571C124.341 66.6571 123.825 66.7711 123.429 66.9991C123.033 67.2271 122.835 67.5871 122.835 68.0791C122.835 69.1591 123.447 69.6991 124.671 69.6991C125.367 69.6991 125.961 69.4531 126.453 68.9611C126.957 68.4571 127.209 67.8091 127.209 67.0171ZM135.463 63.2011C134.107 63.2011 133.405 64.2691 133.357 66.4051V70.5991H131.935V61.9771H133.357V63.6331C133.789 62.4331 134.551 61.8331 135.643 61.8331C135.991 61.8331 136.321 61.8871 136.633 61.9951L136.561 63.3811C136.201 63.2611 135.835 63.2011 135.463 63.2011ZM143.308 70.3471C142.276 70.8271 141.334 70.9291 140.482 70.6531C139.87 70.4611 139.438 70.0591 139.186 69.4471C139.054 69.1471 138.988 68.7871 138.988 68.3671V63.0751H137.602V61.9951H138.988V59.6011H140.392V61.9951H143.092V63.0751H140.392V68.3491C140.392 69.2251 140.8 69.6631 141.616 69.6631C142.06 69.6631 142.558 69.5551 143.11 69.3391L143.308 70.3471ZM152.961 61.7791C154.161 61.7791 155.127 62.1691 155.859 62.9491C156.603 63.7291 156.975 64.8451 156.975 66.2971C156.975 67.7371 156.603 68.8471 155.859 69.6271C155.127 70.4071 154.161 70.7971 152.961 70.7971C151.761 70.7971 150.789 70.4071 150.045 69.6271C149.313 68.8471 148.947 67.7371 148.947 66.2971C148.947 64.8451 149.313 63.7291 150.045 62.9491C150.789 62.1691 151.761 61.7791 152.961 61.7791ZM155.535 66.2971C155.535 65.2651 155.319 64.4611 154.887 63.8851C154.455 63.2971 153.819 63.0031 152.979 63.0031C152.151 63.0031 151.515 63.2971 151.071 63.8851C150.627 64.4611 150.405 65.2651 150.405 66.2971C150.405 67.3171 150.615 68.1211 151.035 68.7091C151.455 69.2851 152.079 69.5731 152.907 69.5731C153.747 69.5731 154.395 69.2851 154.851 68.7091C155.307 68.1211 155.535 67.3171 155.535 66.2971ZM163.867 59.5471C163.471 59.3911 163.159 59.3131 162.931 59.3131C162.511 59.3131 162.181 59.4151 161.941 59.6191C161.701 59.8231 161.581 60.1831 161.581 60.6991V61.9951H163.363V62.9671H161.581V70.5991H160.177V62.9671H158.755V61.9951H160.177V60.6811C160.177 59.8291 160.411 59.2051 160.879 58.8091C161.347 58.4011 161.887 58.1971 162.499 58.1971C163.111 58.1971 163.651 58.2751 164.119 58.4311L163.867 59.5471ZM42.234 90.3471C41.202 90.8271 40.26 90.9291 39.408 90.6531C38.796 90.4611 38.364 90.0591 38.112 89.4471C37.98 89.1471 37.914 88.7871 37.914 88.3671V83.0751H36.528V81.9951H37.914V79.6011H39.318V81.9951H42.018V83.0751H39.318V88.3491C39.318 89.2251 39.726 89.6631 40.542 89.6631C40.986 89.6631 41.484 89.5551 42.036 89.3391L42.234 90.3471ZM48.0116 83.2011C46.6556 83.2011 45.9536 84.2691 45.9056 86.4051V90.5991H44.4836V81.9771H45.9056V83.6331C46.3376 82.4331 47.0996 81.8331 48.1916 81.8331C48.5396 81.8331 48.8696 81.8871 49.1816 81.9951L49.1096 83.3811C48.7496 83.2611 48.3836 83.2011 48.0116 83.2011ZM56.6851 85.0191C56.6851 84.2391 56.5231 83.6811 56.1991 83.3451C55.8751 83.0091 55.4011 82.8411 54.7771 82.8411C54.1651 82.8411 53.6671 82.9671 53.2831 83.2191C52.9111 83.4591 52.7251 83.8431 52.7251 84.3711H51.1591C51.1591 83.0511 51.8671 82.2351 53.2831 81.9231C53.7151 81.8271 54.1831 81.7791 54.6871 81.7791C55.7551 81.7791 56.5891 82.0491 57.1891 82.5891C57.7891 83.1291 58.0891 83.9511 58.0891 85.0551V90.5991H56.8651L56.7211 89.1591C56.1931 90.2511 55.2391 90.7971 53.8591 90.7971C52.9351 90.7971 52.1911 90.5391 51.6271 90.0231C51.0751 89.5071 50.7991 88.8651 50.7991 88.0971C50.7991 87.3291 51.1051 86.7291 51.7171 86.2971C52.3411 85.8651 53.1151 85.6491 54.0391 85.6491C54.9631 85.6491 55.8451 85.8051 56.6851 86.1171V85.0191ZM56.6851 87.0171C55.8331 86.7771 55.0891 86.6571 54.4531 86.6571C53.8171 86.6571 53.3011 86.7711 52.9051 86.9991C52.5091 87.2271 52.3111 87.5871 52.3111 88.0791C52.3111 89.1591 52.9231 89.6991 54.1471 89.6991C54.8431 89.6991 55.4371 89.4531 55.9291 88.9611C56.4331 88.4571 56.6851 87.8091 56.6851 87.0171ZM61.5374 81.9951L64.1294 89.1051L66.7394 81.9951H68.3414L64.9214 90.5991H63.3554L59.9354 81.9951H61.5374ZM73.4521 89.6451C74.6401 89.6451 75.3181 89.1231 75.4861 88.0791H76.9441C76.8121 88.9431 76.4281 89.6151 75.7921 90.0951C75.1681 90.5631 74.3881 90.7971 73.4521 90.7971C72.3001 90.7971 71.3641 90.3891 70.6441 89.5731C69.9241 88.7451 69.5641 87.6471 69.5641 86.2791C69.5641 84.9111 69.9241 83.8191 70.6441 83.0031C71.3761 82.1871 72.3421 81.7791 73.5421 81.7791C74.7541 81.7791 75.6541 82.2471 76.2421 83.1831C76.8421 84.1191 77.0521 85.2591 76.8721 86.6031H70.9861C70.9861 87.4911 71.2021 88.2231 71.6341 88.7991C72.0661 89.3631 72.6721 89.6451 73.4521 89.6451ZM74.4961 83.1291C74.2201 82.9851 73.8841 82.9131 73.4881 82.9131C72.7561 82.9131 72.1741 83.1651 71.7421 83.6691C71.3221 84.1611 71.0761 84.7791 71.0041 85.5231H75.5941C75.5941 84.3231 75.2281 83.5251 74.4961 83.1291ZM79.7458 78.3411H81.1678V90.5991H79.7458V78.3411ZM84.8807 81.9771H86.3027V90.5991H84.8807V81.9771ZM85.5827 79.9611C85.2947 79.9611 85.0667 79.8831 84.8987 79.7271C84.7427 79.5591 84.6647 79.3431 84.6647 79.0791C84.6647 78.8031 84.7427 78.5871 84.8987 78.4311C85.0667 78.2631 85.2947 78.1791 85.5827 78.1791C85.8707 78.1791 86.0987 78.2631 86.2667 78.4311C86.4467 78.5871 86.5367 78.8031 86.5367 79.0791C86.5367 79.3431 86.4467 79.5591 86.2667 79.7271C86.0987 79.8831 85.8707 79.9611 85.5827 79.9611ZM91.5376 83.6511C92.1016 82.4031 93.0676 81.7791 94.4356 81.7791C95.4556 81.7791 96.2476 82.1151 96.8116 82.7871C97.3876 83.4591 97.6756 84.3771 97.6756 85.5411V90.5991H96.2716V85.5411C96.2716 84.7131 96.0736 84.0891 95.6776 83.6691C95.2936 83.2491 94.7416 83.0391 94.0216 83.0391C93.3016 83.0391 92.7196 83.3331 92.2756 83.9211C91.8316 84.5091 91.5976 85.3251 91.5736 86.3691V90.5991H90.1516V81.9951H91.3756L91.5376 83.6511ZM101.375 90.3291C100.655 89.9811 100.295 89.4471 100.295 88.7271C100.295 88.3551 100.433 88.0311 100.709 87.7551C100.997 87.4671 101.351 87.2751 101.771 87.1791C101.123 86.6031 100.799 85.8471 100.799 84.9111C100.799 83.9751 101.129 83.2191 101.789 82.6431C102.461 82.0671 103.253 81.7791 104.165 81.7791C105.077 81.7791 105.851 81.9951 106.487 82.4271C106.571 81.7911 106.823 81.2811 107.243 80.8971C107.675 80.5131 108.239 80.3211 108.935 80.3211L108.809 81.7251C107.753 81.7251 107.201 82.1691 107.153 83.0571C107.573 83.5731 107.783 84.1911 107.783 84.9111C107.783 85.8351 107.447 86.5971 106.775 87.1971C106.115 87.7851 105.287 88.0791 104.291 88.0791C103.607 88.0791 103.001 87.9411 102.473 87.6651C102.233 87.7131 102.017 87.8271 101.825 88.0071C101.633 88.1751 101.537 88.4091 101.537 88.7091C101.537 89.3451 102.065 89.6631 103.121 89.6631H106.469C107.273 89.6631 107.909 89.8371 108.377 90.1851C108.845 90.5211 109.079 90.9951 109.079 91.6071C109.079 92.5191 108.617 93.3171 107.693 94.0011C106.781 94.6851 105.623 95.0271 104.219 95.0271C102.815 95.0271 101.711 94.7631 100.907 94.2351C100.103 93.7191 99.7013 93.0651 99.7013 92.2731C99.7013 91.7571 99.8513 91.3371 100.151 91.0131C100.463 90.6891 100.871 90.4611 101.375 90.3291ZM101.105 92.2191C101.105 92.6751 101.351 93.0651 101.843 93.3891C102.347 93.7251 103.103 93.8931 104.111 93.8931C105.131 93.8931 105.977 93.6711 106.649 93.2271C107.333 92.7951 107.675 92.2851 107.675 91.6971C107.675 91.4211 107.573 91.1811 107.369 90.9771C107.177 90.7851 106.877 90.6891 106.469 90.6891H102.995C102.383 90.7131 101.915 90.8571 101.591 91.1211C101.267 91.3971 101.105 91.7631 101.105 92.2191ZM106.397 84.9111C106.397 84.2871 106.211 83.7831 105.839 83.3991C105.467 83.0031 104.951 82.8051 104.291 82.8051C103.643 82.8051 103.133 83.0031 102.761 83.3991C102.389 83.7831 102.203 84.2871 102.203 84.9111C102.203 85.5351 102.389 86.0511 102.761 86.4591C103.145 86.8551 103.661 87.0531 104.309 87.0531C104.957 87.0531 105.467 86.8491 105.839 86.4411C106.211 86.0331 106.397 85.5231 106.397 84.9111ZM119.658 79.5471C119.262 79.3911 118.95 79.3131 118.722 79.3131C118.302 79.3131 117.972 79.4151 117.732 79.6191C117.492 79.8231 117.372 80.1831 117.372 80.6991V81.9951H119.154V82.9671H117.372V90.5991H115.968V82.9671H114.546V81.9951H115.968V80.6811C115.968 79.8291 116.202 79.2051 116.67 78.8091C117.138 78.4011 117.678 78.1971 118.29 78.1971C118.902 78.1971 119.442 78.2751 119.91 78.4311L119.658 79.5471ZM124.748 81.7791C125.948 81.7791 126.914 82.1691 127.646 82.9491C128.39 83.7291 128.762 84.8451 128.762 86.2971C128.762 87.7371 128.39 88.8471 127.646 89.6271C126.914 90.4071 125.948 90.7971 124.748 90.7971C123.548 90.7971 122.576 90.4071 121.832 89.6271C121.1 88.8471 120.734 87.7371 120.734 86.2971C120.734 84.8451 121.1 83.7291 121.832 82.9491C122.576 82.1691 123.548 81.7791 124.748 81.7791ZM127.322 86.2971C127.322 85.2651 127.106 84.4611 126.674 83.8851C126.242 83.2971 125.606 83.0031 124.766 83.0031C123.938 83.0031 123.302 83.2971 122.858 83.8851C122.414 84.4611 122.192 85.2651 122.192 86.2971C122.192 87.3171 122.402 88.1211 122.822 88.7091C123.242 89.2851 123.866 89.5731 124.694 89.5731C125.534 89.5731 126.182 89.2851 126.638 88.7091C127.094 88.1211 127.322 87.3171 127.322 86.2971ZM134.988 83.2011C133.632 83.2011 132.93 84.2691 132.882 86.4051V90.5991H131.46V81.9771H132.882V83.6331C133.314 82.4331 134.076 81.8331 135.168 81.8331C135.516 81.8331 135.846 81.8871 136.158 81.9951L136.086 83.3811C135.726 83.2611 135.36 83.2011 134.988 83.2011ZM143.991 83.6511C144.555 82.4031 145.521 81.7791 146.889 81.7791C147.633 81.7791 148.257 81.9651 148.761 82.3371C149.265 82.6971 149.631 83.2011 149.859 83.8491C150.399 82.4691 151.401 81.7791 152.865 81.7791C153.897 81.7791 154.695 82.1151 155.259 82.7871C155.823 83.4591 156.105 84.3771 156.105 85.5411V90.5991H154.701V85.5411C154.701 84.7131 154.503 84.0891 154.107 83.6691C153.723 83.2491 153.165 83.0391 152.433 83.0391C151.701 83.0391 151.131 83.3391 150.723 83.9391C150.327 84.5391 150.129 85.3671 150.129 86.4231V90.5991H148.725V85.5411C148.725 84.7131 148.527 84.0891 148.131 83.6691C147.747 83.2491 147.195 83.0391 146.475 83.0391C145.755 83.0391 145.173 83.3331 144.729 83.9211C144.285 84.5091 144.051 85.3251 144.027 86.3691V90.5991H142.605V81.9951H143.829L143.991 83.6511ZM162.415 89.6451C163.603 89.6451 164.281 89.1231 164.449 88.0791H165.907C165.775 88.9431 165.391 89.6151 164.755 90.0951C164.131 90.5631 163.351 90.7971 162.415 90.7971C161.263 90.7971 160.327 90.3891 159.607 89.5731C158.887 88.7451 158.527 87.6471 158.527 86.2791C158.527 84.9111 158.887 83.8191 159.607 83.0031C160.339 82.1871 161.305 81.7791 162.505 81.7791C163.717 81.7791 164.617 82.2471 165.205 83.1831C165.805 84.1191 166.015 85.2591 165.835 86.6031H159.949C159.949 87.4911 160.165 88.2231 160.597 88.7991C161.029 89.3631 161.635 89.6451 162.415 89.6451ZM163.459 83.1291C163.183 82.9851 162.847 82.9131 162.451 82.9131C161.719 82.9131 161.137 83.1651 160.705 83.6691C160.285 84.1611 160.039 84.7791 159.967 85.5231H164.557C164.557 84.3231 164.191 83.5251 163.459 83.1291ZM173.088 81.9771H174.51V90.5991H173.088V81.9771ZM173.79 79.9611C173.502 79.9611 173.274 79.8831 173.106 79.7271C172.95 79.5591 172.872 79.3431 172.872 79.0791C172.872 78.8031 172.95 78.5871 173.106 78.4311C173.274 78.2631 173.502 78.1791 173.79 78.1791C174.078 78.1791 174.306 78.2631 174.474 78.4311C174.654 78.5871 174.744 78.8031 174.744 79.0791C174.744 79.3431 174.654 79.5591 174.474 79.7271C174.306 79.8831 174.078 79.9611 173.79 79.9611ZM177.927 84.1011C177.927 83.3931 178.227 82.8291 178.827 82.4091C179.439 81.9891 180.261 81.7791 181.293 81.7791C182.325 81.7791 183.129 81.9951 183.705 82.4271C184.293 82.8591 184.599 83.4051 184.623 84.0651H183.237C183.129 83.2851 182.469 82.8951 181.257 82.8951C180.669 82.8951 180.213 83.0271 179.889 83.2911C179.577 83.5551 179.421 83.8431 179.421 84.1551C179.421 84.4551 179.541 84.7131 179.781 84.9291C180.021 85.1331 180.405 85.3131 180.933 85.4691L182.661 86.0451C183.393 86.2731 183.951 86.5671 184.335 86.9271C184.731 87.2751 184.929 87.7611 184.929 88.3851C184.929 88.9971 184.611 89.5551 183.975 90.0591C183.339 90.5511 182.451 90.7971 181.311 90.7971C180.171 90.7971 179.283 90.5451 178.647 90.0411C178.011 89.5251 177.675 88.8651 177.639 88.0611H179.007C179.031 88.6011 179.247 89.0091 179.655 89.2851C180.075 89.5491 180.597 89.6811 181.221 89.6811C181.845 89.6811 182.361 89.5491 182.769 89.2851C183.177 89.0211 183.381 88.7091 183.381 88.3491C183.381 87.9771 183.261 87.6951 183.021 87.5031C182.781 87.3111 182.391 87.1431 181.851 86.9991L180.177 86.4411C178.677 85.9971 177.927 85.2171 177.927 84.1011ZM37.3441 101.779C38.3641 101.779 39.1741 102.043 39.7741 102.571C40.3741 103.087 40.7641 103.735 40.9441 104.515L39.5041 104.641C39.3481 104.137 39.0961 103.747 38.7481 103.471C38.4001 103.183 38.0161 103.039 37.5961 103.039C36.8281 103.039 36.2041 103.327 35.7241 103.903C35.2561 104.479 35.0221 105.265 35.0221 106.261C35.0221 107.245 35.2501 108.037 35.7061 108.637C36.1741 109.237 36.7501 109.537 37.4341 109.537C38.1301 109.537 38.6461 109.381 38.9821 109.069C39.3301 108.745 39.5041 108.289 39.5041 107.701H40.9621C40.9621 108.625 40.6381 109.375 39.9901 109.951C39.3541 110.515 38.5201 110.797 37.4881 110.797C36.3961 110.797 35.4661 110.383 34.6981 109.555C33.9421 108.727 33.5641 107.629 33.5641 106.261C33.5641 104.881 33.9421 103.789 34.6981 102.985C35.4541 102.181 36.3361 101.779 37.3441 101.779ZM47.2558 103.201C45.8998 103.201 45.1978 104.269 45.1498 106.405V110.599H43.7278V101.977H45.1498V103.633C45.5818 102.433 46.3438 101.833 47.4358 101.833C47.7838 101.833 48.1138 101.887 48.4258 101.995L48.3538 103.381C47.9938 103.261 47.6278 103.201 47.2558 103.201ZM53.5712 109.645C54.7592 109.645 55.4372 109.123 55.6052 108.079H57.0632C56.9312 108.943 56.5472 109.615 55.9112 110.095C55.2872 110.563 54.5072 110.797 53.5712 110.797C52.4192 110.797 51.4832 110.389 50.7632 109.573C50.0432 108.745 49.6832 107.647 49.6832 106.279C49.6832 104.911 50.0432 103.819 50.7632 103.003C51.4952 102.187 52.4612 101.779 53.6612 101.779C54.8732 101.779 55.7732 102.247 56.3612 103.183C56.9612 104.119 57.1712 105.259 56.9912 106.603H51.1052C51.1052 107.491 51.3212 108.223 51.7532 108.799C52.1852 109.363 52.7912 109.645 53.5712 109.645ZM54.6152 103.129C54.3392 102.985 54.0032 102.913 53.6072 102.913C52.8752 102.913 52.2932 103.165 51.8612 103.669C51.4412 104.161 51.1952 104.779 51.1232 105.523H55.7132C55.7132 104.323 55.3472 103.525 54.6152 103.129ZM65.1929 105.019C65.1929 104.239 65.0309 103.681 64.7069 103.345C64.3829 103.009 63.9089 102.841 63.2849 102.841C62.6729 102.841 62.1749 102.967 61.7909 103.219C61.4189 103.459 61.2329 103.843 61.2329 104.371H59.6669C59.6669 103.051 60.3749 102.235 61.7909 101.923C62.2229 101.827 62.6909 101.779 63.1949 101.779C64.2629 101.779 65.0969 102.049 65.6969 102.589C66.2969 103.129 66.5969 103.951 66.5969 105.055V110.599H65.3729L65.2289 109.159C64.7009 110.251 63.7469 110.797 62.3669 110.797C61.4429 110.797 60.6989 110.539 60.1349 110.023C59.5829 109.507 59.3069 108.865 59.3069 108.097C59.3069 107.329 59.6129 106.729 60.2249 106.297C60.8489 105.865 61.6229 105.649 62.5469 105.649C63.4709 105.649 64.3529 105.805 65.1929 106.117V105.019ZM65.1929 107.017C64.3409 106.777 63.5969 106.657 62.9609 106.657C62.3249 106.657 61.8089 106.771 61.4129 106.999C61.0169 107.227 60.8189 107.587 60.8189 108.079C60.8189 109.159 61.4309 109.699 62.6549 109.699C63.3509 109.699 63.9449 109.453 64.4369 108.961C64.9409 108.457 65.1929 107.809 65.1929 107.017ZM74.4372 110.347C73.4052 110.827 72.4632 110.929 71.6112 110.653C70.9992 110.461 70.5672 110.059 70.3152 109.447C70.1832 109.147 70.1172 108.787 70.1172 108.367V103.075H68.7312V101.995H70.1172V99.6011H71.5212V101.995H74.2212V103.075H71.5212V108.349C71.5212 109.225 71.9292 109.663 72.7452 109.663C73.1892 109.663 73.6872 109.555 74.2392 109.339L74.4372 110.347ZM76.7947 101.977H78.2167V110.599H76.7947V101.977ZM77.4967 99.9611C77.2087 99.9611 76.9807 99.8831 76.8127 99.7271C76.6567 99.5591 76.5787 99.3431 76.5787 99.0791C76.5787 98.8031 76.6567 98.5871 76.8127 98.4311C76.9807 98.2631 77.2087 98.1791 77.4967 98.1791C77.7847 98.1791 78.0127 98.2631 78.1807 98.4311C78.3607 98.5871 78.4507 98.8031 78.4507 99.0791C78.4507 99.3431 78.3607 99.5591 78.1807 99.7271C78.0127 99.8831 77.7847 99.9611 77.4967 99.9611ZM83.4516 103.651C84.0156 102.403 84.9816 101.779 86.3496 101.779C87.3696 101.779 88.1616 102.115 88.7256 102.787C89.3016 103.459 89.5896 104.377 89.5896 105.541V110.599H88.1856V105.541C88.1856 104.713 87.9876 104.089 87.5916 103.669C87.2076 103.249 86.6556 103.039 85.9356 103.039C85.2156 103.039 84.6336 103.333 84.1896 103.921C83.7456 104.509 83.5116 105.325 83.4876 106.369V110.599H82.0656V101.995H83.2896L83.4516 103.651ZM93.2894 110.329C92.5694 109.981 92.2094 109.447 92.2094 108.727C92.2094 108.355 92.3474 108.031 92.6234 107.755C92.9114 107.467 93.2654 107.275 93.6854 107.179C93.0374 106.603 92.7134 105.847 92.7134 104.911C92.7134 103.975 93.0434 103.219 93.7034 102.643C94.3754 102.067 95.1674 101.779 96.0794 101.779C96.9914 101.779 97.7654 101.995 98.4014 102.427C98.4854 101.791 98.7374 101.281 99.1574 100.897C99.5894 100.513 100.153 100.321 100.849 100.321L100.723 101.725C99.6674 101.725 99.1154 102.169 99.0674 103.057C99.4874 103.573 99.6974 104.191 99.6974 104.911C99.6974 105.835 99.3614 106.597 98.6894 107.197C98.0294 107.785 97.2014 108.079 96.2054 108.079C95.5214 108.079 94.9154 107.941 94.3874 107.665C94.1474 107.713 93.9314 107.827 93.7394 108.007C93.5474 108.175 93.4514 108.409 93.4514 108.709C93.4514 109.345 93.9794 109.663 95.0354 109.663H98.3834C99.1874 109.663 99.8234 109.837 100.291 110.185C100.759 110.521 100.993 110.995 100.993 111.607C100.993 112.519 100.531 113.317 99.6074 114.001C98.6954 114.685 97.5374 115.027 96.1334 115.027C94.7294 115.027 93.6254 114.763 92.8214 114.235C92.0174 113.719 91.6154 113.065 91.6154 112.273C91.6154 111.757 91.7654 111.337 92.0654 111.013C92.3774 110.689 92.7854 110.461 93.2894 110.329ZM93.0194 112.219C93.0194 112.675 93.2654 113.065 93.7574 113.389C94.2614 113.725 95.0174 113.893 96.0254 113.893C97.0454 113.893 97.8914 113.671 98.5634 113.227C99.2474 112.795 99.5894 112.285 99.5894 111.697C99.5894 111.421 99.4874 111.181 99.2834 110.977C99.0914 110.785 98.7914 110.689 98.3834 110.689H94.9094C94.2974 110.713 93.8294 110.857 93.5054 111.121C93.1814 111.397 93.0194 111.763 93.0194 112.219ZM98.3114 104.911C98.3114 104.287 98.1254 103.783 97.7534 103.399C97.3814 103.003 96.8654 102.805 96.2054 102.805C95.5574 102.805 95.0474 103.003 94.6754 103.399C94.3034 103.783 94.1174 104.287 94.1174 104.911C94.1174 105.535 94.3034 106.051 94.6754 106.459C95.0594 106.855 95.5754 107.053 96.2234 107.053C96.8714 107.053 97.3814 106.849 97.7534 106.441C98.1254 106.033 98.3114 105.523 98.3114 104.911ZM108.764 103.651C109.328 102.403 110.294 101.779 111.662 101.779C112.406 101.779 113.03 101.965 113.534 102.337C114.038 102.697 114.404 103.201 114.632 103.849C115.172 102.469 116.174 101.779 117.638 101.779C118.67 101.779 119.468 102.115 120.032 102.787C120.596 103.459 120.878 104.377 120.878 105.541V110.599H119.474V105.541C119.474 104.713 119.276 104.089 118.88 103.669C118.496 103.249 117.938 103.039 117.206 103.039C116.474 103.039 115.904 103.339 115.496 103.939C115.1 104.539 114.902 105.367 114.902 106.423V110.599H113.498V105.541C113.498 104.713 113.3 104.089 112.904 103.669C112.52 103.249 111.968 103.039 111.248 103.039C110.528 103.039 109.946 103.333 109.502 103.921C109.058 104.509 108.824 105.325 108.8 106.369V110.599H107.378V101.995H108.602L108.764 103.651ZM127.188 109.645C128.376 109.645 129.054 109.123 129.222 108.079H130.68C130.548 108.943 130.164 109.615 129.528 110.095C128.904 110.563 128.124 110.797 127.188 110.797C126.036 110.797 125.1 110.389 124.38 109.573C123.66 108.745 123.3 107.647 123.3 106.279C123.3 104.911 123.66 103.819 124.38 103.003C125.112 102.187 126.078 101.779 127.278 101.779C128.49 101.779 129.39 102.247 129.978 103.183C130.578 104.119 130.788 105.259 130.608 106.603H124.722C124.722 107.491 124.938 108.223 125.37 108.799C125.802 109.363 126.408 109.645 127.188 109.645ZM128.232 103.129C127.956 102.985 127.62 102.913 127.224 102.913C126.492 102.913 125.91 103.165 125.478 103.669C125.058 104.161 124.812 104.779 124.74 105.523H129.33C129.33 104.323 128.964 103.525 128.232 103.129ZM134.85 103.651C135.414 102.403 136.38 101.779 137.748 101.779C138.492 101.779 139.116 101.965 139.62 102.337C140.124 102.697 140.49 103.201 140.718 103.849C141.258 102.469 142.26 101.779 143.724 101.779C144.756 101.779 145.554 102.115 146.118 102.787C146.682 103.459 146.964 104.377 146.964 105.541V110.599H145.56V105.541C145.56 104.713 145.362 104.089 144.966 103.669C144.582 103.249 144.024 103.039 143.292 103.039C142.56 103.039 141.99 103.339 141.582 103.939C141.186 104.539 140.988 105.367 140.988 106.423V110.599H139.584V105.541C139.584 104.713 139.386 104.089 138.99 103.669C138.606 103.249 138.054 103.039 137.334 103.039C136.614 103.039 136.032 103.333 135.588 103.921C135.144 104.509 134.91 105.325 134.886 106.369V110.599H133.464V101.995H134.688L134.85 103.651ZM153.4 101.779C154.6 101.779 155.566 102.169 156.298 102.949C157.042 103.729 157.414 104.845 157.414 106.297C157.414 107.737 157.042 108.847 156.298 109.627C155.566 110.407 154.6 110.797 153.4 110.797C152.2 110.797 151.228 110.407 150.484 109.627C149.752 108.847 149.386 107.737 149.386 106.297C149.386 104.845 149.752 103.729 150.484 102.949C151.228 102.169 152.2 101.779 153.4 101.779ZM155.974 106.297C155.974 105.265 155.758 104.461 155.326 103.885C154.894 103.297 154.258 103.003 153.418 103.003C152.59 103.003 151.954 103.297 151.51 103.885C151.066 104.461 150.844 105.265 150.844 106.297C150.844 107.317 151.054 108.121 151.474 108.709C151.894 109.285 152.518 109.573 153.346 109.573C154.186 109.573 154.834 109.285 155.29 108.709C155.746 108.121 155.974 107.317 155.974 106.297ZM163.641 103.201C162.285 103.201 161.583 104.269 161.535 106.405V110.599H160.113V101.977H161.535V103.633C161.967 102.433 162.729 101.833 163.821 101.833C164.169 101.833 164.499 101.887 164.811 101.995L164.739 103.381C164.379 103.261 164.013 103.201 163.641 103.201ZM167.076 101.977H168.498V110.599H167.076V101.977ZM167.778 99.9611C167.49 99.9611 167.262 99.8831 167.094 99.7271C166.938 99.5591 166.86 99.3431 166.86 99.0791C166.86 98.8031 166.938 98.5871 167.094 98.4311C167.262 98.2631 167.49 98.1791 167.778 98.1791C168.066 98.1791 168.294 98.2631 168.462 98.4311C168.642 98.5871 168.732 98.8031 168.732 99.0791C168.732 99.3431 168.642 99.5591 168.462 99.7271C168.294 99.8831 168.066 99.9611 167.778 99.9611ZM175.335 109.645C176.523 109.645 177.201 109.123 177.369 108.079H178.827C178.695 108.943 178.311 109.615 177.675 110.095C177.051 110.563 176.271 110.797 175.335 110.797C174.183 110.797 173.247 110.389 172.527 109.573C171.807 108.745 171.447 107.647 171.447 106.279C171.447 104.911 171.807 103.819 172.527 103.003C173.259 102.187 174.225 101.779 175.425 101.779C176.637 101.779 177.537 102.247 178.125 103.183C178.725 104.119 178.935 105.259 178.755 106.603H172.869C172.869 107.491 173.085 108.223 173.517 108.799C173.949 109.363 174.555 109.645 175.335 109.645ZM176.379 103.129C176.103 102.985 175.767 102.913 175.371 102.913C174.639 102.913 174.057 103.165 173.625 103.669C173.205 104.161 172.959 104.779 172.887 105.523H177.477C177.477 104.323 177.111 103.525 176.379 103.129ZM181.179 104.101C181.179 103.393 181.479 102.829 182.079 102.409C182.691 101.989 183.513 101.779 184.545 101.779C185.577 101.779 186.381 101.995 186.957 102.427C187.545 102.859 187.851 103.405 187.875 104.065H186.489C186.381 103.285 185.721 102.895 184.509 102.895C183.921 102.895 183.465 103.027 183.141 103.291C182.829 103.555 182.673 103.843 182.673 104.155C182.673 104.455 182.793 104.713 183.033 104.929C183.273 105.133 183.657 105.313 184.185 105.469L185.913 106.045C186.645 106.273 187.203 106.567 187.587 106.927C187.983 107.275 188.181 107.761 188.181 108.385C188.181 108.997 187.863 109.555 187.227 110.059C186.591 110.551 185.703 110.797 184.563 110.797C183.423 110.797 182.535 110.545 181.899 110.041C181.263 109.525 180.927 108.865 180.891 108.061H182.259C182.283 108.601 182.499 109.009 182.907 109.285C183.327 109.549 183.849 109.681 184.473 109.681C185.097 109.681 185.613 109.549 186.021 109.285C186.429 109.021 186.633 108.709 186.633 108.349C186.633 107.977 186.513 107.695 186.273 107.503C186.033 107.311 185.643 107.143 185.103 106.999L183.429 106.441C181.929 105.997 181.179 105.217 181.179 104.101ZM60.6994 121.995L62.7874 128.853L64.8394 122.409H66.0274L68.0614 128.925L70.1674 121.995H71.5714L68.7634 130.599H67.3774L65.3974 124.569L63.4534 130.599H62.0854L59.2234 121.995H60.6994ZM73.8504 121.977H75.2724V130.599H73.8504V121.977ZM74.5524 119.961C74.2644 119.961 74.0364 119.883 73.8684 119.727C73.7124 119.559 73.6344 119.343 73.6344 119.079C73.6344 118.803 73.7124 118.587 73.8684 118.431C74.0364 118.263 74.2644 118.179 74.5524 118.179C74.8404 118.179 75.0684 118.263 75.2364 118.431C75.4164 118.587 75.5064 118.803 75.5064 119.079C75.5064 119.343 75.4164 119.559 75.2364 119.727C75.0684 119.883 74.8404 119.961 74.5524 119.961ZM83.6393 130.347C82.6073 130.827 81.6653 130.929 80.8133 130.653C80.2013 130.461 79.7693 130.059 79.5173 129.447C79.3853 129.147 79.3193 128.787 79.3193 128.367V123.075H77.9333V121.995H79.3193V119.601H80.7233V121.995H83.4233V123.075H80.7233V128.349C80.7233 129.225 81.1313 129.663 81.9473 129.663C82.3913 129.663 82.8893 129.555 83.4413 129.339L83.6393 130.347ZM87.3289 123.579C87.9049 122.379 88.8589 121.779 90.1909 121.779C91.2109 121.779 92.0029 122.115 92.5669 122.787C93.1429 123.459 93.4309 124.377 93.4309 125.541V130.599H92.0269V125.541C92.0269 124.713 91.8289 124.089 91.4329 123.669C91.0489 123.249 90.4909 123.039 89.7589 123.039C89.0269 123.039 88.4389 123.351 87.9949 123.975C87.5509 124.587 87.3289 125.439 87.3289 126.531V130.599H85.9069V118.341H87.3289V123.579ZM104.155 121.779C105.355 121.779 106.321 122.169 107.053 122.949C107.797 123.729 108.169 124.845 108.169 126.297C108.169 127.737 107.797 128.847 107.053 129.627C106.321 130.407 105.355 130.797 104.155 130.797C102.955 130.797 101.983 130.407 101.239 129.627C100.507 128.847 100.141 127.737 100.141 126.297C100.141 124.845 100.507 123.729 101.239 122.949C101.983 122.169 102.955 121.779 104.155 121.779ZM106.729 126.297C106.729 125.265 106.513 124.461 106.081 123.885C105.649 123.297 105.013 123.003 104.173 123.003C103.345 123.003 102.709 123.297 102.265 123.885C101.821 124.461 101.599 125.265 101.599 126.297C101.599 127.317 101.809 128.121 102.229 128.709C102.649 129.285 103.273 129.573 104.101 129.573C104.941 129.573 105.589 129.285 106.045 128.709C106.501 128.121 106.729 127.317 106.729 126.297ZM115.385 130.347C114.353 130.827 113.411 130.929 112.559 130.653C111.947 130.461 111.515 130.059 111.263 129.447C111.131 129.147 111.065 128.787 111.065 128.367V123.075H109.679V121.995H111.065V119.601H112.469V121.995H115.169V123.075H112.469V128.349C112.469 129.225 112.877 129.663 113.693 129.663C114.137 129.663 114.635 129.555 115.187 129.339L115.385 130.347ZM119.075 123.579C119.651 122.379 120.605 121.779 121.937 121.779C122.957 121.779 123.749 122.115 124.313 122.787C124.889 123.459 125.177 124.377 125.177 125.541V130.599H123.773V125.541C123.773 124.713 123.575 124.089 123.179 123.669C122.795 123.249 122.237 123.039 121.505 123.039C120.773 123.039 120.185 123.351 119.741 123.975C119.297 124.587 119.075 125.439 119.075 126.531V130.599H117.653V118.341H119.075V123.579ZM131.486 129.645C132.674 129.645 133.352 129.123 133.52 128.079H134.978C134.846 128.943 134.462 129.615 133.826 130.095C133.202 130.563 132.422 130.797 131.486 130.797C130.334 130.797 129.398 130.389 128.678 129.573C127.958 128.745 127.598 127.647 127.598 126.279C127.598 124.911 127.958 123.819 128.678 123.003C129.41 122.187 130.376 121.779 131.576 121.779C132.788 121.779 133.688 122.247 134.276 123.183C134.876 124.119 135.086 125.259 134.906 126.603H129.02C129.02 127.491 129.236 128.223 129.668 128.799C130.1 129.363 130.706 129.645 131.486 129.645ZM132.53 123.129C132.254 122.985 131.918 122.913 131.522 122.913C130.79 122.913 130.208 123.165 129.776 123.669C129.356 124.161 129.11 124.779 129.038 125.523H133.628C133.628 124.323 133.262 123.525 132.53 123.129ZM141.29 123.201C139.934 123.201 139.232 124.269 139.184 126.405V130.599H137.762V121.977H139.184V123.633C139.616 122.433 140.378 121.833 141.47 121.833C141.818 121.833 142.148 121.887 142.46 121.995L142.388 123.381C142.028 123.261 141.662 123.201 141.29 123.201ZM144.185 124.101C144.185 123.393 144.485 122.829 145.085 122.409C145.697 121.989 146.519 121.779 147.551 121.779C148.583 121.779 149.387 121.995 149.963 122.427C150.551 122.859 150.857 123.405 150.881 124.065H149.495C149.387 123.285 148.727 122.895 147.515 122.895C146.927 122.895 146.471 123.027 146.147 123.291C145.835 123.555 145.679 123.843 145.679 124.155C145.679 124.455 145.799 124.713 146.039 124.929C146.279 125.133 146.663 125.313 147.191 125.469L148.919 126.045C149.651 126.273 150.209 126.567 150.593 126.927C150.989 127.275 151.187 127.761 151.187 128.385C151.187 128.997 150.869 129.555 150.233 130.059C149.597 130.551 148.709 130.797 147.569 130.797C146.429 130.797 145.541 130.545 144.905 130.041C144.269 129.525 143.933 128.865 143.897 128.061H145.265C145.289 128.601 145.505 129.009 145.913 129.285C146.333 129.549 146.855 129.681 147.479 129.681C148.103 129.681 148.619 129.549 149.027 129.285C149.435 129.021 149.639 128.709 149.639 128.349C149.639 127.977 149.519 127.695 149.279 127.503C149.039 127.311 148.649 127.143 148.109 126.999L146.435 126.441C144.935 125.997 144.185 125.217 144.185 124.101ZM158.538 117.945C158.382 118.581 158.154 119.283 157.854 120.051C157.566 120.819 157.278 121.521 156.99 122.157H155.802C155.922 121.701 156.036 121.215 156.144 120.699C156.264 120.171 156.372 119.655 156.468 119.151C156.576 118.635 156.66 118.167 156.72 117.747H158.412L158.538 117.945ZM155.208 117.945C155.052 118.581 154.824 119.283 154.524 120.051C154.236 120.819 153.948 121.521 153.66 122.157H152.508C152.628 121.701 152.742 121.215 152.85 120.699C152.958 120.171 153.06 119.655 153.156 119.151C153.252 118.635 153.33 118.167 153.39 117.747H155.082L155.208 117.945ZM66.7036 164.749H71.5996V165.973H66.7036V164.749ZM81.9969 162.517C81.9969 163.453 81.7449 164.209 81.2409 164.785C80.7489 165.361 80.0169 165.733 79.0449 165.901L82.2849 170.599H80.4489L77.5149 165.973H75.5349V170.599H74.1129V159.277H78.0549C79.3269 159.277 80.2989 159.583 80.9709 160.195C81.6549 160.807 81.9969 161.581 81.9969 162.517ZM77.9469 164.983C78.7989 164.983 79.4409 164.779 79.8729 164.371C80.3169 163.951 80.5389 163.405 80.5389 162.733C80.5389 162.049 80.3229 161.509 79.8909 161.113C79.4709 160.705 78.8589 160.501 78.0549 160.501H75.5349V164.983H77.9469ZM85.242 161.977H86.664V170.599H85.242V161.977ZM85.944 159.961C85.656 159.961 85.428 159.883 85.26 159.727C85.104 159.559 85.026 159.343 85.026 159.079C85.026 158.803 85.104 158.587 85.26 158.431C85.428 158.263 85.656 158.179 85.944 158.179C86.232 158.179 86.46 158.263 86.628 158.431C86.808 158.587 86.898 158.803 86.898 159.079C86.898 159.343 86.808 159.559 86.628 159.727C86.46 159.883 86.232 159.961 85.944 159.961ZM93.3929 161.779C94.4129 161.779 95.2229 162.043 95.8229 162.571C96.4229 163.087 96.8129 163.735 96.9929 164.515L95.5529 164.641C95.3969 164.137 95.1449 163.747 94.7969 163.471C94.4489 163.183 94.0649 163.039 93.6449 163.039C92.8769 163.039 92.2529 163.327 91.7729 163.903C91.3049 164.479 91.0709 165.265 91.0709 166.261C91.0709 167.245 91.2989 168.037 91.7549 168.637C92.2229 169.237 92.7989 169.537 93.4829 169.537C94.1789 169.537 94.6949 169.381 95.0309 169.069C95.3789 168.745 95.5529 168.289 95.5529 167.701H97.0109C97.0109 168.625 96.6869 169.375 96.0389 169.951C95.4029 170.515 94.5689 170.797 93.5369 170.797C92.4449 170.797 91.5149 170.383 90.7469 169.555C89.9909 168.727 89.6129 167.629 89.6129 166.261C89.6129 164.881 89.9909 163.789 90.7469 162.985C91.5029 162.181 92.3849 161.779 93.3929 161.779ZM101.217 163.579C101.793 162.379 102.747 161.779 104.079 161.779C105.099 161.779 105.891 162.115 106.455 162.787C107.031 163.459 107.319 164.377 107.319 165.541V170.599H105.915V165.541C105.915 164.713 105.717 164.089 105.321 163.669C104.937 163.249 104.379 163.039 103.647 163.039C102.915 163.039 102.327 163.351 101.883 163.975C101.439 164.587 101.217 165.439 101.217 166.531V170.599H99.7946V158.341H101.217V163.579ZM110.748 161.977H112.17V170.599H110.748V161.977ZM111.45 159.961C111.162 159.961 110.934 159.883 110.766 159.727C110.61 159.559 110.532 159.343 110.532 159.079C110.532 158.803 110.61 158.587 110.766 158.431C110.934 158.263 111.162 158.179 111.45 158.179C111.738 158.179 111.966 158.263 112.134 158.431C112.314 158.587 112.404 158.803 112.404 159.079C112.404 159.343 112.314 159.559 112.134 159.727C111.966 159.883 111.738 159.961 111.45 159.961ZM119.007 169.645C120.195 169.645 120.873 169.123 121.041 168.079H122.499C122.367 168.943 121.983 169.615 121.347 170.095C120.723 170.563 119.943 170.797 119.007 170.797C117.855 170.797 116.919 170.389 116.199 169.573C115.479 168.745 115.119 167.647 115.119 166.279C115.119 164.911 115.479 163.819 116.199 163.003C116.931 162.187 117.897 161.779 119.097 161.779C120.309 161.779 121.209 162.247 121.797 163.183C122.397 164.119 122.607 165.259 122.427 166.603H116.541C116.541 167.491 116.757 168.223 117.189 168.799C117.621 169.363 118.227 169.645 119.007 169.645ZM120.051 163.129C119.775 162.985 119.439 162.913 119.043 162.913C118.311 162.913 117.729 163.165 117.297 163.669C116.877 164.161 116.631 164.779 116.559 165.523H121.149C121.149 164.323 120.783 163.525 120.051 163.129ZM125.372 170.689C125.096 170.665 124.868 170.575 124.688 170.419C124.508 170.263 124.418 170.053 124.418 169.789C124.418 169.525 124.508 169.303 124.688 169.123C124.88 168.943 125.144 168.853 125.48 168.853C125.828 168.853 126.116 168.991 126.344 169.267C126.572 169.531 126.686 169.867 126.686 170.275C126.686 170.683 126.554 171.097 126.29 171.517C126.026 171.949 125.624 172.297 125.084 172.561L124.022 172.039C124.766 171.679 125.216 171.229 125.372 170.689ZM134.125 169.285H140.695V170.599H132.703V168.925C132.703 167.593 133.207 166.615 134.215 165.991C134.539 165.787 134.899 165.607 135.295 165.451L137.527 164.551C138.679 164.095 139.255 163.345 139.255 162.301C139.255 161.725 139.057 161.257 138.661 160.897C138.265 160.525 137.707 160.339 136.987 160.339C136.279 160.339 135.697 160.489 135.241 160.789C134.797 161.089 134.539 161.539 134.467 162.139H132.901C132.961 161.155 133.357 160.399 134.089 159.871C134.821 159.343 135.757 159.079 136.897 159.079C138.049 159.079 138.985 159.391 139.705 160.015C140.425 160.639 140.785 161.413 140.785 162.337C140.785 163.249 140.545 163.975 140.065 164.515C139.597 165.055 138.949 165.487 138.121 165.811L135.835 166.729C135.259 166.969 134.827 167.245 134.539 167.557C134.263 167.857 134.125 168.253 134.125 168.745V169.285ZM149.678 166.927C149.678 165.499 148.748 164.785 146.888 164.785H143.846L144.332 159.277H150.614V160.573H145.7L145.394 163.831C146.018 163.723 146.612 163.669 147.176 163.669C148.412 163.669 149.384 163.945 150.092 164.497C150.8 165.037 151.154 165.859 151.154 166.963C151.154 168.067 150.782 168.985 150.038 169.717C149.294 170.437 148.334 170.797 147.158 170.797C145.982 170.797 145.022 170.503 144.278 169.915C143.534 169.315 143.162 168.493 143.162 167.449H144.584C144.584 168.433 145.088 169.075 146.096 169.375C146.408 169.459 146.75 169.501 147.122 169.501C147.89 169.501 148.508 169.261 148.976 168.781C149.444 168.289 149.678 167.671 149.678 166.927Z" fill="white"/>
<defs>
<linearGradient id="paint0_linear" x1="110.975" y1="0.333252" x2="110.975" y2="220.865" gradientUnits="userSpaceOnUse">
<stop stop-color="#93708C"/>
<stop offset="1" stop-color="#8EA7A4"/>
</linearGradient>
</defs>
</svg>
