<svg width="5109" height="1430" viewBox="0 0 5109 1430" fill="none" xmlns="http://www.w3.org/2000/svg">
<path d="M4060.59 120.233C4289.32 87.6148 4173.33 314.012 4776.31 407.761C5379.29 501.511 4847.76 1158.44 4619.36 951.356C4390.96 744.273 4043.86 522.058 3758.07 841.864C3429.72 1232.78 3151.88 1279.17 2837.73 934.49C2461.62 563.02 2305.51 528.392 1978.69 914.166C1978.69 914.166 1564.05 1489.45 1107.39 914.166C745.177 530.153 553.699 522.371 233.943 897.825" stroke="#93708C" stroke-width="8"/>
<g filter="url(#filter0_d)">
<circle cx="652.441" cy="703.898" r="200" fill="#EED9EA"/>
<circle cx="652.441" cy="703.898" r="196" stroke="#93708C" stroke-width="8"/>
</g>
<g filter="url(#filter1_d)">
<circle cx="1461.45" cy="1119.85" r="200" fill="#EED9EA"/>
<circle cx="1461.45" cy="1119.85" r="196" stroke="#92708C" stroke-width="8"/>
</g>
<g filter="url(#filter2_d)">
<circle cx="2337.72" cy="677.308" r="200" fill="#EED9EA"/>
<circle cx="2337.72" cy="677.308" r="196" stroke="#93708C" stroke-width="8"/>
</g>
<g filter="url(#filter3_d)">
<circle cx="3249.9" cy="1114.81" r="200" fill="#EED9EA"/>
<circle cx="3249.9" cy="1114.81" r="196" stroke="#93708C" stroke-width="8"/>
</g>
<g filter="url(#filter4_d)">
<circle cx="4121" cy="717.522" r="250" fill="#EED9EA"/>
<circle cx="4121" cy="717.522" r="246" stroke="#93708C" stroke-width="8"/>
</g>
<path d="M497.619 682.48C500.478 682.096 502.974 681.008 505.107 679.216H509.203V719.6H504.211V685.232C502.078 686.597 499.881 687.344 497.619 687.472V682.48ZM521.303 720.176C520.236 720.176 519.34 719.834 518.615 719.152C517.932 718.426 517.591 717.573 517.591 716.592C517.591 715.568 517.932 714.714 518.615 714.032C519.34 713.306 520.236 712.944 521.303 712.944C522.412 712.944 523.329 713.306 524.055 714.032C524.78 714.714 525.143 715.568 525.143 716.592C525.143 717.573 524.78 718.426 524.055 719.152C523.329 719.834 522.412 720.176 521.303 720.176ZM566.681 679.344C572.74 679.344 577.583 681.178 581.209 684.848C584.879 688.474 586.713 693.36 586.713 699.504C586.713 705.605 584.879 710.49 581.209 714.16C577.583 717.786 572.74 719.6 566.681 719.6H554.841V679.344H566.681ZM559.897 715.184H566.681C571.161 715.184 574.724 713.712 577.369 710.768C580.015 707.781 581.337 704.005 581.337 699.44C581.337 694.874 579.993 691.141 577.305 688.24C574.66 685.296 571.119 683.824 566.681 683.824H559.897V715.184ZM597.538 688.944H602.594V719.6H597.538V688.944ZM600.034 681.776C599.01 681.776 598.199 681.498 597.602 680.944C597.047 680.346 596.77 679.578 596.77 678.64C596.77 677.658 597.047 676.89 597.602 676.336C598.199 675.738 599.01 675.44 600.034 675.44C601.058 675.44 601.869 675.738 602.466 676.336C603.106 676.89 603.426 677.658 603.426 678.64C603.426 679.578 603.106 680.346 602.466 680.944C601.869 681.498 601.058 681.776 600.034 681.776ZM614.743 696.496C614.743 693.978 615.81 691.973 617.943 690.48C620.119 688.986 623.042 688.24 626.711 688.24C630.38 688.24 633.239 689.008 635.287 690.544C637.378 692.08 638.466 694.021 638.551 696.368H633.623C633.239 693.594 630.892 692.208 626.583 692.208C624.492 692.208 622.871 692.677 621.719 693.616C620.61 694.554 620.055 695.578 620.055 696.688C620.055 697.754 620.482 698.672 621.335 699.44C622.188 700.165 623.554 700.805 625.431 701.36L631.575 703.408C634.178 704.218 636.162 705.264 637.527 706.544C638.935 707.781 639.639 709.509 639.639 711.728C639.639 713.904 638.508 715.888 636.247 717.68C633.986 719.429 630.828 720.304 626.775 720.304C622.722 720.304 619.564 719.408 617.303 717.616C615.042 715.781 613.847 713.434 613.719 710.576H618.583C618.668 712.496 619.436 713.946 620.887 714.928C622.38 715.866 624.236 716.336 626.455 716.336C628.674 716.336 630.508 715.866 631.959 714.928C633.41 713.989 634.135 712.88 634.135 711.6C634.135 710.277 633.708 709.274 632.855 708.592C632.002 707.909 630.615 707.312 628.695 706.8L622.743 704.816C617.41 703.237 614.743 700.464 614.743 696.496ZM660.206 688.24C663.833 688.24 666.713 689.178 668.846 691.056C670.98 692.89 672.366 695.194 673.006 697.968L667.886 698.416C667.332 696.624 666.436 695.237 665.198 694.256C663.961 693.232 662.596 692.72 661.102 692.72C658.372 692.72 656.153 693.744 654.446 695.792C652.782 697.84 651.95 700.634 651.95 704.176C651.95 707.674 652.761 710.49 654.382 712.624C656.046 714.757 658.094 715.824 660.526 715.824C663.001 715.824 664.836 715.269 666.03 714.16C667.268 713.008 667.886 711.386 667.886 709.296H673.07C673.07 712.581 671.918 715.248 669.614 717.296C667.353 719.301 664.388 720.304 660.718 720.304C656.836 720.304 653.529 718.832 650.798 715.888C648.11 712.944 646.766 709.04 646.766 704.176C646.766 699.269 648.11 695.386 650.798 692.528C653.486 689.669 656.622 688.24 660.206 688.24ZM693.976 688.24C698.243 688.24 701.677 689.626 704.28 692.4C706.925 695.173 708.248 699.141 708.248 704.304C708.248 709.424 706.925 713.37 704.28 716.144C701.677 718.917 698.243 720.304 693.976 720.304C689.709 720.304 686.253 718.917 683.608 716.144C681.005 713.37 679.704 709.424 679.704 704.304C679.704 699.141 681.005 695.173 683.608 692.4C686.253 689.626 689.709 688.24 693.976 688.24ZM703.128 704.304C703.128 700.634 702.36 697.776 700.824 695.728C699.288 693.637 697.027 692.592 694.04 692.592C691.096 692.592 688.835 693.637 687.256 695.728C685.677 697.776 684.888 700.634 684.888 704.304C684.888 707.93 685.635 710.789 687.128 712.88C688.621 714.928 690.84 715.952 693.784 715.952C696.771 715.952 699.075 714.928 700.696 712.88C702.317 710.789 703.128 707.93 703.128 704.304ZM718.289 689.008L727.505 714.288L736.785 689.008H742.481L730.321 719.6H724.753L712.593 689.008H718.289ZM760.653 716.208C764.877 716.208 767.288 714.352 767.885 710.64H773.069C772.6 713.712 771.234 716.101 768.973 717.808C766.754 719.472 763.981 720.304 760.653 720.304C756.557 720.304 753.229 718.853 750.669 715.952C748.109 713.008 746.829 709.104 746.829 704.24C746.829 699.376 748.109 695.493 750.669 692.592C753.272 689.69 756.706 688.24 760.973 688.24C765.282 688.24 768.482 689.904 770.573 693.232C772.706 696.56 773.453 700.613 772.813 705.392H751.885C751.885 708.549 752.653 711.152 754.189 713.2C755.725 715.205 757.88 716.208 760.653 716.208ZM764.365 693.04C763.384 692.528 762.189 692.272 760.781 692.272C758.178 692.272 756.109 693.168 754.573 694.96C753.08 696.709 752.205 698.906 751.949 701.552H768.269C768.269 697.285 766.968 694.448 764.365 693.04ZM795.51 693.296C790.689 693.296 788.193 697.093 788.022 704.688V719.6H782.966V688.944H788.022V694.832C789.558 690.565 792.268 688.432 796.15 688.432C797.388 688.432 798.561 688.624 799.67 689.008L799.414 693.936C798.134 693.509 796.833 693.296 795.51 693.296Z" fill="black"/>
<path d="M1339.6 1137.17H1362.96V1141.85H1334.54V1135.89C1334.54 1131.16 1336.33 1127.68 1339.92 1125.46C1341.07 1124.74 1342.35 1124.1 1343.76 1123.54L1351.69 1120.34C1355.79 1118.72 1357.84 1116.05 1357.84 1112.34C1357.84 1110.29 1357.13 1108.63 1355.73 1107.35C1354.32 1106.03 1352.33 1105.37 1349.77 1105.37C1347.26 1105.37 1345.19 1105.9 1343.57 1106.97C1341.99 1108.03 1341.07 1109.63 1340.81 1111.77H1335.25C1335.46 1108.27 1336.87 1105.58 1339.47 1103.7C1342.07 1101.83 1345.4 1100.89 1349.45 1100.89C1353.55 1100.89 1356.88 1102 1359.44 1104.21C1362 1106.43 1363.28 1109.19 1363.28 1112.47C1363.28 1115.71 1362.42 1118.29 1360.72 1120.21C1359.05 1122.13 1356.75 1123.67 1353.81 1124.82L1345.68 1128.09C1343.63 1128.94 1342.09 1129.92 1341.07 1131.03C1340.09 1132.1 1339.6 1133.51 1339.6 1135.25V1137.17ZM1373.2 1142.42C1372.14 1142.42 1371.24 1142.08 1370.51 1141.4C1369.83 1140.67 1369.49 1139.82 1369.49 1138.84C1369.49 1137.81 1369.83 1136.96 1370.51 1136.28C1371.24 1135.55 1372.14 1135.19 1373.2 1135.19C1374.31 1135.19 1375.23 1135.55 1375.95 1136.28C1376.68 1136.96 1377.04 1137.81 1377.04 1138.84C1377.04 1139.82 1376.68 1140.67 1375.95 1141.4C1375.23 1142.08 1374.31 1142.42 1373.2 1142.42ZM1412.5 1101.59C1418.56 1101.59 1423.4 1103.43 1427.03 1107.09C1430.7 1110.72 1432.53 1115.61 1432.53 1121.75C1432.53 1127.85 1430.7 1132.74 1427.03 1136.41C1423.4 1140.03 1418.56 1141.85 1412.5 1141.85H1400.66V1101.59H1412.5ZM1405.71 1137.43H1412.5C1416.98 1137.43 1420.54 1135.96 1423.19 1133.01C1425.83 1130.03 1427.15 1126.25 1427.15 1121.69C1427.15 1117.12 1425.81 1113.39 1423.12 1110.49C1420.48 1107.54 1416.94 1106.07 1412.5 1106.07H1405.71V1137.43ZM1453.59 1138.45C1457.82 1138.45 1460.23 1136.6 1460.83 1132.89H1466.01C1465.54 1135.96 1464.18 1138.35 1461.91 1140.05C1459.7 1141.72 1456.92 1142.55 1453.59 1142.55C1449.5 1142.55 1446.17 1141.1 1443.61 1138.2C1441.05 1135.25 1439.77 1131.35 1439.77 1126.49C1439.77 1121.62 1441.05 1117.74 1443.61 1114.84C1446.21 1111.94 1449.65 1110.49 1453.91 1110.49C1458.22 1110.49 1461.42 1112.15 1463.51 1115.48C1465.65 1118.81 1466.39 1122.86 1465.75 1127.64H1444.83C1444.83 1130.8 1445.59 1133.4 1447.13 1135.45C1448.67 1137.45 1450.82 1138.45 1453.59 1138.45ZM1457.31 1115.29C1456.32 1114.77 1455.13 1114.52 1453.72 1114.52C1451.12 1114.52 1449.05 1115.41 1447.51 1117.21C1446.02 1118.96 1445.15 1121.15 1444.89 1123.8H1461.21C1461.21 1119.53 1459.91 1116.69 1457.31 1115.29ZM1490.82 1102.55C1489.41 1102 1488.3 1101.72 1487.49 1101.72C1486 1101.72 1484.83 1102.08 1483.97 1102.81C1483.12 1103.53 1482.69 1104.81 1482.69 1106.65V1111.25H1489.03V1114.71H1482.69V1141.85H1477.7V1114.71H1472.64V1111.25H1477.7V1106.58C1477.7 1103.55 1478.53 1101.33 1480.2 1099.93C1481.86 1098.48 1483.78 1097.75 1485.96 1097.75C1488.13 1097.75 1490.05 1098.03 1491.72 1098.58L1490.82 1102.55ZM1498.23 1111.19H1503.29V1141.85H1498.23V1111.19ZM1500.73 1104.02C1499.7 1104.02 1498.89 1103.75 1498.29 1103.19C1497.74 1102.59 1497.46 1101.83 1497.46 1100.89C1497.46 1099.91 1497.74 1099.14 1498.29 1098.58C1498.89 1097.99 1499.7 1097.69 1500.73 1097.69C1501.75 1097.69 1502.56 1097.99 1503.16 1098.58C1503.8 1099.14 1504.12 1099.91 1504.12 1100.89C1504.12 1101.83 1503.8 1102.59 1503.16 1103.19C1502.56 1103.75 1501.75 1104.02 1500.73 1104.02ZM1521.9 1117.14C1523.9 1112.71 1527.34 1110.49 1532.2 1110.49C1535.83 1110.49 1538.64 1111.68 1540.65 1114.07C1542.7 1116.46 1543.72 1119.72 1543.72 1123.86V1141.85H1538.73V1123.86C1538.73 1120.92 1538.03 1118.7 1536.62 1117.21C1535.25 1115.71 1533.29 1114.97 1530.73 1114.97C1528.17 1114.97 1526.1 1116.01 1524.52 1118.1C1522.94 1120.19 1522.11 1123.09 1522.03 1126.81V1141.85H1516.97V1111.25H1521.32L1521.9 1117.14ZM1566.16 1138.45C1570.38 1138.45 1572.79 1136.6 1573.39 1132.89H1578.57C1578.1 1135.96 1576.74 1138.35 1574.48 1140.05C1572.26 1141.72 1569.48 1142.55 1566.16 1142.55C1562.06 1142.55 1558.73 1141.1 1556.17 1138.2C1553.61 1135.25 1552.33 1131.35 1552.33 1126.49C1552.33 1121.62 1553.61 1117.74 1556.17 1114.84C1558.78 1111.94 1562.21 1110.49 1566.48 1110.49C1570.79 1110.49 1573.99 1112.15 1576.08 1115.48C1578.21 1118.81 1578.96 1122.86 1578.32 1127.64H1557.39C1557.39 1130.8 1558.16 1133.4 1559.69 1135.45C1561.23 1137.45 1563.38 1138.45 1566.16 1138.45ZM1569.87 1115.29C1568.89 1114.77 1567.69 1114.52 1566.28 1114.52C1563.68 1114.52 1561.61 1115.41 1560.08 1117.21C1558.58 1118.96 1557.71 1121.15 1557.45 1123.8H1573.77C1573.77 1119.53 1572.47 1116.69 1569.87 1115.29Z" fill="black"/>
<path d="M2222.04 668.856C2222.04 673.122 2219.69 676.088 2215 677.752C2217.56 678.477 2219.63 679.672 2221.21 681.336C2222.79 683 2223.57 685.133 2223.57 687.736C2223.57 691.277 2222.23 694.136 2219.54 696.312C2216.85 698.445 2213.31 699.512 2208.92 699.512C2204.52 699.512 2200.77 698.381 2197.65 696.12C2194.58 693.816 2193.05 690.594 2193.05 686.456H2198.29C2198.38 689.186 2199.38 691.277 2201.3 692.728C2203.27 694.178 2205.74 694.904 2208.73 694.904C2211.71 694.904 2214.02 694.2 2215.64 692.792C2217.3 691.341 2218.13 689.57 2218.13 687.48C2218.13 685.346 2217.35 683.618 2215.77 682.296C2214.19 680.93 2211.63 680.248 2208.09 680.248H2203.48V676.216H2206.61C2209.69 676.216 2212.12 675.618 2213.91 674.424C2215.7 673.186 2216.6 671.544 2216.6 669.496C2216.6 667.448 2215.87 665.762 2214.42 664.44C2212.97 663.117 2211.05 662.456 2208.66 662.456C2206.27 662.456 2204.27 662.882 2202.65 663.736C2201.07 664.546 2200 666.082 2199.45 668.344H2194.2C2194.67 664.802 2196.14 662.178 2198.61 660.472C2201.09 658.722 2204.27 657.848 2208.15 657.848C2212.08 657.848 2215.36 658.893 2218.01 660.984C2220.69 663.032 2222.04 665.656 2222.04 668.856ZM2233.16 699.384C2232.1 699.384 2231.2 699.042 2230.48 698.36C2229.79 697.634 2229.45 696.781 2229.45 695.8C2229.45 694.776 2229.79 693.922 2230.48 693.24C2231.2 692.514 2232.1 692.152 2233.16 692.152C2234.27 692.152 2235.19 692.514 2235.92 693.24C2236.64 693.922 2237 694.776 2237 695.8C2237 696.781 2236.64 697.634 2235.92 698.36C2235.19 699.042 2234.27 699.384 2233.16 699.384ZM2272.46 658.552C2278.52 658.552 2283.36 660.386 2286.99 664.056C2290.66 667.682 2292.49 672.568 2292.49 678.712C2292.49 684.813 2290.66 689.698 2286.99 693.368C2283.36 696.994 2278.52 698.808 2272.46 698.808H2260.62V658.552H2272.46ZM2265.67 694.392H2272.46C2276.94 694.392 2280.5 692.92 2283.15 689.976C2285.79 686.989 2287.11 683.213 2287.11 678.648C2287.11 674.082 2285.77 670.349 2283.08 667.448C2280.44 664.504 2276.9 663.032 2272.46 663.032H2265.67V694.392ZM2313.56 695.416C2317.78 695.416 2320.19 693.56 2320.79 689.848H2325.97C2325.5 692.92 2324.14 695.309 2321.88 697.016C2319.66 698.68 2316.88 699.512 2313.56 699.512C2309.46 699.512 2306.13 698.061 2303.57 695.16C2301.01 692.216 2299.73 688.312 2299.73 683.448C2299.73 678.584 2301.01 674.701 2303.57 671.8C2306.17 668.898 2309.61 667.448 2313.88 667.448C2318.18 667.448 2321.38 669.112 2323.48 672.44C2325.61 675.768 2326.36 679.821 2325.72 684.6H2304.79C2304.79 687.757 2305.56 690.36 2307.09 692.408C2308.63 694.413 2310.78 695.416 2313.56 695.416ZM2317.27 672.248C2316.29 671.736 2315.09 671.48 2313.68 671.48C2311.08 671.48 2309.01 672.376 2307.48 674.168C2305.98 675.917 2305.11 678.114 2304.85 680.76H2321.17C2321.17 676.493 2319.87 673.656 2317.27 672.248ZM2336.32 668.216L2345.53 693.496L2354.81 668.216H2360.51L2348.35 698.808H2342.78L2330.62 668.216H2336.32ZM2378.68 695.416C2382.9 695.416 2385.31 693.56 2385.91 689.848H2391.1C2390.63 692.92 2389.26 695.309 2387 697.016C2384.78 698.68 2382.01 699.512 2378.68 699.512C2374.58 699.512 2371.26 698.061 2368.7 695.16C2366.14 692.216 2364.86 688.312 2364.86 683.448C2364.86 678.584 2366.14 674.701 2368.7 671.8C2371.3 668.898 2374.73 667.448 2379 667.448C2383.31 667.448 2386.51 669.112 2388.6 672.44C2390.73 675.768 2391.48 679.821 2390.84 684.6H2369.91C2369.91 687.757 2370.68 690.36 2372.22 692.408C2373.75 694.413 2375.91 695.416 2378.68 695.416ZM2382.39 672.248C2381.41 671.736 2380.22 671.48 2378.81 671.48C2376.21 671.48 2374.14 672.376 2372.6 674.168C2371.11 675.917 2370.23 678.114 2369.98 680.76H2386.3C2386.3 676.493 2384.99 673.656 2382.39 672.248ZM2401.06 655.224H2406.11V698.808H2401.06V655.224ZM2430 667.448C2434.27 667.448 2437.7 668.834 2440.31 671.608C2442.95 674.381 2444.28 678.349 2444.28 683.512C2444.28 688.632 2442.95 692.578 2440.31 695.352C2437.7 698.125 2434.27 699.512 2430 699.512C2425.74 699.512 2422.28 698.125 2419.64 695.352C2417.03 692.578 2415.73 688.632 2415.73 683.512C2415.73 678.349 2417.03 674.381 2419.64 671.608C2422.28 668.834 2425.74 667.448 2430 667.448ZM2439.16 683.512C2439.16 679.842 2438.39 676.984 2436.85 674.936C2435.32 672.845 2433.05 671.8 2430.07 671.8C2427.12 671.8 2424.86 672.845 2423.28 674.936C2421.7 676.984 2420.92 679.842 2420.92 683.512C2420.92 687.138 2421.66 689.997 2423.16 692.088C2424.65 694.136 2426.87 695.16 2429.81 695.16C2432.8 695.16 2435.1 694.136 2436.72 692.088C2438.34 689.997 2439.16 687.138 2439.16 683.512ZM2458.67 672.888C2460.67 669.261 2463.66 667.448 2467.63 667.448C2471.64 667.448 2474.97 668.92 2477.61 671.864C2480.3 674.808 2481.64 678.69 2481.64 683.512C2481.64 688.333 2480.3 692.216 2477.61 695.16C2474.92 698.061 2471.62 699.512 2467.69 699.512C2463.77 699.512 2460.87 698.04 2458.99 695.096V713.848H2453.93V668.216H2458.09L2458.67 672.888ZM2467.44 695.032C2469.83 695.032 2471.92 694.008 2473.71 691.96C2475.54 689.912 2476.46 687.117 2476.46 683.576C2476.46 679.992 2475.59 677.154 2473.84 675.064C2472.13 672.973 2470.04 671.928 2467.56 671.928C2465.09 671.928 2463.06 672.717 2461.48 674.296C2459.91 675.832 2459.07 677.922 2458.99 680.568V686.392C2458.99 689.08 2459.8 691.192 2461.42 692.728C2463.04 694.264 2465.05 695.032 2467.44 695.032Z" fill="black"/>
<path d="M3186.8 1095.48V1122.23H3193.77V1126.58H3186.8V1136.31H3181.87V1126.58H3161.07V1122.68L3182.12 1095.48H3186.8ZM3167.08 1122.68H3182V1103.48L3167.08 1122.68ZM3200.79 1136.88C3199.72 1136.88 3198.82 1136.54 3198.1 1135.86C3197.42 1135.13 3197.07 1134.28 3197.07 1133.3C3197.07 1132.28 3197.42 1131.42 3198.1 1130.74C3198.82 1130.01 3199.72 1129.65 3200.79 1129.65C3201.9 1129.65 3202.81 1130.01 3203.54 1130.74C3204.26 1131.42 3204.63 1132.28 3204.63 1133.3C3204.63 1134.28 3204.26 1135.13 3203.54 1135.86C3202.81 1136.54 3201.9 1136.88 3200.79 1136.88ZM3222.23 1096.05H3253.52V1100.4H3240.4V1136.31H3235.35V1100.4H3222.23V1096.05ZM3266.12 1132.92C3270.34 1132.92 3272.75 1131.06 3273.35 1127.35H3278.53C3278.06 1130.42 3276.7 1132.81 3274.44 1134.52C3272.22 1136.18 3269.44 1137.01 3266.12 1137.01C3262.02 1137.01 3258.69 1135.56 3256.13 1132.66C3253.57 1129.72 3252.29 1125.81 3252.29 1120.95C3252.29 1116.08 3253.57 1112.2 3256.13 1109.3C3258.73 1106.4 3262.17 1104.95 3266.44 1104.95C3270.75 1104.95 3273.95 1106.61 3276.04 1109.94C3278.17 1113.27 3278.92 1117.32 3278.28 1122.1H3257.35C3257.35 1125.26 3258.12 1127.86 3259.65 1129.91C3261.19 1131.91 3263.34 1132.92 3266.12 1132.92ZM3269.83 1109.75C3268.85 1109.24 3267.65 1108.98 3266.24 1108.98C3263.64 1108.98 3261.57 1109.88 3260.04 1111.67C3258.54 1113.42 3257.67 1115.61 3257.41 1118.26H3273.73C3273.73 1113.99 3272.43 1111.16 3269.83 1109.75ZM3286.89 1113.2C3286.89 1110.69 3287.96 1108.68 3290.09 1107.19C3292.27 1105.69 3295.19 1104.95 3298.86 1104.95C3302.53 1104.95 3305.39 1105.72 3307.44 1107.25C3309.53 1108.79 3310.62 1110.73 3310.7 1113.08H3305.77C3305.39 1110.3 3303.04 1108.92 3298.73 1108.92C3296.64 1108.92 3295.02 1109.38 3293.87 1110.32C3292.76 1111.26 3292.21 1112.29 3292.21 1113.4C3292.21 1114.46 3292.63 1115.38 3293.49 1116.15C3294.34 1116.87 3295.7 1117.51 3297.58 1118.07L3303.73 1120.12C3306.33 1120.93 3308.31 1121.97 3309.68 1123.25C3311.09 1124.49 3311.79 1126.22 3311.79 1128.44C3311.79 1130.61 3310.66 1132.6 3308.4 1134.39C3306.14 1136.14 3302.98 1137.01 3298.93 1137.01C3294.87 1137.01 3291.71 1136.12 3289.45 1134.32C3287.19 1132.49 3286 1130.14 3285.87 1127.28H3290.73C3290.82 1129.2 3291.59 1130.65 3293.04 1131.64C3294.53 1132.57 3296.39 1133.04 3298.61 1133.04C3300.82 1133.04 3302.66 1132.57 3304.11 1131.64C3305.56 1130.7 3306.29 1129.59 3306.29 1128.31C3306.29 1126.98 3305.86 1125.98 3305.01 1125.3C3304.15 1124.62 3302.77 1124.02 3300.85 1123.51L3294.89 1121.52C3289.56 1119.94 3286.89 1117.17 3286.89 1113.2ZM3338.18 1135.41C3334.51 1137.12 3331.16 1137.48 3328.13 1136.5C3325.96 1135.82 3324.42 1134.39 3323.52 1132.21C3323.06 1131.14 3322.82 1129.86 3322.82 1128.37V1109.56H3317.89V1105.72H3322.82V1097.2H3327.81V1105.72H3337.41V1109.56H3327.81V1128.31C3327.81 1131.42 3329.26 1132.98 3332.16 1132.98C3333.74 1132.98 3335.51 1132.6 3337.48 1131.83L3338.18 1135.41Z" fill="black"/>
<path d="M3986.39 739.648C3983.13 739.648 3979.96 739.144 3976.89 738.136C3973.86 737.08 3971.34 735.616 3969.33 733.744L3971.85 727.984C3976.26 731.536 3981.06 733.312 3986.25 733.312C3989.56 733.312 3992.15 732.424 3994.02 730.648C3995.89 728.824 3996.83 726.448 3996.83 723.52C3996.83 720.496 3995.94 718.024 3994.17 716.104C3992.39 714.184 3989.92 713.224 3986.75 713.224C3982.29 713.224 3978.71 715.072 3976.02 718.768H3970.84V688.24H4001.08V694.504H3978.11V710.56C3980.8 708.208 3984.21 707.032 3988.33 707.032C3991.55 707.032 3994.33 707.704 3996.69 709.048C3999.04 710.392 4000.86 712.288 4002.16 714.736C4003.45 717.136 4004.1 719.944 4004.1 723.16C4004.1 726.424 4003.38 729.304 4001.94 731.8C4000.5 734.248 3998.46 736.168 3995.82 737.56C3993.18 738.952 3990.04 739.648 3986.39 739.648ZM4011.42 739V730.432H4019.99V739H4011.42ZM4049.07 739V688.24H4067C4075.35 688.24 4081.79 690.424 4086.3 694.792C4090.86 699.16 4093.14 705.424 4093.14 713.584C4093.14 721.744 4090.86 728.032 4086.3 732.448C4081.79 736.816 4075.35 739 4067 739H4049.07ZM4056.56 732.736H4066.57C4079.1 732.736 4085.36 726.352 4085.36 713.584C4085.36 700.864 4079.1 694.504 4066.57 694.504H4056.56V732.736ZM4118.84 739.648C4113.08 739.648 4108.54 738.04 4105.23 734.824C4101.92 731.56 4100.26 727.12 4100.26 721.504C4100.26 717.904 4100.98 714.736 4102.42 712C4103.91 709.216 4105.95 707.056 4108.54 705.52C4111.14 703.984 4114.11 703.216 4117.47 703.216C4122.32 703.216 4126.14 704.776 4128.92 707.896C4131.7 710.968 4133.1 715.216 4133.1 720.64V723.088H4107.32C4107.85 730.384 4111.71 734.032 4118.91 734.032C4120.93 734.032 4122.9 733.72 4124.82 733.096C4126.78 732.472 4128.63 731.44 4130.36 730L4132.52 735.04C4130.94 736.48 4128.9 737.608 4126.4 738.424C4123.9 739.24 4121.38 739.648 4118.84 739.648ZM4117.76 708.328C4114.74 708.328 4112.34 709.264 4110.56 711.136C4108.78 713.008 4107.7 715.504 4107.32 718.624H4126.98C4126.83 715.36 4125.97 712.84 4124.38 711.064C4122.8 709.24 4120.59 708.328 4117.76 708.328ZM4152.47 739.648C4148.63 739.648 4145.75 738.568 4143.83 736.408C4141.96 734.248 4141.02 731.08 4141.02 726.904V688.24H4148.3V726.472C4148.3 731.224 4150.24 733.6 4154.13 733.6C4154.7 733.6 4155.23 733.576 4155.71 733.528C4156.24 733.48 4156.77 733.384 4157.3 733.24L4157.15 739.072C4155.52 739.456 4153.96 739.648 4152.47 739.648ZM4162.38 695.728V688.168H4170.88V695.728H4162.38ZM4163.03 739V703.864H4170.3V739H4163.03ZM4190.84 739L4175.72 703.864H4183.56L4194.29 730.576L4205.31 703.864H4212.72L4197.39 739H4190.84ZM4233.8 739.648C4228.04 739.648 4223.51 738.04 4220.19 734.824C4216.88 731.56 4215.23 727.12 4215.23 721.504C4215.23 717.904 4215.95 714.736 4217.39 712C4218.87 709.216 4220.91 707.056 4223.51 705.52C4226.1 703.984 4229.07 703.216 4232.43 703.216C4237.28 703.216 4241.1 704.776 4243.88 707.896C4246.67 710.968 4248.06 715.216 4248.06 720.64V723.088H4222.28C4222.81 730.384 4226.67 734.032 4233.87 734.032C4235.89 734.032 4237.86 733.72 4239.78 733.096C4241.75 732.472 4243.59 731.44 4245.32 730L4247.48 735.04C4245.9 736.48 4243.86 737.608 4241.36 738.424C4238.87 739.24 4236.35 739.648 4233.8 739.648ZM4232.72 708.328C4229.7 708.328 4227.3 709.264 4225.52 711.136C4223.75 713.008 4222.67 715.504 4222.28 718.624H4241.94C4241.79 715.36 4240.93 712.84 4239.35 711.064C4237.76 709.24 4235.55 708.328 4232.72 708.328ZM4255.99 739V703.864H4263.04V710.128C4264.87 705.952 4268.66 703.624 4274.42 703.144L4276.79 703L4277.3 709.192L4272.91 709.624C4266.52 710.248 4263.33 713.536 4263.33 719.488V739H4255.99Z" fill="black"/>
<path d="M4071.4 182.572V90.1533L3997.06 136.363L4071.4 182.572Z" fill="#8EA7A4"/>
<path d="M4730.4 960.441L4764.64 1046.28L4816.57 975.822L4730.4 960.441Z" fill="#8EA7A4"/>
<path d="M1049.23 770.62L972.813 822.605L1052.83 858.074L1049.23 770.62Z" fill="#8EA7A4"/>
<path d="M161.981 906.068L230.036 968.596L246.302 882.592L161.981 906.068Z" fill="#8EA7A4"/>
<path d="M1874.75 961.323L1943.2 1023.42L1958.92 937.313L1874.75 961.323Z" fill="#8EA7A4"/>
<path d="M2766.81 791.865L2695.01 850.056L2777.72 878.712L2766.81 791.865Z" fill="#8EA7A4"/>
<path d="M2876.75 1025.89V975.785H2928.11" stroke="#8EA7A4" stroke-width="8"/>
<path d="M2851.07 1000.84V950.732H2902.43" stroke="#8EA7A4" stroke-width="8"/>
<path d="M3816.55 837.615L3766.65 833.104L3771.27 781.953" stroke="#8EA7A4" stroke-width="8"/>
<path d="M3789.28 860.935L3739.38 856.423L3744.01 805.273" stroke="#8EA7A4" stroke-width="8"/>
<path d="M3597.38 970.097L3676.78 1017.4L3675.12 929.883L3597.38 970.097Z" fill="#8EA7A4"/>
<defs>
<filter id="filter0_d" x="442.441" y="493.898" width="430" height="430" filterUnits="userSpaceOnUse" color-interpolation-filters="sRGB">
<feFlood flood-opacity="0" result="BackgroundImageFix"/>
<feColorMatrix in="SourceAlpha" type="matrix" values="0 0 0 0 0 0 0 0 0 0 0 0 0 0 0 0 0 0 127 0" result="hardAlpha"/>
<feMorphology radius="5" operator="dilate" in="SourceAlpha" result="effect1_dropShadow"/>
<feOffset dx="5" dy="5"/>
<feGaussianBlur stdDeviation="5"/>
<feComposite in2="hardAlpha" operator="out"/>
<feColorMatrix type="matrix" values="0 0 0 0 0.576471 0 0 0 0 0.439216 0 0 0 0 0.54902 0 0 0 0.3 0"/>
<feBlend mode="normal" in2="BackgroundImageFix" result="effect1_dropShadow"/>
<feBlend mode="normal" in="SourceGraphic" in2="effect1_dropShadow" result="shape"/>
</filter>
<filter id="filter1_d" x="1251.45" y="909.847" width="430" height="430" filterUnits="userSpaceOnUse" color-interpolation-filters="sRGB">
<feFlood flood-opacity="0" result="BackgroundImageFix"/>
<feColorMatrix in="SourceAlpha" type="matrix" values="0 0 0 0 0 0 0 0 0 0 0 0 0 0 0 0 0 0 127 0" result="hardAlpha"/>
<feMorphology radius="5" operator="dilate" in="SourceAlpha" result="effect1_dropShadow"/>
<feOffset dx="5" dy="5"/>
<feGaussianBlur stdDeviation="5"/>
<feComposite in2="hardAlpha" operator="out"/>
<feColorMatrix type="matrix" values="0 0 0 0 0.576471 0 0 0 0 0.439216 0 0 0 0 0.54902 0 0 0 0.3 0"/>
<feBlend mode="normal" in2="BackgroundImageFix" result="effect1_dropShadow"/>
<feBlend mode="normal" in="SourceGraphic" in2="effect1_dropShadow" result="shape"/>
</filter>
<filter id="filter2_d" x="2127.72" y="467.308" width="430" height="430" filterUnits="userSpaceOnUse" color-interpolation-filters="sRGB">
<feFlood flood-opacity="0" result="BackgroundImageFix"/>
<feColorMatrix in="SourceAlpha" type="matrix" values="0 0 0 0 0 0 0 0 0 0 0 0 0 0 0 0 0 0 127 0" result="hardAlpha"/>
<feMorphology radius="5" operator="dilate" in="SourceAlpha" result="effect1_dropShadow"/>
<feOffset dx="5" dy="5"/>
<feGaussianBlur stdDeviation="5"/>
<feComposite in2="hardAlpha" operator="out"/>
<feColorMatrix type="matrix" values="0 0 0 0 0.576471 0 0 0 0 0.439216 0 0 0 0 0.54902 0 0 0 0.3 0"/>
<feBlend mode="normal" in2="BackgroundImageFix" result="effect1_dropShadow"/>
<feBlend mode="normal" in="SourceGraphic" in2="effect1_dropShadow" result="shape"/>
</filter>
<filter id="filter3_d" x="3039.9" y="904.808" width="430" height="430" filterUnits="userSpaceOnUse" color-interpolation-filters="sRGB">
<feFlood flood-opacity="0" result="BackgroundImageFix"/>
<feColorMatrix in="SourceAlpha" type="matrix" values="0 0 0 0 0 0 0 0 0 0 0 0 0 0 0 0 0 0 127 0" result="hardAlpha"/>
<feMorphology radius="5" operator="dilate" in="SourceAlpha" result="effect1_dropShadow"/>
<feOffset dx="5" dy="5"/>
<feGaussianBlur stdDeviation="5"/>
<feComposite in2="hardAlpha" operator="out"/>
<feColorMatrix type="matrix" values="0 0 0 0 0.576471 0 0 0 0 0.439216 0 0 0 0 0.54902 0 0 0 0.3 0"/>
<feBlend mode="normal" in2="BackgroundImageFix" result="effect1_dropShadow"/>
<feBlend mode="normal" in="SourceGraphic" in2="effect1_dropShadow" result="shape"/>
</filter>
<filter id="filter4_d" x="3861" y="457.522" width="530" height="530" filterUnits="userSpaceOnUse" color-interpolation-filters="sRGB">
<feFlood flood-opacity="0" result="BackgroundImageFix"/>
<feColorMatrix in="SourceAlpha" type="matrix" values="0 0 0 0 0 0 0 0 0 0 0 0 0 0 0 0 0 0 127 0" result="hardAlpha"/>
<feMorphology radius="5" operator="dilate" in="SourceAlpha" result="effect1_dropShadow"/>
<feOffset dx="5" dy="5"/>
<feGaussianBlur stdDeviation="5"/>
<feComposite in2="hardAlpha" operator="out"/>
<feColorMatrix type="matrix" values="0 0 0 0 0.576471 0 0 0 0 0.439216 0 0 0 0 0.54902 0 0 0 0.3 0"/>
<feBlend mode="normal" in2="BackgroundImageFix" result="effect1_dropShadow"/>
<feBlend mode="normal" in="SourceGraphic" in2="effect1_dropShadow" result="shape"/>
</filter>
</defs>
</svg>
