<svg width="5109" height="1430" viewBox="0 0 5109 1430" fill="none" xmlns="http://www.w3.org/2000/svg">
<g clip-path="url(#clip0)">
<path d="M4060.59 120.233C4289.32 87.6148 4173.33 314.012 4776.31 407.761C5379.29 501.511 4847.76 1158.44 4619.36 951.356C4390.96 744.273 4043.86 522.058 3758.07 841.864C3429.72 1232.78 3151.88 1279.17 2837.73 934.49C2461.62 563.02 2305.51 528.392 1978.69 914.166C1978.69 914.166 1564.05 1489.45 1107.39 914.166C745.177 530.153 553.699 522.371 233.943 897.825" stroke="#93708C" stroke-width="8"/>
<g filter="url(#filter0_d)">
<circle cx="652.441" cy="703.898" r="200" fill="#EED9EA"/>
<circle cx="652.441" cy="703.898" r="196" stroke="#93708C" stroke-width="8"/>
</g>
<g filter="url(#filter1_d)">
<circle cx="1511.44" cy="1169.85" r="250" fill="#EED9EA"/>
<circle cx="1511.44" cy="1169.85" r="246" stroke="#92708C" stroke-width="8"/>
</g>
<circle cx="2361.95" cy="646.522" r="200" fill="#E9E2E8"/>
<circle cx="3209.45" cy="1169.85" r="200" fill="#E9E2E8"/>
<circle cx="4071" cy="667.522" r="200" fill="#E9E2E8"/>
<path d="M497.619 682.48C500.478 682.096 502.974 681.008 505.107 679.216H509.203V719.6H504.211V685.232C502.078 686.597 499.881 687.344 497.619 687.472V682.48ZM521.303 720.176C520.236 720.176 519.34 719.834 518.615 719.152C517.932 718.426 517.591 717.573 517.591 716.592C517.591 715.568 517.932 714.714 518.615 714.032C519.34 713.306 520.236 712.944 521.303 712.944C522.412 712.944 523.329 713.306 524.055 714.032C524.78 714.714 525.143 715.568 525.143 716.592C525.143 717.573 524.78 718.426 524.055 719.152C523.329 719.834 522.412 720.176 521.303 720.176ZM566.681 679.344C572.74 679.344 577.583 681.178 581.209 684.848C584.879 688.474 586.713 693.36 586.713 699.504C586.713 705.605 584.879 710.49 581.209 714.16C577.583 717.786 572.74 719.6 566.681 719.6H554.841V679.344H566.681ZM559.897 715.184H566.681C571.161 715.184 574.724 713.712 577.369 710.768C580.015 707.781 581.337 704.005 581.337 699.44C581.337 694.874 579.993 691.141 577.305 688.24C574.66 685.296 571.119 683.824 566.681 683.824H559.897V715.184ZM597.538 688.944H602.594V719.6H597.538V688.944ZM600.034 681.776C599.01 681.776 598.199 681.498 597.602 680.944C597.047 680.346 596.77 679.578 596.77 678.64C596.77 677.658 597.047 676.89 597.602 676.336C598.199 675.738 599.01 675.44 600.034 675.44C601.058 675.44 601.869 675.738 602.466 676.336C603.106 676.89 603.426 677.658 603.426 678.64C603.426 679.578 603.106 680.346 602.466 680.944C601.869 681.498 601.058 681.776 600.034 681.776ZM614.743 696.496C614.743 693.978 615.81 691.973 617.943 690.48C620.119 688.986 623.042 688.24 626.711 688.24C630.38 688.24 633.239 689.008 635.287 690.544C637.378 692.08 638.466 694.021 638.551 696.368H633.623C633.239 693.594 630.892 692.208 626.583 692.208C624.492 692.208 622.871 692.677 621.719 693.616C620.61 694.554 620.055 695.578 620.055 696.688C620.055 697.754 620.482 698.672 621.335 699.44C622.188 700.165 623.554 700.805 625.431 701.36L631.575 703.408C634.178 704.218 636.162 705.264 637.527 706.544C638.935 707.781 639.639 709.509 639.639 711.728C639.639 713.904 638.508 715.888 636.247 717.68C633.986 719.429 630.828 720.304 626.775 720.304C622.722 720.304 619.564 719.408 617.303 717.616C615.042 715.781 613.847 713.434 613.719 710.576H618.583C618.668 712.496 619.436 713.946 620.887 714.928C622.38 715.866 624.236 716.336 626.455 716.336C628.674 716.336 630.508 715.866 631.959 714.928C633.41 713.989 634.135 712.88 634.135 711.6C634.135 710.277 633.708 709.274 632.855 708.592C632.002 707.909 630.615 707.312 628.695 706.8L622.743 704.816C617.41 703.237 614.743 700.464 614.743 696.496ZM660.206 688.24C663.833 688.24 666.713 689.178 668.846 691.056C670.98 692.89 672.366 695.194 673.006 697.968L667.886 698.416C667.332 696.624 666.436 695.237 665.198 694.256C663.961 693.232 662.596 692.72 661.102 692.72C658.372 692.72 656.153 693.744 654.446 695.792C652.782 697.84 651.95 700.634 651.95 704.176C651.95 707.674 652.761 710.49 654.382 712.624C656.046 714.757 658.094 715.824 660.526 715.824C663.001 715.824 664.836 715.269 666.03 714.16C667.268 713.008 667.886 711.386 667.886 709.296H673.07C673.07 712.581 671.918 715.248 669.614 717.296C667.353 719.301 664.388 720.304 660.718 720.304C656.836 720.304 653.529 718.832 650.798 715.888C648.11 712.944 646.766 709.04 646.766 704.176C646.766 699.269 648.11 695.386 650.798 692.528C653.486 689.669 656.622 688.24 660.206 688.24ZM693.976 688.24C698.243 688.24 701.677 689.626 704.28 692.4C706.925 695.173 708.248 699.141 708.248 704.304C708.248 709.424 706.925 713.37 704.28 716.144C701.677 718.917 698.243 720.304 693.976 720.304C689.709 720.304 686.253 718.917 683.608 716.144C681.005 713.37 679.704 709.424 679.704 704.304C679.704 699.141 681.005 695.173 683.608 692.4C686.253 689.626 689.709 688.24 693.976 688.24ZM703.128 704.304C703.128 700.634 702.36 697.776 700.824 695.728C699.288 693.637 697.027 692.592 694.04 692.592C691.096 692.592 688.835 693.637 687.256 695.728C685.677 697.776 684.888 700.634 684.888 704.304C684.888 707.93 685.635 710.789 687.128 712.88C688.621 714.928 690.84 715.952 693.784 715.952C696.771 715.952 699.075 714.928 700.696 712.88C702.317 710.789 703.128 707.93 703.128 704.304ZM718.289 689.008L727.505 714.288L736.785 689.008H742.481L730.321 719.6H724.753L712.593 689.008H718.289ZM760.653 716.208C764.877 716.208 767.288 714.352 767.885 710.64H773.069C772.6 713.712 771.234 716.101 768.973 717.808C766.754 719.472 763.981 720.304 760.653 720.304C756.557 720.304 753.229 718.853 750.669 715.952C748.109 713.008 746.829 709.104 746.829 704.24C746.829 699.376 748.109 695.493 750.669 692.592C753.272 689.69 756.706 688.24 760.973 688.24C765.282 688.24 768.482 689.904 770.573 693.232C772.706 696.56 773.453 700.613 772.813 705.392H751.885C751.885 708.549 752.653 711.152 754.189 713.2C755.725 715.205 757.88 716.208 760.653 716.208ZM764.365 693.04C763.384 692.528 762.189 692.272 760.781 692.272C758.178 692.272 756.109 693.168 754.573 694.96C753.08 696.709 752.205 698.906 751.949 701.552H768.269C768.269 697.285 766.968 694.448 764.365 693.04ZM795.51 693.296C790.689 693.296 788.193 697.093 788.022 704.688V719.6H782.966V688.944H788.022V694.832C789.558 690.565 792.268 688.432 796.15 688.432C797.388 688.432 798.561 688.624 799.67 689.008L799.414 693.936C798.134 693.509 796.833 693.296 795.51 693.296Z" fill="black"/>
<path d="M1370.56 1193.85V1188.3L1387.48 1170.16C1389.84 1167.61 1391.52 1165.31 1392.52 1163.25C1393.58 1161.18 1394.11 1159.09 1394.11 1156.98C1394.11 1151.51 1390.89 1148.77 1384.46 1148.77C1379.56 1148.77 1375.17 1150.62 1371.28 1154.32L1368.62 1148.63C1370.54 1146.76 1372.99 1145.27 1375.96 1144.17C1378.94 1143.01 1382.04 1142.44 1385.25 1142.44C1390.48 1142.44 1394.49 1143.64 1397.28 1146.04C1400.11 1148.44 1401.52 1151.87 1401.52 1156.33C1401.52 1159.36 1400.78 1162.31 1399.29 1165.19C1397.85 1168.07 1395.57 1171.14 1392.45 1174.41L1379.92 1187.58H1403.54V1193.85H1370.56ZM1411.86 1193.85V1185.28H1420.43V1193.85H1411.86ZM1449.52 1193.85V1143.09H1467.45C1475.8 1143.09 1482.23 1145.27 1486.74 1149.64C1491.3 1154.01 1493.58 1160.27 1493.58 1168.43C1493.58 1176.59 1491.3 1182.88 1486.74 1187.29C1482.23 1191.66 1475.8 1193.85 1467.45 1193.85H1449.52ZM1457.01 1187.58H1467.02C1479.54 1187.58 1485.81 1181.2 1485.81 1168.43C1485.81 1155.71 1479.54 1149.35 1467.02 1149.35H1457.01V1187.58ZM1519.29 1194.49C1513.53 1194.49 1508.99 1192.89 1505.68 1189.67C1502.37 1186.41 1500.71 1181.97 1500.71 1176.35C1500.71 1172.75 1501.43 1169.58 1502.87 1166.85C1504.36 1164.06 1506.4 1161.9 1508.99 1160.37C1511.58 1158.83 1514.56 1158.06 1517.92 1158.06C1522.77 1158.06 1526.58 1159.62 1529.37 1162.74C1532.15 1165.81 1533.54 1170.06 1533.54 1175.49V1177.93H1507.77C1508.29 1185.23 1512.16 1188.88 1519.36 1188.88C1521.37 1188.88 1523.34 1188.57 1525.26 1187.94C1527.23 1187.32 1529.08 1186.29 1530.81 1184.85L1532.97 1189.89C1531.38 1191.33 1529.34 1192.45 1526.85 1193.27C1524.35 1194.09 1521.83 1194.49 1519.29 1194.49ZM1518.21 1163.17C1515.18 1163.17 1512.78 1164.11 1511.01 1165.98C1509.23 1167.85 1508.15 1170.35 1507.77 1173.47H1527.42C1527.28 1170.21 1526.41 1167.69 1524.83 1165.91C1523.25 1164.09 1521.04 1163.17 1518.21 1163.17ZM1543.49 1193.85V1164.33H1536.65V1158.71H1543.49V1158.06C1543.49 1153.21 1544.71 1149.57 1547.16 1147.12C1549.66 1144.67 1553.47 1143.3 1558.61 1143.01L1561.49 1142.87L1561.92 1148.34L1558.97 1148.49C1556.04 1148.68 1553.93 1149.47 1552.63 1150.86C1551.38 1152.25 1550.76 1154.32 1550.76 1157.05V1158.71H1573.15V1193.85H1565.88V1164.33H1550.76V1193.85H1543.49ZM1565.23 1150.57V1143.01H1573.73V1150.57H1565.23ZM1583.31 1193.85V1158.71H1590.36V1164.54C1591.56 1162.43 1593.19 1160.82 1595.26 1159.72C1597.37 1158.61 1599.72 1158.06 1602.31 1158.06C1610.62 1158.06 1614.77 1162.77 1614.77 1172.17V1193.85H1607.5V1172.61C1607.5 1169.58 1606.9 1167.37 1605.7 1165.98C1604.55 1164.59 1602.72 1163.89 1600.23 1163.89C1597.3 1163.89 1594.95 1164.83 1593.17 1166.7C1591.44 1168.53 1590.58 1170.95 1590.58 1173.97V1193.85H1583.31ZM1641.28 1194.49C1635.52 1194.49 1630.98 1192.89 1627.67 1189.67C1624.36 1186.41 1622.7 1181.97 1622.7 1176.35C1622.7 1172.75 1623.42 1169.58 1624.86 1166.85C1626.35 1164.06 1628.39 1161.9 1630.98 1160.37C1633.57 1158.83 1636.55 1158.06 1639.91 1158.06C1644.76 1158.06 1648.57 1159.62 1651.36 1162.74C1654.14 1165.81 1655.53 1170.06 1655.53 1175.49V1177.93H1629.76C1630.29 1185.23 1634.15 1188.88 1641.35 1188.88C1643.37 1188.88 1645.33 1188.57 1647.25 1187.94C1649.22 1187.32 1651.07 1186.29 1652.8 1184.85L1654.96 1189.89C1653.37 1191.33 1651.33 1192.45 1648.84 1193.27C1646.34 1194.09 1643.82 1194.49 1641.28 1194.49ZM1640.2 1163.17C1637.17 1163.17 1634.77 1164.11 1633 1165.98C1631.22 1167.85 1630.14 1170.35 1629.76 1173.47H1649.41C1649.27 1170.21 1648.41 1167.69 1646.82 1165.91C1645.24 1164.09 1643.03 1163.17 1640.2 1163.17Z" fill="black"/>
<path d="M2246.27 638.07C2246.27 642.337 2243.92 645.302 2239.23 646.966C2241.79 647.691 2243.85 648.886 2245.43 650.55C2247.01 652.214 2247.8 654.347 2247.8 656.95C2247.8 660.491 2246.46 663.35 2243.77 665.526C2241.08 667.659 2237.54 668.726 2233.15 668.726C2228.75 668.726 2225 667.595 2221.88 665.334C2218.81 663.03 2217.27 659.809 2217.27 655.67H2222.52C2222.61 658.401 2223.61 660.491 2225.53 661.942C2227.49 663.393 2229.97 664.118 2232.95 664.118C2235.94 664.118 2238.24 663.414 2239.87 662.006C2241.53 660.555 2242.36 658.785 2242.36 656.694C2242.36 654.561 2241.57 652.833 2239.99 651.51C2238.41 650.145 2235.85 649.462 2232.31 649.462H2227.71V645.43H2230.84C2233.91 645.43 2236.35 644.833 2238.14 643.638C2239.93 642.401 2240.83 640.758 2240.83 638.71C2240.83 636.662 2240.1 634.977 2238.65 633.654C2237.2 632.331 2235.28 631.67 2232.89 631.67C2230.5 631.67 2228.49 632.097 2226.87 632.95C2225.29 633.761 2224.23 635.297 2223.67 637.558H2218.43C2218.89 634.017 2220.37 631.393 2222.84 629.686C2225.32 627.937 2228.49 627.062 2232.38 627.062C2236.3 627.062 2239.59 628.107 2242.23 630.198C2244.92 632.246 2246.27 634.87 2246.27 638.07ZM2257.39 668.598C2256.32 668.598 2255.43 668.257 2254.7 667.574C2254.02 666.849 2253.68 665.995 2253.68 665.014C2253.68 663.99 2254.02 663.137 2254.7 662.454C2255.43 661.729 2256.32 661.366 2257.39 661.366C2258.5 661.366 2259.42 661.729 2260.14 662.454C2260.87 663.137 2261.23 663.99 2261.23 665.014C2261.23 665.995 2260.87 666.849 2260.14 667.574C2259.42 668.257 2258.5 668.598 2257.39 668.598ZM2296.69 627.766C2302.74 627.766 2307.59 629.601 2311.21 633.27C2314.88 636.897 2316.72 641.782 2316.72 647.926C2316.72 654.027 2314.88 658.913 2311.21 662.582C2307.59 666.209 2302.74 668.022 2296.69 668.022H2284.85V627.766H2296.69ZM2289.9 663.606H2296.69C2301.17 663.606 2304.73 662.134 2307.37 659.19C2310.02 656.203 2311.34 652.427 2311.34 647.862C2311.34 643.297 2310 639.563 2307.31 636.662C2304.66 633.718 2301.12 632.246 2296.69 632.246H2289.9V663.606ZM2337.78 664.63C2342.01 664.63 2344.42 662.774 2345.01 659.062H2350.2C2349.73 662.134 2348.36 664.523 2346.1 666.23C2343.88 667.894 2341.11 668.726 2337.78 668.726C2333.69 668.726 2330.36 667.275 2327.8 664.374C2325.24 661.43 2323.96 657.526 2323.96 652.662C2323.96 647.798 2325.24 643.915 2327.8 641.014C2330.4 638.113 2333.84 636.662 2338.1 636.662C2342.41 636.662 2345.61 638.326 2347.7 641.654C2349.84 644.982 2350.58 649.035 2349.94 653.814H2329.01C2329.01 656.971 2329.78 659.574 2331.32 661.622C2332.85 663.627 2335.01 664.63 2337.78 664.63ZM2341.49 641.462C2340.51 640.95 2339.32 640.694 2337.91 640.694C2335.31 640.694 2333.24 641.59 2331.7 643.382C2330.21 645.131 2329.33 647.329 2329.08 649.974H2345.4C2345.4 645.707 2344.1 642.87 2341.49 641.462ZM2360.54 637.43L2369.76 662.71L2379.04 637.43H2384.74L2372.58 668.022H2367.01L2354.85 637.43H2360.54ZM2402.91 664.63C2407.13 664.63 2409.54 662.774 2410.14 659.062H2415.32C2414.85 662.134 2413.49 664.523 2411.23 666.23C2409.01 667.894 2406.23 668.726 2402.91 668.726C2398.81 668.726 2395.48 667.275 2392.92 664.374C2390.36 661.43 2389.08 657.526 2389.08 652.662C2389.08 647.798 2390.36 643.915 2392.92 641.014C2395.53 638.113 2398.96 636.662 2403.23 636.662C2407.54 636.662 2410.74 638.326 2412.83 641.654C2414.96 644.982 2415.71 649.035 2415.07 653.814H2394.14C2394.14 656.971 2394.91 659.574 2396.44 661.622C2397.98 663.627 2400.13 664.63 2402.91 664.63ZM2406.62 641.462C2405.64 640.95 2404.44 640.694 2403.03 640.694C2400.43 640.694 2398.36 641.59 2396.83 643.382C2395.33 645.131 2394.46 647.329 2394.2 649.974H2410.52C2410.52 645.707 2409.22 642.87 2406.62 641.462ZM2425.28 624.438H2430.34V668.022H2425.28V624.438ZM2454.23 636.662C2458.5 636.662 2461.93 638.049 2464.53 640.822C2467.18 643.595 2468.5 647.563 2468.5 652.726C2468.5 657.846 2467.18 661.793 2464.53 664.566C2461.93 667.339 2458.5 668.726 2454.23 668.726C2449.96 668.726 2446.51 667.339 2443.86 664.566C2441.26 661.793 2439.96 657.846 2439.96 652.726C2439.96 647.563 2441.26 643.595 2443.86 640.822C2446.51 638.049 2449.96 636.662 2454.23 636.662ZM2463.38 652.726C2463.38 649.057 2462.61 646.198 2461.08 644.15C2459.54 642.059 2457.28 641.014 2454.29 641.014C2451.35 641.014 2449.09 642.059 2447.51 644.15C2445.93 646.198 2445.14 649.057 2445.14 652.726C2445.14 656.353 2445.89 659.211 2447.38 661.302C2448.88 663.35 2451.09 664.374 2454.04 664.374C2457.02 664.374 2459.33 663.35 2460.95 661.302C2462.57 659.211 2463.38 656.353 2463.38 652.726ZM2482.9 642.102C2484.9 638.475 2487.89 636.662 2491.86 636.662C2495.87 636.662 2499.19 638.134 2501.84 641.078C2504.53 644.022 2505.87 647.905 2505.87 652.726C2505.87 657.547 2504.53 661.43 2501.84 664.374C2499.15 667.275 2495.84 668.726 2491.92 668.726C2487.99 668.726 2485.09 667.254 2483.22 664.31V683.062H2478.16V637.43H2482.32L2482.9 642.102ZM2491.66 664.246C2494.05 664.246 2496.14 663.222 2497.94 661.174C2499.77 659.126 2500.69 656.331 2500.69 652.79C2500.69 649.206 2499.81 646.369 2498.06 644.278C2496.36 642.187 2494.27 641.142 2491.79 641.142C2489.32 641.142 2487.29 641.931 2485.71 643.51C2484.13 645.046 2483.3 647.137 2483.22 649.782V655.606C2483.22 658.294 2484.03 660.406 2485.65 661.942C2487.27 663.478 2489.27 664.246 2491.66 664.246Z" fill="black"/>
<path d="M3146.34 1145.48V1172.23H3153.32V1176.58H3146.34V1186.31H3141.41V1176.58H3120.61V1172.68L3141.67 1145.48H3146.34ZM3126.63 1172.68H3141.54V1153.48L3126.63 1172.68ZM3160.33 1186.88C3159.26 1186.88 3158.37 1186.54 3157.64 1185.86C3156.96 1185.13 3156.62 1184.28 3156.62 1183.3C3156.62 1182.28 3156.96 1181.42 3157.64 1180.74C3158.37 1180.01 3159.26 1179.65 3160.33 1179.65C3161.44 1179.65 3162.36 1180.01 3163.08 1180.74C3163.81 1181.42 3164.17 1182.28 3164.17 1183.3C3164.17 1184.28 3163.81 1185.13 3163.08 1185.86C3162.36 1186.54 3161.44 1186.88 3160.33 1186.88ZM3181.77 1146.05H3213.06V1150.4H3199.94V1186.31H3194.89V1150.4H3181.77V1146.05ZM3225.66 1182.92C3229.88 1182.92 3232.29 1181.06 3232.89 1177.35H3238.07C3237.61 1180.42 3236.24 1182.81 3233.98 1184.52C3231.76 1186.18 3228.99 1187.01 3225.66 1187.01C3221.56 1187.01 3218.23 1185.56 3215.67 1182.66C3213.11 1179.72 3211.83 1175.81 3211.83 1170.95C3211.83 1166.08 3213.11 1162.2 3215.67 1159.3C3218.28 1156.4 3221.71 1154.95 3225.98 1154.95C3230.29 1154.95 3233.49 1156.61 3235.58 1159.94C3237.71 1163.27 3238.46 1167.32 3237.82 1172.1H3216.89C3216.89 1175.26 3217.66 1177.86 3219.19 1179.91C3220.73 1181.91 3222.89 1182.92 3225.66 1182.92ZM3229.37 1159.75C3228.39 1159.24 3227.19 1158.98 3225.79 1158.98C3223.18 1158.98 3221.11 1159.88 3219.58 1161.67C3218.09 1163.42 3217.21 1165.61 3216.95 1168.26H3233.27C3233.27 1163.99 3231.97 1161.16 3229.37 1159.75ZM3246.44 1163.2C3246.44 1160.69 3247.5 1158.68 3249.64 1157.19C3251.81 1155.69 3254.73 1154.95 3258.4 1154.95C3262.07 1154.95 3264.93 1155.72 3266.98 1157.25C3269.07 1158.79 3270.16 1160.73 3270.24 1163.08H3265.32C3264.93 1160.3 3262.59 1158.92 3258.28 1158.92C3256.19 1158.92 3254.56 1159.38 3253.41 1160.32C3252.3 1161.26 3251.75 1162.29 3251.75 1163.4C3251.75 1164.46 3252.17 1165.38 3253.03 1166.15C3253.88 1166.87 3255.25 1167.51 3257.12 1168.07L3263.27 1170.12C3265.87 1170.93 3267.85 1171.97 3269.22 1173.25C3270.63 1174.49 3271.33 1176.22 3271.33 1178.44C3271.33 1180.61 3270.2 1182.6 3267.94 1184.39C3265.68 1186.14 3262.52 1187.01 3258.47 1187.01C3254.41 1187.01 3251.26 1186.12 3249 1184.32C3246.73 1182.49 3245.54 1180.14 3245.41 1177.28H3250.28C3250.36 1179.2 3251.13 1180.65 3252.58 1181.64C3254.07 1182.57 3255.93 1183.04 3258.15 1183.04C3260.37 1183.04 3262.2 1182.57 3263.65 1181.64C3265.1 1180.7 3265.83 1179.59 3265.83 1178.31C3265.83 1176.98 3265.4 1175.98 3264.55 1175.3C3263.69 1174.62 3262.31 1174.02 3260.39 1173.51L3254.44 1171.52C3249.1 1169.94 3246.44 1167.17 3246.44 1163.2ZM3297.72 1185.41C3294.05 1187.12 3290.71 1187.48 3287.68 1186.5C3285.5 1185.82 3283.96 1184.39 3283.07 1182.21C3282.6 1181.14 3282.36 1179.86 3282.36 1178.37V1159.56H3277.44V1155.72H3282.36V1147.2H3287.36V1155.72H3296.96V1159.56H3287.36V1178.31C3287.36 1181.42 3288.81 1182.98 3291.71 1182.98C3293.29 1182.98 3295.06 1182.6 3297.02 1181.83L3297.72 1185.41Z" fill="black"/>
<path d="M3965.83 675.966C3965.83 670.889 3962.52 668.35 3955.91 668.35H3945.09L3946.82 648.766H3969.15V653.374H3951.68L3950.59 664.958C3952.81 664.574 3954.92 664.382 3956.93 664.382C3961.32 664.382 3964.78 665.363 3967.3 667.326C3969.82 669.246 3971.07 672.169 3971.07 676.094C3971.07 680.019 3969.75 683.283 3967.11 685.886C3964.46 688.446 3961.05 689.726 3956.87 689.726C3952.68 689.726 3949.27 688.681 3946.63 686.59C3943.98 684.457 3942.66 681.534 3942.66 677.822H3947.71C3947.71 681.321 3949.51 683.603 3953.09 684.67C3954.2 684.969 3955.42 685.118 3956.74 685.118C3959.47 685.118 3961.67 684.265 3963.33 682.558C3964.99 680.809 3965.83 678.611 3965.83 675.966ZM3980.32 689.598C3979.25 689.598 3978.35 689.257 3977.63 688.574C3976.95 687.849 3976.61 686.995 3976.61 686.014C3976.61 684.99 3976.95 684.137 3977.63 683.454C3978.35 682.729 3979.25 682.366 3980.32 682.366C3981.43 682.366 3982.34 682.729 3983.07 683.454C3983.79 684.137 3984.16 684.99 3984.16 686.014C3984.16 686.995 3983.79 687.849 3983.07 688.574C3982.34 689.257 3981.43 689.598 3980.32 689.598ZM4019.61 648.766C4025.67 648.766 4030.51 650.601 4034.14 654.27C4037.81 657.897 4039.65 662.782 4039.65 668.926C4039.65 675.027 4037.81 679.913 4034.14 683.582C4030.51 687.209 4025.67 689.022 4019.61 689.022H4007.77V648.766H4019.61ZM4012.83 684.606H4019.61C4024.09 684.606 4027.66 683.134 4030.3 680.19C4032.95 677.203 4034.27 673.427 4034.27 668.862C4034.27 664.297 4032.93 660.563 4030.24 657.662C4027.59 654.718 4024.05 653.246 4019.61 653.246H4012.83V684.606ZM4060.71 685.63C4064.93 685.63 4067.34 683.774 4067.94 680.062H4073.13C4072.66 683.134 4071.29 685.523 4069.03 687.23C4066.81 688.894 4064.04 689.726 4060.71 689.726C4056.61 689.726 4053.29 688.275 4050.73 685.374C4048.17 682.43 4046.89 678.526 4046.89 673.662C4046.89 668.798 4048.17 664.915 4050.73 662.014C4053.33 659.113 4056.76 657.662 4061.03 657.662C4065.34 657.662 4068.54 659.326 4070.63 662.654C4072.76 665.982 4073.51 670.035 4072.87 674.814H4051.94C4051.94 677.971 4052.71 680.574 4054.25 682.622C4055.78 684.627 4057.94 685.63 4060.71 685.63ZM4064.42 662.462C4063.44 661.95 4062.25 661.694 4060.84 661.694C4058.23 661.694 4056.17 662.59 4054.63 664.382C4053.14 666.131 4052.26 668.329 4052.01 670.974H4068.33C4068.33 666.707 4067.02 663.87 4064.42 662.462ZM4083.09 645.438H4088.14V689.022H4083.09V645.438ZM4101.34 658.366H4106.4V689.022H4101.34V658.366ZM4103.84 651.198C4102.82 651.198 4102.01 650.921 4101.41 650.366C4100.85 649.769 4100.58 649.001 4100.58 648.062C4100.58 647.081 4100.85 646.313 4101.41 645.758C4102.01 645.161 4102.82 644.862 4103.84 644.862C4104.86 644.862 4105.68 645.161 4106.27 645.758C4106.91 646.313 4107.23 647.081 4107.23 648.062C4107.23 649.001 4106.91 649.769 4106.27 650.366C4105.68 650.921 4104.86 651.198 4103.84 651.198ZM4120.53 658.43L4129.75 683.71L4139.03 658.43H4144.73L4132.57 689.022H4127L4114.84 658.43H4120.53ZM4162.9 685.63C4167.12 685.63 4169.53 683.774 4170.13 680.062H4175.31C4174.84 683.134 4173.48 685.523 4171.22 687.23C4169 688.894 4166.23 689.726 4162.9 689.726C4158.8 689.726 4155.47 688.275 4152.91 685.374C4150.35 682.43 4149.07 678.526 4149.07 673.662C4149.07 668.798 4150.35 664.915 4152.91 662.014C4155.52 659.113 4158.95 657.662 4163.22 657.662C4167.53 657.662 4170.73 659.326 4172.82 662.654C4174.95 665.982 4175.7 670.035 4175.06 674.814H4154.13C4154.13 677.971 4154.9 680.574 4156.43 682.622C4157.97 684.627 4160.12 685.63 4162.9 685.63ZM4166.61 662.462C4165.63 661.95 4164.43 661.694 4163.03 661.694C4160.42 661.694 4158.35 662.59 4156.82 664.382C4155.32 666.131 4154.45 668.329 4154.19 670.974H4170.51C4170.51 666.707 4169.21 663.87 4166.61 662.462ZM4197.75 662.718C4192.93 662.718 4190.44 666.515 4190.27 674.11V689.022H4185.21V658.366H4190.27V664.254C4191.8 659.987 4194.51 657.854 4198.39 657.854C4199.63 657.854 4200.81 658.046 4201.91 658.43L4201.66 663.358C4200.38 662.931 4199.08 662.718 4197.75 662.718Z" fill="black"/>
<path d="M4071.4 182.572V90.1533L3997.06 136.363L4071.4 182.572Z" fill="#8EA7A4" stroke="black"/>
<path d="M4730.4 960.441L4764.64 1046.28L4816.57 975.822L4730.4 960.441Z" fill="#8EA7A4" stroke="black"/>
<path d="M1049.23 770.62L972.814 822.605L1052.83 858.074L1049.23 770.62Z" fill="#8EA7A4" stroke="black"/>
<path d="M162.016 914.361L238.129 966.784L242.238 879.351L162.016 914.361Z" fill="#8EA7A4" stroke="black"/>
<path d="M1874.75 961.323L1943.2 1023.42L1958.92 937.313L1874.75 961.323Z" fill="#8EA7A4" stroke="black"/>
<path d="M2772.55 793.407L2695.29 844.119L2774.71 880.909L2772.55 793.407Z" fill="#8EA7A4" stroke="black"/>
<path d="M3597.38 970.097L3676.78 1017.4L3675.12 929.883L3597.38 970.097Z" fill="#8EA7A4" stroke="black"/>
</g>
<defs>
<filter id="filter0_d" x="442.441" y="493.898" width="430" height="430" filterUnits="userSpaceOnUse" color-interpolation-filters="sRGB">
<feFlood flood-opacity="0" result="BackgroundImageFix"/>
<feColorMatrix in="SourceAlpha" type="matrix" values="0 0 0 0 0 0 0 0 0 0 0 0 0 0 0 0 0 0 127 0" result="hardAlpha"/>
<feMorphology radius="5" operator="dilate" in="SourceAlpha" result="effect1_dropShadow"/>
<feOffset dx="5" dy="5"/>
<feGaussianBlur stdDeviation="5"/>
<feComposite in2="hardAlpha" operator="out"/>
<feColorMatrix type="matrix" values="0 0 0 0 0.576471 0 0 0 0 0.439216 0 0 0 0 0.54902 0 0 0 0.3 0"/>
<feBlend mode="normal" in2="BackgroundImageFix" result="effect1_dropShadow"/>
<feBlend mode="normal" in="SourceGraphic" in2="effect1_dropShadow" result="shape"/>
</filter>
<filter id="filter1_d" x="1251.44" y="909.847" width="530" height="530" filterUnits="userSpaceOnUse" color-interpolation-filters="sRGB">
<feFlood flood-opacity="0" result="BackgroundImageFix"/>
<feColorMatrix in="SourceAlpha" type="matrix" values="0 0 0 0 0 0 0 0 0 0 0 0 0 0 0 0 0 0 127 0" result="hardAlpha"/>
<feMorphology radius="5" operator="dilate" in="SourceAlpha" result="effect1_dropShadow"/>
<feOffset dx="5" dy="5"/>
<feGaussianBlur stdDeviation="5"/>
<feComposite in2="hardAlpha" operator="out"/>
<feColorMatrix type="matrix" values="0 0 0 0 0.576471 0 0 0 0 0.439216 0 0 0 0 0.54902 0 0 0 0.3 0"/>
<feBlend mode="normal" in2="BackgroundImageFix" result="effect1_dropShadow"/>
<feBlend mode="normal" in="SourceGraphic" in2="effect1_dropShadow" result="shape"/>
</filter>
<clipPath id="clip0">
<rect width="5109" height="1430" fill="white"/>
</clipPath>
</defs>
</svg>
