<svg width="5255" height="1652" viewBox="0 0 5255 1652" fill="none" xmlns="http://www.w3.org/2000/svg">
<path d="M341.385 1016.17C341.385 1016.17 770.959 440.884 1227.62 1016.17C1684.28 1591.45 2098.92 1016.17 2098.92 1016.17C2425.74 630.391 2581.85 665.02 2957.96 1036.49C3272.11 1381.17 3549.95 1334.78 3878.3 943.864C4164.09 624.058 4511.19 846.273 4739.59 1053.36C4967.99 1260.44 5499.52 603.511 4896.54 509.761C4293.56 416.011 4409.55 189.615 4180.82 222.233" stroke="#92708C" stroke-width="5"/>
<circle cx="776.171" cy="796.101" r="254.001" fill="#E9E2E8"/>
<circle cx="1628.17" cy="1271.85" r="254.001" fill="#E9E2E8"/>
<circle cx="2480.17" cy="753.561" r="254.001" fill="#E9E2E8"/>
<circle cx="3332.18" cy="1257.23" r="254.001" fill="#E9E2E8"/>
<circle cx="4187.23" cy="753.561" r="254.001" fill="#E9E2E8"/>
<path d="M649.307 817.601H643.494V779.07L631.838 783.351V778.101L648.4 771.882H649.307V817.601ZM666.963 814.57C666.963 813.57 667.254 812.736 667.838 812.07C668.442 811.403 669.338 811.07 670.525 811.07C671.713 811.07 672.609 811.403 673.213 812.07C673.838 812.736 674.15 813.57 674.15 814.57C674.15 815.528 673.838 816.33 673.213 816.976C672.609 817.622 671.713 817.945 670.525 817.945C669.338 817.945 668.442 817.622 667.838 816.976C667.254 816.33 666.963 815.528 666.963 814.57ZM705.952 817.601V772.101H718.796C722.754 772.101 726.254 772.976 729.296 774.726C732.338 776.476 734.681 778.966 736.327 782.195C737.994 785.424 738.838 789.132 738.858 793.32V796.226C738.858 800.518 738.025 804.278 736.358 807.507C734.713 810.736 732.348 813.216 729.265 814.945C726.202 816.674 722.629 817.559 718.546 817.601H705.952ZM711.952 777.038V812.695H718.265C722.89 812.695 726.483 811.257 729.046 808.382C731.629 805.507 732.921 801.413 732.921 796.101V793.445C732.921 788.278 731.702 784.268 729.265 781.413C726.848 778.538 723.41 777.08 718.952 777.038H711.952ZM753.327 817.601H747.546V783.788H753.327V817.601ZM747.077 774.82C747.077 773.882 747.358 773.091 747.921 772.445C748.504 771.799 749.358 771.476 750.483 771.476C751.608 771.476 752.463 771.799 753.046 772.445C753.629 773.091 753.921 773.882 753.921 774.82C753.921 775.757 753.629 776.538 753.046 777.163C752.463 777.788 751.608 778.101 750.483 778.101C749.358 778.101 748.504 777.788 747.921 777.163C747.358 776.538 747.077 775.757 747.077 774.82ZM782.296 808.632C782.296 807.07 781.702 805.861 780.515 805.007C779.348 804.132 777.296 803.382 774.358 802.757C771.442 802.132 769.119 801.382 767.39 800.507C765.681 799.632 764.41 798.591 763.577 797.382C762.765 796.174 762.358 794.736 762.358 793.07C762.358 790.299 763.525 787.955 765.858 786.038C768.213 784.122 771.213 783.163 774.858 783.163C778.692 783.163 781.796 784.153 784.171 786.132C786.567 788.111 787.765 790.643 787.765 793.726H781.952C781.952 792.143 781.275 790.778 779.921 789.632C778.588 788.486 776.9 787.913 774.858 787.913C772.754 787.913 771.108 788.372 769.921 789.288C768.733 790.205 768.14 791.403 768.14 792.882C768.14 794.278 768.692 795.33 769.796 796.038C770.9 796.747 772.89 797.424 775.765 798.07C778.66 798.716 781.004 799.486 782.796 800.382C784.588 801.278 785.91 802.361 786.765 803.632C787.64 804.882 788.077 806.413 788.077 808.226C788.077 811.247 786.869 813.674 784.452 815.507C782.035 817.32 778.9 818.226 775.046 818.226C772.338 818.226 769.942 817.747 767.858 816.788C765.775 815.83 764.14 814.497 762.952 812.788C761.785 811.059 761.202 809.195 761.202 807.195H766.983C767.088 809.132 767.858 810.674 769.296 811.82C770.754 812.945 772.671 813.507 775.046 813.507C777.233 813.507 778.983 813.07 780.296 812.195C781.629 811.299 782.296 810.111 782.296 808.632ZM809.171 813.507C811.233 813.507 813.035 812.882 814.577 811.632C816.119 810.382 816.973 808.82 817.14 806.945H822.608C822.504 808.882 821.838 810.726 820.608 812.476C819.379 814.226 817.733 815.622 815.671 816.663C813.629 817.705 811.463 818.226 809.171 818.226C804.567 818.226 800.9 816.695 798.171 813.632C795.463 810.549 794.108 806.341 794.108 801.007V800.038C794.108 796.747 794.713 793.82 795.921 791.257C797.129 788.695 798.858 786.705 801.108 785.288C803.379 783.872 806.056 783.163 809.14 783.163C812.931 783.163 816.077 784.299 818.577 786.57C821.098 788.841 822.442 791.788 822.608 795.413H817.14C816.973 793.226 816.14 791.434 814.64 790.038C813.16 788.622 811.327 787.913 809.14 787.913C806.202 787.913 803.921 788.976 802.296 791.101C800.692 793.205 799.89 796.257 799.89 800.257V801.351C799.89 805.247 800.692 808.247 802.296 810.351C803.9 812.455 806.192 813.507 809.171 813.507ZM827.577 800.382C827.577 797.07 828.223 794.091 829.515 791.445C830.827 788.799 832.64 786.757 834.952 785.32C837.285 783.882 839.942 783.163 842.921 783.163C847.525 783.163 851.244 784.757 854.077 787.945C856.931 791.132 858.358 795.372 858.358 800.663V801.07C858.358 804.361 857.723 807.32 856.452 809.945C855.202 812.549 853.4 814.58 851.046 816.038C848.713 817.497 846.025 818.226 842.983 818.226C838.4 818.226 834.681 816.632 831.827 813.445C828.994 810.257 827.577 806.038 827.577 800.788V800.382ZM833.39 801.07C833.39 804.82 834.254 807.83 835.983 810.101C837.733 812.372 840.067 813.507 842.983 813.507C845.921 813.507 848.254 812.361 849.983 810.07C851.713 807.757 852.577 804.528 852.577 800.382C852.577 796.674 851.692 793.674 849.921 791.382C848.171 789.07 845.838 787.913 842.921 787.913C840.067 787.913 837.765 789.049 836.015 791.32C834.265 793.591 833.39 796.841 833.39 801.07ZM876.265 809.757L884.64 783.788H890.546L878.421 817.601H874.015L861.765 783.788H867.671L876.265 809.757ZM909.702 818.226C905.119 818.226 901.39 816.726 898.515 813.726C895.64 810.705 894.202 806.674 894.202 801.632V800.57C894.202 797.216 894.838 794.226 896.108 791.601C897.4 788.955 899.192 786.893 901.483 785.413C903.796 783.913 906.296 783.163 908.983 783.163C913.379 783.163 916.796 784.611 919.233 787.507C921.671 790.403 922.89 794.549 922.89 799.945V802.351H899.983C900.067 805.684 901.035 808.382 902.89 810.445C904.765 812.486 907.14 813.507 910.015 813.507C912.056 813.507 913.785 813.091 915.202 812.257C916.619 811.424 917.858 810.32 918.921 808.945L922.452 811.695C919.619 816.049 915.369 818.226 909.702 818.226ZM908.983 787.913C906.65 787.913 904.692 788.768 903.108 790.476C901.525 792.163 900.546 794.538 900.171 797.601H917.108V797.163C916.942 794.226 916.15 791.955 914.733 790.351C913.317 788.726 911.4 787.913 908.983 787.913ZM945.952 788.976C945.077 788.83 944.129 788.757 943.108 788.757C939.317 788.757 936.744 790.372 935.39 793.601V817.601H929.608V783.788H935.233L935.327 787.695C937.223 784.674 939.91 783.163 943.39 783.163C944.515 783.163 945.369 783.309 945.952 783.601V788.976Z" fill="black"/>
<path d="M1536.77 1293.35H1506.95V1289.19L1522.7 1271.69C1525.04 1269.04 1526.64 1266.9 1527.52 1265.25C1528.41 1263.59 1528.86 1261.87 1528.86 1260.1C1528.86 1257.72 1528.14 1255.77 1526.7 1254.25C1525.27 1252.73 1523.35 1251.97 1520.95 1251.97C1518.08 1251.97 1515.84 1252.79 1514.24 1254.44C1512.65 1256.07 1511.86 1258.34 1511.86 1261.25H1506.08C1506.08 1257.07 1507.42 1253.68 1510.11 1251.1C1512.82 1248.51 1516.43 1247.22 1520.95 1247.22C1525.18 1247.22 1528.53 1248.34 1530.99 1250.57C1533.44 1252.77 1534.67 1255.72 1534.67 1259.41C1534.67 1263.89 1531.82 1269.22 1526.11 1275.41L1513.92 1288.63H1536.77V1293.35ZM1543.61 1290.32C1543.61 1289.32 1543.9 1288.48 1544.49 1287.82C1545.09 1287.15 1545.99 1286.82 1547.17 1286.82C1548.36 1286.82 1549.26 1287.15 1549.86 1287.82C1550.49 1288.48 1550.8 1289.32 1550.8 1290.32C1550.8 1291.27 1550.49 1292.08 1549.86 1292.72C1549.26 1293.37 1548.36 1293.69 1547.17 1293.69C1545.99 1293.69 1545.09 1293.37 1544.49 1292.72C1543.9 1292.08 1543.61 1291.27 1543.61 1290.32ZM1577.14 1293.35V1247.85H1589.99C1593.94 1247.85 1597.44 1248.72 1600.49 1250.47C1603.53 1252.22 1605.87 1254.71 1607.52 1257.94C1609.18 1261.17 1610.03 1264.88 1610.05 1269.07V1271.97C1610.05 1276.26 1609.21 1280.02 1607.55 1283.25C1605.9 1286.48 1603.54 1288.96 1600.45 1290.69C1597.39 1292.42 1593.82 1293.3 1589.74 1293.35H1577.14ZM1583.14 1252.78V1288.44H1589.45C1594.08 1288.44 1597.67 1287 1600.24 1284.13C1602.82 1281.25 1604.11 1277.16 1604.11 1271.85V1269.19C1604.11 1264.02 1602.89 1260.01 1600.45 1257.16C1598.04 1254.28 1594.6 1252.83 1590.14 1252.78H1583.14ZM1632.27 1293.97C1627.68 1293.97 1623.95 1292.47 1621.08 1289.47C1618.2 1286.45 1616.77 1282.42 1616.77 1277.38V1276.32C1616.77 1272.96 1617.4 1269.97 1618.67 1267.35C1619.96 1264.7 1621.76 1262.64 1624.05 1261.16C1626.36 1259.66 1628.86 1258.91 1631.55 1258.91C1635.94 1258.91 1639.36 1260.36 1641.8 1263.25C1644.24 1266.15 1645.45 1270.29 1645.45 1275.69V1278.1H1622.55C1622.63 1281.43 1623.6 1284.13 1625.45 1286.19C1627.33 1288.23 1629.7 1289.25 1632.58 1289.25C1634.62 1289.25 1636.35 1288.84 1637.77 1288C1639.18 1287.17 1640.42 1286.07 1641.49 1284.69L1645.02 1287.44C1642.18 1291.79 1637.93 1293.97 1632.27 1293.97ZM1631.55 1263.66C1629.21 1263.66 1627.26 1264.51 1625.67 1266.22C1624.09 1267.91 1623.11 1270.28 1622.74 1273.35H1639.67V1272.91C1639.51 1269.97 1638.71 1267.7 1637.3 1266.1C1635.88 1264.47 1633.96 1263.66 1631.55 1263.66ZM1654.11 1293.35V1264H1648.77V1259.53H1654.11V1256.66C1654.11 1252.89 1655.18 1249.95 1657.33 1247.85C1659.5 1245.74 1662.55 1244.69 1666.49 1244.69C1668.82 1244.69 1671.77 1245.33 1675.33 1246.6L1674.36 1251.47C1671.76 1250.43 1669.28 1249.91 1666.92 1249.91C1664.44 1249.91 1662.65 1250.47 1661.55 1251.6C1660.46 1252.7 1659.92 1254.37 1659.92 1256.6V1259.53H1666.83V1264H1659.92V1293.35H1654.11ZM1678.2 1293.35H1672.39V1259.53H1678.2V1293.35ZM1693.08 1259.53L1693.27 1263.78C1695.85 1260.53 1699.22 1258.91 1703.39 1258.91C1710.54 1258.91 1714.14 1262.94 1714.2 1271V1293.35H1708.42V1270.97C1708.4 1268.53 1707.84 1266.73 1706.74 1265.57C1705.65 1264.4 1703.95 1263.82 1701.64 1263.82C1699.77 1263.82 1698.12 1264.32 1696.7 1265.32C1695.29 1266.32 1694.18 1267.63 1693.39 1269.25V1293.35H1687.61V1259.53H1693.08ZM1736.95 1293.97C1732.37 1293.97 1728.64 1292.47 1725.77 1289.47C1722.89 1286.45 1721.45 1282.42 1721.45 1277.38V1276.32C1721.45 1272.96 1722.09 1269.97 1723.36 1267.35C1724.65 1264.7 1726.44 1262.64 1728.74 1261.16C1731.05 1259.66 1733.55 1258.91 1736.24 1258.91C1740.63 1258.91 1744.05 1260.36 1746.49 1263.25C1748.92 1266.15 1750.14 1270.29 1750.14 1275.69V1278.1H1727.24C1727.32 1281.43 1728.29 1284.13 1730.14 1286.19C1732.02 1288.23 1734.39 1289.25 1737.27 1289.25C1739.31 1289.25 1741.04 1288.84 1742.45 1288C1743.87 1287.17 1745.11 1286.07 1746.17 1284.69L1749.7 1287.44C1746.87 1291.79 1742.62 1293.97 1736.95 1293.97ZM1736.24 1263.66C1733.9 1263.66 1731.94 1264.51 1730.36 1266.22C1728.78 1267.91 1727.8 1270.28 1727.42 1273.35H1744.36V1272.91C1744.19 1269.97 1743.4 1267.7 1741.99 1266.1C1740.57 1264.47 1738.65 1263.66 1736.24 1263.66Z" fill="black"/>
<path d="M2343.86 741.384H2348.21C2350.94 741.342 2353.08 740.624 2354.64 739.228C2356.21 737.832 2356.99 735.947 2356.99 733.572C2356.99 728.238 2354.33 725.572 2349.02 725.572C2346.52 725.572 2344.52 726.29 2343.02 727.728C2341.54 729.145 2340.8 731.03 2340.8 733.384H2335.02C2335.02 729.78 2336.33 726.79 2338.96 724.415C2341.6 722.02 2344.96 720.822 2349.02 720.822C2353.31 720.822 2356.67 721.957 2359.11 724.228C2361.55 726.499 2362.77 729.655 2362.77 733.697C2362.77 735.676 2362.12 737.592 2360.83 739.447C2359.56 741.301 2357.82 742.686 2355.61 743.603C2358.11 744.395 2360.04 745.707 2361.39 747.54C2362.77 749.374 2363.46 751.613 2363.46 754.259C2363.46 758.342 2362.12 761.582 2359.46 763.978C2356.79 766.374 2353.32 767.572 2349.05 767.572C2344.78 767.572 2341.3 766.415 2338.61 764.103C2335.95 761.79 2334.61 758.738 2334.61 754.947H2340.42C2340.42 757.342 2341.21 759.259 2342.77 760.697C2344.33 762.134 2346.42 762.853 2349.05 762.853C2351.84 762.853 2353.98 762.124 2355.46 760.665C2356.94 759.207 2357.67 757.113 2357.67 754.384C2357.67 751.738 2356.86 749.707 2355.24 748.29C2353.61 746.874 2351.27 746.145 2348.21 746.103H2343.86V741.384ZM2372.11 763.915C2372.11 762.915 2372.4 762.082 2372.99 761.415C2373.59 760.749 2374.49 760.415 2375.67 760.415C2376.86 760.415 2377.76 760.749 2378.36 761.415C2378.99 762.082 2379.3 762.915 2379.3 763.915C2379.3 764.874 2378.99 765.676 2378.36 766.322C2377.76 766.967 2376.86 767.29 2375.67 767.29C2374.49 767.29 2373.59 766.967 2372.99 766.322C2372.4 765.676 2372.11 764.874 2372.11 763.915ZM2405.64 766.947V721.447H2418.49C2422.45 721.447 2425.95 722.322 2428.99 724.072C2432.03 725.822 2434.37 728.311 2436.02 731.54C2437.69 734.77 2438.53 738.478 2438.55 742.665V745.572C2438.55 749.863 2437.72 753.624 2436.05 756.853C2434.4 760.082 2432.04 762.561 2428.96 764.29C2425.89 766.02 2422.32 766.905 2418.24 766.947H2405.64ZM2411.64 726.384V762.04H2417.96C2422.58 762.04 2426.17 760.603 2428.74 757.728C2431.32 754.853 2432.61 750.759 2432.61 745.447V742.79C2432.61 737.624 2431.39 733.613 2428.96 730.759C2426.54 727.884 2423.1 726.426 2418.64 726.384H2411.64ZM2460.77 767.572C2456.19 767.572 2452.46 766.072 2449.58 763.072C2446.71 760.051 2445.27 756.02 2445.27 750.978V749.915C2445.27 746.561 2445.9 743.572 2447.17 740.947C2448.47 738.301 2450.26 736.238 2452.55 734.759C2454.86 733.259 2457.36 732.509 2460.05 732.509C2464.45 732.509 2467.86 733.957 2470.3 736.853C2472.74 739.749 2473.96 743.895 2473.96 749.29V751.697H2451.05C2451.13 755.03 2452.1 757.728 2453.96 759.79C2455.83 761.832 2458.21 762.853 2461.08 762.853C2463.12 762.853 2464.85 762.436 2466.27 761.603C2467.69 760.77 2468.92 759.665 2469.99 758.29L2473.52 761.04C2470.69 765.395 2466.44 767.572 2460.77 767.572ZM2460.05 737.259C2457.72 737.259 2455.76 738.113 2454.17 739.822C2452.59 741.509 2451.61 743.884 2451.24 746.947H2468.17V746.509C2468.01 743.572 2467.22 741.301 2465.8 739.697C2464.38 738.072 2462.47 737.259 2460.05 737.259ZM2491.39 759.103L2499.77 733.134H2505.67L2493.55 766.947H2489.14L2476.89 733.134H2482.8L2491.39 759.103ZM2524.83 767.572C2520.25 767.572 2516.52 766.072 2513.64 763.072C2510.77 760.051 2509.33 756.02 2509.33 750.978V749.915C2509.33 746.561 2509.97 743.572 2511.24 740.947C2512.53 738.301 2514.32 736.238 2516.61 734.759C2518.92 733.259 2521.42 732.509 2524.11 732.509C2528.51 732.509 2531.92 733.957 2534.36 736.853C2536.8 739.749 2538.02 743.895 2538.02 749.29V751.697H2515.11C2515.2 755.03 2516.16 757.728 2518.02 759.79C2519.89 761.832 2522.27 762.853 2525.14 762.853C2527.19 762.853 2528.91 762.436 2530.33 761.603C2531.75 760.77 2532.99 759.665 2534.05 758.29L2537.58 761.04C2534.75 765.395 2530.5 767.572 2524.83 767.572ZM2524.11 737.259C2521.78 737.259 2519.82 738.113 2518.24 739.822C2516.65 741.509 2515.67 743.884 2515.3 746.947H2532.24V746.509C2532.07 743.572 2531.28 741.301 2529.86 739.697C2528.45 738.072 2526.53 737.259 2524.11 737.259ZM2551.02 766.947H2545.24V718.947H2551.02V766.947ZM2558.77 749.728C2558.77 746.415 2559.41 743.436 2560.71 740.79C2562.02 738.145 2563.83 736.103 2566.14 734.665C2568.48 733.228 2571.13 732.509 2574.11 732.509C2578.72 732.509 2582.44 734.103 2585.27 737.29C2588.12 740.478 2589.55 744.717 2589.55 750.009V750.415C2589.55 753.707 2588.91 756.665 2587.64 759.29C2586.39 761.895 2584.59 763.926 2582.24 765.384C2579.9 766.842 2577.22 767.572 2574.17 767.572C2569.59 767.572 2565.87 765.978 2563.02 762.79C2560.19 759.603 2558.77 755.384 2558.77 750.134V749.728ZM2564.58 750.415C2564.58 754.165 2565.45 757.176 2567.17 759.447C2568.92 761.717 2571.26 762.853 2574.17 762.853C2577.11 762.853 2579.45 761.707 2581.17 759.415C2582.9 757.103 2583.77 753.874 2583.77 749.728C2583.77 746.02 2582.88 743.02 2581.11 740.728C2579.36 738.415 2577.03 737.259 2574.11 737.259C2571.26 737.259 2568.96 738.395 2567.21 740.665C2565.46 742.936 2564.58 746.186 2564.58 750.415ZM2625.36 750.415C2625.36 755.561 2624.19 759.707 2621.83 762.853C2619.48 765.999 2616.29 767.572 2612.27 767.572C2608.16 767.572 2604.94 766.27 2602.58 763.665V779.947H2596.8V733.134H2602.08L2602.36 736.884C2604.72 733.967 2607.99 732.509 2612.17 732.509C2616.24 732.509 2619.45 734.04 2621.8 737.103C2624.17 740.165 2625.36 744.426 2625.36 749.884V750.415ZM2619.58 749.759C2619.58 745.947 2618.77 742.936 2617.14 740.728C2615.52 738.52 2613.29 737.415 2610.46 737.415C2606.96 737.415 2604.33 738.967 2602.58 742.072V758.228C2604.31 761.311 2606.96 762.853 2610.52 762.853C2613.29 762.853 2615.49 761.759 2617.11 759.572C2618.76 757.363 2619.58 754.092 2619.58 749.759Z" fill="black"/>
<path d="M3264.86 1278.07H3271.18V1282.78H3264.86V1293.35H3259.05V1282.78H3238.33V1279.38L3258.71 1247.85H3264.86V1278.07ZM3244.89 1278.07H3259.05V1255.75L3258.36 1257L3244.89 1278.07ZM3277.11 1290.32C3277.11 1289.32 3277.4 1288.48 3277.99 1287.82C3278.59 1287.15 3279.49 1286.82 3280.68 1286.82C3281.86 1286.82 3282.76 1287.15 3283.36 1287.82C3283.99 1288.48 3284.3 1289.32 3284.3 1290.32C3284.3 1291.27 3283.99 1292.08 3283.36 1292.72C3282.76 1293.37 3281.86 1293.69 3280.68 1293.69C3279.49 1293.69 3278.59 1293.37 3277.99 1292.72C3277.4 1292.08 3277.11 1291.27 3277.11 1290.32ZM3340.83 1252.78H3326.21V1293.35H3320.24V1252.78H3305.64V1247.85H3340.83V1252.78ZM3357.58 1293.97C3353 1293.97 3349.27 1292.47 3346.39 1289.47C3343.52 1286.45 3342.08 1282.42 3342.08 1277.38V1276.32C3342.08 1272.96 3342.72 1269.97 3343.99 1267.35C3345.28 1264.7 3347.07 1262.64 3349.36 1261.16C3351.68 1259.66 3354.18 1258.91 3356.86 1258.91C3361.26 1258.91 3364.68 1260.36 3367.11 1263.25C3369.55 1266.15 3370.77 1270.29 3370.77 1275.69V1278.1H3347.86C3347.95 1281.43 3348.92 1284.13 3350.77 1286.19C3352.64 1288.23 3355.02 1289.25 3357.89 1289.25C3359.94 1289.25 3361.67 1288.84 3363.08 1288C3364.5 1287.17 3365.74 1286.07 3366.8 1284.69L3370.33 1287.44C3367.5 1291.79 3363.25 1293.97 3357.58 1293.97ZM3356.86 1263.66C3354.53 1263.66 3352.57 1264.51 3350.99 1266.22C3349.4 1267.91 3348.43 1270.28 3348.05 1273.35H3364.99V1272.91C3364.82 1269.97 3364.03 1267.7 3362.61 1266.1C3361.2 1264.47 3359.28 1263.66 3356.86 1263.66ZM3397.18 1284.38C3397.18 1282.82 3396.58 1281.61 3395.39 1280.75C3394.23 1279.88 3392.18 1279.13 3389.24 1278.5C3386.32 1277.88 3384 1277.13 3382.27 1276.25C3380.56 1275.38 3379.29 1274.34 3378.46 1273.13C3377.64 1271.92 3377.24 1270.48 3377.24 1268.82C3377.24 1266.04 3378.4 1263.7 3380.74 1261.78C3383.09 1259.87 3386.09 1258.91 3389.74 1258.91C3393.57 1258.91 3396.68 1259.9 3399.05 1261.88C3401.45 1263.86 3402.64 1266.39 3402.64 1269.47H3396.83C3396.83 1267.89 3396.15 1266.52 3394.8 1265.38C3393.47 1264.23 3391.78 1263.66 3389.74 1263.66C3387.63 1263.66 3385.99 1264.12 3384.8 1265.03C3383.61 1265.95 3383.02 1267.15 3383.02 1268.63C3383.02 1270.02 3383.57 1271.08 3384.68 1271.78C3385.78 1272.49 3387.77 1273.17 3390.64 1273.82C3393.54 1274.46 3395.88 1275.23 3397.68 1276.13C3399.47 1277.02 3400.79 1278.11 3401.64 1279.38C3402.52 1280.63 3402.96 1282.16 3402.96 1283.97C3402.96 1286.99 3401.75 1289.42 3399.33 1291.25C3396.92 1293.07 3393.78 1293.97 3389.93 1293.97C3387.22 1293.97 3384.82 1293.49 3382.74 1292.53C3380.65 1291.58 3379.02 1290.24 3377.83 1288.53C3376.67 1286.8 3376.08 1284.94 3376.08 1282.94H3381.86C3381.97 1284.88 3382.74 1286.42 3384.18 1287.57C3385.63 1288.69 3387.55 1289.25 3389.93 1289.25C3392.11 1289.25 3393.86 1288.82 3395.18 1287.94C3396.51 1287.04 3397.18 1285.86 3397.18 1284.38ZM3418.33 1251.35V1259.53H3424.64V1264H3418.33V1284.97C3418.33 1286.33 3418.61 1287.35 3419.18 1288.03C3419.74 1288.7 3420.7 1289.03 3422.05 1289.03C3422.72 1289.03 3423.63 1288.91 3424.8 1288.66V1293.35C3423.28 1293.76 3421.8 1293.97 3420.36 1293.97C3417.78 1293.97 3415.83 1293.19 3414.52 1291.63C3413.21 1290.07 3412.55 1287.85 3412.55 1284.97V1264H3406.39V1259.53H3412.55V1251.35H3418.33Z" fill="black"/>
<path d="M4062.67 752.249L4064.98 729.561H4088.29V734.905H4069.89L4068.51 747.311C4070.74 745.999 4073.27 745.343 4076.11 745.343C4080.25 745.343 4083.54 746.718 4085.98 749.468C4088.42 752.197 4089.64 755.895 4089.64 760.561C4089.64 765.249 4088.37 768.947 4085.82 771.655C4083.3 774.343 4079.77 775.686 4075.23 775.686C4071.21 775.686 4067.93 774.572 4065.39 772.343C4062.85 770.113 4061.4 767.03 4061.04 763.093H4066.51C4066.87 765.697 4067.79 767.666 4069.29 768.999C4070.79 770.311 4072.77 770.968 4075.23 770.968C4077.92 770.968 4080.02 770.051 4081.54 768.218C4083.08 766.384 4083.86 763.853 4083.86 760.624C4083.86 757.582 4083.02 755.145 4081.36 753.311C4079.71 751.457 4077.51 750.53 4074.76 750.53C4072.24 750.53 4070.26 751.082 4068.82 752.186L4067.29 753.436L4062.67 752.249ZM4096.67 772.03C4096.67 771.03 4096.96 770.197 4097.54 769.53C4098.15 768.863 4099.04 768.53 4100.23 768.53C4101.42 768.53 4102.31 768.863 4102.92 769.53C4103.54 770.197 4103.86 771.03 4103.86 772.03C4103.86 772.988 4103.54 773.791 4102.92 774.436C4102.31 775.082 4101.42 775.405 4100.23 775.405C4099.04 775.405 4098.15 775.082 4097.54 774.436C4096.96 773.791 4096.67 772.988 4096.67 772.03ZM4130.2 775.061V729.561H4143.04C4147 729.561 4150.5 730.436 4153.54 732.186C4156.58 733.936 4158.93 736.426 4160.57 739.655C4162.24 742.884 4163.08 746.593 4163.11 750.78V753.686C4163.11 757.978 4162.27 761.738 4160.61 764.968C4158.96 768.197 4156.6 770.676 4153.51 772.405C4150.45 774.134 4146.88 775.02 4142.79 775.061H4130.2ZM4136.2 734.499V770.155H4142.51C4147.14 770.155 4150.73 768.718 4153.29 765.843C4155.88 762.968 4157.17 758.874 4157.17 753.561V750.905C4157.17 745.738 4155.95 741.728 4153.51 738.874C4151.1 735.999 4147.66 734.541 4143.2 734.499H4136.2ZM4185.32 775.686C4180.74 775.686 4177.01 774.186 4174.14 771.186C4171.26 768.166 4169.82 764.134 4169.82 759.093V758.03C4169.82 754.676 4170.46 751.686 4171.73 749.061C4173.02 746.416 4174.81 744.353 4177.11 742.874C4179.42 741.374 4181.92 740.624 4184.61 740.624C4189 740.624 4192.42 742.072 4194.86 744.968C4197.29 747.863 4198.51 752.009 4198.51 757.405V759.811H4175.61C4175.69 763.145 4176.66 765.843 4178.51 767.905C4180.39 769.947 4182.76 770.968 4185.64 770.968C4187.68 770.968 4189.41 770.551 4190.82 769.718C4192.24 768.884 4193.48 767.78 4194.54 766.405L4198.07 769.155C4195.24 773.509 4190.99 775.686 4185.32 775.686ZM4184.61 745.374C4182.27 745.374 4180.31 746.228 4178.73 747.936C4177.15 749.624 4176.17 751.999 4175.79 755.061H4192.73V754.624C4192.56 751.686 4191.77 749.416 4190.36 747.811C4188.94 746.186 4187.02 745.374 4184.61 745.374ZM4211.51 775.061H4205.73V727.061H4211.51V775.061ZM4227.07 775.061H4221.29V741.249H4227.07V775.061ZM4220.82 732.28C4220.82 731.343 4221.11 730.551 4221.67 729.905C4222.25 729.259 4223.11 728.936 4224.23 728.936C4225.36 728.936 4226.21 729.259 4226.79 729.905C4227.38 730.551 4227.67 731.343 4227.67 732.28C4227.67 733.218 4227.38 733.999 4226.79 734.624C4226.21 735.249 4225.36 735.561 4224.23 735.561C4223.11 735.561 4222.25 735.249 4221.67 734.624C4221.11 733.999 4220.82 733.218 4220.82 732.28ZM4247.51 767.218L4255.89 741.249H4261.79L4249.67 775.061H4245.26L4233.01 741.249H4238.92L4247.51 767.218ZM4280.95 775.686C4276.37 775.686 4272.64 774.186 4269.76 771.186C4266.89 768.166 4265.45 764.134 4265.45 759.093V758.03C4265.45 754.676 4266.08 751.686 4267.36 749.061C4268.65 746.416 4270.44 744.353 4272.73 742.874C4275.04 741.374 4277.54 740.624 4280.23 740.624C4284.63 740.624 4288.04 742.072 4290.48 744.968C4292.92 747.863 4294.14 752.009 4294.14 757.405V759.811H4271.23C4271.31 763.145 4272.28 765.843 4274.14 767.905C4276.01 769.947 4278.39 770.968 4281.26 770.968C4283.3 770.968 4285.03 770.551 4286.45 769.718C4287.87 768.884 4289.11 767.78 4290.17 766.405L4293.7 769.155C4290.87 773.509 4286.62 775.686 4280.95 775.686ZM4280.23 745.374C4277.9 745.374 4275.94 746.228 4274.36 747.936C4272.77 749.624 4271.79 751.999 4271.42 755.061H4288.36V754.624C4288.19 751.686 4287.4 749.416 4285.98 747.811C4284.56 746.186 4282.65 745.374 4280.23 745.374ZM4317.2 746.436C4316.32 746.291 4315.38 746.218 4314.36 746.218C4310.56 746.218 4307.99 747.832 4306.64 751.061V775.061H4300.86V741.249H4306.48L4306.57 745.155C4308.47 742.134 4311.16 740.624 4314.64 740.624C4315.76 740.624 4316.62 740.77 4317.2 741.061V746.436Z" fill="black"/>
<path d="M4191.63 279.572V187.153L4117.29 233.362L4191.63 279.572Z" fill="#8EA7A4"/>
<path d="M4850.63 1057.44L4884.87 1143.28L4936.8 1072.82L4850.63 1057.44Z" fill="#8EA7A4"/>
<path d="M1163.17 871.072L1092.88 931.075L1176.29 957.613L1163.17 871.072Z" fill="#8EA7A4"/>
<path d="M282.359 1006.25L348.455 1070.84L367.364 985.38L282.359 1006.25Z" fill="#8EA7A4"/>
<path d="M1994.97 1063.32L2063.43 1125.42L2079.15 1039.31L1994.97 1063.32Z" fill="#8EA7A4"/>
<path d="M2884.98 893.459L2815.29 954.15L2898.95 979.867L2884.98 893.459Z" fill="#8EA7A4"/>
<path d="M3717.06 1056.9L3787.17 1117.12L3800.55 1030.62L3717.06 1056.9Z" fill="#8EA7A4"/>
</svg>
