<svg width="5109" height="1430" viewBox="0 0 5109 1430" fill="none" xmlns="http://www.w3.org/2000/svg">
<path d="M4060.59 120.233C4289.32 87.6148 4173.33 314.012 4776.31 407.761C5379.29 501.511 4847.76 1158.44 4619.36 951.356C4390.96 744.273 4043.86 522.058 3758.07 841.864C3429.72 1232.78 3151.88 1279.17 2837.73 934.49C2461.62 563.02 2305.51 528.392 1978.69 914.166C1978.69 914.166 1564.05 1489.45 1107.39 914.166C745.177 530.153 553.699 522.371 233.943 897.825" stroke="#93708C" stroke-width="8"/>
<g filter="url(#filter0_d)">
<circle cx="652.441" cy="703.898" r="200" fill="#EED9EA"/>
<circle cx="652.441" cy="703.898" r="196" stroke="#93708C" stroke-width="8"/>
</g>
<g filter="url(#filter1_d)">
<circle cx="1461.45" cy="1119.85" r="200" fill="#EED9EA"/>
<circle cx="1461.45" cy="1119.85" r="196" stroke="#92708C" stroke-width="8"/>
</g>
<g filter="url(#filter2_d)">
<circle cx="2361.72" cy="643.447" r="250" fill="#EED9EA"/>
<circle cx="2361.72" cy="643.447" r="246" stroke="#93708C" stroke-width="8"/>
</g>
<g filter="url(#filter3_d)">
<circle cx="3251.08" cy="1127.31" r="250" fill="#EED9EA"/>
<circle cx="3251.08" cy="1127.31" r="246" stroke="#93708C" stroke-width="8"/>
</g>
<circle cx="4071" cy="667.522" r="200" fill="#E9E2E8"/>
<path d="M497.619 682.48C500.478 682.096 502.974 681.008 505.107 679.216H509.203V719.6H504.211V685.232C502.078 686.597 499.881 687.344 497.619 687.472V682.48ZM521.303 720.176C520.236 720.176 519.34 719.834 518.615 719.152C517.932 718.426 517.591 717.573 517.591 716.592C517.591 715.568 517.932 714.714 518.615 714.032C519.34 713.306 520.236 712.944 521.303 712.944C522.412 712.944 523.329 713.306 524.055 714.032C524.78 714.714 525.143 715.568 525.143 716.592C525.143 717.573 524.78 718.426 524.055 719.152C523.329 719.834 522.412 720.176 521.303 720.176ZM566.681 679.344C572.74 679.344 577.583 681.178 581.209 684.848C584.879 688.474 586.713 693.36 586.713 699.504C586.713 705.605 584.879 710.49 581.209 714.16C577.583 717.786 572.74 719.6 566.681 719.6H554.841V679.344H566.681ZM559.897 715.184H566.681C571.161 715.184 574.724 713.712 577.369 710.768C580.015 707.781 581.337 704.005 581.337 699.44C581.337 694.874 579.993 691.141 577.305 688.24C574.66 685.296 571.119 683.824 566.681 683.824H559.897V715.184ZM597.538 688.944H602.594V719.6H597.538V688.944ZM600.034 681.776C599.01 681.776 598.199 681.498 597.602 680.944C597.047 680.346 596.77 679.578 596.77 678.64C596.77 677.658 597.047 676.89 597.602 676.336C598.199 675.738 599.01 675.44 600.034 675.44C601.058 675.44 601.869 675.738 602.466 676.336C603.106 676.89 603.426 677.658 603.426 678.64C603.426 679.578 603.106 680.346 602.466 680.944C601.869 681.498 601.058 681.776 600.034 681.776ZM614.743 696.496C614.743 693.978 615.81 691.973 617.943 690.48C620.119 688.986 623.042 688.24 626.711 688.24C630.38 688.24 633.239 689.008 635.287 690.544C637.378 692.08 638.466 694.021 638.551 696.368H633.623C633.239 693.594 630.892 692.208 626.583 692.208C624.492 692.208 622.871 692.677 621.719 693.616C620.61 694.554 620.055 695.578 620.055 696.688C620.055 697.754 620.482 698.672 621.335 699.44C622.188 700.165 623.554 700.805 625.431 701.36L631.575 703.408C634.178 704.218 636.162 705.264 637.527 706.544C638.935 707.781 639.639 709.509 639.639 711.728C639.639 713.904 638.508 715.888 636.247 717.68C633.986 719.429 630.828 720.304 626.775 720.304C622.722 720.304 619.564 719.408 617.303 717.616C615.042 715.781 613.847 713.434 613.719 710.576H618.583C618.668 712.496 619.436 713.946 620.887 714.928C622.38 715.866 624.236 716.336 626.455 716.336C628.674 716.336 630.508 715.866 631.959 714.928C633.41 713.989 634.135 712.88 634.135 711.6C634.135 710.277 633.708 709.274 632.855 708.592C632.002 707.909 630.615 707.312 628.695 706.8L622.743 704.816C617.41 703.237 614.743 700.464 614.743 696.496ZM660.206 688.24C663.833 688.24 666.713 689.178 668.846 691.056C670.98 692.89 672.366 695.194 673.006 697.968L667.886 698.416C667.332 696.624 666.436 695.237 665.198 694.256C663.961 693.232 662.596 692.72 661.102 692.72C658.372 692.72 656.153 693.744 654.446 695.792C652.782 697.84 651.95 700.634 651.95 704.176C651.95 707.674 652.761 710.49 654.382 712.624C656.046 714.757 658.094 715.824 660.526 715.824C663.001 715.824 664.836 715.269 666.03 714.16C667.268 713.008 667.886 711.386 667.886 709.296H673.07C673.07 712.581 671.918 715.248 669.614 717.296C667.353 719.301 664.388 720.304 660.718 720.304C656.836 720.304 653.529 718.832 650.798 715.888C648.11 712.944 646.766 709.04 646.766 704.176C646.766 699.269 648.11 695.386 650.798 692.528C653.486 689.669 656.622 688.24 660.206 688.24ZM693.976 688.24C698.243 688.24 701.677 689.626 704.28 692.4C706.925 695.173 708.248 699.141 708.248 704.304C708.248 709.424 706.925 713.37 704.28 716.144C701.677 718.917 698.243 720.304 693.976 720.304C689.709 720.304 686.253 718.917 683.608 716.144C681.005 713.37 679.704 709.424 679.704 704.304C679.704 699.141 681.005 695.173 683.608 692.4C686.253 689.626 689.709 688.24 693.976 688.24ZM703.128 704.304C703.128 700.634 702.36 697.776 700.824 695.728C699.288 693.637 697.027 692.592 694.04 692.592C691.096 692.592 688.835 693.637 687.256 695.728C685.677 697.776 684.888 700.634 684.888 704.304C684.888 707.93 685.635 710.789 687.128 712.88C688.621 714.928 690.84 715.952 693.784 715.952C696.771 715.952 699.075 714.928 700.696 712.88C702.317 710.789 703.128 707.93 703.128 704.304ZM718.289 689.008L727.505 714.288L736.785 689.008H742.481L730.321 719.6H724.753L712.593 689.008H718.289ZM760.653 716.208C764.877 716.208 767.288 714.352 767.885 710.64H773.069C772.6 713.712 771.234 716.101 768.973 717.808C766.754 719.472 763.981 720.304 760.653 720.304C756.557 720.304 753.229 718.853 750.669 715.952C748.109 713.008 746.829 709.104 746.829 704.24C746.829 699.376 748.109 695.493 750.669 692.592C753.272 689.69 756.706 688.24 760.973 688.24C765.282 688.24 768.482 689.904 770.573 693.232C772.706 696.56 773.453 700.613 772.813 705.392H751.885C751.885 708.549 752.653 711.152 754.189 713.2C755.725 715.205 757.88 716.208 760.653 716.208ZM764.365 693.04C763.384 692.528 762.189 692.272 760.781 692.272C758.178 692.272 756.109 693.168 754.573 694.96C753.08 696.709 752.205 698.906 751.949 701.552H768.269C768.269 697.285 766.968 694.448 764.365 693.04ZM795.51 693.296C790.689 693.296 788.193 697.093 788.022 704.688V719.6H782.966V688.944H788.022V694.832C789.558 690.565 792.268 688.432 796.15 688.432C797.388 688.432 798.561 688.624 799.67 689.008L799.414 693.936C798.134 693.509 796.833 693.296 795.51 693.296Z" fill="black"/>
<path d="M1339.6 1137.17H1362.96V1141.85H1334.54V1135.89C1334.54 1131.16 1336.33 1127.68 1339.92 1125.46C1341.07 1124.74 1342.35 1124.1 1343.76 1123.54L1351.69 1120.34C1355.79 1118.72 1357.84 1116.05 1357.84 1112.34C1357.84 1110.29 1357.13 1108.63 1355.73 1107.35C1354.32 1106.03 1352.33 1105.37 1349.77 1105.37C1347.26 1105.37 1345.19 1105.9 1343.57 1106.97C1341.99 1108.03 1341.07 1109.63 1340.81 1111.77H1335.25C1335.46 1108.27 1336.87 1105.58 1339.47 1103.7C1342.07 1101.83 1345.4 1100.89 1349.45 1100.89C1353.55 1100.89 1356.88 1102 1359.44 1104.21C1362 1106.43 1363.28 1109.19 1363.28 1112.47C1363.28 1115.71 1362.42 1118.29 1360.72 1120.21C1359.05 1122.13 1356.75 1123.67 1353.81 1124.82L1345.68 1128.09C1343.63 1128.94 1342.09 1129.92 1341.07 1131.03C1340.09 1132.1 1339.6 1133.51 1339.6 1135.25V1137.17ZM1373.2 1142.42C1372.14 1142.42 1371.24 1142.08 1370.51 1141.4C1369.83 1140.67 1369.49 1139.82 1369.49 1138.84C1369.49 1137.81 1369.83 1136.96 1370.51 1136.28C1371.24 1135.55 1372.14 1135.19 1373.2 1135.19C1374.31 1135.19 1375.23 1135.55 1375.95 1136.28C1376.68 1136.96 1377.04 1137.81 1377.04 1138.84C1377.04 1139.82 1376.68 1140.67 1375.95 1141.4C1375.23 1142.08 1374.31 1142.42 1373.2 1142.42ZM1412.5 1101.59C1418.56 1101.59 1423.4 1103.43 1427.03 1107.09C1430.7 1110.72 1432.53 1115.61 1432.53 1121.75C1432.53 1127.85 1430.7 1132.74 1427.03 1136.41C1423.4 1140.03 1418.56 1141.85 1412.5 1141.85H1400.66V1101.59H1412.5ZM1405.71 1137.43H1412.5C1416.98 1137.43 1420.54 1135.96 1423.19 1133.01C1425.83 1130.03 1427.15 1126.25 1427.15 1121.69C1427.15 1117.12 1425.81 1113.39 1423.12 1110.49C1420.48 1107.54 1416.94 1106.07 1412.5 1106.07H1405.71V1137.43ZM1453.59 1138.45C1457.82 1138.45 1460.23 1136.6 1460.83 1132.89H1466.01C1465.54 1135.96 1464.18 1138.35 1461.91 1140.05C1459.7 1141.72 1456.92 1142.55 1453.59 1142.55C1449.5 1142.55 1446.17 1141.1 1443.61 1138.2C1441.05 1135.25 1439.77 1131.35 1439.77 1126.49C1439.77 1121.62 1441.05 1117.74 1443.61 1114.84C1446.21 1111.94 1449.65 1110.49 1453.91 1110.49C1458.22 1110.49 1461.42 1112.15 1463.51 1115.48C1465.65 1118.81 1466.39 1122.86 1465.75 1127.64H1444.83C1444.83 1130.8 1445.59 1133.4 1447.13 1135.45C1448.67 1137.45 1450.82 1138.45 1453.59 1138.45ZM1457.31 1115.29C1456.32 1114.77 1455.13 1114.52 1453.72 1114.52C1451.12 1114.52 1449.05 1115.41 1447.51 1117.21C1446.02 1118.96 1445.15 1121.15 1444.89 1123.8H1461.21C1461.21 1119.53 1459.91 1116.69 1457.31 1115.29ZM1490.82 1102.55C1489.41 1102 1488.3 1101.72 1487.49 1101.72C1486 1101.72 1484.83 1102.08 1483.97 1102.81C1483.12 1103.53 1482.69 1104.81 1482.69 1106.65V1111.25H1489.03V1114.71H1482.69V1141.85H1477.7V1114.71H1472.64V1111.25H1477.7V1106.58C1477.7 1103.55 1478.53 1101.33 1480.2 1099.93C1481.86 1098.48 1483.78 1097.75 1485.96 1097.75C1488.13 1097.75 1490.05 1098.03 1491.72 1098.58L1490.82 1102.55ZM1498.23 1111.19H1503.29V1141.85H1498.23V1111.19ZM1500.73 1104.02C1499.7 1104.02 1498.89 1103.75 1498.29 1103.19C1497.74 1102.59 1497.46 1101.83 1497.46 1100.89C1497.46 1099.91 1497.74 1099.14 1498.29 1098.58C1498.89 1097.99 1499.7 1097.69 1500.73 1097.69C1501.75 1097.69 1502.56 1097.99 1503.16 1098.58C1503.8 1099.14 1504.12 1099.91 1504.12 1100.89C1504.12 1101.83 1503.8 1102.59 1503.16 1103.19C1502.56 1103.75 1501.75 1104.02 1500.73 1104.02ZM1521.9 1117.14C1523.9 1112.71 1527.34 1110.49 1532.2 1110.49C1535.83 1110.49 1538.64 1111.68 1540.65 1114.07C1542.7 1116.46 1543.72 1119.72 1543.72 1123.86V1141.85H1538.73V1123.86C1538.73 1120.92 1538.03 1118.7 1536.62 1117.21C1535.25 1115.71 1533.29 1114.97 1530.73 1114.97C1528.17 1114.97 1526.1 1116.01 1524.52 1118.1C1522.94 1120.19 1522.11 1123.09 1522.03 1126.81V1141.85H1516.97V1111.25H1521.32L1521.9 1117.14ZM1566.16 1138.45C1570.38 1138.45 1572.79 1136.6 1573.39 1132.89H1578.57C1578.1 1135.96 1576.74 1138.35 1574.48 1140.05C1572.26 1141.72 1569.48 1142.55 1566.16 1142.55C1562.06 1142.55 1558.73 1141.1 1556.17 1138.2C1553.61 1135.25 1552.33 1131.35 1552.33 1126.49C1552.33 1121.62 1553.61 1117.74 1556.17 1114.84C1558.78 1111.94 1562.21 1110.49 1566.48 1110.49C1570.79 1110.49 1573.99 1112.15 1576.08 1115.48C1578.21 1118.81 1578.96 1122.86 1578.32 1127.64H1557.39C1557.39 1130.8 1558.16 1133.4 1559.69 1135.45C1561.23 1137.45 1563.38 1138.45 1566.16 1138.45ZM1569.87 1115.29C1568.89 1114.77 1567.69 1114.52 1566.28 1114.52C1563.68 1114.52 1561.61 1115.41 1560.08 1117.21C1558.58 1118.96 1557.71 1121.15 1557.45 1123.8H1573.77C1573.77 1119.53 1572.47 1116.69 1569.87 1115.29Z" fill="black"/>
<path d="M2206.53 668.095C2203.12 668.095 2199.88 667.591 2196.81 666.583C2193.73 665.527 2191.17 664.063 2189.1 662.191L2191.69 656.431C2193.95 658.255 2196.28 659.599 2198.68 660.463C2201.08 661.327 2203.62 661.759 2206.31 661.759C2209.77 661.759 2212.38 661.015 2214.16 659.527C2215.98 658.039 2216.89 655.903 2216.89 653.119C2216.89 650.335 2215.98 648.271 2214.16 646.927C2212.38 645.583 2209.79 644.911 2206.38 644.911H2198.53V638.647H2205.66C2208.69 638.647 2211.06 637.879 2212.79 636.343C2214.57 634.807 2215.45 632.695 2215.45 630.007C2215.45 627.559 2214.64 625.687 2213.01 624.391C2211.37 623.047 2209.05 622.375 2206.02 622.375C2200.89 622.375 2196.4 624.223 2192.56 627.919L2189.97 622.231C2191.93 620.263 2194.38 618.751 2197.31 617.695C2200.29 616.591 2203.38 616.039 2206.6 616.039C2211.69 616.039 2215.65 617.215 2218.48 619.567C2221.31 621.871 2222.73 625.087 2222.73 629.215C2222.73 631.999 2222.01 634.447 2220.57 636.559C2219.17 638.671 2217.23 640.207 2214.73 641.167C2217.76 641.935 2220.09 643.423 2221.72 645.631C2223.35 647.791 2224.17 650.455 2224.17 653.623C2224.17 658.087 2222.58 661.615 2219.41 664.207C2216.29 666.799 2212 668.095 2206.53 668.095ZM2233.14 667.447V658.879H2241.71V667.447H2233.14ZM2270.79 667.447V616.687H2288.72C2297.07 616.687 2303.51 618.871 2308.02 623.239C2312.58 627.607 2314.86 633.871 2314.86 642.031C2314.86 650.191 2312.58 656.479 2308.02 660.895C2303.51 665.263 2297.07 667.447 2288.72 667.447H2270.79ZM2278.28 661.183H2288.29C2300.82 661.183 2307.08 654.799 2307.08 642.031C2307.08 629.311 2300.82 622.951 2288.29 622.951H2278.28V661.183ZM2340.56 668.095C2334.8 668.095 2330.26 666.487 2326.95 663.271C2323.64 660.007 2321.98 655.567 2321.98 649.951C2321.98 646.351 2322.7 643.183 2324.14 640.447C2325.63 637.663 2327.67 635.503 2330.26 633.967C2332.86 632.431 2335.83 631.663 2339.19 631.663C2344.04 631.663 2347.86 633.223 2350.64 636.343C2353.42 639.415 2354.82 643.663 2354.82 649.087V651.535H2329.04C2329.57 658.831 2333.43 662.479 2340.63 662.479C2342.65 662.479 2344.62 662.167 2346.54 661.543C2348.5 660.919 2350.35 659.887 2352.08 658.447L2354.24 663.487C2352.66 664.927 2350.62 666.055 2348.12 666.871C2345.62 667.687 2343.1 668.095 2340.56 668.095ZM2339.48 636.775C2336.46 636.775 2334.06 637.711 2332.28 639.583C2330.5 641.455 2329.42 643.951 2329.04 647.071H2348.7C2348.55 643.807 2347.69 641.287 2346.1 639.511C2344.52 637.687 2342.31 636.775 2339.48 636.775ZM2372.55 667.447L2357.43 632.311H2365.28L2376 659.023L2387.02 632.311H2394.44L2379.1 667.447H2372.55ZM2415.51 668.095C2409.75 668.095 2405.22 666.487 2401.91 663.271C2398.59 660.007 2396.94 655.567 2396.94 649.951C2396.94 646.351 2397.66 643.183 2399.1 640.447C2400.59 637.663 2402.63 635.503 2405.22 633.967C2407.81 632.431 2410.79 631.663 2414.15 631.663C2418.99 631.663 2422.81 633.223 2425.59 636.343C2428.38 639.415 2429.77 643.663 2429.77 649.087V651.535H2403.99C2404.52 658.831 2408.39 662.479 2415.59 662.479C2417.6 662.479 2419.57 662.167 2421.49 661.543C2423.46 660.919 2425.31 659.887 2427.03 658.447L2429.19 663.487C2427.61 664.927 2425.57 666.055 2423.07 666.871C2420.58 667.687 2418.06 668.095 2415.51 668.095ZM2414.43 636.775C2411.41 636.775 2409.01 637.711 2407.23 639.583C2405.46 641.455 2404.38 643.951 2403.99 647.071H2423.65C2423.51 643.807 2422.64 641.287 2421.06 639.511C2419.47 637.687 2417.27 636.775 2414.43 636.775ZM2449.15 668.095C2445.31 668.095 2442.43 667.015 2440.51 664.855C2438.63 662.695 2437.7 659.527 2437.7 655.351V616.687H2444.97V654.919C2444.97 659.671 2446.91 662.047 2450.8 662.047C2451.38 662.047 2451.91 662.023 2452.39 661.975C2452.91 661.927 2453.44 661.831 2453.97 661.687L2453.83 667.519C2452.19 667.903 2450.63 668.095 2449.15 668.095ZM2474.62 668.095C2471.07 668.095 2467.99 667.351 2465.4 665.863C2462.81 664.375 2460.79 662.287 2459.35 659.599C2457.96 656.863 2457.27 653.623 2457.27 649.879C2457.27 646.135 2457.96 642.919 2459.35 640.231C2460.79 637.495 2462.81 635.383 2465.4 633.895C2467.99 632.407 2471.07 631.663 2474.62 631.663C2478.07 631.663 2481.1 632.407 2483.69 633.895C2486.28 635.383 2488.3 637.495 2489.74 640.231C2491.18 642.919 2491.9 646.135 2491.9 649.879C2491.9 653.623 2491.18 656.863 2489.74 659.599C2488.3 662.287 2486.28 664.375 2483.69 665.863C2481.1 667.351 2478.07 668.095 2474.62 668.095ZM2474.62 662.479C2477.59 662.479 2479.99 661.399 2481.82 659.239C2483.64 657.079 2484.55 653.959 2484.55 649.879C2484.55 645.799 2483.64 642.703 2481.82 640.591C2479.99 638.431 2477.59 637.351 2474.62 637.351C2471.59 637.351 2469.17 638.431 2467.35 640.591C2465.52 642.703 2464.61 645.799 2464.61 649.879C2464.61 653.959 2465.52 657.079 2467.35 659.239C2469.17 661.399 2471.59 662.479 2474.62 662.479ZM2500.07 680.407V632.311H2507.19V638.287C2508.2 636.271 2509.74 634.663 2511.8 633.463C2513.87 632.263 2516.24 631.663 2518.93 631.663C2522.05 631.663 2524.76 632.407 2527.07 633.895C2529.42 635.383 2531.22 637.495 2532.47 640.231C2533.76 642.919 2534.41 646.135 2534.41 649.879C2534.41 653.623 2533.76 656.863 2532.47 659.599C2531.22 662.335 2529.42 664.447 2527.07 665.935C2524.76 667.375 2522.05 668.095 2518.93 668.095C2516.34 668.095 2514.01 667.543 2511.95 666.439C2509.93 665.287 2508.39 663.727 2507.34 661.759V680.407H2500.07ZM2517.13 662.479C2520.15 662.479 2522.55 661.399 2524.33 659.239C2526.15 657.079 2527.07 653.959 2527.07 649.879C2527.07 645.799 2526.15 642.703 2524.33 640.591C2522.55 638.431 2520.15 637.351 2517.13 637.351C2514.11 637.351 2511.68 638.431 2509.86 640.591C2508.08 642.703 2507.19 645.799 2507.19 649.879C2507.19 653.959 2508.08 657.079 2509.86 659.239C2511.68 661.399 2514.11 662.479 2517.13 662.479Z" fill="black"/>
<path d="M3168.29 1151.31V1141.01H3145.47V1135.47L3169.59 1100.55H3175.71V1134.75H3183.12V1141.01H3175.71V1151.31H3168.29ZM3168.29 1134.75V1112.21L3152.88 1134.75H3168.29ZM3189.5 1151.31V1142.74H3198.07V1151.31H3189.5ZM3239.54 1151.31V1106.81H3221.54V1100.55H3264.96V1106.81H3246.96V1151.31H3239.54ZM3281.31 1151.96C3275.55 1151.96 3271.02 1150.35 3267.71 1147.13C3264.39 1143.87 3262.74 1139.43 3262.74 1133.81C3262.74 1130.21 3263.46 1127.04 3264.9 1124.31C3266.39 1121.52 3268.43 1119.36 3271.02 1117.83C3273.61 1116.29 3276.59 1115.52 3279.95 1115.52C3284.79 1115.52 3288.61 1117.08 3291.39 1120.2C3294.18 1123.28 3295.57 1127.52 3295.57 1132.95V1135.4H3269.79C3270.32 1142.69 3274.19 1146.34 3281.39 1146.34C3283.4 1146.34 3285.37 1146.03 3287.29 1145.4C3289.26 1144.78 3291.11 1143.75 3292.83 1142.31L3294.99 1147.35C3293.41 1148.79 3291.37 1149.92 3288.87 1150.73C3286.38 1151.55 3283.86 1151.96 3281.31 1151.96ZM3280.23 1120.64C3277.21 1120.64 3274.81 1121.57 3273.03 1123.44C3271.26 1125.32 3270.18 1127.81 3269.79 1130.93H3289.45C3289.31 1127.67 3288.44 1125.15 3286.86 1123.37C3285.27 1121.55 3283.07 1120.64 3280.23 1120.64ZM3315.81 1151.96C3312.93 1151.96 3310.24 1151.6 3307.75 1150.88C3305.25 1150.11 3303.16 1149.05 3301.48 1147.71L3303.57 1142.81C3305.35 1144.06 3307.29 1145.02 3309.4 1145.69C3311.56 1146.36 3313.72 1146.7 3315.88 1146.7C3318.43 1146.7 3320.35 1146.24 3321.64 1145.33C3322.94 1144.42 3323.59 1143.2 3323.59 1141.66C3323.59 1140.41 3323.15 1139.45 3322.29 1138.78C3321.43 1138.06 3320.13 1137.51 3318.4 1137.12L3311.56 1135.76C3305.51 1134.51 3302.49 1131.39 3302.49 1126.4C3302.49 1123.08 3303.81 1120.44 3306.45 1118.48C3309.09 1116.51 3312.55 1115.52 3316.82 1115.52C3319.27 1115.52 3321.59 1115.88 3323.8 1116.6C3326.06 1117.32 3327.93 1118.4 3329.42 1119.84L3327.33 1124.74C3325.89 1123.49 3324.23 1122.53 3322.36 1121.86C3320.49 1121.19 3318.64 1120.85 3316.82 1120.85C3314.32 1120.85 3312.43 1121.33 3311.13 1122.29C3309.83 1123.2 3309.19 1124.45 3309.19 1126.04C3309.19 1128.44 3310.77 1129.97 3313.94 1130.64L3320.78 1132.01C3323.9 1132.64 3326.25 1133.69 3327.83 1135.18C3329.47 1136.67 3330.28 1138.68 3330.28 1141.23C3330.28 1144.59 3328.96 1147.23 3326.32 1149.15C3323.68 1151.02 3320.18 1151.96 3315.81 1151.96ZM3353 1151.96C3348.58 1151.96 3345.29 1150.83 3343.13 1148.57C3340.97 1146.32 3339.89 1143.05 3339.89 1138.78V1121.79H3333.05V1116.17H3339.89V1105.59H3347.17V1116.17H3358.04V1121.79H3347.17V1138.2C3347.17 1140.75 3347.69 1142.67 3348.75 1143.96C3349.85 1145.26 3351.63 1145.91 3354.08 1145.91C3354.85 1145.91 3355.59 1145.84 3356.31 1145.69C3357.03 1145.5 3357.75 1145.28 3358.47 1145.04L3359.62 1150.52C3358.9 1150.95 3357.89 1151.28 3356.6 1151.52C3355.35 1151.81 3354.15 1151.96 3353 1151.96Z" fill="black"/>
<path d="M3965.83 675.966C3965.83 670.889 3962.52 668.35 3955.91 668.35H3945.09L3946.82 648.766H3969.15V653.374H3951.68L3950.59 664.958C3952.81 664.574 3954.92 664.382 3956.93 664.382C3961.32 664.382 3964.78 665.363 3967.3 667.326C3969.82 669.246 3971.07 672.169 3971.07 676.094C3971.07 680.019 3969.75 683.283 3967.11 685.886C3964.46 688.446 3961.05 689.726 3956.87 689.726C3952.68 689.726 3949.27 688.681 3946.63 686.59C3943.98 684.457 3942.66 681.534 3942.66 677.822H3947.71C3947.71 681.321 3949.51 683.603 3953.09 684.67C3954.2 684.969 3955.42 685.118 3956.74 685.118C3959.47 685.118 3961.67 684.265 3963.33 682.558C3964.99 680.809 3965.83 678.611 3965.83 675.966ZM3980.32 689.598C3979.25 689.598 3978.35 689.257 3977.63 688.574C3976.95 687.849 3976.61 686.995 3976.61 686.014C3976.61 684.99 3976.95 684.137 3977.63 683.454C3978.35 682.729 3979.25 682.366 3980.32 682.366C3981.43 682.366 3982.34 682.729 3983.07 683.454C3983.79 684.137 3984.16 684.99 3984.16 686.014C3984.16 686.995 3983.79 687.849 3983.07 688.574C3982.34 689.257 3981.43 689.598 3980.32 689.598ZM4019.61 648.766C4025.67 648.766 4030.51 650.601 4034.14 654.27C4037.81 657.897 4039.65 662.782 4039.65 668.926C4039.65 675.027 4037.81 679.913 4034.14 683.582C4030.51 687.209 4025.67 689.022 4019.61 689.022H4007.77V648.766H4019.61ZM4012.83 684.606H4019.61C4024.09 684.606 4027.66 683.134 4030.3 680.19C4032.95 677.203 4034.27 673.427 4034.27 668.862C4034.27 664.297 4032.93 660.563 4030.24 657.662C4027.59 654.718 4024.05 653.246 4019.61 653.246H4012.83V684.606ZM4060.71 685.63C4064.93 685.63 4067.34 683.774 4067.94 680.062H4073.13C4072.66 683.134 4071.29 685.523 4069.03 687.23C4066.81 688.894 4064.04 689.726 4060.71 689.726C4056.61 689.726 4053.29 688.275 4050.73 685.374C4048.17 682.43 4046.89 678.526 4046.89 673.662C4046.89 668.798 4048.17 664.915 4050.73 662.014C4053.33 659.113 4056.76 657.662 4061.03 657.662C4065.34 657.662 4068.54 659.326 4070.63 662.654C4072.76 665.982 4073.51 670.035 4072.87 674.814H4051.94C4051.94 677.971 4052.71 680.574 4054.25 682.622C4055.78 684.627 4057.94 685.63 4060.71 685.63ZM4064.42 662.462C4063.44 661.95 4062.25 661.694 4060.84 661.694C4058.23 661.694 4056.17 662.59 4054.63 664.382C4053.14 666.131 4052.26 668.329 4052.01 670.974H4068.33C4068.33 666.707 4067.02 663.87 4064.42 662.462ZM4083.09 645.438H4088.14V689.022H4083.09V645.438ZM4101.34 658.366H4106.4V689.022H4101.34V658.366ZM4103.84 651.198C4102.82 651.198 4102.01 650.921 4101.41 650.366C4100.85 649.769 4100.58 649.001 4100.58 648.062C4100.58 647.081 4100.85 646.313 4101.41 645.758C4102.01 645.161 4102.82 644.862 4103.84 644.862C4104.86 644.862 4105.68 645.161 4106.27 645.758C4106.91 646.313 4107.23 647.081 4107.23 648.062C4107.23 649.001 4106.91 649.769 4106.27 650.366C4105.68 650.921 4104.86 651.198 4103.84 651.198ZM4120.53 658.43L4129.75 683.71L4139.03 658.43H4144.73L4132.57 689.022H4127L4114.84 658.43H4120.53ZM4162.9 685.63C4167.12 685.63 4169.53 683.774 4170.13 680.062H4175.31C4174.84 683.134 4173.48 685.523 4171.22 687.23C4169 688.894 4166.23 689.726 4162.9 689.726C4158.8 689.726 4155.47 688.275 4152.91 685.374C4150.35 682.43 4149.07 678.526 4149.07 673.662C4149.07 668.798 4150.35 664.915 4152.91 662.014C4155.52 659.113 4158.95 657.662 4163.22 657.662C4167.53 657.662 4170.73 659.326 4172.82 662.654C4174.95 665.982 4175.7 670.035 4175.06 674.814H4154.13C4154.13 677.971 4154.9 680.574 4156.43 682.622C4157.97 684.627 4160.12 685.63 4162.9 685.63ZM4166.61 662.462C4165.63 661.95 4164.43 661.694 4163.03 661.694C4160.42 661.694 4158.35 662.59 4156.82 664.382C4155.32 666.131 4154.45 668.329 4154.19 670.974H4170.51C4170.51 666.707 4169.21 663.87 4166.61 662.462ZM4197.75 662.718C4192.93 662.718 4190.44 666.515 4190.27 674.11V689.022H4185.21V658.366H4190.27V664.254C4191.8 659.987 4194.51 657.854 4198.39 657.854C4199.63 657.854 4200.81 658.046 4201.91 658.43L4201.66 663.358C4200.38 662.931 4199.08 662.718 4197.75 662.718Z" fill="black"/>
<path d="M4071.4 182.572V90.1533L3997.06 136.363L4071.4 182.572Z" fill="#8EA7A4"/>
<path d="M4730.4 960.441L4764.64 1046.28L4816.57 975.822L4730.4 960.441Z" fill="#8EA7A4"/>
<path d="M1049.23 770.62L972.813 822.605L1052.83 858.074L1049.23 770.62Z" fill="#8EA7A4"/>
<path d="M161.981 906.068L230.036 968.596L246.302 882.592L161.981 906.068Z" fill="#8EA7A4"/>
<path d="M1874.75 961.323L1943.2 1023.42L1958.92 937.313L1874.75 961.323Z" fill="#8EA7A4"/>
<path d="M2766.81 791.865L2695.01 850.056L2777.72 878.712L2766.81 791.865Z" fill="#8EA7A4"/>
<path d="M2876.75 1025.89V975.785H2928.11" stroke="#8EA7A4" stroke-width="8"/>
<path d="M2851.07 1000.84V950.732H2902.43" stroke="#8EA7A4" stroke-width="8"/>
<path d="M3597.38 970.097L3676.78 1017.4L3675.12 929.883L3597.38 970.097Z" fill="#8EA7A4"/>
<defs>
<filter id="filter0_d" x="442.441" y="493.898" width="430" height="430" filterUnits="userSpaceOnUse" color-interpolation-filters="sRGB">
<feFlood flood-opacity="0" result="BackgroundImageFix"/>
<feColorMatrix in="SourceAlpha" type="matrix" values="0 0 0 0 0 0 0 0 0 0 0 0 0 0 0 0 0 0 127 0" result="hardAlpha"/>
<feMorphology radius="5" operator="dilate" in="SourceAlpha" result="effect1_dropShadow"/>
<feOffset dx="5" dy="5"/>
<feGaussianBlur stdDeviation="5"/>
<feComposite in2="hardAlpha" operator="out"/>
<feColorMatrix type="matrix" values="0 0 0 0 0.576471 0 0 0 0 0.439216 0 0 0 0 0.54902 0 0 0 0.3 0"/>
<feBlend mode="normal" in2="BackgroundImageFix" result="effect1_dropShadow"/>
<feBlend mode="normal" in="SourceGraphic" in2="effect1_dropShadow" result="shape"/>
</filter>
<filter id="filter1_d" x="1251.45" y="909.847" width="430" height="430" filterUnits="userSpaceOnUse" color-interpolation-filters="sRGB">
<feFlood flood-opacity="0" result="BackgroundImageFix"/>
<feColorMatrix in="SourceAlpha" type="matrix" values="0 0 0 0 0 0 0 0 0 0 0 0 0 0 0 0 0 0 127 0" result="hardAlpha"/>
<feMorphology radius="5" operator="dilate" in="SourceAlpha" result="effect1_dropShadow"/>
<feOffset dx="5" dy="5"/>
<feGaussianBlur stdDeviation="5"/>
<feComposite in2="hardAlpha" operator="out"/>
<feColorMatrix type="matrix" values="0 0 0 0 0.576471 0 0 0 0 0.439216 0 0 0 0 0.54902 0 0 0 0.3 0"/>
<feBlend mode="normal" in2="BackgroundImageFix" result="effect1_dropShadow"/>
<feBlend mode="normal" in="SourceGraphic" in2="effect1_dropShadow" result="shape"/>
</filter>
<filter id="filter2_d" x="2101.72" y="383.447" width="530" height="530" filterUnits="userSpaceOnUse" color-interpolation-filters="sRGB">
<feFlood flood-opacity="0" result="BackgroundImageFix"/>
<feColorMatrix in="SourceAlpha" type="matrix" values="0 0 0 0 0 0 0 0 0 0 0 0 0 0 0 0 0 0 127 0" result="hardAlpha"/>
<feMorphology radius="5" operator="dilate" in="SourceAlpha" result="effect1_dropShadow"/>
<feOffset dx="5" dy="5"/>
<feGaussianBlur stdDeviation="5"/>
<feComposite in2="hardAlpha" operator="out"/>
<feColorMatrix type="matrix" values="0 0 0 0 0.576471 0 0 0 0 0.439216 0 0 0 0 0.54902 0 0 0 0.3 0"/>
<feBlend mode="normal" in2="BackgroundImageFix" result="effect1_dropShadow"/>
<feBlend mode="normal" in="SourceGraphic" in2="effect1_dropShadow" result="shape"/>
</filter>
<filter id="filter3_d" x="2991.08" y="867.308" width="530" height="530" filterUnits="userSpaceOnUse" color-interpolation-filters="sRGB">
<feFlood flood-opacity="0" result="BackgroundImageFix"/>
<feColorMatrix in="SourceAlpha" type="matrix" values="0 0 0 0 0 0 0 0 0 0 0 0 0 0 0 0 0 0 127 0" result="hardAlpha"/>
<feMorphology radius="5" operator="dilate" in="SourceAlpha" result="effect1_dropShadow"/>
<feOffset dx="5" dy="5"/>
<feGaussianBlur stdDeviation="5"/>
<feComposite in2="hardAlpha" operator="out"/>
<feColorMatrix type="matrix" values="0 0 0 0 0.576471 0 0 0 0 0.439216 0 0 0 0 0.54902 0 0 0 0.3 0"/>
<feBlend mode="normal" in2="BackgroundImageFix" result="effect1_dropShadow"/>
<feBlend mode="normal" in="SourceGraphic" in2="effect1_dropShadow" result="shape"/>
</filter>
</defs>
</svg>
