<svg width="39" height="50" viewBox="0 0 39 50" fill="none" xmlns="http://www.w3.org/2000/svg">
<path d="M14.5723 33.6587V36.8215" stroke="black" stroke-linecap="round"/>
<path d="M22.4736 33.6587V36.8215" stroke="black" stroke-linecap="round"/>
<path d="M18.6772 33.1317V38.1395" stroke="black" stroke-linecap="round"/>
<path d="M21.3593 30.4118H15.8258C10.6323 17.5344 8.80931 10.5693 19.146 1.32239C26.489 9.78845 28.2785 15.5727 21.3593 30.4118Z" stroke="black" stroke-linecap="round"/>
<path d="M25.9593 16.4779C30.9231 19.1745 31.5027 21.4464 29.9487 26.3957C27.9023 24.6232 26.7769 23.4835 24.4634 23.4591" stroke="black" stroke-linecap="round"/>
<path d="M11.3746 16.4779C6.41089 19.1745 5.83131 21.4464 7.38529 26.3957C9.43172 24.6232 10.5571 23.4835 12.8706 23.4591" stroke="black" stroke-linecap="round"/>
<path d="M15.2271 5.38647C17.966 6.4485 19.4866 6.41999 22.2241 5.38647" stroke="black" stroke-linecap="round"/>
<circle cx="18.9674" cy="14.1823" r="3.00602" stroke="black"/>
<path d="M4.45985 40.9626C3.44468 43.1329 1.87348 41.2569 0.853247 42.929C0.494578 45.4155 1.63097 46.1871 6.35967 45.8554C8.73982 47.9664 9.28873 48.0187 11.3235 45.8992C14.428 45.548 14.622 43.6921 11.6136 42.3125C10.4426 39.0691 5.47503 38.7923 4.45985 40.9626Z" stroke="black" stroke-linecap="round"/>
<path d="M32.842 40.518C34.0914 42.8063 36.4379 40.6352 37.7336 42.3795C38.0395 45.0647 36.3887 45.9962 29.7986 46.0069C26.3021 48.4981 25.5296 48.5985 22.8496 46.4459C18.5337 46.3073 18.4085 44.2974 22.7264 42.5548C24.6204 38.9231 31.5927 38.2297 32.842 40.518Z" stroke="black" stroke-linecap="round"/>
</svg>
