<svg width="210" height="198" viewBox="0 0 210 198" fill="none" xmlns="http://www.w3.org/2000/svg">
<g filter="url(#filter0_d_658:4119)">
<rect x="15.9941" y="10.9624" width="178.546" height="166.04" rx="10" fill="#F0F4F3"/>
<rect x="16.9941" y="11.9624" width="176.546" height="164.04" rx="9" stroke="url(#paint0_linear_658:4119)" stroke-width="2"/>
</g>
<path d="M48.7177 138.816C50.2964 138.816 51.571 139.286 52.5417 140.224C53.523 141.163 54.0137 142.427 54.0137 144.016C54.0137 145.595 53.523 146.854 52.5417 147.792C51.571 148.731 50.2964 149.2 48.7177 149.2H45.3417V138.816H48.7177ZM47.2457 147.488H48.7177C49.699 147.488 50.4937 147.158 51.1017 146.496C51.6777 145.856 51.9657 145.03 51.9657 144.016C51.9657 142.982 51.6777 142.144 51.1017 141.504C50.5044 140.854 49.7097 140.528 48.7177 140.528H47.2457V147.488ZM61.7505 142.352C62.0171 142.694 62.2145 143.088 62.3425 143.536C62.4811 143.984 62.5505 144.395 62.5505 144.768C62.5505 145.142 62.5291 145.478 62.4865 145.776H57.4625C57.4838 146.406 57.6385 146.918 57.9265 147.312C58.2145 147.707 58.6518 147.904 59.2385 147.904C60.0171 147.904 60.4811 147.563 60.6305 146.88H62.5345C62.4065 147.659 62.0491 148.272 61.4625 148.72C60.8545 149.19 60.1131 149.424 59.2385 149.424C58.2145 149.424 57.3558 149.051 56.6625 148.304C55.9478 147.526 55.5905 146.528 55.5905 145.312C55.5905 144.064 55.9478 143.062 56.6625 142.304C57.3451 141.579 58.2038 141.216 59.2385 141.216C60.3158 141.216 61.1531 141.595 61.7505 142.352ZM59.2545 142.72C58.7211 142.72 58.3051 142.896 58.0065 143.248C57.7078 143.59 57.5318 144.032 57.4785 144.576H60.7905C60.7905 143.734 60.5238 143.168 59.9905 142.88C59.7878 142.774 59.5425 142.72 59.2545 142.72ZM64.8108 138.224H66.6988V149.2H64.8108V138.224ZM69.8302 141.408H71.7182V149.2H69.8302V141.408ZM69.6062 138.912C69.6062 138.571 69.7075 138.304 69.9102 138.112C70.1129 137.91 70.4009 137.808 70.7742 137.808C71.1369 137.808 71.4195 137.91 71.6222 138.112C71.8355 138.304 71.9422 138.571 71.9422 138.912C71.9422 139.254 71.8355 139.526 71.6222 139.728C71.4195 139.92 71.1369 140.016 70.7742 140.016C70.4009 140.016 70.1129 139.92 69.9102 139.728C69.7075 139.526 69.6062 139.254 69.6062 138.912ZM75.8002 141.424L77.5762 147.328L79.3682 141.424H81.5442L78.6482 149.2H76.5202L73.6242 141.424H75.8002ZM88.6411 142.352C88.9077 142.694 89.1051 143.088 89.2331 143.536C89.3717 143.984 89.4411 144.395 89.4411 144.768C89.4411 145.142 89.4197 145.478 89.3771 145.776H84.3531C84.3744 146.406 84.5291 146.918 84.8171 147.312C85.1051 147.707 85.5424 147.904 86.1291 147.904C86.9077 147.904 87.3717 147.563 87.5211 146.88H89.4251C89.2971 147.659 88.9397 148.272 88.3531 148.72C87.7451 149.19 87.0037 149.424 86.1291 149.424C85.1051 149.424 84.2464 149.051 83.5531 148.304C82.8384 147.526 82.4811 146.528 82.4811 145.312C82.4811 144.064 82.8384 143.062 83.5531 142.304C84.2357 141.579 85.0944 141.216 86.1291 141.216C87.2064 141.216 88.0437 141.595 88.6411 142.352ZM86.1451 142.72C85.6117 142.72 85.1957 142.896 84.8971 143.248C84.5984 143.59 84.4224 144.032 84.3691 144.576H87.6811C87.6811 143.734 87.4144 143.168 86.8811 142.88C86.6784 142.774 86.4331 142.72 86.1451 142.72ZM93.5895 142.96C94.0588 141.84 94.7628 141.28 95.7015 141.28C95.8828 141.28 96.1121 141.318 96.3895 141.392L96.3575 143.28C96.0588 143.216 95.7655 143.184 95.4775 143.184C94.2188 143.184 93.5895 144.054 93.5895 145.792V149.2H91.7015V141.408H93.5895V142.96ZM113.141 143.696C112.671 145.03 112.085 146.134 111.381 147.008L111.653 147.248C111.845 147.419 112.026 147.547 112.197 147.632C112.367 147.718 112.575 147.76 112.821 147.76C113.077 147.76 113.295 147.67 113.477 147.488C113.658 147.296 113.759 146.992 113.781 146.576H115.493C115.471 147.451 115.253 148.144 114.837 148.656C114.431 149.168 113.823 149.424 113.013 149.424C112.501 149.424 112.026 149.323 111.589 149.12C111.162 148.918 110.709 148.598 110.229 148.16C109.162 149.003 107.978 149.424 106.677 149.424C105.482 149.424 104.469 149.12 103.637 148.512C102.805 147.894 102.389 147.136 102.389 146.24C102.389 144.854 103.365 144.006 105.317 143.696L105.061 143.456C104.293 142.763 103.909 142 103.909 141.168C103.909 140.432 104.213 139.835 104.821 139.376C105.471 138.886 106.335 138.64 107.413 138.64C108.447 138.64 109.29 138.886 109.941 139.376C110.538 139.835 110.837 140.411 110.837 141.104C110.837 141.798 110.613 142.384 110.165 142.864C109.727 143.334 109.055 143.739 108.149 144.08L110.181 145.92C110.831 145.142 111.391 144.166 111.861 142.992L113.141 143.696ZM106.389 144.656C105.109 144.838 104.469 145.328 104.469 146.128C104.469 146.576 104.661 146.955 105.045 147.264C105.439 147.563 105.989 147.712 106.693 147.712C107.503 147.712 108.266 147.478 108.981 147.008L106.389 144.656ZM107.109 143.136C107.685 142.891 108.101 142.63 108.357 142.352C108.623 142.075 108.757 141.766 108.757 141.424C108.757 141.072 108.634 140.795 108.389 140.592C108.143 140.379 107.802 140.272 107.365 140.272C106.927 140.272 106.586 140.39 106.341 140.624C106.106 140.848 105.989 141.12 105.989 141.44C105.989 141.91 106.239 142.363 106.741 142.8L107.109 143.136ZM123.777 147.552H128.049V149.2H121.889V138.816H123.777V147.552ZM129.955 141.408H131.843V149.2H129.955V141.408ZM129.731 138.912C129.731 138.571 129.833 138.304 130.035 138.112C130.238 137.91 130.526 137.808 130.899 137.808C131.262 137.808 131.545 137.91 131.747 138.112C131.961 138.304 132.067 138.571 132.067 138.912C132.067 139.254 131.961 139.526 131.747 139.728C131.545 139.92 131.262 140.016 130.899 140.016C130.526 140.016 130.238 139.92 130.035 139.728C129.833 139.526 129.731 139.254 129.731 138.912ZM136.101 146.832C136.123 147.568 136.661 147.936 137.717 147.936C138.123 147.936 138.453 147.851 138.709 147.68C138.976 147.499 139.109 147.291 139.109 147.056C139.109 146.822 139.029 146.64 138.869 146.512C138.709 146.384 138.459 146.267 138.117 146.16L136.421 145.552C135.163 145.115 134.533 144.4 134.533 143.408C134.533 142.747 134.827 142.219 135.413 141.824C136.011 141.419 136.805 141.216 137.797 141.216C138.8 141.216 139.568 141.435 140.101 141.872C140.645 142.31 140.928 142.859 140.949 143.52H139.173C139.152 143.264 139.029 143.062 138.805 142.912C138.581 142.763 138.261 142.688 137.845 142.688C137.429 142.688 137.104 142.774 136.869 142.944C136.645 143.104 136.533 143.291 136.533 143.504C136.533 143.878 136.848 144.155 137.477 144.336L139.317 145.024C139.925 145.227 140.389 145.488 140.709 145.808C141.04 146.118 141.205 146.523 141.205 147.024C141.205 147.664 140.901 148.219 140.293 148.688C139.664 149.179 138.832 149.424 137.797 149.424C136.763 149.424 135.931 149.2 135.301 148.752C134.672 148.294 134.352 147.654 134.341 146.832H136.101ZM147.867 149.008C147.163 149.286 146.608 149.424 146.203 149.424C145.797 149.424 145.44 149.376 145.131 149.28C144.832 149.184 144.565 149.04 144.331 148.848C143.84 148.411 143.595 147.808 143.595 147.04V142.688H142.507V141.424H143.595V139.376H145.483V141.424H147.595V142.688H145.483V146.976C145.483 147.616 145.787 147.936 146.395 147.936C146.704 147.936 147.104 147.851 147.595 147.68L147.867 149.008ZM155.219 142.352C155.486 142.694 155.683 143.088 155.811 143.536C155.95 143.984 156.019 144.395 156.019 144.768C156.019 145.142 155.998 145.478 155.955 145.776H150.931C150.953 146.406 151.107 146.918 151.395 147.312C151.683 147.707 152.121 147.904 152.707 147.904C153.486 147.904 153.95 147.563 154.099 146.88H156.003C155.875 147.659 155.518 148.272 154.931 148.72C154.323 149.19 153.582 149.424 152.707 149.424C151.683 149.424 150.825 149.051 150.131 148.304C149.417 147.526 149.059 146.528 149.059 145.312C149.059 144.064 149.417 143.062 150.131 142.304C150.814 141.579 151.673 141.216 152.707 141.216C153.785 141.216 154.622 141.595 155.219 142.352ZM152.723 142.72C152.19 142.72 151.774 142.896 151.475 143.248C151.177 143.59 151.001 144.032 150.947 144.576H154.259C154.259 143.734 153.993 143.168 153.459 142.88C153.257 142.774 153.011 142.72 152.723 142.72ZM160.136 142.768C160.648 141.734 161.469 141.216 162.6 141.216C163.56 141.216 164.28 141.531 164.76 142.16C165.25 142.79 165.496 143.622 165.496 144.656V149.2H163.608V144.656C163.608 144.08 163.469 143.648 163.192 143.36C162.914 143.062 162.525 142.912 162.024 142.912C161.522 142.912 161.09 143.136 160.728 143.584C160.376 144.032 160.189 144.704 160.168 145.6V149.2H158.28V141.424H159.928L160.136 142.768Z" fill="black"/>
<path d="M64.1592 102.955L67.5912 114.787L70.9272 103.987H72.8472L76.3752 114.835L80.0232 102.955H83.2152L77.8632 118.531H74.8872L71.9592 109.747L69.0552 118.531H66.0792L60.9912 102.955H64.1592ZM93.0745 108.259C93.4745 108.771 93.7705 109.363 93.9625 110.035C94.1705 110.707 94.2745 111.323 94.2745 111.883C94.2745 112.443 94.2425 112.947 94.1785 113.395H86.6425C86.6745 114.339 86.9065 115.107 87.3385 115.699C87.7705 116.291 88.4265 116.587 89.3065 116.587C90.4745 116.587 91.1705 116.075 91.3945 115.051H94.2505C94.0585 116.219 93.5225 117.139 92.6425 117.811C91.7305 118.515 90.6185 118.867 89.3065 118.867C87.7705 118.867 86.4825 118.307 85.4425 117.187C84.3705 116.019 83.8345 114.523 83.8345 112.699C83.8345 110.827 84.3705 109.323 85.4425 108.187C86.4665 107.099 87.7545 106.555 89.3065 106.555C90.9225 106.555 92.1785 107.123 93.0745 108.259ZM89.3305 108.811C88.5305 108.811 87.9065 109.075 87.4585 109.603C87.0105 110.115 86.7465 110.779 86.6665 111.595H91.6345C91.6345 110.331 91.2345 109.483 90.4345 109.051C90.1305 108.891 89.7625 108.811 89.3305 108.811ZM105.801 108.259C106.201 108.771 106.497 109.363 106.689 110.035C106.897 110.707 107.001 111.323 107.001 111.883C107.001 112.443 106.969 112.947 106.905 113.395H99.3691C99.4011 114.339 99.6331 115.107 100.065 115.699C100.497 116.291 101.153 116.587 102.033 116.587C103.201 116.587 103.897 116.075 104.121 115.051H106.977C106.785 116.219 106.249 117.139 105.369 117.811C104.457 118.515 103.345 118.867 102.033 118.867C100.497 118.867 99.2091 118.307 98.1691 117.187C97.0971 116.019 96.5611 114.523 96.5611 112.699C96.5611 110.827 97.0971 109.323 98.1691 108.187C99.1931 107.099 100.481 106.555 102.033 106.555C103.649 106.555 104.905 107.123 105.801 108.259ZM102.057 108.811C101.257 108.811 100.633 109.075 100.185 109.603C99.7371 110.115 99.4731 110.779 99.3931 111.595H104.361C104.361 110.331 103.961 109.483 103.161 109.051C102.857 108.891 102.489 108.811 102.057 108.811ZM114.52 112.843L113.224 113.923V118.531H110.392V102.067H113.224V110.971L117.832 106.867H121.672L116.512 111.187L121.96 118.531H118.504L114.52 112.843ZM135.451 105.211C133.707 105.211 132.691 105.875 132.403 107.203H129.427C129.587 105.667 130.211 104.507 131.299 103.723C132.323 103.003 133.667 102.643 135.331 102.643C137.043 102.643 138.435 103.043 139.507 103.843C140.627 104.659 141.187 105.707 141.187 106.987C141.187 107.787 140.971 108.483 140.539 109.075C140.107 109.651 139.467 110.083 138.619 110.371C139.563 110.691 140.315 111.171 140.875 111.811C141.451 112.435 141.739 113.155 141.739 113.971C141.739 114.787 141.587 115.483 141.283 116.059C140.995 116.635 140.579 117.131 140.035 117.547C138.883 118.427 137.387 118.867 135.547 118.867C133.787 118.867 132.307 118.419 131.107 117.523C129.763 116.547 129.091 115.251 129.091 113.635H132.115C132.163 114.451 132.491 115.091 133.099 115.555C133.723 116.019 134.531 116.251 135.523 116.251C136.515 116.251 137.283 116.035 137.827 115.603C138.387 115.155 138.667 114.595 138.667 113.923C138.667 113.235 138.411 112.699 137.899 112.315C137.403 111.931 136.611 111.739 135.523 111.739H133.459V109.507H135.235C136.147 109.507 136.859 109.315 137.371 108.931C137.883 108.531 138.139 108.011 138.139 107.371C138.139 106.731 137.915 106.211 137.467 105.811C137.035 105.411 136.363 105.211 135.451 105.211ZM146.156 118.339C145.58 118.339 145.108 118.163 144.74 117.811C144.372 117.459 144.188 117.011 144.188 116.467C144.188 115.923 144.372 115.467 144.74 115.099C145.108 114.731 145.58 114.547 146.156 114.547C146.732 114.547 147.212 114.731 147.596 115.099C147.98 115.467 148.172 115.923 148.172 116.467C148.172 117.011 147.98 117.459 147.596 117.811C147.212 118.163 146.732 118.339 146.156 118.339ZM146.156 111.211C145.58 111.211 145.108 111.035 144.74 110.683C144.372 110.331 144.188 109.883 144.188 109.339C144.188 108.795 144.372 108.339 144.74 107.971C145.108 107.603 145.58 107.419 146.156 107.419C146.732 107.419 147.212 107.603 147.596 107.971C147.98 108.339 148.172 108.795 148.172 109.339C148.172 109.883 147.98 110.331 147.596 110.683C147.212 111.035 146.732 111.211 146.156 111.211Z" fill="black"/>
<path d="M100.572 69.6587V72.8215" stroke="black" stroke-linecap="round"/>
<path d="M108.474 69.6587V72.8215" stroke="black" stroke-linecap="round"/>
<path d="M104.677 69.1317V74.1395" stroke="black" stroke-linecap="round"/>
<path d="M107.359 66.4118H101.826C96.6323 53.5344 94.8093 46.5693 105.146 37.3224C112.489 45.7884 114.278 51.5727 107.359 66.4118Z" stroke="black" stroke-linecap="round"/>
<path d="M111.959 52.4779C116.923 55.1745 117.503 57.4464 115.949 62.3957C113.902 60.6232 112.777 59.4835 110.463 59.4591" stroke="black" stroke-linecap="round"/>
<path d="M97.3746 52.4779C92.4109 55.1745 91.8313 57.4464 93.3853 62.3957C95.4317 60.6232 96.5571 59.4835 98.8706 59.4591" stroke="black" stroke-linecap="round"/>
<path d="M101.227 41.3865C103.966 42.4485 105.487 42.42 108.224 41.3865" stroke="black" stroke-linecap="round"/>
<circle cx="104.967" cy="50.1823" r="3.00602" stroke="black"/>
<path d="M90.4599 76.9626C89.4447 79.1329 87.8735 77.2569 86.8532 78.929C86.4946 81.4155 87.631 82.1871 92.3597 81.8554C94.7398 83.9664 95.2887 84.0187 97.3235 81.8992C100.428 81.548 100.622 79.6921 97.6136 78.3125C96.4426 75.0691 91.475 74.7923 90.4599 76.9626Z" stroke="black" stroke-linecap="round"/>
<path d="M118.842 76.518C120.091 78.8063 122.438 76.6352 123.734 78.3795C124.039 81.0647 122.389 81.9962 115.799 82.0069C112.302 84.4981 111.53 84.5985 108.85 82.4459C104.534 82.3073 104.408 80.2974 108.726 78.5548C110.62 74.9231 117.593 74.2297 118.842 76.518Z" stroke="black" stroke-linecap="round"/>
<defs>
<filter id="filter0_d_658:4119" x="0.994141" y="0.962402" width="208.546" height="196.04" filterUnits="userSpaceOnUse" color-interpolation-filters="sRGB">
<feFlood flood-opacity="0" result="BackgroundImageFix"/>
<feColorMatrix in="SourceAlpha" type="matrix" values="0 0 0 0 0 0 0 0 0 0 0 0 0 0 0 0 0 0 127 0" result="hardAlpha"/>
<feOffset dy="5"/>
<feGaussianBlur stdDeviation="7.5"/>
<feComposite in2="hardAlpha" operator="out"/>
<feColorMatrix type="matrix" values="0 0 0 0 0.560784 0 0 0 0 0.643137 0 0 0 0 0.639216 0 0 0 0.15 0"/>
<feBlend mode="normal" in2="BackgroundImageFix" result="effect1_dropShadow_658:4119"/>
<feBlend mode="normal" in="SourceGraphic" in2="effect1_dropShadow_658:4119" result="shape"/>
</filter>
<linearGradient id="paint0_linear_658:4119" x1="-1.32993" y1="-3.26115" x2="242.599" y2="116.861" gradientUnits="userSpaceOnUse">
<stop stop-color="#93758F"/>
<stop offset="1" stop-color="#8FA5A3"/>
</linearGradient>
</defs>
</svg>
