<svg width="221" height="221" viewBox="0 0 221 221" fill="none" xmlns="http://www.w3.org/2000/svg">
<circle cx="110.515" cy="110.418" r="110.266" fill="url(#paint0_linear)"/>
<path d="M70.0148 125.676L73.4468 137.508L76.7828 126.708H78.7028L82.2308 137.556L85.8788 125.676H89.0708L83.7188 141.252H80.7428L77.8148 132.468L74.9108 141.252H71.9348L66.8468 125.676H70.0148ZM98.9301 130.98C99.3301 131.492 99.6261 132.084 99.8181 132.756C100.026 133.428 100.13 134.044 100.13 134.604C100.13 135.164 100.098 135.668 100.034 136.116H92.4981C92.5301 137.06 92.7621 137.828 93.1941 138.42C93.6261 139.012 94.2821 139.308 95.1621 139.308C96.3301 139.308 97.0261 138.796 97.2501 137.772H100.106C99.9141 138.94 99.3781 139.86 98.4981 140.532C97.5861 141.236 96.4741 141.588 95.1621 141.588C93.6261 141.588 92.3381 141.028 91.2981 139.908C90.2261 138.74 89.6901 137.244 89.6901 135.42C89.6901 133.548 90.2261 132.044 91.2981 130.908C92.3221 129.82 93.6101 129.276 95.1621 129.276C96.7781 129.276 98.0341 129.844 98.9301 130.98ZM95.1861 131.532C94.3861 131.532 93.7621 131.796 93.3141 132.324C92.8661 132.836 92.6021 133.5 92.5221 134.316H97.4901C97.4901 133.052 97.0901 132.204 96.2901 131.772C95.9861 131.612 95.6181 131.532 95.1861 131.532ZM111.657 130.98C112.057 131.492 112.353 132.084 112.545 132.756C112.753 133.428 112.857 134.044 112.857 134.604C112.857 135.164 112.825 135.668 112.761 136.116H105.225C105.257 137.06 105.489 137.828 105.921 138.42C106.353 139.012 107.009 139.308 107.889 139.308C109.057 139.308 109.753 138.796 109.977 137.772H112.833C112.641 138.94 112.105 139.86 111.225 140.532C110.313 141.236 109.201 141.588 107.889 141.588C106.353 141.588 105.065 141.028 104.025 139.908C102.953 138.74 102.417 137.244 102.417 135.42C102.417 133.548 102.953 132.044 104.025 130.908C105.049 129.82 106.337 129.276 107.889 129.276C109.505 129.276 110.761 129.844 111.657 130.98ZM107.913 131.532C107.113 131.532 106.489 131.796 106.041 132.324C105.593 132.836 105.329 133.5 105.249 134.316H110.217C110.217 133.052 109.817 132.204 109.017 131.772C108.713 131.612 108.345 131.532 107.913 131.532ZM120.375 135.564L119.079 136.644V141.252H116.247V124.788H119.079V133.692L123.687 129.588H127.527L122.367 133.908L127.815 141.252H124.359L120.375 135.564ZM141.306 127.932C139.562 127.932 138.546 128.596 138.258 129.924H135.282C135.442 128.388 136.066 127.228 137.154 126.444C138.178 125.724 139.522 125.364 141.186 125.364C142.898 125.364 144.29 125.764 145.362 126.564C146.482 127.38 147.042 128.428 147.042 129.708C147.042 130.508 146.826 131.204 146.394 131.796C145.962 132.372 145.322 132.804 144.474 133.092C145.418 133.412 146.17 133.892 146.73 134.532C147.306 135.156 147.594 135.876 147.594 136.692C147.594 137.508 147.442 138.204 147.138 138.78C146.85 139.356 146.434 139.852 145.89 140.268C144.738 141.148 143.242 141.588 141.402 141.588C139.642 141.588 138.162 141.14 136.962 140.244C135.618 139.268 134.946 137.972 134.946 136.356H137.97C138.018 137.172 138.346 137.812 138.954 138.276C139.578 138.74 140.386 138.972 141.378 138.972C142.37 138.972 143.138 138.756 143.682 138.324C144.242 137.876 144.522 137.316 144.522 136.644C144.522 135.956 144.266 135.42 143.754 135.036C143.258 134.652 142.466 134.46 141.378 134.46H139.314V132.228H141.09C142.002 132.228 142.714 132.036 143.226 131.652C143.738 131.252 143.994 130.732 143.994 130.092C143.994 129.452 143.77 128.932 143.322 128.532C142.89 128.132 142.218 127.932 141.306 127.932ZM152.012 141.06C151.436 141.06 150.964 140.884 150.596 140.532C150.228 140.18 150.044 139.732 150.044 139.188C150.044 138.644 150.228 138.188 150.596 137.82C150.964 137.452 151.436 137.268 152.012 137.268C152.588 137.268 153.068 137.452 153.452 137.82C153.836 138.188 154.028 138.644 154.028 139.188C154.028 139.732 153.836 140.18 153.452 140.532C153.068 140.884 152.588 141.06 152.012 141.06ZM152.012 133.932C151.436 133.932 150.964 133.756 150.596 133.404C150.228 133.052 150.044 132.604 150.044 132.06C150.044 131.516 150.228 131.06 150.596 130.692C150.964 130.324 151.436 130.14 152.012 130.14C152.588 130.14 153.068 130.324 153.452 130.692C153.836 131.06 154.028 131.516 154.028 132.06C154.028 132.604 153.836 133.052 153.452 133.404C153.068 133.756 152.588 133.932 152.012 133.932ZM57.2656 160.868C58.8443 160.868 60.119 161.338 61.0896 162.276C62.071 163.215 62.5616 164.479 62.5616 166.068C62.5616 167.647 62.071 168.906 61.0896 169.844C60.119 170.783 58.8443 171.252 57.2656 171.252H53.8896V160.868H57.2656ZM55.7936 169.54H57.2656C58.247 169.54 59.0416 169.21 59.6496 168.548C60.2256 167.908 60.5136 167.082 60.5136 166.068C60.5136 165.034 60.2256 164.196 59.6496 163.556C59.0523 162.906 58.2576 162.58 57.2656 162.58H55.7936V169.54ZM70.2984 164.404C70.565 164.746 70.7624 165.14 70.8904 165.588C71.029 166.036 71.0984 166.447 71.0984 166.82C71.0984 167.194 71.077 167.53 71.0344 167.828H66.0104C66.0317 168.458 66.1864 168.97 66.4744 169.364C66.7624 169.759 67.1997 169.956 67.7864 169.956C68.565 169.956 69.029 169.615 69.1784 168.932H71.0824C70.9544 169.711 70.597 170.324 70.0104 170.772C69.4024 171.242 68.661 171.476 67.7864 171.476C66.7624 171.476 65.9037 171.103 65.2104 170.356C64.4957 169.578 64.1384 168.58 64.1384 167.364C64.1384 166.116 64.4957 165.114 65.2104 164.356C65.893 163.631 66.7517 163.268 67.7864 163.268C68.8637 163.268 69.701 163.647 70.2984 164.404ZM67.8024 164.772C67.269 164.772 66.853 164.948 66.5544 165.3C66.2557 165.642 66.0797 166.084 66.0264 166.628H69.3384C69.3384 165.786 69.0717 165.22 68.5384 164.932C68.3357 164.826 68.0904 164.772 67.8024 164.772ZM73.3587 160.276H75.2467V171.252H73.3587V160.276ZM78.3781 163.46H80.2661V171.252H78.3781V163.46ZM78.1541 160.964C78.1541 160.623 78.2555 160.356 78.4581 160.164C78.6608 159.962 78.9488 159.86 79.3221 159.86C79.6848 159.86 79.9675 159.962 80.1701 160.164C80.3835 160.356 80.4901 160.623 80.4901 160.964C80.4901 161.306 80.3835 161.578 80.1701 161.78C79.9675 161.972 79.6848 162.068 79.3221 162.068C78.9488 162.068 78.6608 161.972 78.4581 161.78C78.2555 161.578 78.1541 161.306 78.1541 160.964ZM84.3481 163.476L86.1241 169.38L87.9161 163.476H90.0921L87.1961 171.252H85.0681L82.1721 163.476H84.3481ZM97.189 164.404C97.4557 164.746 97.653 165.14 97.781 165.588C97.9197 166.036 97.989 166.447 97.989 166.82C97.989 167.194 97.9677 167.53 97.925 167.828H92.901C92.9223 168.458 93.077 168.97 93.365 169.364C93.653 169.759 94.0903 169.956 94.677 169.956C95.4557 169.956 95.9197 169.615 96.069 168.932H97.973C97.845 169.711 97.4877 170.324 96.901 170.772C96.293 171.242 95.5517 171.476 94.677 171.476C93.653 171.476 92.7943 171.103 92.101 170.356C91.3863 169.578 91.029 168.58 91.029 167.364C91.029 166.116 91.3863 165.114 92.101 164.356C92.7837 163.631 93.6423 163.268 94.677 163.268C95.7543 163.268 96.5917 163.647 97.189 164.404ZM94.693 164.772C94.1597 164.772 93.7437 164.948 93.445 165.3C93.1463 165.642 92.9703 166.084 92.917 166.628H96.229C96.229 165.786 95.9623 165.22 95.429 164.932C95.2263 164.826 94.981 164.772 94.693 164.772ZM102.137 165.012C102.607 163.892 103.311 163.332 104.249 163.332C104.431 163.332 104.66 163.37 104.937 163.444L104.905 165.332C104.607 165.268 104.313 165.236 104.025 165.236C102.767 165.236 102.137 166.106 102.137 167.844V171.252H100.249V163.46H102.137V165.012ZM121.688 165.748C121.219 167.082 120.632 168.186 119.928 169.06L120.2 169.3C120.392 169.471 120.574 169.599 120.744 169.684C120.915 169.77 121.123 169.812 121.368 169.812C121.624 169.812 121.843 169.722 122.024 169.54C122.206 169.348 122.307 169.044 122.328 168.628H124.04C124.019 169.503 123.8 170.196 123.384 170.708C122.979 171.22 122.371 171.476 121.56 171.476C121.048 171.476 120.574 171.375 120.136 171.172C119.71 170.97 119.256 170.65 118.776 170.212C117.71 171.055 116.526 171.476 115.224 171.476C114.03 171.476 113.016 171.172 112.184 170.564C111.352 169.946 110.936 169.188 110.936 168.292C110.936 166.906 111.912 166.058 113.864 165.748L113.608 165.508C112.84 164.815 112.456 164.052 112.456 163.22C112.456 162.484 112.76 161.887 113.368 161.428C114.019 160.938 114.883 160.692 115.96 160.692C116.995 160.692 117.838 160.938 118.488 161.428C119.086 161.887 119.384 162.463 119.384 163.156C119.384 163.85 119.16 164.436 118.712 164.916C118.275 165.386 117.603 165.791 116.696 166.132L118.728 167.972C119.379 167.194 119.939 166.218 120.408 165.044L121.688 165.748ZM114.936 166.708C113.656 166.89 113.016 167.38 113.016 168.18C113.016 168.628 113.208 169.007 113.592 169.316C113.987 169.615 114.536 169.764 115.24 169.764C116.051 169.764 116.814 169.53 117.528 169.06L114.936 166.708ZM115.656 165.188C116.232 164.943 116.648 164.682 116.904 164.404C117.171 164.127 117.304 163.818 117.304 163.476C117.304 163.124 117.182 162.847 116.936 162.644C116.691 162.431 116.35 162.324 115.912 162.324C115.475 162.324 115.134 162.442 114.888 162.676C114.654 162.9 114.536 163.172 114.536 163.492C114.536 163.962 114.787 164.415 115.288 164.852L115.656 165.188ZM132.325 169.604H136.597V171.252H130.437V160.868H132.325V169.604ZM138.503 163.46H140.391V171.252H138.503V163.46ZM138.279 160.964C138.279 160.623 138.38 160.356 138.583 160.164C138.786 159.962 139.074 159.86 139.447 159.86C139.81 159.86 140.092 159.962 140.295 160.164C140.508 160.356 140.615 160.623 140.615 160.964C140.615 161.306 140.508 161.578 140.295 161.78C140.092 161.972 139.81 162.068 139.447 162.068C139.074 162.068 138.786 161.972 138.583 161.78C138.38 161.578 138.279 161.306 138.279 160.964ZM144.649 168.884C144.67 169.62 145.209 169.988 146.265 169.988C146.67 169.988 147.001 169.903 147.257 169.732C147.524 169.551 147.657 169.343 147.657 169.108C147.657 168.874 147.577 168.692 147.417 168.564C147.257 168.436 147.006 168.319 146.665 168.212L144.969 167.604C143.71 167.167 143.081 166.452 143.081 165.46C143.081 164.799 143.374 164.271 143.961 163.876C144.558 163.471 145.353 163.268 146.345 163.268C147.348 163.268 148.116 163.487 148.649 163.924C149.193 164.362 149.476 164.911 149.497 165.572H147.721C147.7 165.316 147.577 165.114 147.353 164.964C147.129 164.815 146.809 164.74 146.393 164.74C145.977 164.74 145.652 164.826 145.417 164.996C145.193 165.156 145.081 165.343 145.081 165.556C145.081 165.93 145.396 166.207 146.025 166.388L147.865 167.076C148.473 167.279 148.937 167.54 149.257 167.86C149.588 168.17 149.753 168.575 149.753 169.076C149.753 169.716 149.449 170.271 148.841 170.74C148.212 171.231 147.38 171.476 146.345 171.476C145.31 171.476 144.478 171.252 143.849 170.804C143.22 170.346 142.9 169.706 142.889 168.884H144.649ZM156.415 171.06C155.711 171.338 155.156 171.476 154.751 171.476C154.345 171.476 153.988 171.428 153.679 171.332C153.38 171.236 153.113 171.092 152.879 170.9C152.388 170.463 152.143 169.86 152.143 169.092V164.74H151.055V163.476H152.143V161.428H154.031V163.476H156.143V164.74H154.031V169.028C154.031 169.668 154.335 169.988 154.943 169.988C155.252 169.988 155.652 169.903 156.143 169.732L156.415 171.06ZM163.767 164.404C164.034 164.746 164.231 165.14 164.359 165.588C164.498 166.036 164.567 166.447 164.567 166.82C164.567 167.194 164.546 167.53 164.503 167.828H159.479C159.5 168.458 159.655 168.97 159.943 169.364C160.231 169.759 160.668 169.956 161.255 169.956C162.034 169.956 162.498 169.615 162.647 168.932H164.551C164.423 169.711 164.066 170.324 163.479 170.772C162.871 171.242 162.13 171.476 161.255 171.476C160.231 171.476 159.372 171.103 158.679 170.356C157.964 169.578 157.607 168.58 157.607 167.364C157.607 166.116 157.964 165.114 158.679 164.356C159.362 163.631 160.22 163.268 161.255 163.268C162.332 163.268 163.17 163.647 163.767 164.404ZM161.271 164.772C160.738 164.772 160.322 164.948 160.023 165.3C159.724 165.642 159.548 166.084 159.495 166.628H162.807C162.807 165.786 162.54 165.22 162.007 164.932C161.804 164.826 161.559 164.772 161.271 164.772ZM168.683 164.82C169.195 163.786 170.017 163.268 171.147 163.268C172.107 163.268 172.827 163.583 173.307 164.212C173.798 164.842 174.043 165.674 174.043 166.708V171.252H172.155V166.708C172.155 166.132 172.017 165.7 171.739 165.412C171.462 165.114 171.073 164.964 170.571 164.964C170.07 164.964 169.638 165.188 169.275 165.636C168.923 166.084 168.737 166.756 168.715 167.652V171.252H166.827V163.476H168.475L168.683 164.82Z" fill="white"/>
<path d="M108.134 80.6831V84.8057" stroke="white" stroke-linecap="round"/>
<path d="M118.433 80.6831V84.8057" stroke="white" stroke-linecap="round"/>
<path d="M113.484 79.9961V86.5236" stroke="white" stroke-linecap="round"/>
<path d="M116.981 76.4509H109.768C102.998 59.6655 100.622 50.5866 114.096 38.5334C123.667 49.5688 126 57.1085 116.981 76.4509Z" stroke="white" stroke-linecap="round"/>
<path d="M122.976 58.2883C129.446 61.8033 130.202 64.7647 128.176 71.216C125.509 68.9056 124.042 67.4199 121.026 67.3882" stroke="white" stroke-linecap="round"/>
<path d="M103.966 58.2883C97.4954 61.8033 96.74 64.7647 98.7655 71.216C101.433 68.9056 102.9 67.4199 105.916 67.3882" stroke="white" stroke-linecap="round"/>
<path d="M108.987 43.8309C112.557 45.2153 114.54 45.1781 118.108 43.8309" stroke="white" stroke-linecap="round"/>
<circle cx="113.863" cy="55.2961" r="4.07002" stroke="#FEFEFF"/>
<path d="M94.9525 90.2036C93.6293 93.0325 91.5812 90.5872 90.2514 92.7668C89.7839 96.008 91.2651 97.0136 97.4289 96.5813C100.531 99.333 101.247 99.4011 103.899 96.6384C107.946 96.1806 108.199 93.7615 104.277 91.9632C102.751 87.7355 96.2758 87.3747 94.9525 90.2036Z" stroke="white" stroke-linecap="round"/>
<path d="M131.948 89.6242C133.576 92.6069 136.635 89.777 138.324 92.0506C138.722 95.5507 136.571 96.7648 127.981 96.7788C123.423 100.026 122.416 100.157 118.923 97.3511C113.297 97.1704 113.134 94.5505 118.762 92.2791C121.231 87.5453 130.319 86.6414 131.948 89.6242Z" stroke="white" stroke-linecap="round"/>
<defs>
<linearGradient id="paint0_linear" x1="110.515" y1="0.152344" x2="110.515" y2="220.684" gradientUnits="userSpaceOnUse">
<stop stop-color="#93708C"/>
<stop offset="1" stop-color="#8EA7A4"/>
</linearGradient>
</defs>
</svg>
