<svg width="222" height="222" viewBox="0 0 222 222" fill="none" xmlns="http://www.w3.org/2000/svg">
<circle cx="110.766" cy="110.925" r="110.266" fill="url(#paint0_linear)"/>
<path d="M70.0936 113.594L73.5256 125.426L76.8616 114.626H78.7816L82.3096 125.474L85.9576 113.594H89.1496L83.7976 129.17H80.8216L77.8936 120.386L74.9896 129.17H72.0136L66.9256 113.594H70.0936ZM99.0089 118.898C99.4089 119.41 99.7049 120.002 99.8969 120.674C100.105 121.346 100.209 121.962 100.209 122.522C100.209 123.082 100.177 123.586 100.113 124.034H92.5769C92.6089 124.978 92.8409 125.746 93.2729 126.338C93.7049 126.93 94.3609 127.226 95.2409 127.226C96.4089 127.226 97.1049 126.714 97.3289 125.69H100.185C99.9929 126.858 99.4569 127.778 98.5769 128.45C97.6649 129.154 96.5529 129.506 95.2409 129.506C93.7049 129.506 92.4169 128.946 91.3769 127.826C90.3049 126.658 89.7689 125.162 89.7689 123.338C89.7689 121.466 90.3049 119.962 91.3769 118.826C92.4009 117.738 93.6889 117.194 95.2409 117.194C96.8569 117.194 98.1129 117.762 99.0089 118.898ZM95.2649 119.45C94.4649 119.45 93.8409 119.714 93.3929 120.242C92.9449 120.754 92.6809 121.418 92.6009 122.234H97.5689C97.5689 120.97 97.1689 120.122 96.3689 119.69C96.0649 119.53 95.6969 119.45 95.2649 119.45ZM111.736 118.898C112.136 119.41 112.432 120.002 112.624 120.674C112.832 121.346 112.936 121.962 112.936 122.522C112.936 123.082 112.904 123.586 112.84 124.034H105.304C105.336 124.978 105.568 125.746 106 126.338C106.432 126.93 107.088 127.226 107.968 127.226C109.136 127.226 109.832 126.714 110.056 125.69H112.912C112.72 126.858 112.184 127.778 111.304 128.45C110.392 129.154 109.28 129.506 107.968 129.506C106.432 129.506 105.144 128.946 104.104 127.826C103.032 126.658 102.496 125.162 102.496 123.338C102.496 121.466 103.032 119.962 104.104 118.826C105.128 117.738 106.416 117.194 107.968 117.194C109.584 117.194 110.84 117.762 111.736 118.898ZM107.992 119.45C107.192 119.45 106.568 119.714 106.12 120.242C105.672 120.754 105.408 121.418 105.328 122.234H110.296C110.296 120.97 109.896 120.122 109.096 119.69C108.792 119.53 108.424 119.45 107.992 119.45ZM120.454 123.482L119.158 124.562V129.17H116.326V112.706H119.158V121.61L123.766 117.506H127.606L122.446 121.826L127.894 129.17H124.438L120.454 123.482ZM134.977 114.77C136.177 114.594 137.233 114.17 138.145 113.498H140.281V129.17H137.449V116.882C136.633 117.282 135.809 117.482 134.977 117.482V114.77ZM145.739 128.978C145.163 128.978 144.691 128.802 144.323 128.45C143.955 128.098 143.771 127.65 143.771 127.106C143.771 126.562 143.955 126.106 144.323 125.738C144.691 125.37 145.163 125.186 145.739 125.186C146.315 125.186 146.795 125.37 147.179 125.738C147.563 126.106 147.755 126.562 147.755 127.106C147.755 127.65 147.563 128.098 147.179 128.45C146.795 128.802 146.315 128.978 145.739 128.978ZM145.739 121.85C145.163 121.85 144.691 121.674 144.323 121.322C143.955 120.97 143.771 120.522 143.771 119.978C143.771 119.434 143.955 118.978 144.323 118.61C144.691 118.242 145.163 118.058 145.739 118.058C146.315 118.058 146.795 118.242 147.179 118.61C147.563 118.978 147.755 119.434 147.755 119.978C147.755 120.522 147.563 120.97 147.179 121.322C146.795 121.674 146.315 121.85 145.739 121.85ZM46.1686 148.786C47.7473 148.786 49.022 149.256 49.9926 150.194C50.974 151.133 51.4646 152.397 51.4646 153.986C51.4646 155.565 50.974 156.824 49.9926 157.762C49.022 158.701 47.7473 159.17 46.1686 159.17H42.7926V148.786H46.1686ZM44.6966 157.458H46.1686C47.15 157.458 47.9446 157.128 48.5526 156.466C49.1286 155.826 49.4166 155 49.4166 153.986C49.4166 152.952 49.1286 152.114 48.5526 151.474C47.9553 150.824 47.1606 150.498 46.1686 150.498H44.6966V157.458ZM53.9374 151.378H55.8254V159.17H53.9374V151.378ZM53.7134 148.882C53.7134 148.541 53.8147 148.274 54.0174 148.082C54.22 147.88 54.508 147.778 54.8814 147.778C55.244 147.778 55.5267 147.88 55.7294 148.082C55.9427 148.274 56.0494 148.541 56.0494 148.882C56.0494 149.224 55.9427 149.496 55.7294 149.698C55.5267 149.89 55.244 149.986 54.8814 149.986C54.508 149.986 54.22 149.89 54.0174 149.698C53.8147 149.496 53.7134 149.224 53.7134 148.882ZM60.0834 156.802C60.1047 157.538 60.6434 157.906 61.6994 157.906C62.1047 157.906 62.4354 157.821 62.6914 157.65C62.958 157.469 63.0914 157.261 63.0914 157.026C63.0914 156.792 63.0114 156.61 62.8514 156.482C62.6914 156.354 62.4407 156.237 62.0994 156.13L60.4034 155.522C59.1447 155.085 58.5154 154.37 58.5154 153.378C58.5154 152.717 58.8087 152.189 59.3954 151.794C59.9927 151.389 60.7874 151.186 61.7794 151.186C62.782 151.186 63.55 151.405 64.0834 151.842C64.6274 152.28 64.91 152.829 64.9314 153.49H63.1554C63.134 153.234 63.0114 153.032 62.7874 152.882C62.5634 152.733 62.2434 152.658 61.8274 152.658C61.4114 152.658 61.086 152.744 60.8514 152.914C60.6274 153.074 60.5154 153.261 60.5154 153.474C60.5154 153.848 60.83 154.125 61.4594 154.306L63.2994 154.994C63.9074 155.197 64.3714 155.458 64.6914 155.778C65.022 156.088 65.1874 156.493 65.1874 156.994C65.1874 157.634 64.8834 158.189 64.2754 158.658C63.646 159.149 62.814 159.394 61.7794 159.394C60.7447 159.394 59.9127 159.17 59.2834 158.722C58.654 158.264 58.334 157.624 58.3234 156.802H60.0834ZM70.4249 151.186C70.9155 151.186 71.3529 151.272 71.7369 151.442C72.1315 151.602 72.4622 151.816 72.7289 152.082C73.2622 152.594 73.5769 153.24 73.6729 154.018L71.7689 154.066C71.6835 153.725 71.5235 153.442 71.2889 153.218C71.0649 152.994 70.8035 152.882 70.5049 152.882C70.2062 152.882 69.9502 152.93 69.7369 153.026C69.5235 153.112 69.3369 153.25 69.1769 153.442C68.8142 153.89 68.6329 154.509 68.6329 155.298C68.6329 156.088 68.8035 156.685 69.1449 157.09C69.4862 157.485 69.8969 157.682 70.3769 157.682C70.8675 157.682 71.2195 157.57 71.4329 157.346C71.6569 157.112 71.7689 156.797 71.7689 156.402H73.6729C73.6729 157.256 73.3902 157.965 72.8249 158.53C72.2489 159.106 71.4435 159.394 70.4089 159.394C69.3849 159.394 68.5262 159.021 67.8329 158.274C67.0969 157.474 66.7289 156.477 66.7289 155.282C66.7289 154.024 67.0969 153.016 67.8329 152.258C68.5262 151.544 69.3902 151.186 70.4249 151.186ZM79.0053 151.186C79.5279 151.186 80.0186 151.272 80.4773 151.442C80.9359 151.602 81.3306 151.853 81.6613 152.194C82.3973 152.941 82.7653 153.976 82.7653 155.298C82.7653 156.6 82.3973 157.624 81.6613 158.37C80.9999 159.053 80.1146 159.394 79.0053 159.394C77.8959 159.394 76.9999 159.053 76.3173 158.37C75.5813 157.634 75.2133 156.61 75.2133 155.298C75.2133 153.965 75.5813 152.93 76.3173 152.194C76.9893 151.522 77.8853 151.186 79.0053 151.186ZM80.8773 155.282C80.8773 154.461 80.7173 153.848 80.3973 153.442C80.0773 153.026 79.6293 152.818 79.0533 152.818C78.4879 152.818 78.0239 153.026 77.6613 153.442C77.2986 153.848 77.1173 154.461 77.1173 155.282C77.1173 156.104 77.2773 156.722 77.5973 157.138C77.9279 157.544 78.3759 157.746 78.9413 157.746C79.5066 157.746 79.9706 157.544 80.3333 157.138C80.6959 156.722 80.8773 156.104 80.8773 155.282ZM85.8918 151.394L87.6678 157.298L89.4598 151.394H91.6358L88.7398 159.17H86.6118L83.7158 151.394H85.8918ZM98.7326 152.322C98.9993 152.664 99.1966 153.058 99.3246 153.506C99.4633 153.954 99.5326 154.365 99.5326 154.738C99.5326 155.112 99.5113 155.448 99.4686 155.746H94.4446C94.466 156.376 94.6206 156.888 94.9086 157.282C95.1966 157.677 95.634 157.874 96.2206 157.874C96.9993 157.874 97.4633 157.533 97.6126 156.85H99.5166C99.3886 157.629 99.0313 158.242 98.4446 158.69C97.8366 159.16 97.0953 159.394 96.2206 159.394C95.1966 159.394 94.338 159.021 93.6446 158.274C92.93 157.496 92.5726 156.498 92.5726 155.282C92.5726 154.034 92.93 153.032 93.6446 152.274C94.3273 151.549 95.186 151.186 96.2206 151.186C97.298 151.186 98.1353 151.565 98.7326 152.322ZM96.2366 152.69C95.7033 152.69 95.2873 152.866 94.9886 153.218C94.69 153.56 94.514 154.002 94.4606 154.546H97.7726C97.7726 153.704 97.506 153.138 96.9726 152.85C96.77 152.744 96.5246 152.69 96.2366 152.69ZM103.681 152.93C104.15 151.81 104.854 151.25 105.793 151.25C105.974 151.25 106.204 151.288 106.481 151.362L106.449 153.25C106.15 153.186 105.857 153.154 105.569 153.154C104.31 153.154 103.681 154.024 103.681 155.762V159.17H101.793V151.378H103.681V152.93ZM108.817 159.25C108.519 159.197 108.263 159.08 108.049 158.898C107.847 158.706 107.745 158.456 107.745 158.146C107.745 157.826 107.868 157.554 108.113 157.33C108.359 157.106 108.695 156.994 109.121 156.994C109.548 156.994 109.895 157.16 110.161 157.49C110.428 157.821 110.561 158.226 110.561 158.706C110.561 159.485 110.209 160.194 109.505 160.834C109.281 161.037 109.031 161.208 108.753 161.346L107.345 160.642C107.697 160.461 108.007 160.258 108.273 160.034C108.551 159.81 108.732 159.549 108.817 159.25ZM116.527 148.786H123.215V150.418H118.415V153.154H122.911V154.786H118.415V157.522H123.215V159.17H116.527V148.786ZM133.022 159.17H130.718L128.798 156.674L127.006 159.17H124.686L127.71 155.298L124.686 151.378H127.006L128.91 153.874L130.718 151.378H133.022L130.014 155.298L133.022 159.17ZM136.505 152.45C136.996 151.608 137.743 151.186 138.745 151.186C139.705 151.186 140.527 151.549 141.209 152.274C141.935 153.042 142.297 154.045 142.297 155.282C142.297 156.53 141.929 157.538 141.193 158.306C140.511 159.032 139.695 159.394 138.745 159.394C137.796 159.394 137.103 159.112 136.665 158.546V162.962H134.777V151.394H136.329L136.505 152.45ZM138.409 157.682C138.633 157.682 138.863 157.634 139.097 157.538C139.343 157.442 139.561 157.293 139.753 157.09C140.18 156.642 140.393 156.045 140.393 155.298C140.393 154.541 140.207 153.949 139.833 153.522C139.471 153.096 139.023 152.882 138.489 152.882C137.967 152.882 137.535 153.037 137.193 153.346C136.863 153.645 136.687 154.077 136.665 154.642V156.034C136.665 156.536 136.841 156.941 137.193 157.25C137.524 157.538 137.929 157.682 138.409 157.682ZM144.543 148.194H146.431V159.17H144.543V148.194ZM152.458 151.186C152.981 151.186 153.472 151.272 153.93 151.442C154.389 151.602 154.784 151.853 155.114 152.194C155.85 152.941 156.218 153.976 156.218 155.298C156.218 156.6 155.85 157.624 155.114 158.37C154.453 159.053 153.568 159.394 152.458 159.394C151.349 159.394 150.453 159.053 149.77 158.37C149.034 157.634 148.666 156.61 148.666 155.298C148.666 153.965 149.034 152.93 149.77 152.194C150.442 151.522 151.338 151.186 152.458 151.186ZM154.33 155.282C154.33 154.461 154.17 153.848 153.85 153.442C153.53 153.026 153.082 152.818 152.506 152.818C151.941 152.818 151.477 153.026 151.114 153.442C150.752 153.848 150.57 154.461 150.57 155.282C150.57 156.104 150.73 156.722 151.05 157.138C151.381 157.544 151.829 157.746 152.394 157.746C152.96 157.746 153.424 157.544 153.786 157.138C154.149 156.722 154.33 156.104 154.33 155.282ZM160.353 152.93C160.822 151.81 161.526 151.25 162.465 151.25C162.646 151.25 162.876 151.288 163.153 151.362L163.121 153.25C162.822 153.186 162.529 153.154 162.241 153.154C160.982 153.154 160.353 154.024 160.353 155.762V159.17H158.465V151.378H160.353V152.93ZM170.545 152.322C170.812 152.664 171.009 153.058 171.137 153.506C171.276 153.954 171.345 154.365 171.345 154.738C171.345 155.112 171.324 155.448 171.281 155.746H166.257C166.278 156.376 166.433 156.888 166.721 157.282C167.009 157.677 167.446 157.874 168.033 157.874C168.812 157.874 169.276 157.533 169.425 156.85H171.329C171.201 157.629 170.844 158.242 170.257 158.69C169.649 159.16 168.908 159.394 168.033 159.394C167.009 159.394 166.15 159.021 165.457 158.274C164.742 157.496 164.385 156.498 164.385 155.282C164.385 154.034 164.742 153.032 165.457 152.274C166.14 151.549 166.998 151.186 168.033 151.186C169.11 151.186 169.948 151.565 170.545 152.322ZM168.049 152.69C167.516 152.69 167.1 152.866 166.801 153.218C166.502 153.56 166.326 154.002 166.273 154.546H169.585C169.585 153.704 169.318 153.138 168.785 152.85C168.582 152.744 168.337 152.69 168.049 152.69ZM173.974 159.25C173.675 159.197 173.419 159.08 173.206 158.898C173.003 158.706 172.902 158.456 172.902 158.146C172.902 157.826 173.024 157.554 173.27 157.33C173.515 157.106 173.851 156.994 174.278 156.994C174.704 156.994 175.051 157.16 175.318 157.49C175.584 157.821 175.718 158.226 175.718 158.706C175.718 159.485 175.366 160.194 174.662 160.834C174.438 161.037 174.187 161.208 173.91 161.346L172.502 160.642C172.854 160.461 173.163 160.258 173.43 160.034C173.707 159.81 173.888 159.549 173.974 159.25ZM88.7399 183.666C88.2706 185 87.6839 186.104 86.9799 186.978L87.2519 187.218C87.4439 187.389 87.6253 187.517 87.7959 187.602C87.9666 187.688 88.1746 187.73 88.4199 187.73C88.6759 187.73 88.8946 187.64 89.0759 187.458C89.2573 187.266 89.3586 186.962 89.3799 186.546H91.0919C91.0706 187.421 90.8519 188.114 90.4359 188.626C90.0306 189.138 89.4226 189.394 88.6119 189.394C88.0999 189.394 87.6253 189.293 87.1879 189.09C86.7613 188.888 86.3079 188.568 85.8279 188.13C84.7613 188.973 83.5773 189.394 82.2759 189.394C81.0813 189.394 80.0679 189.09 79.2359 188.482C78.4039 187.864 77.9879 187.106 77.9879 186.21C77.9879 184.824 78.9639 183.976 80.9159 183.666L80.6599 183.426C79.8919 182.733 79.5079 181.97 79.5079 181.138C79.5079 180.402 79.8119 179.805 80.4199 179.346C81.0706 178.856 81.9346 178.61 83.0119 178.61C84.0466 178.61 84.8893 178.856 85.5399 179.346C86.1373 179.805 86.4359 180.381 86.4359 181.074C86.4359 181.768 86.2119 182.354 85.7639 182.834C85.3266 183.304 84.6546 183.709 83.7479 184.05L85.7799 185.89C86.4306 185.112 86.9906 184.136 87.4599 182.962L88.7399 183.666ZM81.9879 184.626C80.7079 184.808 80.0679 185.298 80.0679 186.098C80.0679 186.546 80.2599 186.925 80.6439 187.234C81.0386 187.533 81.5879 187.682 82.2919 187.682C83.1026 187.682 83.8653 187.448 84.5799 186.978L81.9879 184.626ZM82.7079 183.106C83.2839 182.861 83.6999 182.6 83.9559 182.322C84.2226 182.045 84.3559 181.736 84.3559 181.394C84.3559 181.042 84.2333 180.765 83.9879 180.562C83.7426 180.349 83.4013 180.242 82.9639 180.242C82.5266 180.242 82.1853 180.36 81.9399 180.594C81.7053 180.818 81.5879 181.09 81.5879 181.41C81.5879 181.88 81.8386 182.333 82.3399 182.77L82.7079 183.106ZM100.848 178.786C102.427 178.786 103.702 179.256 104.672 180.194C105.654 181.133 106.144 182.397 106.144 183.986C106.144 185.565 105.654 186.824 104.672 187.762C103.702 188.701 102.427 189.17 100.848 189.17H97.4723V178.786H100.848ZM99.3763 187.458H100.848C101.83 187.458 102.624 187.128 103.232 186.466C103.808 185.826 104.096 185 104.096 183.986C104.096 182.952 103.808 182.114 103.232 181.474C102.635 180.824 101.84 180.498 100.848 180.498H99.3763V187.458ZM113.881 182.322C114.148 182.664 114.345 183.058 114.473 183.506C114.612 183.954 114.681 184.365 114.681 184.738C114.681 185.112 114.66 185.448 114.617 185.746H109.593C109.614 186.376 109.769 186.888 110.057 187.282C110.345 187.677 110.782 187.874 111.369 187.874C112.148 187.874 112.612 187.533 112.761 186.85H114.665C114.537 187.629 114.18 188.242 113.593 188.69C112.985 189.16 112.244 189.394 111.369 189.394C110.345 189.394 109.486 189.021 108.793 188.274C108.078 187.496 107.721 186.498 107.721 185.282C107.721 184.034 108.078 183.032 108.793 182.274C109.476 181.549 110.334 181.186 111.369 181.186C112.446 181.186 113.284 181.565 113.881 182.322ZM111.385 182.69C110.852 182.69 110.436 182.866 110.137 183.218C109.838 183.56 109.662 184.002 109.609 184.546H112.921C112.921 183.704 112.654 183.138 112.121 182.85C111.918 182.744 111.673 182.69 111.385 182.69ZM116.093 181.394H117.245V180.482C117.245 179.682 117.48 179.069 117.949 178.642C118.376 178.258 118.931 178.066 119.613 178.066C120.051 178.066 120.589 178.13 121.229 178.258L120.861 179.714C120.563 179.608 120.291 179.554 120.045 179.554C119.811 179.554 119.603 179.624 119.421 179.762C119.24 179.89 119.149 180.136 119.149 180.498V181.394H120.573V182.658H119.149V189.17H117.245V182.658H116.093V181.394ZM122.961 181.378H124.849V189.17H122.961V181.378ZM122.737 178.882C122.737 178.541 122.838 178.274 123.041 178.082C123.243 177.88 123.531 177.778 123.905 177.778C124.267 177.778 124.55 177.88 124.753 178.082C124.966 178.274 125.073 178.541 125.073 178.882C125.073 179.224 124.966 179.496 124.753 179.698C124.55 179.89 124.267 179.986 123.905 179.986C123.531 179.986 123.243 179.89 123.041 179.698C122.838 179.496 122.737 179.224 122.737 178.882ZM129.907 182.738C130.419 181.704 131.24 181.186 132.371 181.186C133.331 181.186 134.051 181.501 134.531 182.13C135.021 182.76 135.267 183.592 135.267 184.626V189.17H133.379V184.626C133.379 184.05 133.24 183.618 132.963 183.33C132.685 183.032 132.296 182.882 131.795 182.882C131.293 182.882 130.861 183.106 130.499 183.554C130.147 184.002 129.96 184.674 129.939 185.57V189.17H128.051V181.394H129.699L129.907 182.738ZM143.444 182.322C143.71 182.664 143.908 183.058 144.036 183.506C144.174 183.954 144.244 184.365 144.244 184.738C144.244 185.112 144.222 185.448 144.18 185.746H139.156C139.177 186.376 139.332 186.888 139.62 187.282C139.908 187.677 140.345 187.874 140.932 187.874C141.71 187.874 142.174 187.533 142.324 186.85H144.228C144.1 187.629 143.742 188.242 143.156 188.69C142.548 189.16 141.806 189.394 140.932 189.394C139.908 189.394 139.049 189.021 138.356 188.274C137.641 187.496 137.284 186.498 137.284 185.282C137.284 184.034 137.641 183.032 138.356 182.274C139.038 181.549 139.897 181.186 140.932 181.186C142.009 181.186 142.846 181.565 143.444 182.322ZM140.948 182.69C140.414 182.69 139.998 182.866 139.7 183.218C139.401 183.56 139.225 184.002 139.172 184.546H142.484C142.484 183.704 142.217 183.138 141.684 182.85C141.481 182.744 141.236 182.69 140.948 182.69Z" fill="white"/>
<path d="M110.378 43.4169L110.318 33.0688" stroke="white" stroke-linecap="round"/>
<path d="M124.374 47.6408L131.556 39.7668" stroke="white" stroke-linecap="round"/>
<path d="M98.3343 47.3192L91.4269 39.446" stroke="white" stroke-linecap="round"/>
<path d="M93.5133 60.2332L83.2047 58.3806" stroke="white" stroke-linecap="round"/>
<path d="M129.844 59.3068L138.327 56.9229" stroke="white" stroke-linecap="round"/>
<path d="M103.25 83.9145L102.756 83.9893L102.82 84.4145H103.25V83.9145ZM118.928 83.9145V84.4145H119.343L119.42 84.0065L118.928 83.9145ZM99.5531 72.9371L99.071 73.0698C99.0835 73.1151 99.1023 73.1585 99.1269 73.1986L99.5531 72.9371ZM122.938 72.9371L123.348 73.2246C123.365 73.2 123.38 73.174 123.392 73.1467L122.938 72.9371ZM103.25 84.4145H118.928V83.4145H103.25V84.4145ZM100.035 72.8045C97.8427 64.8349 97.8948 59.1745 99.7839 55.4998C101.646 51.8775 105.375 50.0444 110.943 49.9227L110.921 48.9229C105.15 49.049 100.988 50.9707 98.8946 55.0426C96.8283 59.0619 96.8605 65.0347 99.071 73.0698L100.035 72.8045ZM99.1269 73.1986C101.342 76.8094 102.034 79.2204 102.756 83.9893L103.745 83.8397C103.01 78.9879 102.286 76.4365 99.9793 72.6757L99.1269 73.1986ZM110.943 49.9227C116.476 49.8018 120.954 52.0068 123.261 55.9188C125.569 59.8344 125.779 65.5918 122.484 72.7275L123.392 73.1467C126.774 65.8233 126.651 59.6997 124.122 55.4109C121.591 51.1186 116.728 48.796 110.921 48.9229L110.943 49.9227ZM122.529 72.6497C120.575 75.4317 119.295 79.238 118.437 83.8224L119.42 84.0065C120.267 79.4804 121.513 75.8364 123.348 73.2246L122.529 72.6497Z" fill="white"/>
<g filter="url(#filter0_d)">
<path d="M103.635 87.3894H117.897" stroke="white" stroke-width="1.5" stroke-linecap="round"/>
</g>
<path d="M103.635 89.8293H117.897" stroke="white" stroke-width="1.5" stroke-linecap="round"/>
<path d="M103.635 92.3994H117.897" stroke="white" stroke-width="1.5" stroke-linecap="round"/>
<path d="M106.651 94.4504L115.134 94.4647" stroke="white" stroke-linecap="round"/>
<defs>
<filter id="filter0_d" x="98.885" y="86.6394" width="23.7622" height="9.5" filterUnits="userSpaceOnUse" color-interpolation-filters="sRGB">
<feFlood flood-opacity="0" result="BackgroundImageFix"/>
<feColorMatrix in="SourceAlpha" type="matrix" values="0 0 0 0 0 0 0 0 0 0 0 0 0 0 0 0 0 0 127 0" result="hardAlpha"/>
<feOffset dy="4"/>
<feGaussianBlur stdDeviation="2"/>
<feComposite in2="hardAlpha" operator="out"/>
<feColorMatrix type="matrix" values="0 0 0 0 0 0 0 0 0 0 0 0 0 0 0 0 0 0 0.25 0"/>
<feBlend mode="normal" in2="BackgroundImageFix" result="effect1_dropShadow"/>
<feBlend mode="normal" in="SourceGraphic" in2="effect1_dropShadow" result="shape"/>
</filter>
<linearGradient id="paint0_linear" x1="110.766" y1="0.65918" x2="110.766" y2="221.191" gradientUnits="userSpaceOnUse">
<stop stop-color="#93708C"/>
<stop offset="1" stop-color="#8EA7A4"/>
</linearGradient>
</defs>
</svg>
