<svg width="210" height="197" viewBox="0 0 210 197" fill="none" xmlns="http://www.w3.org/2000/svg">
<g filter="url(#filter0_d_658:4118)">
<rect x="15.7266" y="10.1836" width="178.546" height="166.04" rx="10" fill="#F0F4F3"/>
<rect x="16.7266" y="11.1836" width="176.546" height="164.04" rx="9" stroke="url(#paint0_linear_658:4118)" stroke-width="2"/>
</g>
<path d="M52.9579 138.038C54.5366 138.038 55.8113 138.507 56.7819 139.446C57.7633 140.384 58.2539 141.648 58.2539 143.238C58.2539 144.816 57.7633 146.075 56.7819 147.014C55.8113 147.952 54.5366 148.422 52.9579 148.422H49.5819V138.038H52.9579ZM51.4859 146.71H52.9579C53.9393 146.71 54.7339 146.379 55.3419 145.718C55.9179 145.078 56.2059 144.251 56.2059 143.238C56.2059 142.203 55.9179 141.366 55.3419 140.726C54.7446 140.075 53.9499 139.75 52.9579 139.75H51.4859V146.71ZM65.9907 141.574C66.2574 141.915 66.4547 142.31 66.5827 142.758C66.7214 143.206 66.7907 143.616 66.7907 143.99C66.7907 144.363 66.7694 144.699 66.7267 144.998H61.7027C61.724 145.627 61.8787 146.139 62.1667 146.534C62.4547 146.928 62.892 147.126 63.4787 147.126C64.2574 147.126 64.7214 146.784 64.8707 146.102H66.7747C66.6467 146.88 66.2894 147.494 65.7027 147.942C65.0947 148.411 64.3534 148.646 63.4787 148.646C62.4547 148.646 61.596 148.272 60.9027 147.526C60.188 146.747 59.8307 145.75 59.8307 144.534C59.8307 143.286 60.188 142.283 60.9027 141.526C61.5854 140.8 62.444 140.438 63.4787 140.438C64.556 140.438 65.3934 140.816 65.9907 141.574ZM63.4947 141.942C62.9614 141.942 62.5454 142.118 62.2467 142.47C61.948 142.811 61.772 143.254 61.7187 143.798H65.0307C65.0307 142.955 64.764 142.39 64.2307 142.102C64.028 141.995 63.7827 141.942 63.4947 141.942ZM69.9311 140.646L71.7071 146.55L73.4991 140.646H75.6751L72.7791 148.422H70.6511L67.7551 140.646H69.9311ZM82.7719 141.574C83.0386 141.915 83.2359 142.31 83.3639 142.758C83.5026 143.206 83.5719 143.616 83.5719 143.99C83.5719 144.363 83.5506 144.699 83.5079 144.998H78.4839C78.5053 145.627 78.6599 146.139 78.9479 146.534C79.2359 146.928 79.6733 147.126 80.2599 147.126C81.0386 147.126 81.5026 146.784 81.6519 146.102H83.5559C83.4279 146.88 83.0706 147.494 82.4839 147.942C81.8759 148.411 81.1346 148.646 80.2599 148.646C79.2359 148.646 78.3773 148.272 77.6839 147.526C76.9693 146.747 76.6119 145.75 76.6119 144.534C76.6119 143.286 76.9693 142.283 77.6839 141.526C78.3666 140.8 79.2253 140.438 80.2599 140.438C81.3373 140.438 82.1746 140.816 82.7719 141.574ZM80.2759 141.942C79.7426 141.942 79.3266 142.118 79.0279 142.47C78.7293 142.811 78.5533 143.254 78.4999 143.798H81.8119C81.8119 142.955 81.5453 142.39 81.0119 142.102C80.8093 141.995 80.5639 141.942 80.2759 141.942ZM85.8323 137.446H87.7203V148.422H85.8323V137.446ZM93.7477 140.438C94.2704 140.438 94.761 140.523 95.2197 140.694C95.6784 140.854 96.073 141.104 96.4037 141.446C97.1397 142.192 97.5077 143.227 97.5077 144.55C97.5077 145.851 97.1397 146.875 96.4037 147.622C95.7424 148.304 94.857 148.646 93.7477 148.646C92.6384 148.646 91.7424 148.304 91.0597 147.622C90.3237 146.886 89.9557 145.862 89.9557 144.55C89.9557 143.216 90.3237 142.182 91.0597 141.446C91.7317 140.774 92.6277 140.438 93.7477 140.438ZM95.6197 144.534C95.6197 143.712 95.4597 143.099 95.1397 142.694C94.8197 142.278 94.3717 142.07 93.7957 142.07C93.2304 142.07 92.7664 142.278 92.4037 142.694C92.041 143.099 91.8597 143.712 91.8597 144.534C91.8597 145.355 92.0197 145.974 92.3397 146.39C92.6704 146.795 93.1184 146.998 93.6837 146.998C94.249 146.998 94.713 146.795 95.0757 146.39C95.4384 145.974 95.6197 145.355 95.6197 144.534ZM101.482 141.702C101.973 140.859 102.72 140.438 103.722 140.438C104.682 140.438 105.504 140.8 106.186 141.526C106.912 142.294 107.274 143.296 107.274 144.534C107.274 145.782 106.906 146.79 106.17 147.558C105.488 148.283 104.672 148.646 103.722 148.646C102.773 148.646 102.08 148.363 101.642 147.798V152.214H99.7542V140.646H101.306L101.482 141.702ZM103.386 146.934C103.61 146.934 103.84 146.886 104.074 146.79C104.32 146.694 104.538 146.544 104.73 146.342C105.157 145.894 105.37 145.296 105.37 144.55C105.37 143.792 105.184 143.2 104.81 142.774C104.448 142.347 104 142.134 103.466 142.134C102.944 142.134 102.512 142.288 102.17 142.598C101.84 142.896 101.664 143.328 101.642 143.894V145.286C101.642 145.787 101.818 146.192 102.17 146.502C102.501 146.79 102.906 146.934 103.386 146.934ZM124.303 142.918C123.833 144.251 123.247 145.355 122.543 146.23L122.815 146.47C123.007 146.64 123.188 146.768 123.359 146.854C123.529 146.939 123.737 146.982 123.983 146.982C124.239 146.982 124.457 146.891 124.639 146.71C124.82 146.518 124.921 146.214 124.943 145.798H126.655C126.633 146.672 126.415 147.366 125.999 147.878C125.593 148.39 124.985 148.646 124.175 148.646C123.663 148.646 123.188 148.544 122.751 148.342C122.324 148.139 121.871 147.819 121.391 147.382C120.324 148.224 119.14 148.646 117.839 148.646C116.644 148.646 115.631 148.342 114.799 147.734C113.967 147.115 113.551 146.358 113.551 145.462C113.551 144.075 114.527 143.227 116.479 142.918L116.223 142.678C115.455 141.984 115.071 141.222 115.071 140.39C115.071 139.654 115.375 139.056 115.983 138.598C116.633 138.107 117.497 137.862 118.575 137.862C119.609 137.862 120.452 138.107 121.103 138.598C121.7 139.056 121.999 139.632 121.999 140.326C121.999 141.019 121.775 141.606 121.327 142.086C120.889 142.555 120.217 142.96 119.311 143.302L121.343 145.142C121.993 144.363 122.553 143.387 123.023 142.214L124.303 142.918ZM117.551 143.878C116.271 144.059 115.631 144.55 115.631 145.35C115.631 145.798 115.823 146.176 116.207 146.486C116.601 146.784 117.151 146.934 117.855 146.934C118.665 146.934 119.428 146.699 120.143 146.23L117.551 143.878ZM118.271 142.358C118.847 142.112 119.263 141.851 119.519 141.574C119.785 141.296 119.919 140.987 119.919 140.646C119.919 140.294 119.796 140.016 119.551 139.814C119.305 139.6 118.964 139.494 118.527 139.494C118.089 139.494 117.748 139.611 117.503 139.846C117.268 140.07 117.151 140.342 117.151 140.662C117.151 141.131 117.401 141.584 117.903 142.022L118.271 142.358ZM131.659 138.038H139.979V139.67H136.763V148.422H134.875V139.67H131.659V138.038ZM145.663 141.574C145.929 141.915 146.127 142.31 146.255 142.758C146.393 143.206 146.463 143.616 146.463 143.99C146.463 144.363 146.441 144.699 146.399 144.998H141.375C141.396 145.627 141.551 146.139 141.839 146.534C142.127 146.928 142.564 147.126 143.151 147.126C143.929 147.126 144.393 146.784 144.543 146.102H146.447C146.319 146.88 145.961 147.494 145.375 147.942C144.767 148.411 144.025 148.646 143.151 148.646C142.127 148.646 141.268 148.272 140.575 147.526C139.86 146.747 139.503 145.75 139.503 144.534C139.503 143.286 139.86 142.283 140.575 141.526C141.257 140.8 142.116 140.438 143.151 140.438C144.228 140.438 145.065 140.816 145.663 141.574ZM143.167 141.942C142.633 141.942 142.217 142.118 141.919 142.47C141.62 142.811 141.444 143.254 141.391 143.798H144.703C144.703 142.955 144.436 142.39 143.903 142.102C143.7 141.995 143.455 141.942 143.167 141.942ZM149.779 146.054C149.8 146.79 150.339 147.158 151.395 147.158C151.8 147.158 152.131 147.072 152.387 146.902C152.654 146.72 152.787 146.512 152.787 146.278C152.787 146.043 152.707 145.862 152.547 145.734C152.387 145.606 152.136 145.488 151.795 145.382L150.099 144.774C148.84 144.336 148.211 143.622 148.211 142.63C148.211 141.968 148.504 141.44 149.091 141.046C149.688 140.64 150.483 140.438 151.475 140.438C152.478 140.438 153.246 140.656 153.779 141.094C154.323 141.531 154.606 142.08 154.627 142.742H152.851C152.83 142.486 152.707 142.283 152.483 142.134C152.259 141.984 151.939 141.91 151.523 141.91C151.107 141.91 150.782 141.995 150.547 142.166C150.323 142.326 150.211 142.512 150.211 142.726C150.211 143.099 150.526 143.376 151.155 143.558L152.995 144.246C153.603 144.448 154.067 144.71 154.387 145.03C154.718 145.339 154.883 145.744 154.883 146.246C154.883 146.886 154.579 147.44 153.971 147.91C153.342 148.4 152.51 148.646 151.475 148.646C150.44 148.646 149.608 148.422 148.979 147.974C148.35 147.515 148.03 146.875 148.019 146.054H149.779ZM161.544 148.23C160.84 148.507 160.286 148.646 159.88 148.646C159.475 148.646 159.118 148.598 158.808 148.502C158.51 148.406 158.243 148.262 158.008 148.07C157.518 147.632 157.272 147.03 157.272 146.262V141.91H156.184V140.646H157.272V138.598H159.16V140.646H161.272V141.91H159.16V146.198C159.16 146.838 159.464 147.158 160.072 147.158C160.382 147.158 160.782 147.072 161.272 146.902L161.544 148.23Z" fill="black"/>
<path d="M64.0909 102.176L67.5229 114.008L70.8589 103.208H72.7789L76.3069 114.056L79.9549 102.176H83.1469L77.7949 117.752H74.8189L71.8909 108.968L68.9869 117.752H66.0109L60.9229 102.176H64.0909ZM93.0062 107.48C93.4062 107.992 93.7022 108.584 93.8942 109.256C94.1022 109.928 94.2062 110.544 94.2062 111.104C94.2062 111.664 94.1742 112.168 94.1102 112.616H86.5742C86.6062 113.56 86.8382 114.328 87.2702 114.92C87.7022 115.512 88.3582 115.808 89.2382 115.808C90.4062 115.808 91.1022 115.296 91.3262 114.272H94.1822C93.9902 115.44 93.4542 116.36 92.5742 117.032C91.6622 117.736 90.5502 118.088 89.2382 118.088C87.7022 118.088 86.4142 117.528 85.3742 116.408C84.3022 115.24 83.7662 113.744 83.7662 111.92C83.7662 110.048 84.3022 108.544 85.3742 107.408C86.3982 106.32 87.6862 105.776 89.2382 105.776C90.8542 105.776 92.1102 106.344 93.0062 107.48ZM89.2622 108.032C88.4622 108.032 87.8382 108.296 87.3902 108.824C86.9422 109.336 86.6782 110 86.5982 110.816H91.5662C91.5662 109.552 91.1662 108.704 90.3662 108.272C90.0622 108.112 89.6942 108.032 89.2622 108.032ZM105.733 107.48C106.133 107.992 106.429 108.584 106.621 109.256C106.829 109.928 106.933 110.544 106.933 111.104C106.933 111.664 106.901 112.168 106.837 112.616H99.3007C99.3327 113.56 99.5647 114.328 99.9967 114.92C100.429 115.512 101.085 115.808 101.965 115.808C103.133 115.808 103.829 115.296 104.053 114.272H106.909C106.717 115.44 106.181 116.36 105.301 117.032C104.389 117.736 103.277 118.088 101.965 118.088C100.429 118.088 99.1407 117.528 98.1007 116.408C97.0287 115.24 96.4927 113.744 96.4927 111.92C96.4927 110.048 97.0287 108.544 98.1007 107.408C99.1247 106.32 100.413 105.776 101.965 105.776C103.581 105.776 104.837 106.344 105.733 107.48ZM101.989 108.032C101.189 108.032 100.565 108.296 100.117 108.824C99.6687 109.336 99.4047 110 99.3247 110.816H104.293C104.293 109.552 103.893 108.704 103.093 108.272C102.789 108.112 102.421 108.032 101.989 108.032ZM114.451 112.064L113.155 113.144V117.752H110.323V101.288H113.155V110.192L117.763 106.088H121.603L116.443 110.408L121.891 117.752H118.435L114.451 112.064ZM132.238 115.16H141.142V117.752H129.406V115.088C129.406 113.216 130.07 111.856 131.398 111.008C131.846 110.72 132.366 110.464 132.958 110.24L136.15 109.016C136.854 108.744 137.366 108.408 137.686 108.008C138.022 107.592 138.19 107.08 138.19 106.472C138.19 105.864 137.974 105.36 137.542 104.96C137.11 104.544 136.494 104.336 135.694 104.336C134.894 104.336 134.23 104.528 133.702 104.912C133.19 105.296 132.894 105.864 132.814 106.616H129.67C129.702 105.096 130.286 103.904 131.422 103.04C132.462 102.256 133.862 101.864 135.622 101.864C137.238 101.864 138.574 102.296 139.63 103.16C140.702 104.056 141.238 105.152 141.238 106.448C141.238 107.744 140.91 108.784 140.254 109.568C139.614 110.336 138.614 110.984 137.254 111.512L134.014 112.76C133.39 113 132.934 113.272 132.646 113.576C132.374 113.864 132.238 114.24 132.238 114.704V115.16ZM145.69 117.56C145.114 117.56 144.642 117.384 144.274 117.032C143.906 116.68 143.722 116.232 143.722 115.688C143.722 115.144 143.906 114.688 144.274 114.32C144.642 113.952 145.114 113.768 145.69 113.768C146.266 113.768 146.746 113.952 147.13 114.32C147.514 114.688 147.706 115.144 147.706 115.688C147.706 116.232 147.514 116.68 147.13 117.032C146.746 117.384 146.266 117.56 145.69 117.56ZM145.69 110.432C145.114 110.432 144.642 110.256 144.274 109.904C143.906 109.552 143.722 109.104 143.722 108.56C143.722 108.016 143.906 107.56 144.274 107.192C144.642 106.824 145.114 106.64 145.69 106.64C146.266 106.64 146.746 106.824 147.13 107.192C147.514 107.56 147.706 108.016 147.706 108.56C147.706 109.104 147.514 109.552 147.13 109.904C146.746 110.256 146.266 110.432 145.69 110.432Z" fill="black"/>
<path d="M115.734 51.187L122.352 57.5546" stroke="black" stroke-linecap="round"/>
<rect x="88.4521" y="41.8418" width="25.5573" height="42.4576" rx="1.5" stroke="black"/>
<path d="M88.3242 76.4592H114.223" stroke="black" stroke-linecap="round"/>
<rect x="94.4312" y="46.8088" width="13.5989" height="10.2456" stroke="black"/>
<rect x="94.4312" y="60.2385" width="13.5989" height="2.83374" stroke="black"/>
<rect x="94.4312" y="65.5898" width="13.5989" height="2.83374" stroke="black"/>
<circle cx="109.645" cy="45.1708" r="7.87121" fill="#8FA0A1" stroke="black"/>
<defs>
<filter id="filter0_d_658:4118" x="0.726562" y="0.183594" width="208.546" height="196.04" filterUnits="userSpaceOnUse" color-interpolation-filters="sRGB">
<feFlood flood-opacity="0" result="BackgroundImageFix"/>
<feColorMatrix in="SourceAlpha" type="matrix" values="0 0 0 0 0 0 0 0 0 0 0 0 0 0 0 0 0 0 127 0" result="hardAlpha"/>
<feOffset dy="5"/>
<feGaussianBlur stdDeviation="7.5"/>
<feComposite in2="hardAlpha" operator="out"/>
<feColorMatrix type="matrix" values="0 0 0 0 0.560784 0 0 0 0 0.643137 0 0 0 0 0.639216 0 0 0 0.15 0"/>
<feBlend mode="normal" in2="BackgroundImageFix" result="effect1_dropShadow_658:4118"/>
<feBlend mode="normal" in="SourceGraphic" in2="effect1_dropShadow_658:4118" result="shape"/>
</filter>
<linearGradient id="paint0_linear_658:4118" x1="-1.59751" y1="-4.03996" x2="242.332" y2="116.082" gradientUnits="userSpaceOnUse">
<stop stop-color="#93758F"/>
<stop offset="1" stop-color="#8FA5A3"/>
</linearGradient>
</defs>
</svg>
