<svg width="209" height="197" viewBox="0 0 209 197" fill="none" xmlns="http://www.w3.org/2000/svg">
<g filter="url(#filter0_d_658:4117)">
<rect x="15.1675" y="10.4133" width="178.546" height="166.04" rx="10" fill="#F0F4F3"/>
<rect x="16.1675" y="11.4133" width="176.546" height="164.04" rx="9" stroke="url(#paint0_linear_658:4117)" stroke-width="2"/>
</g>
<path d="M104.488 46.2105L104.44 38.083" stroke="black" stroke-linecap="round"/>
<path d="M115.48 49.5279L121.122 43.3436" stroke="black" stroke-linecap="round"/>
<path d="M95.0291 49.2754L89.604 43.0917" stroke="black" stroke-linecap="round"/>
<path d="M91.2425 59.4181L83.146 57.9631" stroke="black" stroke-linecap="round"/>
<path d="M119.777 58.6905L126.44 56.8181" stroke="black" stroke-linecap="round"/>
<path d="M98.8897 78.0176L98.3954 78.0924L98.4597 78.5176H98.8897V78.0176ZM111.203 78.0176V78.5176H111.618L111.695 78.1097L111.203 78.0176ZM95.986 69.3959L95.5039 69.5285C95.5164 69.5739 95.5352 69.6172 95.5598 69.6573L95.986 69.3959ZM114.353 69.3959L114.762 69.6833C114.779 69.6588 114.794 69.6327 114.807 69.6055L114.353 69.3959ZM98.8897 78.5176H111.203V77.5176H98.8897V78.5176ZM96.4681 69.2633C94.748 63.0109 94.798 58.5987 96.2627 55.7495C97.7005 52.9528 100.583 51.5225 104.934 51.4274L104.912 50.4276C100.358 50.5272 97.0423 52.0459 95.3734 55.2923C93.7315 58.486 93.7658 63.2107 95.5039 69.5285L96.4681 69.2633ZM95.5598 69.6573C97.2894 72.4772 97.8299 74.3558 98.3954 78.0924L99.3841 77.9428C98.8061 74.1232 98.2339 72.1043 96.4122 69.1345L95.5598 69.6573ZM104.934 51.4274C109.25 51.3331 112.726 53.0523 114.514 56.084C116.303 59.1193 116.478 63.602 113.899 69.1863L114.807 69.6055C117.472 63.8335 117.385 58.9847 115.375 55.5761C113.363 52.1641 109.503 50.3273 104.912 50.4276L104.934 51.4274ZM113.944 69.1085C112.396 71.3117 111.387 74.3186 110.712 77.9256L111.695 78.1097C112.359 74.5611 113.334 71.7164 114.762 69.6833L113.944 69.1085Z" fill="black"/>
<g filter="url(#filter1_d_658:4117)">
<path d="M99.1919 80.7468H110.394" stroke="black" stroke-width="0.75" stroke-linecap="round"/>
</g>
<path d="M99.1919 82.6633H110.394" stroke="black" stroke-width="0.75" stroke-linecap="round"/>
<path d="M99.1919 84.6819H110.394" stroke="black" stroke-width="0.75" stroke-linecap="round"/>
<path d="M101.562 86.2927L108.224 86.304" stroke="black" stroke-width="0.75" stroke-linecap="round"/>
<path d="M40.2636 138.267C41.8423 138.267 43.1169 138.737 44.0876 139.675C45.0689 140.614 45.5596 141.878 45.5596 143.467C45.5596 145.046 45.0689 146.305 44.0876 147.243C43.1169 148.182 41.8423 148.651 40.2636 148.651H36.8876V138.267H40.2636ZM38.7916 146.939H40.2636C41.2449 146.939 42.0396 146.609 42.6476 145.947C43.2236 145.307 43.5116 144.481 43.5116 143.467C43.5116 142.433 43.2236 141.595 42.6476 140.955C42.0503 140.305 41.2556 139.979 40.2636 139.979H38.7916V146.939ZM48.0324 140.859H49.9204V148.651H48.0324V140.859ZM47.8084 138.363C47.8084 138.022 47.9097 137.755 48.1124 137.563C48.315 137.361 48.603 137.259 48.9764 137.259C49.339 137.259 49.6217 137.361 49.8244 137.563C50.0377 137.755 50.1444 138.022 50.1444 138.363C50.1444 138.705 50.0377 138.977 49.8244 139.179C49.6217 139.371 49.339 139.467 48.9764 139.467C48.603 139.467 48.315 139.371 48.1124 139.179C47.9097 138.977 47.8084 138.705 47.8084 138.363ZM54.1784 146.283C54.1997 147.019 54.7384 147.387 55.7944 147.387C56.1997 147.387 56.5304 147.302 56.7864 147.131C57.053 146.95 57.1864 146.742 57.1864 146.507C57.1864 146.273 57.1064 146.091 56.9464 145.963C56.7864 145.835 56.5357 145.718 56.1944 145.611L54.4984 145.003C53.2397 144.566 52.6104 143.851 52.6104 142.859C52.6104 142.198 52.9037 141.67 53.4904 141.275C54.0877 140.87 54.8824 140.667 55.8744 140.667C56.877 140.667 57.645 140.886 58.1784 141.323C58.7224 141.761 59.005 142.31 59.0264 142.971H57.2504C57.229 142.715 57.1064 142.513 56.8824 142.363C56.6584 142.214 56.3384 142.139 55.9224 142.139C55.5064 142.139 55.181 142.225 54.9464 142.395C54.7224 142.555 54.6104 142.742 54.6104 142.955C54.6104 143.329 54.925 143.606 55.5544 143.787L57.3944 144.475C58.0024 144.678 58.4664 144.939 58.7864 145.259C59.117 145.569 59.2824 145.974 59.2824 146.475C59.2824 147.115 58.9784 147.67 58.3704 148.139C57.741 148.63 56.909 148.875 55.8744 148.875C54.8397 148.875 54.0077 148.651 53.3784 148.203C52.749 147.745 52.429 147.105 52.4184 146.283H54.1784ZM64.5199 140.667C65.0105 140.667 65.4479 140.753 65.8319 140.923C66.2265 141.083 66.5572 141.297 66.8239 141.563C67.3572 142.075 67.6719 142.721 67.7679 143.499L65.8639 143.547C65.7785 143.206 65.6185 142.923 65.3839 142.699C65.1599 142.475 64.8985 142.363 64.5999 142.363C64.3012 142.363 64.0452 142.411 63.8319 142.507C63.6185 142.593 63.4319 142.731 63.2719 142.923C62.9092 143.371 62.7279 143.99 62.7279 144.779C62.7279 145.569 62.8985 146.166 63.2399 146.571C63.5812 146.966 63.9919 147.163 64.4719 147.163C64.9625 147.163 65.3145 147.051 65.5279 146.827C65.7519 146.593 65.8639 146.278 65.8639 145.883H67.7679C67.7679 146.737 67.4852 147.446 66.9199 148.011C66.3439 148.587 65.5385 148.875 64.5039 148.875C63.4799 148.875 62.6212 148.502 61.9279 147.755C61.1919 146.955 60.8239 145.958 60.8239 144.763C60.8239 143.505 61.1919 142.497 61.9279 141.739C62.6212 141.025 63.4852 140.667 64.5199 140.667ZM73.1002 140.667C73.6229 140.667 74.1136 140.753 74.5722 140.923C75.0309 141.083 75.4256 141.334 75.7562 141.675C76.4922 142.422 76.8602 143.457 76.8602 144.779C76.8602 146.081 76.4922 147.105 75.7562 147.851C75.0949 148.534 74.2096 148.875 73.1002 148.875C71.9909 148.875 71.0949 148.534 70.4122 147.851C69.6762 147.115 69.3082 146.091 69.3082 144.779C69.3082 143.446 69.6762 142.411 70.4122 141.675C71.0842 141.003 71.9802 140.667 73.1002 140.667ZM74.9722 144.763C74.9722 143.942 74.8122 143.329 74.4922 142.923C74.1722 142.507 73.7242 142.299 73.1482 142.299C72.5829 142.299 72.1189 142.507 71.7562 142.923C71.3936 143.329 71.2122 143.942 71.2122 144.763C71.2122 145.585 71.3722 146.203 71.6922 146.619C72.0229 147.025 72.4709 147.227 73.0362 147.227C73.6016 147.227 74.0656 147.025 74.4282 146.619C74.7909 146.203 74.9722 145.585 74.9722 144.763ZM79.9867 140.875L81.7627 146.779L83.5547 140.875H85.7307L82.8347 148.651H80.7067L77.8107 140.875H79.9867ZM92.8276 141.803C93.0943 142.145 93.2916 142.539 93.4196 142.987C93.5583 143.435 93.6276 143.846 93.6276 144.219C93.6276 144.593 93.6063 144.929 93.5636 145.227H88.5396C88.5609 145.857 88.7156 146.369 89.0036 146.763C89.2916 147.158 89.7289 147.355 90.3156 147.355C91.0943 147.355 91.5583 147.014 91.7076 146.331H93.6116C93.4836 147.11 93.1263 147.723 92.5396 148.171C91.9316 148.641 91.1903 148.875 90.3156 148.875C89.2916 148.875 88.4329 148.502 87.7396 147.755C87.0249 146.977 86.6676 145.979 86.6676 144.763C86.6676 143.515 87.0249 142.513 87.7396 141.755C88.4223 141.03 89.2809 140.667 90.3156 140.667C91.3929 140.667 92.2303 141.046 92.8276 141.803ZM90.3316 142.171C89.7983 142.171 89.3823 142.347 89.0836 142.699C88.7849 143.041 88.6089 143.483 88.5556 144.027H91.8676C91.8676 143.185 91.6009 142.619 91.0676 142.331C90.8649 142.225 90.6196 142.171 90.3316 142.171ZM97.776 142.411C98.2453 141.291 98.9493 140.731 99.888 140.731C100.069 140.731 100.299 140.769 100.576 140.843L100.544 142.731C100.245 142.667 99.952 142.635 99.664 142.635C98.4053 142.635 97.776 143.505 97.776 145.243V148.651H95.888V140.859H97.776V142.411ZM117.327 143.147C116.858 144.481 116.271 145.585 115.567 146.459L115.839 146.699C116.031 146.87 116.212 146.998 116.383 147.083C116.554 147.169 116.762 147.211 117.007 147.211C117.263 147.211 117.482 147.121 117.663 146.939C117.844 146.747 117.946 146.443 117.967 146.027H119.679C119.658 146.902 119.439 147.595 119.023 148.107C118.618 148.619 118.01 148.875 117.199 148.875C116.687 148.875 116.212 148.774 115.775 148.571C115.348 148.369 114.895 148.049 114.415 147.611C113.348 148.454 112.164 148.875 110.863 148.875C109.668 148.875 108.655 148.571 107.823 147.963C106.991 147.345 106.575 146.587 106.575 145.691C106.575 144.305 107.551 143.457 109.503 143.147L109.247 142.907C108.479 142.214 108.095 141.451 108.095 140.619C108.095 139.883 108.399 139.286 109.007 138.827C109.658 138.337 110.522 138.091 111.599 138.091C112.634 138.091 113.476 138.337 114.127 138.827C114.724 139.286 115.023 139.862 115.023 140.555C115.023 141.249 114.799 141.835 114.351 142.315C113.914 142.785 113.242 143.19 112.335 143.531L114.367 145.371C115.018 144.593 115.578 143.617 116.047 142.443L117.327 143.147ZM110.575 144.107C109.295 144.289 108.655 144.779 108.655 145.579C108.655 146.027 108.847 146.406 109.231 146.715C109.626 147.014 110.175 147.163 110.879 147.163C111.69 147.163 112.452 146.929 113.167 146.459L110.575 144.107ZM111.295 142.587C111.871 142.342 112.287 142.081 112.543 141.803C112.81 141.526 112.943 141.217 112.943 140.875C112.943 140.523 112.82 140.246 112.575 140.043C112.33 139.83 111.988 139.723 111.551 139.723C111.114 139.723 110.772 139.841 110.527 140.075C110.292 140.299 110.175 140.571 110.175 140.891C110.175 141.361 110.426 141.814 110.927 142.251L111.295 142.587ZM129.435 138.267C131.014 138.267 132.289 138.737 133.259 139.675C134.241 140.614 134.731 141.878 134.731 143.467C134.731 145.046 134.241 146.305 133.259 147.243C132.289 148.182 131.014 148.651 129.435 148.651H126.059V138.267H129.435ZM127.963 146.939H129.435C130.417 146.939 131.211 146.609 131.819 145.947C132.395 145.307 132.683 144.481 132.683 143.467C132.683 142.433 132.395 141.595 131.819 140.955C131.222 140.305 130.427 139.979 129.435 139.979H127.963V146.939ZM142.468 141.803C142.735 142.145 142.932 142.539 143.06 142.987C143.199 143.435 143.268 143.846 143.268 144.219C143.268 144.593 143.247 144.929 143.204 145.227H138.18C138.202 145.857 138.356 146.369 138.644 146.763C138.932 147.158 139.37 147.355 139.956 147.355C140.735 147.355 141.199 147.014 141.348 146.331H143.252C143.124 147.11 142.767 147.723 142.18 148.171C141.572 148.641 140.831 148.875 139.956 148.875C138.932 148.875 138.074 148.502 137.38 147.755C136.666 146.977 136.308 145.979 136.308 144.763C136.308 143.515 136.666 142.513 137.38 141.755C138.063 141.03 138.922 140.667 139.956 140.667C141.034 140.667 141.871 141.046 142.468 141.803ZM139.972 142.171C139.439 142.171 139.023 142.347 138.724 142.699C138.426 143.041 138.25 143.483 138.196 144.027H141.508C141.508 143.185 141.242 142.619 140.708 142.331C140.506 142.225 140.26 142.171 139.972 142.171ZM144.681 140.875H145.833V139.963C145.833 139.163 146.067 138.55 146.537 138.123C146.963 137.739 147.518 137.547 148.201 137.547C148.638 137.547 149.177 137.611 149.817 137.739L149.449 139.195C149.15 139.089 148.878 139.035 148.633 139.035C148.398 139.035 148.19 139.105 148.009 139.243C147.827 139.371 147.737 139.617 147.737 139.979V140.875H149.161V142.139H147.737V148.651H145.833V142.139H144.681V140.875ZM151.548 140.859H153.436V148.651H151.548V140.859ZM151.324 138.363C151.324 138.022 151.425 137.755 151.628 137.563C151.831 137.361 152.119 137.259 152.492 137.259C152.855 137.259 153.137 137.361 153.34 137.563C153.553 137.755 153.66 138.022 153.66 138.363C153.66 138.705 153.553 138.977 153.34 139.179C153.137 139.371 152.855 139.467 152.492 139.467C152.119 139.467 151.831 139.371 151.628 139.179C151.425 138.977 151.324 138.705 151.324 138.363ZM158.494 142.219C159.006 141.185 159.827 140.667 160.958 140.667C161.918 140.667 162.638 140.982 163.118 141.611C163.609 142.241 163.854 143.073 163.854 144.107V148.651H161.966V144.107C161.966 143.531 161.827 143.099 161.55 142.811C161.273 142.513 160.883 142.363 160.382 142.363C159.881 142.363 159.449 142.587 159.086 143.035C158.734 143.483 158.547 144.155 158.526 145.051V148.651H156.638V140.875H158.286L158.494 142.219ZM172.031 141.803C172.297 142.145 172.495 142.539 172.623 142.987C172.761 143.435 172.831 143.846 172.831 144.219C172.831 144.593 172.809 144.929 172.767 145.227H167.743C167.764 145.857 167.919 146.369 168.207 146.763C168.495 147.158 168.932 147.355 169.519 147.355C170.297 147.355 170.761 147.014 170.911 146.331H172.815C172.687 147.11 172.329 147.723 171.743 148.171C171.135 148.641 170.393 148.875 169.519 148.875C168.495 148.875 167.636 148.502 166.943 147.755C166.228 146.977 165.871 145.979 165.871 144.763C165.871 143.515 166.228 142.513 166.943 141.755C167.625 141.03 168.484 140.667 169.519 140.667C170.596 140.667 171.433 141.046 172.031 141.803ZM169.535 142.171C169.001 142.171 168.585 142.347 168.287 142.699C167.988 143.041 167.812 143.483 167.759 144.027H171.071C171.071 143.185 170.804 142.619 170.271 142.331C170.068 142.225 169.823 142.171 169.535 142.171Z" fill="black"/>
<path d="M66.5084 102.406L69.9404 114.238L73.2764 103.438H75.1964L78.7244 114.286L82.3724 102.406H85.5644L80.2124 117.982H77.2364L74.3084 109.198L71.4044 117.982H68.4284L63.3404 102.406H66.5084ZM95.4237 107.71C95.8237 108.222 96.1197 108.814 96.3117 109.486C96.5197 110.158 96.6237 110.774 96.6237 111.334C96.6237 111.894 96.5917 112.398 96.5277 112.846H88.9917C89.0237 113.79 89.2557 114.558 89.6877 115.15C90.1197 115.742 90.7757 116.038 91.6557 116.038C92.8237 116.038 93.5197 115.526 93.7437 114.502H96.5997C96.4077 115.67 95.8717 116.59 94.9917 117.262C94.0797 117.966 92.9677 118.318 91.6557 118.318C90.1197 118.318 88.8317 117.758 87.7917 116.638C86.7197 115.47 86.1837 113.974 86.1837 112.15C86.1837 110.278 86.7197 108.774 87.7917 107.638C88.8157 106.55 90.1037 106.006 91.6557 106.006C93.2717 106.006 94.5277 106.574 95.4237 107.71ZM91.6797 108.262C90.8797 108.262 90.2557 108.526 89.8077 109.054C89.3597 109.566 89.0957 110.23 89.0157 111.046H93.9837C93.9837 109.782 93.5837 108.934 92.7837 108.502C92.4797 108.342 92.1117 108.262 91.6797 108.262ZM108.15 107.71C108.55 108.222 108.846 108.814 109.038 109.486C109.246 110.158 109.35 110.774 109.35 111.334C109.35 111.894 109.318 112.398 109.254 112.846H101.718C101.75 113.79 101.982 114.558 102.414 115.15C102.846 115.742 103.502 116.038 104.382 116.038C105.55 116.038 106.246 115.526 106.47 114.502H109.326C109.134 115.67 108.598 116.59 107.718 117.262C106.806 117.966 105.694 118.318 104.382 118.318C102.846 118.318 101.558 117.758 100.518 116.638C99.4462 115.47 98.9102 113.974 98.9102 112.15C98.9102 110.278 99.4462 108.774 100.518 107.638C101.542 106.55 102.83 106.006 104.382 106.006C105.998 106.006 107.254 106.574 108.15 107.71ZM104.406 108.262C103.606 108.262 102.982 108.526 102.534 109.054C102.086 109.566 101.822 110.23 101.742 111.046H106.71C106.71 109.782 106.31 108.934 105.51 108.502C105.206 108.342 104.838 108.262 104.406 108.262ZM116.869 112.294L115.573 113.374V117.982H112.741V101.518H115.573V110.422L120.181 106.318H124.021L118.861 110.638L124.309 117.982H120.853L116.869 112.294ZM131.392 103.582C132.592 103.406 133.648 102.982 134.56 102.31H136.696V117.982H133.864V105.694C133.048 106.094 132.224 106.294 131.392 106.294V103.582ZM142.154 117.79C141.578 117.79 141.106 117.614 140.738 117.262C140.37 116.91 140.186 116.462 140.186 115.918C140.186 115.374 140.37 114.918 140.738 114.55C141.106 114.182 141.578 113.998 142.154 113.998C142.73 113.998 143.21 114.182 143.594 114.55C143.978 114.918 144.17 115.374 144.17 115.918C144.17 116.462 143.978 116.91 143.594 117.262C143.21 117.614 142.73 117.79 142.154 117.79ZM142.154 110.662C141.578 110.662 141.106 110.486 140.738 110.134C140.37 109.782 140.186 109.334 140.186 108.79C140.186 108.246 140.37 107.79 140.738 107.422C141.106 107.054 141.578 106.87 142.154 106.87C142.73 106.87 143.21 107.054 143.594 107.422C143.978 107.79 144.17 108.246 144.17 108.79C144.17 109.334 143.978 109.782 143.594 110.134C143.21 110.486 142.73 110.662 142.154 110.662Z" fill="black"/>
<defs>
<filter id="filter0_d_658:4117" x="0.16748" y="0.41333" width="208.546" height="196.04" filterUnits="userSpaceOnUse" color-interpolation-filters="sRGB">
<feFlood flood-opacity="0" result="BackgroundImageFix"/>
<feColorMatrix in="SourceAlpha" type="matrix" values="0 0 0 0 0 0 0 0 0 0 0 0 0 0 0 0 0 0 127 0" result="hardAlpha"/>
<feOffset dy="5"/>
<feGaussianBlur stdDeviation="7.5"/>
<feComposite in2="hardAlpha" operator="out"/>
<feColorMatrix type="matrix" values="0 0 0 0 0.560784 0 0 0 0 0.643137 0 0 0 0 0.639216 0 0 0 0.15 0"/>
<feBlend mode="normal" in2="BackgroundImageFix" result="effect1_dropShadow_658:4117"/>
<feBlend mode="normal" in="SourceGraphic" in2="effect1_dropShadow_658:4117" result="shape"/>
</filter>
<filter id="filter1_d_658:4117" x="94.8169" y="80.3718" width="19.9517" height="8.75" filterUnits="userSpaceOnUse" color-interpolation-filters="sRGB">
<feFlood flood-opacity="0" result="BackgroundImageFix"/>
<feColorMatrix in="SourceAlpha" type="matrix" values="0 0 0 0 0 0 0 0 0 0 0 0 0 0 0 0 0 0 127 0" result="hardAlpha"/>
<feOffset dy="4"/>
<feGaussianBlur stdDeviation="2"/>
<feComposite in2="hardAlpha" operator="out"/>
<feColorMatrix type="matrix" values="0 0 0 0 0 0 0 0 0 0 0 0 0 0 0 0 0 0 0.25 0"/>
<feBlend mode="normal" in2="BackgroundImageFix" result="effect1_dropShadow_658:4117"/>
<feBlend mode="normal" in="SourceGraphic" in2="effect1_dropShadow_658:4117" result="shape"/>
</filter>
<linearGradient id="paint0_linear_658:4117" x1="-2.15659" y1="-3.81022" x2="241.773" y2="116.312" gradientUnits="userSpaceOnUse">
<stop stop-color="#93758F"/>
<stop offset="1" stop-color="#8FA5A3"/>
</linearGradient>
</defs>
</svg>
