<svg width="222" height="221" viewBox="0 0 222 221" fill="none" xmlns="http://www.w3.org/2000/svg">
<circle cx="111.098" cy="110.418" r="110.266" fill="url(#paint0_linear)"/>
<path d="M70.7014 124.676L74.1334 136.508L77.4694 125.708H79.3894L82.9174 136.556L86.5654 124.676H89.7574L84.4054 140.252H81.4294L78.5014 131.468L75.5974 140.252H72.6214L67.5334 124.676H70.7014ZM99.6167 129.98C100.017 130.492 100.313 131.084 100.505 131.756C100.713 132.428 100.817 133.044 100.817 133.604C100.817 134.164 100.785 134.668 100.721 135.116H93.1847C93.2167 136.06 93.4487 136.828 93.8807 137.42C94.3127 138.012 94.9687 138.308 95.8487 138.308C97.0167 138.308 97.7127 137.796 97.9367 136.772H100.793C100.601 137.94 100.065 138.86 99.1847 139.532C98.2727 140.236 97.1607 140.588 95.8487 140.588C94.3127 140.588 93.0247 140.028 91.9847 138.908C90.9127 137.74 90.3767 136.244 90.3767 134.42C90.3767 132.548 90.9127 131.044 91.9847 129.908C93.0087 128.82 94.2967 128.276 95.8487 128.276C97.4647 128.276 98.7207 128.844 99.6167 129.98ZM95.8727 130.532C95.0727 130.532 94.4487 130.796 94.0007 131.324C93.5527 131.836 93.2887 132.5 93.2087 133.316H98.1767C98.1767 132.052 97.7767 131.204 96.9767 130.772C96.6727 130.612 96.3047 130.532 95.8727 130.532ZM112.343 129.98C112.743 130.492 113.039 131.084 113.231 131.756C113.439 132.428 113.543 133.044 113.543 133.604C113.543 134.164 113.511 134.668 113.447 135.116H105.911C105.943 136.06 106.175 136.828 106.607 137.42C107.039 138.012 107.695 138.308 108.575 138.308C109.743 138.308 110.439 137.796 110.663 136.772H113.519C113.327 137.94 112.791 138.86 111.911 139.532C110.999 140.236 109.887 140.588 108.575 140.588C107.039 140.588 105.751 140.028 104.711 138.908C103.639 137.74 103.103 136.244 103.103 134.42C103.103 132.548 103.639 131.044 104.711 129.908C105.735 128.82 107.023 128.276 108.575 128.276C110.191 128.276 111.447 128.844 112.343 129.98ZM108.599 130.532C107.799 130.532 107.175 130.796 106.727 131.324C106.279 131.836 106.015 132.5 105.935 133.316H110.903C110.903 132.052 110.503 131.204 109.703 130.772C109.399 130.612 109.031 130.532 108.599 130.532ZM121.062 134.564L119.766 135.644V140.252H116.934V123.788H119.766V132.692L124.374 128.588H128.214L123.054 132.908L128.502 140.252H125.046L121.062 134.564ZM138.849 137.66H147.753V140.252H136.017V137.588C136.017 135.716 136.681 134.356 138.009 133.508C138.457 133.22 138.977 132.964 139.569 132.74L142.761 131.516C143.465 131.244 143.977 130.908 144.297 130.508C144.633 130.092 144.801 129.58 144.801 128.972C144.801 128.364 144.585 127.86 144.153 127.46C143.721 127.044 143.105 126.836 142.305 126.836C141.505 126.836 140.841 127.028 140.313 127.412C139.801 127.796 139.505 128.364 139.425 129.116H136.281C136.313 127.596 136.897 126.404 138.033 125.54C139.073 124.756 140.473 124.364 142.233 124.364C143.849 124.364 145.185 124.796 146.241 125.66C147.313 126.556 147.849 127.652 147.849 128.948C147.849 130.244 147.521 131.284 146.865 132.068C146.225 132.836 145.225 133.484 143.865 134.012L140.625 135.26C140.001 135.5 139.545 135.772 139.257 136.076C138.985 136.364 138.849 136.74 138.849 137.204V137.66ZM152.3 140.06C151.724 140.06 151.252 139.884 150.884 139.532C150.516 139.18 150.332 138.732 150.332 138.188C150.332 137.644 150.516 137.188 150.884 136.82C151.252 136.452 151.724 136.268 152.3 136.268C152.876 136.268 153.356 136.452 153.74 136.82C154.124 137.188 154.316 137.644 154.316 138.188C154.316 138.732 154.124 139.18 153.74 139.532C153.356 139.884 152.876 140.06 152.3 140.06ZM152.3 132.932C151.724 132.932 151.252 132.756 150.884 132.404C150.516 132.052 150.332 131.604 150.332 131.06C150.332 130.516 150.516 130.06 150.884 129.692C151.252 129.324 151.724 129.14 152.3 129.14C152.876 129.14 153.356 129.324 153.74 129.692C154.124 130.06 154.316 130.516 154.316 131.06C154.316 131.604 154.124 132.052 153.74 132.404C153.356 132.756 152.876 132.932 152.3 132.932ZM62.2608 159.868C63.8394 159.868 65.1141 160.338 66.0848 161.276C67.0661 162.215 67.5568 163.479 67.5568 165.068C67.5568 166.647 67.0661 167.906 66.0848 168.844C65.1141 169.783 63.8394 170.252 62.2608 170.252H58.8848V159.868H62.2608ZM60.7888 168.54H62.2608C63.2421 168.54 64.0368 168.21 64.6448 167.548C65.2208 166.908 65.5088 166.082 65.5088 165.068C65.5088 164.034 65.2208 163.196 64.6448 162.556C64.0474 161.906 63.2528 161.58 62.2608 161.58H60.7888V168.54ZM75.2935 163.404C75.5602 163.746 75.7575 164.14 75.8855 164.588C76.0242 165.036 76.0935 165.447 76.0935 165.82C76.0935 166.194 76.0722 166.53 76.0295 166.828H71.0055C71.0268 167.458 71.1815 167.97 71.4695 168.364C71.7575 168.759 72.1948 168.956 72.7815 168.956C73.5602 168.956 74.0242 168.615 74.1735 167.932H76.0775C75.9495 168.711 75.5922 169.324 75.0055 169.772C74.3975 170.242 73.6562 170.476 72.7815 170.476C71.7575 170.476 70.8988 170.103 70.2055 169.356C69.4908 168.578 69.1335 167.58 69.1335 166.364C69.1335 165.116 69.4908 164.114 70.2055 163.356C70.8882 162.631 71.7468 162.268 72.7815 162.268C73.8588 162.268 74.6962 162.647 75.2935 163.404ZM72.7975 163.772C72.2642 163.772 71.8482 163.948 71.5495 164.3C71.2508 164.642 71.0748 165.084 71.0215 165.628H74.3335C74.3335 164.786 74.0668 164.22 73.5335 163.932C73.3308 163.826 73.0855 163.772 72.7975 163.772ZM79.2339 162.476L81.0099 168.38L82.8019 162.476H84.9779L82.0819 170.252H79.9539L77.0579 162.476H79.2339ZM92.0748 163.404C92.3414 163.746 92.5388 164.14 92.6668 164.588C92.8054 165.036 92.8748 165.447 92.8748 165.82C92.8748 166.194 92.8534 166.53 92.8108 166.828H87.7868C87.8081 167.458 87.9628 167.97 88.2508 168.364C88.5388 168.759 88.9761 168.956 89.5628 168.956C90.3414 168.956 90.8054 168.615 90.9548 167.932H92.8588C92.7308 168.711 92.3734 169.324 91.7868 169.772C91.1788 170.242 90.4374 170.476 89.5628 170.476C88.5388 170.476 87.6801 170.103 86.9868 169.356C86.2721 168.578 85.9148 167.58 85.9148 166.364C85.9148 165.116 86.2721 164.114 86.9868 163.356C87.6694 162.631 88.5281 162.268 89.5628 162.268C90.6401 162.268 91.4774 162.647 92.0748 163.404ZM89.5788 163.772C89.0454 163.772 88.6294 163.948 88.3308 164.3C88.0321 164.642 87.8561 165.084 87.8028 165.628H91.1148C91.1148 164.786 90.8481 164.22 90.3148 163.932C90.1121 163.826 89.8668 163.772 89.5788 163.772ZM95.1351 159.276H97.0231V170.252H95.1351V159.276ZM103.051 162.268C103.573 162.268 104.064 162.354 104.523 162.524C104.981 162.684 105.376 162.935 105.707 163.276C106.443 164.023 106.811 165.058 106.811 166.38C106.811 167.682 106.443 168.706 105.707 169.452C105.045 170.135 104.16 170.476 103.051 170.476C101.941 170.476 101.045 170.135 100.363 169.452C99.6265 168.716 99.2585 167.692 99.2585 166.38C99.2585 165.047 99.6265 164.012 100.363 163.276C101.035 162.604 101.931 162.268 103.051 162.268ZM104.923 166.364C104.923 165.543 104.763 164.93 104.443 164.524C104.123 164.108 103.675 163.9 103.099 163.9C102.533 163.9 102.069 164.108 101.707 164.524C101.344 164.93 101.163 165.543 101.163 166.364C101.163 167.186 101.323 167.804 101.643 168.22C101.973 168.626 102.421 168.828 102.987 168.828C103.552 168.828 104.016 168.626 104.379 168.22C104.741 167.804 104.923 167.186 104.923 166.364ZM110.785 163.532C111.276 162.69 112.022 162.268 113.025 162.268C113.985 162.268 114.806 162.631 115.489 163.356C116.214 164.124 116.577 165.127 116.577 166.364C116.577 167.612 116.209 168.62 115.473 169.388C114.79 170.114 113.974 170.476 113.025 170.476C112.076 170.476 111.382 170.194 110.945 169.628V174.044H109.057V162.476H110.609L110.785 163.532ZM112.689 168.764C112.913 168.764 113.142 168.716 113.377 168.62C113.622 168.524 113.841 168.375 114.033 168.172C114.46 167.724 114.673 167.127 114.673 166.38C114.673 165.623 114.486 165.031 114.113 164.604C113.75 164.178 113.302 163.964 112.769 163.964C112.246 163.964 111.814 164.119 111.473 164.428C111.142 164.727 110.966 165.159 110.945 165.724V167.116C110.945 167.618 111.121 168.023 111.473 168.332C111.804 168.62 112.209 168.764 112.689 168.764ZM133.606 164.748C133.136 166.082 132.55 167.186 131.846 168.06L132.118 168.3C132.31 168.471 132.491 168.599 132.662 168.684C132.832 168.77 133.04 168.812 133.286 168.812C133.542 168.812 133.76 168.722 133.942 168.54C134.123 168.348 134.224 168.044 134.246 167.628H135.958C135.936 168.503 135.718 169.196 135.302 169.708C134.896 170.22 134.288 170.476 133.478 170.476C132.966 170.476 132.491 170.375 132.054 170.172C131.627 169.97 131.174 169.65 130.694 169.212C129.627 170.055 128.443 170.476 127.142 170.476C125.947 170.476 124.934 170.172 124.102 169.564C123.27 168.946 122.854 168.188 122.854 167.292C122.854 165.906 123.83 165.058 125.782 164.748L125.526 164.508C124.758 163.815 124.374 163.052 124.374 162.22C124.374 161.484 124.678 160.887 125.286 160.428C125.936 159.938 126.8 159.692 127.878 159.692C128.912 159.692 129.755 159.938 130.406 160.428C131.003 160.887 131.302 161.463 131.302 162.156C131.302 162.85 131.078 163.436 130.63 163.916C130.192 164.386 129.52 164.791 128.614 165.132L130.646 166.972C131.296 166.194 131.856 165.218 132.326 164.044L133.606 164.748ZM126.854 165.708C125.574 165.89 124.934 166.38 124.934 167.18C124.934 167.628 125.126 168.007 125.51 168.316C125.904 168.615 126.454 168.764 127.158 168.764C127.968 168.764 128.731 168.53 129.446 168.06L126.854 165.708ZM127.574 164.188C128.15 163.943 128.566 163.682 128.822 163.404C129.088 163.127 129.222 162.818 129.222 162.476C129.222 162.124 129.099 161.847 128.854 161.644C128.608 161.431 128.267 161.324 127.83 161.324C127.392 161.324 127.051 161.442 126.806 161.676C126.571 161.9 126.454 162.172 126.454 162.492C126.454 162.962 126.704 163.415 127.206 163.852L127.574 164.188ZM140.962 159.868H149.282V161.5H146.066V170.252H144.178V161.5H140.962V159.868ZM154.965 163.404C155.232 163.746 155.429 164.14 155.557 164.588C155.696 165.036 155.765 165.447 155.765 165.82C155.765 166.194 155.744 166.53 155.701 166.828H150.677C150.699 167.458 150.853 167.97 151.141 168.364C151.429 168.759 151.867 168.956 152.453 168.956C153.232 168.956 153.696 168.615 153.845 167.932H155.749C155.621 168.711 155.264 169.324 154.677 169.772C154.069 170.242 153.328 170.476 152.453 170.476C151.429 170.476 150.571 170.103 149.877 169.356C149.163 168.578 148.805 167.58 148.805 166.364C148.805 165.116 149.163 164.114 149.877 163.356C150.56 162.631 151.419 162.268 152.453 162.268C153.531 162.268 154.368 162.647 154.965 163.404ZM152.469 163.772C151.936 163.772 151.52 163.948 151.221 164.3C150.923 164.642 150.747 165.084 150.693 165.628H154.005C154.005 164.786 153.739 164.22 153.205 163.932C153.003 163.826 152.757 163.772 152.469 163.772ZM159.082 167.884C159.103 168.62 159.642 168.988 160.698 168.988C161.103 168.988 161.434 168.903 161.69 168.732C161.956 168.551 162.09 168.343 162.09 168.108C162.09 167.874 162.01 167.692 161.85 167.564C161.69 167.436 161.439 167.319 161.098 167.212L159.402 166.604C158.143 166.167 157.514 165.452 157.514 164.46C157.514 163.799 157.807 163.271 158.394 162.876C158.991 162.471 159.786 162.268 160.778 162.268C161.78 162.268 162.548 162.487 163.082 162.924C163.626 163.362 163.908 163.911 163.93 164.572H162.154C162.132 164.316 162.01 164.114 161.786 163.964C161.562 163.815 161.242 163.74 160.826 163.74C160.41 163.74 160.084 163.826 159.85 163.996C159.626 164.156 159.514 164.343 159.514 164.556C159.514 164.93 159.828 165.207 160.458 165.388L162.298 166.076C162.906 166.279 163.37 166.54 163.69 166.86C164.02 167.17 164.186 167.575 164.186 168.076C164.186 168.716 163.882 169.271 163.274 169.74C162.644 170.231 161.812 170.476 160.778 170.476C159.743 170.476 158.911 170.252 158.282 169.804C157.652 169.346 157.332 168.706 157.322 167.884H159.082ZM170.847 170.06C170.143 170.338 169.589 170.476 169.183 170.476C168.778 170.476 168.421 170.428 168.111 170.332C167.813 170.236 167.546 170.092 167.311 169.9C166.821 169.463 166.575 168.86 166.575 168.092V163.74H165.487V162.476H166.575V160.428H168.463V162.476H170.575V163.74H168.463V168.028C168.463 168.668 168.767 168.988 169.375 168.988C169.685 168.988 170.085 168.903 170.575 168.732L170.847 170.06Z" fill="white"/>
<path d="M129.451 59.3684L137.946 67.5429" stroke="white" stroke-linecap="round"/>
<rect x="91.2544" y="44.4263" width="33.0933" height="54.7892" rx="1.5" stroke="white"/>
<path d="M91.2319 89.0085H124.48" stroke="white" stroke-linecap="round"/>
<rect x="98.9302" y="50.8027" width="17.7415" height="13.4367" stroke="white"/>
<rect x="98.9302" y="68.0432" width="17.7415" height="3.9216" stroke="white"/>
<rect x="98.9302" y="74.9131" width="17.7415" height="3.9216" stroke="white"/>
<circle cx="118.603" cy="48.8416" r="10.2466" fill="#8FA0A1" stroke="white"/>
<defs>
<linearGradient id="paint0_linear" x1="111.098" y1="0.152344" x2="111.098" y2="220.684" gradientUnits="userSpaceOnUse">
<stop stop-color="#93708C"/>
<stop offset="1" stop-color="#8EA7A4"/>
</linearGradient>
</defs>
</svg>
